<?xml version="1.0" encoding="utf-8"?>
<!-- Generator: Adobe Illustrator 12.0.0, SVG Export Plug-In  -->
<!DOCTYPE svg PUBLIC "-//W3C//DTD SVG 1.1//EN" "http://www.w3.org/Graphics/SVG/1.1/DTD/svg11.dtd" [
	<!ENTITY ns_flows "http://ns.adobe.com/Flows/1.0/">
	<!ENTITY ns_svg "http://www.w3.org/2000/svg">
	<!ENTITY ns_xlink "http://www.w3.org/1999/xlink">
]>
<svg  version="1.1" xmlns="&ns_svg;" xmlns:xlink="&ns_xlink;" xmlns:a="http://ns.adobe.com/AdobeSVGViewerExtensions/3.0/"
	 width="33" height="38" viewBox="-0.102 -0.916 33 38" enable-background="new -0.102 -0.916 33 38" xml:space="preserve">
<defs>
</defs>
<path fill="#FFFFFF" d="M18.682,36.14h7.359c1.488,0,2.694-1.206,2.694-2.694V18.478H18.682V36.14z"/>
<path fill="#FFFFFF" d="M3.465,33.445c0,1.488,1.206,2.694,2.694,2.694h7.359V18.478H3.465V33.445z"/>
<path fill="#FFFFFF" d="M30.743,8.53h-4.935c0.006-0.002,0.015-0.004,0.021-0.007c2.307-0.669,3.633-3.081,2.963-5.387
	C28.241,1.235,26.505,0,24.62,0c-0.401,0-0.81,0.056-1.214,0.174C21.804,0.639,18.03,2.713,16.1,4.709
	c-1.93-1.996-5.704-4.07-7.306-4.535C8.389,0.056,7.981,0,7.58,0C5.695,0,3.958,1.235,3.406,3.137
	C2.737,5.442,4.063,7.854,6.369,8.523C6.376,8.526,6.384,8.528,6.392,8.53H1.457C0.652,8.53,0,9.182,0,9.986v3.638
	c0,0.805,0.652,1.457,1.457,1.457h12.062V8.53h5.163v6.551h12.062c0.805,0,1.457-0.652,1.457-1.457V9.986
	C32.199,9.182,31.548,8.53,30.743,8.53z M20.201,4.575c1.68-1.109,3.287-1.855,3.893-2.031c0.173-0.051,0.35-0.076,0.526-0.076
	c0.829,0,1.571,0.559,1.804,1.356c0.14,0.482,0.084,0.99-0.158,1.431c-0.242,0.439-0.641,0.759-1.123,0.899
	c-0.516,0.149-1.99,0.372-3.936,0.372c-1.453,0-2.486-0.126-3.169-0.269C18.484,5.826,19.174,5.255,20.201,4.575z M5.935,5.255
	c-0.242-0.44-0.298-0.948-0.158-1.431C6.008,3.026,6.75,2.468,7.58,2.468h0c0.176,0,0.353,0.025,0.525,0.076
	c0.606,0.176,2.214,0.922,3.893,2.031c1.027,0.68,1.718,1.251,2.164,1.683c-0.683,0.143-1.716,0.269-3.168,0.269
	c-1.946,0-3.42-0.223-3.936-0.372C6.575,6.014,6.176,5.694,5.935,5.255z"/>
</svg>
