<?xml version="1.0" encoding="utf-8"?>
<!-- Generator: Adobe Illustrator 12.0.0, SVG Export Plug-In  -->
<!DOCTYPE svg PUBLIC "-//W3C//DTD SVG 1.1//EN" "http://www.w3.org/Graphics/SVG/1.1/DTD/svg11.dtd" [
	<!ENTITY ns_flows "http://ns.adobe.com/Flows/1.0/">
	<!ENTITY ns_svg "http://www.w3.org/2000/svg">
	<!ENTITY ns_xlink "http://www.w3.org/1999/xlink">
]>
<svg  version="1.1" xmlns="&ns_svg;" xmlns:xlink="&ns_xlink;" xmlns:a="http://ns.adobe.com/AdobeSVGViewerExtensions/3.0/"
	 width="30" height="27" viewBox="-0.1 -0.05 30 27" enable-background="new -0.1 -0.05 30 27" xml:space="preserve">
<defs>
</defs>
<path d="M0,17.7C0,8.2,8.7,1.9,10.5,0.8C11,0.5,11.6,0,12.3,0c0.7,0,1,0.3,1,0.8c0,0.5,0,0.7-0.8,1.3c-2.1,2-6.3,6.4-6.3,11.3
	c0,1.3,0.8,2.5,1.5,2.8c0.9,0.4,5.1,1.4,5.1,5.8c0,2.3-1.8,4.3-5,4.3C4.7,26.3,0,23.3,0,17.7z M16.4,17.7c0-9.5,8.7-15.8,10.5-16.9
	C27.4,0.5,28,0,28.8,0c0.7,0,1,0.3,1,0.8c0,0.5,0,0.7-0.8,1.3c-2.2,2-6.4,6.4-6.4,11.3c0,1.3,0.8,2.5,1.5,2.8
	c0.9,0.4,5.2,1.4,5.2,5.8c0,2.3-1.9,4.3-5.1,4.3C21.2,26.3,16.4,23.3,16.4,17.7z"/>
</svg>
