<?xml version="1.0" encoding="utf-8"?>
<!-- Generator: Adobe Illustrator 12.0.0, SVG Export Plug-In  -->
<!DOCTYPE svg PUBLIC "-//W3C//DTD SVG 1.1//EN" "http://www.w3.org/Graphics/SVG/1.1/DTD/svg11.dtd" [
	<!ENTITY ns_flows "http://ns.adobe.com/Flows/1.0/">
	<!ENTITY ns_svg "http://www.w3.org/2000/svg">
	<!ENTITY ns_xlink "http://www.w3.org/1999/xlink">
]>
<svg  version="1.1" xmlns="&ns_svg;" xmlns:xlink="&ns_xlink;" xmlns:a="http://ns.adobe.com/AdobeSVGViewerExtensions/3.0/"
	 width="60" height="51" viewBox="-0.2 -0.8 60 51" enable-background="new -0.2 -0.8 60 51" xml:space="preserve">
<defs>
</defs>
<path fill="#231F20" d="M26.8,4.8C20.2,11,15,19.8,15,27.6c0,3.2,0.4,4.8,1.4,6.6l7.8,4V41L9,49.8H6.6c-2.2-1-6.4-6.2-6.6-14.4
	C-0.2,23.2,8,9.8,23.8,0L26.8,4.8z M59.8,4.8C53.2,11,48,19.8,48,27.6c0,3.2,0.4,4.8,1.4,6.6l7.6,4V41l-15,8.8h-2.4
	c-2.2-1-6.4-7-6.6-15.2C32.6,22.4,41,9.8,56.6,0L59.8,4.8z"/>
</svg>
