<?xml version="1.0" encoding="utf-8"?>
<!-- Generator: Adobe Illustrator 16.0.0, SVG Export Plug-In . SVG Version: 6.00 Build 0)  -->
<!DOCTYPE svg PUBLIC "-//W3C//DTD SVG 1.1//EN" "http://www.w3.org/Graphics/SVG/1.1/DTD/svg11.dtd">
<svg version="1.1" id="Layer_1" xmlns="http://www.w3.org/2000/svg" xmlns:xlink="http://www.w3.org/1999/xlink" x="0px" y="0px"
	 width="12.5px" height="21.3px" viewBox="0 0 12.5 21.3" enable-background="new 0 0 12.5 21.3" xml:space="preserve">
<g>
	<path fill="#000" d="M0,21.3V0h12.5v21.3H0z M9.3,6.9H3.1C2.9,7,2.7,7.2,2.5,7.3c0.1,0,0.4,0.2,0.5,0.3h6.5l0.4-0.3L9.3,6.9z
		 M9.4,13.7H3c-0.2,0.1-0.3,0.2-0.5,0.3c0.2,0.1,0.4,0.3,0.6,0.4h6.1c0.2-0.1,0.4-0.3,0.6-0.4C9.7,13.9,9.6,13.8,9.4,13.7z M3.3,1.3
		c0.2,0.2,0.4,0.4,0.5,0.6h4.7L9,1.3H3.3z M8.5,19.4H3.8c-0.1,0.2-0.3,0.5-0.5,0.7H9C8.9,19.8,8.7,19.6,8.5,19.4z M3.4,8
		c0.1,0.1,0.5,0.6,0.5,0.7h4.5C8.5,8.5,8.8,8.3,9,8H3.4z M8.4,12.6H3.9c0,0.1-0.5,0.6-0.5,0.7H9C8.8,13.1,8.5,12.8,8.4,12.6z
		 M8.4,5.7H4C3.8,6,3.7,6.2,3.5,6.4h5.3C8.7,6.3,8.4,5.9,8.4,5.7z M3.5,14.8C3.7,15,3.8,15.4,4,15.6h4.4c0.1-0.1,0.4-0.6,0.5-0.7
		H3.5z M4.1,2.3L4.3,3H8l0.3-0.8H4.1z M8,18.3H4.3c0,0.3-0.1,0.5-0.2,0.8h4.2C8.2,18.8,8.1,18.5,8,18.3z M4.1,9.1
		c0.1,0.2,0.2,0.5,0.2,0.7H8l0.2-0.7H4.1z M8,11.4H4.3c0,0.2-0.1,0.5-0.2,0.8h4.1L8,11.4z M8,4.6H4.4c0,0.3-0.1,0.5-0.2,0.8h4
		C8.1,5.1,8,4.8,8,4.6z M4.2,16c0.1,0.2,0.1,0.5,0.2,0.7H8c0.1-0.2,0.1-0.5,0.2-0.7H4.2z M4.4,3.4c0.1,0.1,0.1,0.2,0.1,0.4v0.4h3.5
		V3.8c0-0.1,0-0.3,0-0.4H4.4z M7.9,10.3H4.4c0,0.1,0.1,0.2,0.1,0.4c0,0.1,0,0.3-0.1,0.4h3.6V10.3z M7.9,17.1H4.4v0.3
		c0,0.2,0,0.3-0.1,0.4H8C7.9,17.6,7.9,17.4,7.9,17.1z"/>
</g>
</svg>
