<?xml version="1.0" encoding="utf-8"?>
<!-- Generator: Adobe Illustrator 16.0.0, SVG Export Plug-In . SVG Version: 6.00 Build 0)  -->
<!DOCTYPE svg PUBLIC "-//W3C//DTD SVG 1.1//EN" "http://www.w3.org/Graphics/SVG/1.1/DTD/svg11.dtd">
<svg version="1.1" id="Layer_1" xmlns="http://www.w3.org/2000/svg" xmlns:xlink="http://www.w3.org/1999/xlink" x="0px" y="0px"
	 width="40px" height="40px" viewBox="0 0 40 40" enable-background="new 0 0 40 40" xml:space="preserve">
<path fill="#030606" d="M13.2,41.3v-6.199H1.9L13.6-1.3h2.2v42.6H13.2z M13.2,7.801l-4.2,13h4.2V7.801z M17,41.3V-1.3h13.1v42.6H17z
	 M24.8,2.801L23.7,1.2l-1.1,1.601l-1.7,0.5L22,4.9v1.9l1.7-0.7l1.8,0.7V4.9l1.1-1.6L24.8,2.801z M24.8,13.4l-1.1-1.7l-1.1,1.7
	l-1.7,0.5l1.1,1.601v1.8l1.7-0.601l1.8,0.601v-1.9l1.1-1.6L24.8,13.4z M24.8,24.001L23.7,22.4l-1.1,1.601l-1.7,0.5l1.1,1.6v1.9
	l1.7-0.601l1.8,0.601v-1.9l1.1-1.6L24.8,24.001z M24.8,34.601l-1.1-1.6l-1.1,1.6l-1.7,0.5l1.1,1.6v1.9l1.7-0.701l1.8,0.701v-1.9
	l1.1-1.6L24.8,34.601z M33.8,35.001V41.3h-2.5V-1.3h2.5v22.101h4.3v14.201H33.8z"/>
</svg>
