<?xml version="1.0" encoding="utf-8"?>
<!-- Generator: Adobe Illustrator 16.0.0, SVG Export Plug-In . SVG Version: 6.00 Build 0)  -->
<!DOCTYPE svg PUBLIC "-//W3C//DTD SVG 1.1//EN" "http://www.w3.org/Graphics/SVG/1.1/DTD/svg11.dtd">
<svg version="1.1" id="Layer_1" xmlns="http://www.w3.org/2000/svg" xmlns:xlink="http://www.w3.org/1999/xlink" x="0px" y="0px"
	 width="16.1px" height="21.2px" viewBox="0 0 16.1 21.2" enable-background="new 0 0 16.1 21.2" xml:space="preserve">
<g>
	<path fill="#000" d="M3.3,0.8L0.7,11L0,10.3L2.7,0h8.5l0.8,0.8H3.3z M9.4,21.2c-1.9,0-3.7-0.8-4.9-2.2c-0.5-0.6-1-1.3-1.6-1.9
		c-1.5-1.7-2.1-2.4-2.8-4.5L0,12.1h2l2.6-9.9h8.8l0.7,0.8H5.2l-2.4,9.1h0.4l2.3-8.8h8.8v5.7h-1.2c1.8,1.3,2.9,3.2,2.9,5.5
		C16.1,18.3,13.1,21.2,9.4,21.2z M4.2,1.9L1.6,12L1,11.4L3.6,1.1h8.6L13,1.9H4.2z M1,12.9c0,0.1,0.1,0.2,0.1,0.3h1.8L3,12.9H1z
		 M8.6,13.7C8.3,13.9,8,14,7.6,14H1.9c0,0.1,0,0.1,0.1,0.1l0,0.2h6.5c0.4,0,0.7-0.3,0.8-0.6H8.6z M10.1,14c-0.2,0.6-0.9,1.1-1.6,1.1
		H2.9L3,15.4h6.5c0.5,0,0.9-0.4,0.9-0.9C10.3,14.4,10.3,14.1,10.1,14z M11.5,8.7H14V3.8H5.8l-2.5,9.6h6.2c0.7,0,1.3,0.5,1.3,1.3
		s-0.6,1.3-1.3,1.3H3.3c0.6,2.9,3.1,5,6.1,5c3.5,0,6.3-2.8,6.3-6.3C15.7,11.9,14,9.6,11.5,8.7z"/>
</g>
</svg>
