<?xml version="1.0" encoding="iso-8859-1"?>
<!-- Generator: Adobe Illustrator 18.1.1, SVG Export Plug-In . SVG Version: 6.00 Build 0)  -->
<svg version="1.1" id="Capa_1" xmlns="http://www.w3.org/2000/svg" xmlns:xlink="http://www.w3.org/1999/xlink" x="0px" y="0px"
	 viewBox="0 0 309.51 309.51" style="enable-background:new 0 0 309.51 309.51;" xml:space="preserve">
<g>
	<g id="Layer_5_31_">
		<g>
			<path d="M99.177,276.448V175.913c0-2.383-1.582-3.724-2.302-4.175c-1.638-1.026-3.021-1.993-4.052-2.861
				c-4.252-3.578-7.789-7.87-9.359-14.425c-2.78-11.602,3.309-23.667,14.744-27.062c0.174-0.052,0.969-0.271,0.969-1.937V44.048
				c0-9.165,4.141-17.376,10.646-22.875c0.654-0.555,1.666-1.632-1.039-0.665l-95.8,28.445c-9.573,2.842-15.078,13-12.236,22.573
				l66.151,222.785c2.843,9.573,13,15.079,22.573,12.238l15.854-4.708c5.236-1.835,1.128-5.833,1.693-5.214
				C102.151,291.302,99.177,284.218,99.177,276.448z M55.95,74.698c-1.432,4.742-9.86,17.511-12.295,18.234
				c-2.383,0.708-16.527-5.396-20.286-8.561c-1.882-1.583-3.448-3.484-4.144-6.385c-1.23-5.135,1.664-10.538,6.727-12.041
				c5.204-1.545,9.883,3.108,10.538,2.914c0.748-0.222,2.259-6.714,7.239-8.192c5.063-1.503,10.436,1.445,12.207,6.418
				C56.938,69.897,56.663,72.335,55.95,74.698z"/>
			<path d="M187.159,14.092c3.253,0,2.324-1.439,1.97-2.116c-3.937-7.531-12.81-11.519-21.245-9.014L133.945,13.04
				c0,0-3.183,1.052,0.448,1.052C148.312,14.092,187.159,14.092,187.159,14.092z"/>
			<path d="M292.455,37.536H140.67c-9.381,0-17.056,7.675-17.056,17.056v214.04c0,9.38,7.675,17.055,17.056,17.055h151.785
				c9.38,0,17.055-7.675,17.055-18.762V54.592C309.51,46.918,301.835,37.536,292.455,37.536z M172.477,72.206
				c-2.557,3.887-13.561,13.131-15.946,13.131c-2.336,0-13.44-9.277-15.98-13.131c-1.271-1.93-2.173-4.059-2.022-6.858
				c0.265-4.953,4.315-9.044,9.275-9.044c5.101,0,8.069,5.441,8.711,5.441c0.732,0,3.829-5.441,8.709-5.441
				c4.963,0,9.012,4.091,9.277,9.044C174.651,68.147,173.751,70.268,172.477,72.206z M252.625,165.168
				c-5.774,8.783-30.636,29.667-36.025,29.667c-5.276,0-30.364-20.96-36.101-29.667c-2.872-4.359-4.91-9.169-4.573-15.492
				c0.6-11.19,9.751-20.434,20.958-20.434c11.522,0,18.231,12.293,19.68,12.293c1.654,0,8.651-12.293,19.678-12.293
				c11.209,0,20.359,9.244,20.957,20.434C257.536,155.998,255.505,160.79,252.625,165.168z M294.598,258.322
				c-0.261,4.885-4.256,8.921-9.148,8.921c-5.029,0-7.958-5.368-8.591-5.368c-0.723,0-3.776,5.368-8.59,5.368
				c-4.894,0-8.888-4.036-9.149-8.921c-0.147-2.76,0.74-4.851,1.996-6.763c2.521-3.834,13.374-12.951,15.728-12.951
				c2.303,0,13.254,9.149,15.759,12.951C293.857,253.463,294.746,255.563,294.598,258.322z"/>
		</g>
	</g>
</g>
<g>
</g>
<g>
</g>
<g>
</g>
<g>
</g>
<g>
</g>
<g>
</g>
<g>
</g>
<g>
</g>
<g>
</g>
<g>
</g>
<g>
</g>
<g>
</g>
<g>
</g>
<g>
</g>
<g>
</g>
</svg>
