<?xml version="1.0" encoding="iso-8859-1"?>
<!-- Generator: Adobe Illustrator 16.0.0, SVG Export Plug-In . SVG Version: 6.00 Build 0)  -->
<!DOCTYPE svg PUBLIC "-//W3C//DTD SVG 1.1//EN" "http://www.w3.org/Graphics/SVG/1.1/DTD/svg11.dtd">
<svg version="1.1" id="Capa_1" xmlns="http://www.w3.org/2000/svg" xmlns:xlink="http://www.w3.org/1999/xlink" x="0px" y="0px"
	 width="332.39px" height="332.39px" viewBox="0 0 332.39 332.39" style="enable-background:new 0 0 332.39 332.39;"
	 xml:space="preserve">
<g>
	<g>
		<path d="M261.099,40.574l28.181,22.75l3.776,3.054l-3.048,3.778L104.419,300.059l4.941,5.084l83.795-81.349
			c7.488-14.027,19.248-25.407,33.502-32.521L332.39,88.651l-58.614-60.389L261.099,40.574z"/>
		<path d="M101.007,296.547L286.227,67.104L257.586,43.98l-36.84-29.737l-12.467,15.438l27.781,16.914
			c2.294,1.397,3.016,4.385,1.624,6.679L222.766,77.78L93.976,289.29l-9.013,14.808l6.025,4.862L101.007,296.547z"/>
		<polygon points="208.85,91.286 233.534,50.749 205.205,33.494 203.111,32.221 201.013,30.947 161.66,6.982 0,272.457 
			71.88,316.227 78.59,305.205 79.866,303.112 81.14,301.019 90.477,285.693 		"/>
		<path d="M260.819,243.738c-2.632,0-4.372,1.303-5.216,3.913c-0.849,2.61-1.276,6.629-1.276,12.05
			c0,5.179,0.428,9.139,1.276,11.881c0.844,2.742,2.584,4.113,5.216,4.113c2.631,0,4.351-1.371,5.173-4.113
			c0.812-2.742,1.234-6.702,1.234-11.881c0-5.421-0.412-9.445-1.234-12.05C265.17,245.046,263.45,243.738,260.819,243.738z"/>
		<path d="M296.198,243.738c-2.626,0-4.366,1.303-5.215,3.913c-0.85,2.61-1.271,6.629-1.271,12.05c0,5.179,0.422,9.139,1.271,11.881
			c0.849,2.742,2.589,4.113,5.215,4.113c2.632,0,4.356-1.371,5.179-4.113c0.812-2.742,1.229-6.702,1.229-11.881
			c0-5.421-0.411-9.445-1.229-12.05C300.555,245.046,298.83,243.738,296.198,243.738z"/>
		<path d="M260.666,194.004c-36.281,0-65.696,29.416-65.696,65.702c0,36.281,29.41,65.702,65.696,65.702
			c36.292,0,65.707-29.41,65.707-65.702C326.362,223.42,296.947,194.004,260.666,194.004z M236.725,278.058
			c-2.674,3.275-6.666,4.915-11.981,4.915c-4.282,0-7.794-1.149-10.547-3.454c-2.753-2.299-4.282-5.563-4.599-9.782h8.828
			c0.348,1.925,1.018,3.412,2.015,4.461c0.991,1.039,2.437,1.572,4.34,1.572c2.188,0,3.854-0.775,5.005-2.32
			c1.144-1.546,1.719-3.48,1.719-5.827c0-2.294-0.538-4.235-1.613-5.817c-1.071-1.582-2.742-2.378-5.021-2.378
			c-1.076,0-2.004,0.132-2.79,0.406c-1.387,0.495-2.426,1.418-3.132,2.763l-7.937-0.374l3.164-24.875h24.779v7.515h-18.394
			l-1.613,9.846c1.365-0.892,2.431-1.481,3.195-1.771c1.281-0.475,2.843-0.712,4.683-0.712c3.718,0,6.972,1.249,9.74,3.76
			c2.773,2.499,4.155,6.148,4.155,10.927C240.722,271.076,239.393,274.788,236.725,278.058z M272.89,276.887
			c-2.31,4.014-6.328,6.022-12.065,6.022s-9.756-2.009-12.065-6.022c-2.31-4.018-3.465-9.745-3.465-17.181
			c0-7.43,1.155-13.162,3.465-17.212c2.31-4.04,6.328-6.055,12.065-6.055s9.756,2.015,12.065,6.055
			c2.31,4.039,3.465,9.776,3.465,17.212C276.35,267.137,275.194,272.858,272.89,276.887z M311.734,259.701
			c0,7.436-1.16,13.157-3.471,17.176c-2.31,4.018-6.328,6.027-12.065,6.027c-5.732,0-9.756-2.01-12.065-6.027
			c-2.31-4.019-3.459-9.74-3.459-17.176c0-7.431,1.149-13.168,3.459-17.207c2.31-4.04,6.328-6.064,12.065-6.064
			s9.756,2.024,12.065,6.064C310.574,246.533,311.734,252.271,311.734,259.701z"/>
	</g>
</g>
<g>
</g>
<g>
</g>
<g>
</g>
<g>
</g>
<g>
</g>
<g>
</g>
<g>
</g>
<g>
</g>
<g>
</g>
<g>
</g>
<g>
</g>
<g>
</g>
<g>
</g>
<g>
</g>
<g>
</g>
</svg>
