<?xml version="1.0" encoding="utf-8"?>
<!-- Generator: Adobe Illustrator 12.0.0, SVG Export Plug-In . SVG Version: 6.00 Build 51448)  -->
<!DOCTYPE svg PUBLIC "-//W3C//DTD SVG 1.1//EN" "http://www.w3.org/Graphics/SVG/1.1/DTD/svg11.dtd" [
	<!ENTITY ns_svg "http://www.w3.org/2000/svg">
	<!ENTITY ns_xlink "http://www.w3.org/1999/xlink">
]>
<svg  version="1.1" id="Layer_1" xmlns="&ns_svg;" xmlns:xlink="&ns_xlink;" width="113" height="112" viewBox="-0.82 -0.9 113 112"
	 overflow="visible" enable-background="new -0.82 -0.9 113 112" xml:space="preserve">
<path d="M48.76,69.84c0,1.149,0,2.09,0.06,2.6c0.04,0.35,0.11,0.609,0.47,0.66c0.17,0.029,0.43,0.05,0.54,0.05
	c0.07,0,0.1,0.04,0.1,0.07c0,0.06-0.06,0.1-0.19,0.1c-0.66,0-1.41-0.04-1.47-0.04s-0.81,0.04-1.17,0.04c-0.13,0-0.19-0.021-0.19-0.1
	c0-0.03,0.02-0.07,0.1-0.07c0.11,0,0.25-0.021,0.36-0.05c0.24-0.051,0.3-0.311,0.35-0.66c0.06-0.5,0.06-1.45,0.06-2.6v-5.07
	l-1.77,0.02c-0.74,0.01-1.03,0.101-1.22,0.381c-0.13,0.199-0.17,0.289-0.21,0.369c-0.04,0.101-0.07,0.121-0.12,0.121
	c-0.04,0-0.06-0.041-0.06-0.111c0-0.119,0.24-1.149,0.26-1.25c0.02-0.069,0.07-0.229,0.12-0.229c0.08,0,0.2,0.12,0.53,0.14
	c0.35,0.041,0.8,0.061,0.95,0.061h4.49c0.38,0,0.66-0.02,0.85-0.061c0.18-0.02,0.29-0.06,0.33-0.06c0.06,0,0.06,0.07,0.06,0.14
	c0,0.36-0.04,1.19-0.04,1.32c0,0.11-0.04,0.16-0.08,0.16c-0.06,0-0.08-0.04-0.09-0.2l-0.01-0.13c-0.04-0.359-0.32-0.641-1.47-0.66
	l-1.51-0.02v5.08H48.76z"/>
<path d="M60.4,70.35c0,0.98,0.011,1.79,0.06,2.199c0.041,0.301,0.061,0.49,0.381,0.541c0.14,0.029,0.38,0.05,0.47,0.05
	c0.069,0,0.09,0.05,0.09,0.08c0,0.05-0.06,0.079-0.18,0.079c-0.58,0-1.25-0.039-1.31-0.039c-0.051,0-0.73,0.039-1.041,0.039
	c-0.119,0-0.17-0.02-0.17-0.079c0-0.04,0.021-0.08,0.08-0.08c0.1,0,0.221-0.021,0.311-0.05c0.22-0.051,0.25-0.25,0.289-0.551
	c0.051-0.42,0.051-1.18,0.051-2.17v-1.02c0-0.051-0.02-0.061-0.061-0.061h-4.39c-0.04,0-0.06,0.01-0.06,0.061v1.02
	c0,0.98,0,1.76,0.05,2.18c0.04,0.301,0.07,0.49,0.38,0.541c0.16,0.029,0.38,0.05,0.48,0.05c0.06,0,0.08,0.05,0.08,0.08
	c0,0.05-0.05,0.079-0.17,0.079c-0.59,0-1.26-0.039-1.31-0.039c-0.06,0-0.73,0.039-1.05,0.039c-0.11,0-0.17-0.02-0.17-0.079
	c0-0.04,0.02-0.08,0.08-0.08c0.09,0,0.23-0.021,0.32-0.05c0.2-0.051,0.23-0.24,0.28-0.541c0.06-0.42,0.06-1.219,0.06-2.199v-1.79
	c0-1.58,0-1.87-0.02-2.19c-0.02-0.35-0.08-0.52-0.43-0.56c-0.08-0.011-0.26-0.021-0.36-0.021c-0.04,0-0.08-0.05-0.08-0.08
	c0-0.06,0.05-0.08,0.17-0.08c0.48,0,1.15,0.021,1.21,0.021c0.05,0,0.72-0.021,1.04-0.021c0.12,0,0.17,0.021,0.17,0.08
	c0,0.041-0.05,0.08-0.08,0.08c-0.07,0-0.14,0-0.26,0.021c-0.29,0.06-0.35,0.2-0.37,0.56c-0.01,0.32-0.01,0.631-0.01,2.221v0.209
	c0,0.061,0.02,0.061,0.06,0.061h4.389c0.041,0,0.061,0,0.061-0.061V68.59c0-1.58-0.01-1.891-0.02-2.221
	c-0.021-0.35-0.07-0.52-0.42-0.56c-0.08-0.011-0.26-0.021-0.36-0.021c-0.05,0-0.08-0.05-0.08-0.08c0-0.06,0.05-0.08,0.17-0.08
	c0.47,0,1.149,0.021,1.2,0.021c0.061,0,0.73-0.021,1.04-0.021c0.12,0,0.18,0.021,0.18,0.08c0,0.041-0.05,0.08-0.09,0.08
	c-0.069,0-0.13,0-0.261,0.021c-0.279,0.06-0.34,0.2-0.359,0.56c-0.02,0.32-0.02,0.61-0.02,2.19v1.79H60.4z"/>
<path d="M63.869,68.56c0-1.58,0-1.87-0.02-2.19c-0.02-0.35-0.08-0.52-0.43-0.56c-0.08-0.011-0.26-0.021-0.36-0.021
	c-0.04,0-0.08-0.05-0.08-0.08c0-0.06,0.05-0.08,0.17-0.08c0.479,0,1.16,0.021,1.22,0.021c0.07,0,2.28,0.011,2.51,0
	c0.201-0.01,0.4-0.05,0.48-0.06c0.051-0.01,0.1-0.051,0.141-0.051c0.039,0,0.049,0.051,0.049,0.101c0,0.069-0.059,0.19-0.079,0.479
	c-0.011,0.101-0.04,0.551-0.06,0.67C67.4,66.84,67.36,66.9,67.32,66.9c-0.06,0-0.079-0.05-0.079-0.13c0-0.07-0.011-0.24-0.061-0.359
	C67.11,66.24,67,66.17,66.43,66.1c-0.18-0.02-1.4-0.04-1.52-0.04c-0.051,0-0.061,0.04-0.061,0.11v2.77c0,0.07,0,0.109,0.061,0.109
	c0.129,0,1.52,0,1.76-0.029c0.25-0.02,0.41-0.04,0.51-0.141c0.07-0.069,0.119-0.129,0.16-0.129c0.039,0,0.06,0.029,0.06,0.08
	c0,0.06-0.06,0.229-0.08,0.56c-0.021,0.2-0.05,0.59-0.05,0.659c0,0.08-0.02,0.19-0.1,0.19c-0.051,0-0.07-0.04-0.07-0.09
	c0-0.101,0-0.2-0.051-0.33c-0.039-0.14-0.129-0.26-0.539-0.31c-0.29-0.04-1.41-0.051-1.59-0.051c-0.061,0-0.07,0.041-0.07,0.07v0.85
	c0,0.351-0.01,1.531,0,1.74c0.02,0.68,0.22,0.811,1.26,0.811c0.28,0,0.78,0,1.051-0.11c0.27-0.12,0.42-0.3,0.479-0.71
	c0.021-0.12,0.05-0.16,0.11-0.16c0.06,0,0.069,0.08,0.069,0.16c0,0.07-0.079,0.77-0.14,0.98c-0.07,0.26-0.18,0.26-0.59,0.26
	c-0.791,0-1.4-0.02-1.83-0.03c-0.44-0.03-0.721-0.03-0.87-0.03c-0.021,0-0.229,0-0.46,0.01c-0.2,0.011-0.439,0.021-0.61,0.021
	c-0.11,0-0.17-0.021-0.17-0.08c0-0.04,0.021-0.079,0.08-0.079c0.101,0,0.229-0.041,0.319-0.051c0.201-0.04,0.23-0.24,0.281-0.54
	c0.06-0.42,0.06-1.22,0.06-2.2v-1.81H63.869z"/>
<path d="M27.12,81.19c-4.86,1.43-8.02,14.7-21.71,14.7C2.2,95.89,0,94.11,0,91.411c0-1.271,0.84-2.701,2.28-2.701
	c1.18,0,2.11,0.681,2.11,2.03c0,1.101-0.68,2.03-1.94,2.03c-1.06,0-1.18-0.34-1.48-0.34c-0.17,0-0.21,0.13-0.21,0.25
	c0,0.93,1.86,2.699,4.73,2.699c5.75,0,10.14-5.58,13.52-9.379l-0.08-0.08c-1.27,0.59-2.7,1.01-4.39,1.01
	c-2.87,0-4.48-1.86-4.48-4.73c0-1.1,0.42-2.279,0.85-3.039c-4.14-0.671-8.28-2.871-8.28-7.601c0-4.39,4.9-6.67,9.21-6.67
	c2.62,0,5.32,0.51,7.77,1.43l-0.17,0.42c-2.19-0.76-4.56-1.35-7.69-1.35c-3.8,0-8.11,2.11-8.11,7.18c0,3.55,4.48,5.66,7.43,6.08
	c3.04-6.42,13.68-13.771,21.29-13.771c2.2,0,4.48,0.841,4.48,3.291c0,6.08-14.36,11.319-20.95,11.319c-0.67,0-1.52,0-2.53-0.079
	c-0.68,0.93-1.78,2.619-1.78,4.06c0,2.11,1.35,2.96,2.79,2.96c1.77,0,3.63-0.59,5.07-1.27c1.69-2.621,3.97-4.221,7.69-4.221v0.25
	H27.12z M32.1,65.39c-5.74,0-15.04,9.21-18.58,13.521c1.01,0.079,1.94,0.079,2.96,0.079c6.84,0,19.85-5.909,19.85-10.899
	C36.32,65.9,33.87,65.39,32.1,65.39z"/>
<path d="M40.38,88.661c-3.93,3.379-9,7.219-13.52,7.219c-1.27,0-2.62-0.51-2.62-2.109c0-4.561,8.24-11.66,12.71-11.66
	c1.14,0,1.9,0.801,1.9,1.9c0,3.93-7.35,6.13-10.47,6.13c-2.49,2.7-2.87,3.63-2.87,4.22c0,0.84,0.84,1.01,1.69,1.01
	c3.72,0,8.19-3.08,13.18-7.22V88.661z M36.96,82.62c-1.61,0-3.8,2.11-8.15,7.01c4.52,0,9.04-3.89,9.04-6.17
	C37.84,83.01,37.51,82.62,36.96,82.62z"/>
<path d="M46.54,82.62h2.62l-3.67,3.971l0.08,0.08c2.03-1.82,5.28-4.311,7.18-4.311c1.48,0,2.41,0.971,2.41,2.45
	c0,3.46-7.1,8.53-7.1,9.97c0,0.34,0.25,0.59,0.68,0.59c1.39,0,4.18-2.149,9.969-7.39v0.59c-4.52,4.22-8.189,7.31-9.969,7.31
	c-0.97,0-1.69-0.59-1.69-1.939c0-3.17,7.1-8.279,7.1-9.88c0-0.67-0.51-1.181-1.35-1.181c-2.54,0-9.29,5.74-14.87,12.25h-2.96
	L46.54,82.62z"/>
<path d="M73.241,88.661c-3.931,3.379-9,7.219-13.521,7.219c-1.271,0-2.62-0.51-2.62-2.109c0-4.561,8.24-11.66,12.71-11.66
	c1.14,0,1.899,0.801,1.899,1.9c0,3.93-7.35,6.13-10.469,6.13c-2.49,2.7-2.871,3.63-2.871,4.22c0,0.84,0.84,1.01,1.69,1.01
	c3.71,0,8.19-3.08,13.181-7.22V88.661z M69.81,82.62c-1.601,0-3.8,2.11-8.149,7.01c4.52,0,9.039-3.89,9.039-6.17
	C70.7,83.01,70.36,82.62,69.81,82.62z"/>
<path d="M76.7,86.43l3.551-3.29C80.08,82.799,80,82.51,80,82.129c0-1.18,0.67-2.869,2.109-2.869c0.34,0,0.68,0.42,0.68,0.76
	c0,1.1-1.35,2.45-2.029,3.21c1.01,1.39,2.029,2.54,2.029,4.39c0,1.601-1.1,3.041-2.029,4.221c2.66-0.461,4.22-1.221,6.08-3.461
	l0.25,0.25c-1.771,2.11-3.291,3.341-6.93,3.721c-2.361,1.99-4.811,3.55-7.351,3.55c-2.2,0-3.04-1.271-3.04-2.96
	c0-1.859,1.859-4.9,3.721-4.9c0.68,0,1.35,0.59,1.35,1.431c0,0.93-0.85,1.61-1.44,1.61c-0.84,0-1.351-0.67-1.351-1.521H71.97
	c-0.931,0.68-1.69,2.03-1.69,3.46c0,1.27,0.68,2.37,1.94,2.37c2.03,0,9.29-6.841,9.29-9.8c0-0.551-0.381-1.4-1.01-2.11l-3.551,3.21
	L76.7,86.43z"/>
<path d="M93.59,82.62h2.699L88.9,90.9c-2.45,2.75-3,3.42-3,3.8c0,0.42,0.341,0.68,1.101,0.68c1.899,0,5.149-2.869,10.64-7.479
	l0.3,0.3c-4.439,3.891-9,7.69-11.029,7.69c-1.521,0-2.031-0.841-2.031-2.03c0-0.93,0.511-1.859,1.69-3.21L93.59,82.62z
	 M100.35,74.01c0.85,0,1.52,0.68,1.52,1.52s-0.67,1.52-1.52,1.52c-0.84,0-1.52-0.67-1.52-1.52S99.51,74.01,100.35,74.01z"/>
<path d="M101.789,86.43l3.551-3.29c-0.17-0.341-0.25-0.63-0.25-1.011c0-1.18,0.68-2.869,2.109-2.869c0.34,0,0.68,0.42,0.68,0.76
	c0,1.1-1.35,2.45-2.029,3.21c1.01,1.39,2.029,2.54,2.029,4.39c0,1.601-1.1,3.041-2.029,4.221c2.66-0.461,4.22-1.221,6.08-3.461
	l0.25,0.25c-1.77,2.11-3.29,3.341-6.93,3.721c-2.371,1.99-4.82,3.55-7.351,3.55c-2.2,0-3.04-1.271-3.04-2.96
	c0-1.859,1.86-4.9,3.71-4.9c0.681,0,1.351,0.59,1.351,1.431c0,0.93-0.84,1.61-1.44,1.61c-0.84,0-1.351-0.67-1.351-1.521h-0.09
	c-0.93,0.68-1.689,2.03-1.689,3.46c0,1.27,0.67,2.37,1.939,2.37c2.03,0,9.291-6.841,9.291-9.8c0-0.551-0.381-1.4-1.011-2.11
	l-3.55,3.21L101.789,86.43z"/>
<g>
	<g>
		<path d="M19.35,109.45c-1.16-1.039-1.45-2.41-1.45-3.539c0-0.801,0.27-2.201,1.34-3.271c0.72-0.72,1.81-1.28,3.65-1.28
			c0.48,0,1.15,0.04,1.74,0.141c0.46,0.08,0.84,0.16,1.22,0.18c0.13,0.01,0.16,0.06,0.16,0.13c0,0.09-0.04,0.239-0.06,0.67
			c-0.03,0.39-0.03,1.05-0.04,1.229c-0.01,0.181-0.04,0.25-0.11,0.25c-0.08,0-0.1-0.08-0.1-0.25c0-0.47-0.19-0.959-0.5-1.22
			c-0.42-0.36-1.34-0.68-2.39-0.68c-1.59,0-2.33,0.47-2.75,0.87c-0.88,0.84-1.08,1.9-1.08,3.13c0,2.29,1.76,4.38,4.32,4.38
			c0.9,0,1.61-0.109,2.08-0.6c0.25-0.26,0.41-0.791,0.44-1.01c0.02-0.131,0.05-0.181,0.12-0.181c0.06,0,0.08,0.08,0.08,0.181
			c0,0.08-0.14,1.129-0.26,1.529c-0.07,0.23-0.1,0.25-0.31,0.35c-0.48,0.19-1.39,0.271-2.16,0.271
			C21.5,110.74,20.29,110.289,19.35,109.45z"/>
		<path d="M31.48,102.73c2.37,0,4.17,1.45,4.17,3.819c0,2.271-1.69,4.15-4.23,4.15c-2.89,0-4.12-2.17-4.12-4
			C27.3,105.06,28.57,102.73,31.48,102.73z M31.72,110.28c0.95,0,2.85-0.5,2.85-3.449c0-2.44-1.49-3.721-3.15-3.721
			c-1.76,0-3.03,1.1-3.03,3.32C28.39,108.799,29.82,110.28,31.72,110.28z"/>
		<path d="M38.81,107.64c0,1.5,0.02,2.11,0.22,2.29c0.17,0.17,0.57,0.24,1.4,0.24c0.55,0,1.02-0.01,1.27-0.311
			c0.13-0.16,0.21-0.37,0.25-0.57c0.01-0.069,0.05-0.129,0.11-0.129c0.05,0,0.07,0.049,0.07,0.159s-0.07,0.72-0.15,1.021
			c-0.07,0.24-0.11,0.279-0.67,0.279c-0.75,0-1.34-0.01-1.83-0.039c-0.48-0.011-0.84-0.031-1.15-0.031c-0.05,0-0.23,0-0.43,0.011
			c-0.21,0.01-0.44,0.021-0.61,0.021c-0.11,0-0.17-0.021-0.17-0.08c0-0.041,0.02-0.08,0.08-0.08c0.1,0,0.23-0.021,0.32-0.051
			c0.21-0.05,0.23-0.24,0.28-0.539c0.06-0.42,0.06-1.221,0.06-2.211v-1.789c0-1.58,0-1.871-0.03-2.19
			c-0.02-0.351-0.08-0.511-0.43-0.56c-0.08-0.011-0.26-0.021-0.36-0.021c-0.04,0-0.08-0.05-0.08-0.08c0-0.06,0.05-0.08,0.17-0.08
			c0.48,0,1.14,0.021,1.2,0.021c0.05,0,0.84-0.021,1.16-0.021c0.11,0,0.17,0.021,0.17,0.08c0,0.04-0.05,0.069-0.08,0.069
			c-0.07,0-0.23,0.011-0.35,0.031c-0.31,0.06-0.37,0.209-0.4,0.569c-0.01,0.32-0.01,0.61-0.01,2.19v1.8H38.81z"/>
		<path d="M45.21,107.64c0,1.5,0.02,2.11,0.22,2.29c0.17,0.17,0.57,0.24,1.4,0.24c0.55,0,1.02-0.01,1.27-0.311
			c0.13-0.16,0.21-0.37,0.25-0.57c0.01-0.069,0.05-0.129,0.11-0.129c0.05,0,0.07,0.049,0.07,0.159s-0.07,0.72-0.16,1.021
			c-0.07,0.24-0.11,0.279-0.67,0.279c-0.75,0-1.34-0.01-1.83-0.039c-0.48-0.011-0.84-0.031-1.15-0.031c-0.05,0-0.23,0-0.43,0.011
			c-0.22,0.01-0.44,0.021-0.61,0.021c-0.11,0-0.17-0.021-0.17-0.08c0-0.041,0.02-0.08,0.08-0.08c0.09,0,0.23-0.021,0.32-0.051
			c0.2-0.05,0.23-0.24,0.28-0.539c0.06-0.42,0.06-1.221,0.06-2.211v-1.789c0-1.58,0-1.871-0.02-2.19
			c-0.02-0.351-0.08-0.511-0.43-0.56c-0.08-0.011-0.26-0.021-0.36-0.021c-0.03,0-0.08-0.05-0.08-0.08c0-0.06,0.05-0.08,0.17-0.08
			c0.48,0,1.14,0.021,1.2,0.021c0.05,0,0.84-0.021,1.16-0.021c0.11,0,0.17,0.021,0.17,0.08c0,0.04-0.05,0.069-0.08,0.069
			c-0.07,0-0.23,0.011-0.35,0.031c-0.31,0.06-0.37,0.209-0.39,0.569c-0.01,0.32-0.01,0.61-0.01,2.19v1.8H45.21z"/>
		<path d="M50.66,105.82c0-1.58,0-1.87-0.02-2.19c-0.03-0.35-0.08-0.51-0.43-0.56c-0.08-0.01-0.26-0.021-0.36-0.021
			c-0.04,0-0.08-0.049-0.08-0.079c0-0.06,0.05-0.08,0.17-0.08c0.48,0,1.16,0.021,1.22,0.021c0.07,0,2.28,0.01,2.52,0
			c0.2-0.011,0.39-0.051,0.48-0.061c0.05-0.01,0.1-0.051,0.15-0.051c0.04,0,0.05,0.051,0.05,0.101c0,0.07-0.06,0.19-0.08,0.479
			c-0.01,0.101-0.04,0.551-0.06,0.67c-0.01,0.051-0.05,0.111-0.09,0.111c-0.06,0-0.09-0.051-0.09-0.131c0-0.07-0.01-0.24-0.06-0.359
			c-0.07-0.17-0.18-0.24-0.75-0.311c-0.18-0.02-1.4-0.04-1.52-0.04c-0.05,0-0.06,0.04-0.06,0.11v2.77c0,0.07,0,0.11,0.06,0.11
			c0.13,0,1.52,0,1.76-0.021c0.25-0.029,0.41-0.039,0.52-0.149c0.07-0.07,0.12-0.13,0.16-0.13s0.06,0.029,0.06,0.08
			c0,0.05-0.06,0.229-0.08,0.56c-0.03,0.2-0.05,0.59-0.05,0.66c0,0.08-0.03,0.19-0.1,0.19c-0.05,0-0.07-0.041-0.07-0.101
			c0-0.101,0-0.2-0.05-0.34c-0.03-0.14-0.13-0.261-0.54-0.31c-0.29-0.041-1.41-0.051-1.59-0.051c-0.06,0-0.07,0.04-0.07,0.07v0.85
			c0,0.351-0.01,1.53,0,1.74c0.02,0.68,0.21,0.82,1.26,0.82c0.28,0,0.78,0,1.05-0.11c0.28-0.12,0.42-0.3,0.48-0.71
			c0.02-0.12,0.05-0.16,0.11-0.16s0.07,0.08,0.07,0.16c0,0.07-0.08,0.77-0.14,0.98c-0.07,0.26-0.18,0.26-0.59,0.26
			c-0.79,0-1.4-0.02-1.83-0.04c-0.44-0.03-0.72-0.03-0.88-0.03c-0.02,0-0.23,0-0.45,0.01c-0.2,0.011-0.44,0.021-0.61,0.021
			c-0.11,0-0.17-0.021-0.17-0.08c0-0.04,0.02-0.08,0.08-0.08c0.1,0,0.23-0.04,0.32-0.05c0.21-0.04,0.23-0.24,0.28-0.54
			c0.06-0.42,0.06-1.22,0.06-2.21v-1.78H50.66z"/>
		<path d="M57.35,109.61c-1.03-0.89-1.28-2.05-1.28-3.02c0-0.68,0.25-1.87,1.19-2.78c0.63-0.61,1.59-1.09,3.21-1.09
			c0.42,0,1.021,0.03,1.53,0.12c0.39,0.07,0.729,0.14,1.08,0.16c0.109,0,0.129,0.05,0.129,0.109c0,0.08-0.02,0.2-0.049,0.57
			c-0.011,0.33-0.011,0.9-0.021,1.04c-0.011,0.159-0.06,0.22-0.12,0.22c-0.07,0-0.08-0.07-0.08-0.22c0-0.4-0.17-0.8-0.439-1.021
			c-0.371-0.31-1.141-0.56-2.07-0.56c-1.35,0-2,0.36-2.37,0.71c-0.78,0.72-0.95,1.63-0.95,2.66c0,1.949,1.54,3.689,3.801,3.689
			c0.789,0,1.319-0.06,1.739-0.479c0.229-0.23,0.37-0.66,0.41-0.851c0.021-0.109,0.03-0.14,0.11-0.14c0.05,0,0.1,0.07,0.1,0.14
			c0,0.07-0.141,0.961-0.25,1.311c-0.061,0.189-0.08,0.23-0.26,0.3c-0.43,0.17-1.221,0.229-1.9,0.229
			C59.241,110.7,58.17,110.33,57.35,109.61z"/>
		<path d="M67.98,107.61c0,0.98,0,1.79,0.05,2.21c0.04,0.3,0.08,0.49,0.41,0.54c0.141,0.02,0.38,0.051,0.48,0.051
			c0.07,0,0.08,0.049,0.08,0.079c0,0.05-0.051,0.08-0.17,0.08c-0.58,0-1.25-0.04-1.301-0.04c-0.05,0-0.779,0.04-1.09,0.04
			c-0.12,0-0.17-0.021-0.17-0.08c0-0.04,0.02-0.069,0.08-0.069c0.1,0,0.22-0.03,0.311-0.051c0.209-0.05,0.27-0.25,0.31-0.55
			c0.05-0.42,0.05-1.22,0.05-2.21v-4.27l-1.52,0.02c-0.66,0.01-0.91,0.08-1.07,0.32c-0.12,0.18-0.131,0.25-0.17,0.32
			c-0.02,0.08-0.061,0.1-0.11,0.1c-0.021,0-0.069-0.02-0.069-0.08c0-0.109,0.209-1.02,0.229-1.1c0.021-0.061,0.069-0.19,0.11-0.19
			c0.07,0,0.18,0.08,0.47,0.12c0.3,0.04,0.71,0.05,0.83,0.05H69.7c0.35,0,0.59-0.021,0.75-0.05c0.15-0.02,0.25-0.051,0.301-0.051
			c0.049,0,0.049,0.061,0.049,0.121c0,0.31-0.039,1.039-0.039,1.16c0,0.08-0.051,0.129-0.09,0.129c-0.051,0-0.07-0.039-0.09-0.18
			l-0.011-0.109c-0.03-0.311-0.26-0.541-1.271-0.561l-1.319-0.02V107.61L67.98,107.61z"/>
		<path d="M73.94,107.61c0,0.98,0,1.79,0.051,2.21c0.039,0.3,0.069,0.49,0.379,0.54c0.15,0.02,0.381,0.051,0.48,0.051
			c0.061,0,0.08,0.049,0.08,0.079c0,0.05-0.051,0.08-0.17,0.08c-0.59,0-1.27-0.04-1.32-0.04c-0.061,0-0.72,0.04-1.04,0.04
			c-0.11,0-0.17-0.021-0.17-0.08c0-0.04,0.021-0.079,0.08-0.079c0.09,0,0.229-0.021,0.319-0.051c0.201-0.05,0.24-0.24,0.271-0.54
			c0.05-0.42,0.06-1.22,0.06-2.21v-1.79c0-1.58,0-1.87-0.02-2.19c-0.02-0.35-0.109-0.5-0.33-0.549
			c-0.119-0.021-0.25-0.041-0.32-0.041c-0.049,0-0.08-0.05-0.08-0.08c0-0.06,0.051-0.08,0.17-0.08c0.351,0,1.011,0.021,1.07,0.021
			c0.051,0,0.73-0.021,1.051-0.021c0.119,0,0.17,0.021,0.17,0.08c0,0.041-0.051,0.08-0.08,0.08c-0.07,0-0.141,0-0.26,0.021
			c-0.291,0.06-0.351,0.2-0.371,0.56c-0.01,0.32-0.01,0.61-0.01,2.19v1.8H73.94z"/>
		<path d="M80.459,102.73c2.371,0,4.17,1.45,4.17,3.819c0,2.271-1.689,4.15-4.229,4.15c-2.89,0-4.12-2.17-4.12-4
			C76.28,105.06,77.549,102.73,80.459,102.73z M80.7,110.28c0.95,0,2.85-0.5,2.85-3.449c0-2.44-1.479-3.721-3.149-3.721
			c-1.76,0-3.03,1.1-3.03,3.32C77.369,108.799,78.789,110.28,80.7,110.28z"/>
		<path d="M87.27,109.18c0.02,0.84,0.12,1.09,0.41,1.16c0.189,0.05,0.43,0.06,0.529,0.06c0.051,0,0.08,0.04,0.08,0.08
			c0,0.06-0.069,0.08-0.189,0.08c-0.6,0-1.02-0.04-1.109-0.04c-0.091,0-0.541,0.04-1.021,0.04c-0.11,0-0.171-0.011-0.171-0.08
			c0-0.05,0.041-0.08,0.08-0.08c0.08,0,0.271-0.01,0.431-0.06c0.26-0.07,0.3-0.351,0.3-1.271v-5.83c0-0.409,0.061-0.51,0.141-0.51
			c0.119,0,0.299,0.2,0.399,0.31c0.17,0.17,1.7,1.791,3.33,3.471c1.04,1.08,2.17,2.289,2.49,2.619l-0.11-5.1
			c-0.01-0.66-0.07-0.89-0.4-0.949c-0.189-0.031-0.43-0.051-0.51-0.051c-0.07,0-0.08-0.06-0.08-0.1c0-0.061,0.08-0.07,0.2-0.07
			c0.479,0,0.979,0.02,1.101,0.02c0.119,0,0.47-0.02,0.899-0.02c0.11,0,0.19,0.01,0.19,0.07c0,0.04-0.051,0.1-0.12,0.1
			c-0.05,0-0.13,0-0.25,0.02c-0.351,0.07-0.37,0.271-0.37,0.891l-0.029,5.96c0,0.67-0.011,0.729-0.08,0.729
			c-0.111,0-0.221-0.08-0.801-0.619c-0.109-0.1-1.63-1.59-2.74-2.75c-1.22-1.28-2.41-2.53-2.729-2.891L87.27,109.18z"/>
	</g>
</g>
<path fill="none" stroke="#000000" stroke-width="1.8623" d="M27.99,29.59c0,15.81,13.06,28.661,29.11,28.661
	c16.05,0,29.109-12.86,29.109-28.661c0-15.8-13.06-28.66-29.109-28.66C41.05,0.93,27.99,13.79,27.99,29.59z"/>
<ellipse stroke="#FFFFFF" stroke-width="0.5" cx="57.1" cy="29.59" rx="27.68" ry="27.16"/>
<path fill="#FFFFFF" d="M57.76,60.31c-3.56,3.56-9.63-2.54-14.44-2.54c0.3-2.55,1.92-3.97,4.2-4.8c1.88-0.69,4.63-0.21,6.21-1.53
	c0.94-0.78,0.3-1.59-0.01-2.55c-0.48-1.49,0.4-1.01,1.06-1.86c0.1-0.35-0.54-1.13-0.35-1.3c0.82-0.71-0.38-0.99-0.38-1.87
	c-0.1-0.81,0.44-1.04,0.98-1.46c0.69-0.55-0.86-2.07-1.29-2.52c-1.78-1.84-1.89-3.86-2.34-6.31c-0.41-2.24-0.77-4.58-2.99-5.69
	c-1.63-0.82-2.79-1.06-3.75-2.8c4.2-0.2,8.4-0.3,12.61-0.28"/>
<path fill="#FFFFFF" d="M56.35,60.379c4.811,0,9.63-2.6,14.439-2.6c-0.299-2.55-1.92-3.97-4.199-4.8
	c-1.881-0.68-4.631-0.21-6.211-1.53c-0.939-0.78-0.299-1.59,0.011-2.55c0.479-1.49-0.399-1.01-1.06-1.85
	c-0.101-0.35,0.539-1.14,0.35-1.3c-0.82-0.71,0.38-0.99,0.38-1.88c0.101-0.81-0.44-1.04-0.979-1.46
	c-0.701-0.55,0.859-2.07,1.279-2.51c1.78-1.84,1.891-3.86,2.33-6.31c0.41-2.24,0.77-4.57,2.99-5.69c1.63-0.82,2.79-1.06,3.75-2.8
	c-4.2-0.2-8.4-0.31-12.61-0.28"/>
<path fill="#FFFFFF" d="M56.209,26.8c-0.169-1.54,0.44-5.79,1.271-7.01c0.24-0.36,0.399-0.57,0.36-0.88
	c-0.11-0.99-1.11-1.6-2.34-1.56c-0.28,0.01-0.77,0.15-0.98,0.25c-0.28,0.14-0.29,0-0.21-0.22c0.1-0.19,0.52-0.96,0.73-1.17
	c0.25-0.23,0.18-0.28-0.07-0.37c-0.51-0.17-1.36-0.1-1.58-0.07c-0.31,0.03-0.31-0.15-0.1-0.3c0.56-0.41,1.5-0.74,2.22-0.82
	c2.06-0.23,2.821,1.46,2.94,2.48c0.041,0.36,0.021,1.07-0.189,1.7l0.05,0.01c1.819-2.26,2.271-3.52,2.17-4.46
	c-0.239-0.06-0.5-0.21-0.72-0.38c-0.16-0.15-0.5-0.5-0.881-0.79c-0.159-0.11-0.159-0.23,0.07-0.29l0.19-0.05
	c0.101-0.01,0.26-0.06,0.489-0.15c0.25-0.11,0.261-0.18-0.039-0.37c-1.24-0.93-1.93-1.4-2.061-2.55c-0.07-0.67,0.11-1.64,0.54-2.25
	c0.31-0.45,0.4-0.37,0.5-0.2c0.36,0.6,0.771,1,1.11,1.24c0.27,0.2,0.369,0.09,0.439-0.18c0.07-0.3,0.33-0.89,0.73-1.39
	c0.22-0.27,0.43-0.57,0.62-0.79c0.14-0.18,0.26-0.19,0.34,0c0.14,0.26,0.31,0.54,0.51,0.86c0.29,0.5,0.431,1.04,0.5,1.68
	c0.03,0.26,0.08,0.29,0.29,0.25C63.77,8.9,64.57,8.4,64.76,8c0.09-0.21,0.15-0.26,0.289-0.03c0.141,0.25,0.311,0.88,0.371,1.37
	c0.16,1.49-0.4,2.03-0.881,2.46c-0.39,0.32-1.399,0.83-1.72,0.93c-0.35,0.12-0.39,0.19-0.11,0.38c0.181,0.11,0.271,0.22,0.391,0.28
	c0.17,0.15,0.13,0.28-0.08,0.32c-0.29,0.06-0.57,0.2-0.91,0.36c-0.311,0.16-0.57,0.29-0.93,0.32c0.061,0.19,0.07,0.37,0.09,0.5
	c0.12,1.08-0.67,2.55-2.33,4.29l0.051,0.03c0.84-0.55,1.889-0.85,2.709-0.94c1.1-0.12,2.1,0.26,2.75,0.91
	c0.66,0.67,0.971,1.52,1.061,2.31c0.029,0.26-0.09,0.4-0.28,0.1c-0.3-0.46-1.08-1.05-2-1.11c-0.2-0.01-0.28,0.03-0.26,0.19
	c0.03,0.29-0.08,0.78-0.36,1.08c-0.24,0.24-0.34,0.15-0.38-0.14c-0.021-0.18-0.55-2.19-3.25-1.89c-0.44,0.05-0.56,0.26-0.69,0.44
	c-0.97,1.37-1.449,5.54-1.299,6.9 M60.26,11.54c0.039,0.34,0.33,0.95,0.65,1.24c0.18,0.16,0.219,0.21,0.479,0
	c0.43-0.39,0.819-1.06,0.739-1.81c-0.049-0.45-0.26-0.87-0.539-1.19c-0.17-0.24-0.24-0.22-0.5-0.03c-0.44,0.34-0.91,1-0.82,1.77
	L60.26,11.54z"/>
<path fill="#FFFFFF" d="M56.48,23.11c-0.79,0-1.46-0.38-2.03-0.88C54.28,22.09,54.18,22,54.02,22c-0.51,0-0.88,0.48-0.93,1.11
	c-0.01,0.14,0.04,0.4,0.08,0.51c0.06,0.15-0.02,0.15-0.13,0.09c-0.09-0.06-0.46-0.32-0.55-0.43c-0.1-0.15-0.13-0.11-0.19,0.02
	c-0.12,0.25-0.13,0.69-0.13,0.8c0,0.16-0.09,0.15-0.16,0.04c-0.18-0.31-0.29-0.81-0.29-1.18c0-1.06,0.9-1.36,1.43-1.36
	c0.19,0,0.55,0.05,0.85,0.19l0.01-0.02c-1.05-1.05-1.67-1.35-2.15-1.35c-0.04,0.12-0.13,0.24-0.23,0.34
	c-0.08,0.08-0.29,0.22-0.45,0.4c-0.06,0.08-0.13,0.07-0.14-0.05L51.02,21c0-0.05-0.02-0.13-0.05-0.26c-0.04-0.13-0.07-0.14-0.19,0
	c-0.54,0.58-0.82,0.91-1.41,0.91c-0.34,0-0.83-0.15-1.11-0.4c-0.21-0.19-0.17-0.23-0.08-0.27c0.33-0.15,0.55-0.34,0.69-0.5
	c0.12-0.13,0.07-0.18-0.07-0.23c-0.15-0.05-0.44-0.21-0.67-0.45c-0.13-0.12-0.27-0.25-0.37-0.36c-0.08-0.08-0.08-0.14,0.02-0.17
	c0.14-0.06,0.29-0.13,0.47-0.21c0.27-0.12,0.55-0.16,0.89-0.16c0.13,0,0.15-0.02,0.14-0.13c-0.03-0.34-0.24-0.78-0.43-0.89
	c-0.1-0.06-0.13-0.09,0-0.15s0.47-0.11,0.72-0.11c0.77,0,1.01,0.32,1.21,0.58c0.14,0.22,0.34,0.76,0.38,0.93
	c0.04,0.19,0.08,0.21,0.19,0.08c0.07-0.08,0.12-0.13,0.17-0.18c0.08-0.08,0.15-0.05,0.16,0.06c0.01,0.15,0.07,0.3,0.13,0.49
	c0.07,0.17,0.12,0.31,0.11,0.49c0.1-0.02,0.19-0.02,0.26-0.02c0.56,0,1.27,0.48,2.06,1.43l0.02-0.02C54,20.97,53.91,20.41,53.91,20
	c0-0.57,0.25-1.05,0.62-1.35c0.38-0.3,0.83-0.41,1.24-0.41c0.13,0,0.2,0.07,0.03,0.15c-0.25,0.12-0.59,0.5-0.68,0.95
	c-0.01,0.1,0,0.14,0.09,0.14c0.15,0,0.39,0.08,0.53,0.24c0.11,0.13,0.06,0.18-0.09,0.18c-0.09,0-1.14,0.16-1.14,1.55
	c0,0.23,0.1,0.3,0.18,0.38c0.64,0.57,1.27,0.89,1.98,0.88 M50.4,20.35c0.17,0,0.5-0.12,0.67-0.26c0.09-0.08,0.12-0.1,0.03-0.24
	c-0.18-0.24-0.49-0.48-0.88-0.48c-0.23,0-0.46,0.09-0.64,0.21c-0.13,0.08-0.13,0.11-0.04,0.25C49.69,20.08,50,20.35,50.4,20.35
	L50.4,20.35z"/>
<path fill="#FFFFFF" d="M73.26,34.05c0,0.76-0.631,1.3-1.551,1.67c-0.779,0.31-1.979,0.47-3.109,0.47c-0.73,0-2.9-0.1-4.189-1.07
	c-0.351-0.27-0.471-0.58-0.471-0.83c0-0.21,0.051-0.34,0.109-0.5c-1.399-1.1-2.819-2.06-4.389-2.06c-1.041,0-2.07,0.44-2.07,1.87
	c0,1.13,0.699,1.71,1.18,1.88c0.17,0.06,0.16,0.18,0.09,0.24c-0.061,0.05-0.3,0.21-0.52,0.26c-0.211,0.05-0.42,0.05-0.65-0.07
	c-0.32-0.17-0.9-0.77-0.9-1.7c0-0.58,0.181-1.44,1.09-2.25c0.461-0.4,1.291-0.8,2.32-0.8c1.51,0,3.1,1.04,4.17,1.84
	c0.211-0.48,0.631-0.63,0.84-0.63c0.871,0,1.65,0.92,2.961,1.91c1.279,0.94,2.01,1.18,2.779,1.18c0.631,0,1.45-0.27,1.45-1.02
	c0-0.52-0.36-0.81-0.75-0.81c-0.11,0.01-0.16-0.08-0.11-0.15c0.051-0.05,0.42-0.38,0.86-0.38C72.789,33.1,73.26,33.4,73.26,34.05
	L73.26,34.05z"/>
<path fill="#FFFFFF" d="M40.42,34.36c0-0.64,0.47-0.94,0.83-0.94c0.44,0,0.81,0.33,0.86,0.38c0.05,0.07,0,0.16-0.11,0.15
	c-0.39,0-0.75,0.28-0.75,0.81c0,0.75,0.82,1.02,1.45,1.02c0.77,0,1.5-0.24,2.78-1.18c1.31-0.98,2.09-1.9,2.96-1.9
	c0.21,0,0.63,0.15,0.84,0.63c1.07-0.8,2.67-1.84,4.17-1.84c1.03,0,1.85,0.4,2.32,0.8c0.91,0.81,1.1,1.67,1.1,2.25
	c0,0.93-0.58,1.53-0.899,1.7c-0.23,0.12-0.44,0.12-0.65,0.07c-0.21-0.04-0.46-0.2-0.52-0.25c-0.07-0.06-0.08-0.18,0.09-0.24
	c0.48-0.17,1.18-0.76,1.18-1.88c0-1.43-1.02-1.86-2.07-1.86c-1.57,0-2.99,0.95-4.39,2.06c0.06,0.15,0.11,0.28,0.11,0.5
	c0,0.25-0.11,0.56-0.47,0.83c-1.29,0.97-3.46,1.08-4.19,1.08c-1.13,0-2.33-0.15-3.11-0.47C41.05,35.67,40.42,35.13,40.42,34.36
	L40.42,34.36z"/>
</svg>
