<?xml version="1.0" encoding="iso-8859-1"?>
<!-- Generator: Adobe Illustrator 19.0.0, SVG Export Plug-In . SVG Version: 6.00 Build 0)  -->
<svg version="1.1" id="Capa_1" xmlns="http://www.w3.org/2000/svg" xmlns:xlink="http://www.w3.org/1999/xlink" x="0px" y="0px"
	 viewBox="0 0 457.919 457.919" style="enable-background:new 0 0 457.919 457.919;" xml:space="preserve">
<g>
	<g id="XMLID_21_">
		<g id="XMLID_1225_">
			<path id="XMLID_1227_" d="M392.536,390.652c9.259-2.773,14.517-12.527,11.744-21.786l-8.954-29.897
				c-2.773-9.259-12.527-14.517-21.786-11.744l-29.544,8.849l-5.65,5.65l38.386,4.918l-47.154,6.056l-28.324-32.67
				c-4.242-4.892-11.509-5.673-16.669-2.011c-6.079,4.317-7.02,12.852-2.221,18.387l32.714,37.734
				c2.564,2.958,6.715,4.764,11.035,4.21c0.001,0,0.002,0,0.003,0l0,0l52.07-6.688c-21.209,7.943-38.457,14.404-47.861,17.926
				c-3.971,1.487-11.137,1.276-17.315-2.013c-4.82-2.567-6.908-5.47-10.686-9.828c-7.568,7.568-2.173,2.173-19.802,19.802
				l0.009,0.017c7.219,12.808,22.279,18.902,36.385,14.757C345.833,404.414,386.464,392.471,392.536,390.652z"/>
		</g>
		<path id="XMLID_1218_" d="M267.441,330.605c-0.912-9.366,3.596-18.718,12.216-23.645c-2.615-2.615-2.155-2.155-20.221-20.221
			l61.79-61.79l27.972,43.75l-0.366,0.366l-40.802,40.802c1.718,1.519,0.951,0.755,16.811,19.05l50.384-50.384
			c3.622-3.622,4.358-9.384,1.505-13.846l-51.13-79.973l-35.093-35.81c5.883-9.531,4.716-22.179-3.548-30.444
			c-9.655-9.655-25.309-9.655-34.965,0l-9.414,9.414l0,0c23.332,23.332,22.724,60.653,0,83.377
			c-22.924,22.924-60.228,23.149-83.377,0l0,0l-65.447,65.447c23.108,23.108,22.966,60.411,0,83.377
			c-22.85,22.85-60.156,23.221-83.377,0l-3.138,3.138c-9.655,9.655-9.655,25.309,0,34.965c7.609,7.609,18.933,9.194,28.121,4.811
			l8.404,8.404c15.23,15.23,39.924,15.23,55.154,0l24.78-24.78c11.63,3.28,62.499,17.628,105.617,29.789
			c3.933,0.642,7.683,0.642,10.876-2.838l49.911-49.911C272.852,343.752,268.42,340.657,267.441,330.605z M228.167,389.729
			c-5.667-1.598-49.844-14.058-55.943-15.779l69.281-69.281c1.719,1.719,18.278,18.278,21.252,21.252l-17.925,3.404l-37.693,37.693
			l53.092-9.353L228.167,389.729z"/>
		<circle id="XMLID_1219_" cx="200.892" cy="169.562" r="37.711"/>
		<circle id="XMLID_1220_" cx="52.069" cy="318.386" r="37.711"/>
		<circle id="XMLID_1221_" cx="432.012" cy="344.129" r="25.907"/>
		<path id="XMLID_1222_" d="M27.402,121.68c4.614,0,8.947-1.196,12.713-3.29c2.835,11.662,13.242,20.354,25.723,20.578
			c0,0.004-0.001,0.008-0.001,0.012c0,9.448,7.659,17.108,17.108,17.108s17.108-7.659,17.108-17.108
			c0-6.676-3.833-12.445-9.411-15.263c1.691-3.5,2.644-7.422,2.668-11.563c5.769-3.509,9.635-9.835,9.635-17.081
			c0-10.993-8.871-19.907-19.844-19.992c1.191-3.212,1.844-6.685,1.844-10.312c0-16.384-13.282-29.666-29.666-29.666
			S25.612,48.385,25.612,64.77c0,1.541,0.118,3.054,0.344,4.531C12.154,70.052,1.192,81.48,1.192,95.47
			C1.192,109.945,12.927,121.68,27.402,121.68z"/>
		<circle id="XMLID_1223_" cx="102.945" cy="175.811" r="11"/>
	</g>
</g>
<g>
</g>
<g>
</g>
<g>
</g>
<g>
</g>
<g>
</g>
<g>
</g>
<g>
</g>
<g>
</g>
<g>
</g>
<g>
</g>
<g>
</g>
<g>
</g>
<g>
</g>
<g>
</g>
<g>
</g>
</svg>
