<?xml version="1.0" encoding="iso-8859-1"?>
<!-- Generator: Adobe Illustrator 18.0.0, SVG Export Plug-In . SVG Version: 6.00 Build 0)  -->
<!DOCTYPE svg PUBLIC "-//W3C//DTD SVG 1.1//EN" "http://www.w3.org/Graphics/SVG/1.1/DTD/svg11.dtd">
<svg version="1.1" id="Capa_1" xmlns="http://www.w3.org/2000/svg" xmlns:xlink="http://www.w3.org/1999/xlink" x="0px" y="0px"
	 viewBox="0 0 486.607 486.607" style="enable-background:new 0 0 486.607 486.607;" xml:space="preserve">
<path id="XMLID_491_" d="M463.998,181.701c-3.213-31.807-29.987-56.012-61.967-56.012c-29.491,0-55.719-18.606-65.493-46.417
	C321.777,37.3,287.598,7.9,247.776,7.9c-39.795,0-73.976,29.399-88.742,71.372c-9.77,27.789-36.025,46.417-65.492,46.417
	c-32.183,0-59.359,23.915-63.431,55.842L0.222,415.471c-1.398,10.915,3.883,21.605,13.399,27.13
	c9.512,5.529,21.412,4.821,30.205-1.803l34.305-25.836c6.586-4.957,15.057-6.682,23.041-4.699c7.999,1.98,14.68,7.462,18.179,14.921
	l14.779,31.439c3.845,8.209,11.529,13.973,20.479,15.392c8.949,1.424,18.032-1.683,24.228-8.291l8.637-9.196
	c9.609-10.239,25.4-11.535,36.561-3.009l28.224,21.564c9.466,7.23,22.52,7.514,32.276,0.703l47.51-33.167
	c11.642-8.132,27.582-5.988,36.677,4.919l14.667,17.597c6.719,8.058,16.31,13.163,26.742,14.226
	c20.753,2.117,41.364-5.21,56.125-19.958c14.77-14.745,22.102-35.346,19.998-56.107L463.998,181.701z M270.995,53.094
	c18.872-3.284,36.596,9.378,39.835,28.085c1.542,8.978-4.464,17.502-13.444,19.057c-0.951,0.16-1.883,0.238-2.818,0.238
	c-7.871,0-14.848-5.657-16.228-13.676c-0.145-0.804-0.774-1.327-1.74-1.213c-9,1.519-17.501-4.47-19.047-13.438
	C256.006,63.172,262.013,54.638,270.995,53.094z M225.432,53.094c8.983,1.544,14.987,10.078,13.445,19.053
	c-1.546,8.968-10.066,15.045-19.047,13.438c-0.954-0.114-1.596,0.409-1.741,1.213c-1.385,8.019-8.357,13.676-16.228,13.676
	c-0.935,0-1.867-0.078-2.818-0.238c-8.98-1.555-14.986-10.079-13.444-19.057C188.838,62.473,206.592,49.816,225.432,53.094z
	 M296.59,173.23c-6.724,2.94-13.602-4.749-19.621-7.954c-2.449,4.122-5.236,8.155-8.355,12.069c-2.301,2.875-6.44,3.445-9.419,1.286
	c-4.058-2.93-7.826-6.075-11.254-9.378c-3.43,3.303-7.181,6.442-11.22,9.372c-3.001,2.155-7.135,1.601-9.422-1.273
	c-3.139-3.921-5.925-7.954-8.372-12.076c-6.019,3.205-12.882,10.885-19.606,7.964c-6.749-2.921-14.83-13.226-16.696-19.885
	c1.866-6.656,9.947-16.967,16.696-19.891c6.725-2.912,13.588,4.758,19.606,7.963c2.724-4.573,5.862-9.041,9.404-13.355
	c1.74-2.102,4.798-2.512,7.035-0.952c4.567,3.205,8.773,6.669,12.574,10.33c3.428-3.303,7.196-6.441,11.254-9.378
	c2.979-2.149,7.118-1.579,9.419,1.289c3.119,3.911,5.906,7.951,8.355,12.066c6.02-3.196,12.897-10.891,19.621-7.954
	c6.731,2.931,14.819,13.226,16.683,19.882C311.41,160.014,303.322,170.3,296.59,173.23z"/>
<g>
</g>
<g>
</g>
<g>
</g>
<g>
</g>
<g>
</g>
<g>
</g>
<g>
</g>
<g>
</g>
<g>
</g>
<g>
</g>
<g>
</g>
<g>
</g>
<g>
</g>
<g>
</g>
<g>
</g>
</svg>
