<?xml version="1.0" encoding="iso-8859-1"?>
<!-- Generator: Adobe Illustrator 16.0.0, SVG Export Plug-In . SVG Version: 6.00 Build 0)  -->
<!DOCTYPE svg PUBLIC "-//W3C//DTD SVG 1.1//EN" "http://www.w3.org/Graphics/SVG/1.1/DTD/svg11.dtd">
<svg version="1.1" id="Capa_1" xmlns="http://www.w3.org/2000/svg" xmlns:xlink="http://www.w3.org/1999/xlink" x="0px" y="0px"
	 width="237.46px" height="237.46px" viewBox="0 0 237.46 237.46" style="enable-background:new 0 0 237.46 237.46;"
	 xml:space="preserve">
<g>
	<path d="M217.068,30.405c0-0.408-0.219-0.785-0.571-0.99c-0.355-0.205-0.791-0.205-1.146,0l-13.442,7.76
		c-0.354,0.205-0.572,0.582-0.572,0.992c0,0.408,0.219,0.787,0.572,0.99l1.766,1.021l-0.197,0.34
		c-3.77,6.533-11.229,9.871-18.524,8.453l8.485-14.701l1.767,1.02c0.004,0.002,0.008,0.004,0.01,0.004
		c0.549,0.316,1.248,0.129,1.563-0.418c0.132-0.229,0.177-0.48,0.144-0.723V18.774c0-0.408-0.219-0.787-0.572-0.992
		c-0.354-0.203-0.791-0.205-1.146,0.002l-13.441,7.76c-0.354,0.205-0.572,0.582-0.572,0.99c0,0.41,0.217,0.787,0.572,0.992
		l1.766,1.018l-8.487,14.703c-4.875-5.609-5.715-13.738-1.943-20.271l0.195-0.338l1.766,1.018c0.004,0.004,0.008,0.006,0.01,0.006
		c0.55,0.316,1.248,0.129,1.564-0.42c0.131-0.227,0.174-0.48,0.143-0.723V7.144c-0.002-0.41-0.219-0.787-0.571-0.992
		c-0.355-0.205-0.791-0.205-1.146-0.002l-13.443,7.762c-0.354,0.205-0.569,0.584-0.569,0.992c0,0.408,0.217,0.787,0.572,0.992
		l1.766,1.018l-0.197,0.34c-6.953,12.045-4.428,27.125,5.943,36.24L158.295,72.25c-16.01-6.605-29.938-9.174-26.047-42.941
		c0.944-8.217-2.886-28.023-21.719-29.26c-0.1-0.012-1.939-0.051-2.039-0.043C90.097-0.386,85.697,20.746,85.742,29.02
		c0.275,49.068-38.404,24.654-60.199,66.82c-21.795,42.167,31.791,21.965,44.914,72.78c7.566,33.479-0.363,38.409-1.947,55.077
		c-3.162,33.313,53.109,2.55,71.1-53.657c15.199-50.234,67.91-27.853,47.863-70.875c-5.24-11.248-11.951-17.598-18.891-21.84
		l10.453-18.107c13.079,4.422,27.401-0.932,34.354-12.977l0.195-0.34l1.768,1.02c0.354,0.205,0.789,0.205,1.144,0
		s0.571-0.582,0.573-0.99L217.068,30.405z M100.629,33.994c-3.211-0.064-5.742-3.701-5.652-8.117c0.092-4.418,2.77-7.945,5.98-7.879
		c3.213,0.064,5.746,3.701,5.654,8.117C106.522,30.532,103.842,34.06,100.629,33.994z M118.96,34.371
		c-3.213-0.066-5.742-3.701-5.652-8.119c0.09-4.416,2.768-7.943,5.98-7.879c3.213,0.066,5.743,3.701,5.653,8.119
		C124.85,30.907,122.172,34.435,118.96,34.371z"/>
</g>
<g>
</g>
<g>
</g>
<g>
</g>
<g>
</g>
<g>
</g>
<g>
</g>
<g>
</g>
<g>
</g>
<g>
</g>
<g>
</g>
<g>
</g>
<g>
</g>
<g>
</g>
<g>
</g>
<g>
</g>
</svg>
