<?xml version="1.0" encoding="utf-8"?>
<!-- Generator: Adobe Illustrator 12.0.0, SVG Export Plug-In  -->
<!DOCTYPE svg PUBLIC "-//W3C//DTD SVG 1.1//EN" "http://www.w3.org/Graphics/SVG/1.1/DTD/svg11.dtd" [
	<!ENTITY ns_flows "http://ns.adobe.com/Flows/1.0/">
	<!ENTITY ns_svg "http://www.w3.org/2000/svg">
	<!ENTITY ns_xlink "http://www.w3.org/1999/xlink">
]>
<svg  version="1.1" xmlns="&ns_svg;" xmlns:xlink="&ns_xlink;" xmlns:a="http://ns.adobe.com/AdobeSVGViewerExtensions/3.0/"
	 width="32" height="44" viewBox="-0.09 -0.48 32 44" enable-background="new -0.09 -0.48 32 44" xml:space="preserve">
<defs>
</defs>
<path fill="#231F20" d="M27.77,10.08c0,10.63-14.26,18.16-20.08,26.05h16.25c4.38,0,4.96-1.02,5.35-4.06h1.37
	c0,5.66,0.08,8.16,0.31,10.63c-1.45-0.31-7.11-0.39-11.91-0.39H0.31v-1.37C6.8,33.98,20,25.04,20,11.84c0-6.09-3.05-8.63-8.01-8.63
	c-4.22,0-7.89,2.46-10.7,7.5L0,10C2.42,4.96,7.15,0,15.78,0C23.13,0,27.77,3.59,27.77,10.08z"/>
</svg>
