<?xml version="1.0" encoding="utf-8"?>
<!-- Generator: Adobe Illustrator 12.0.0, SVG Export Plug-In  -->
<!DOCTYPE svg PUBLIC "-//W3C//DTD SVG 1.1//EN" "http://www.w3.org/Graphics/SVG/1.1/DTD/svg11.dtd" [
	<!ENTITY ns_flows "http://ns.adobe.com/Flows/1.0/">
	<!ENTITY ns_svg "http://www.w3.org/2000/svg">
	<!ENTITY ns_xlink "http://www.w3.org/1999/xlink">
]>
<svg  version="1.1" xmlns="&ns_svg;" xmlns:xlink="&ns_xlink;" xmlns:a="http://ns.adobe.com/AdobeSVGViewerExtensions/3.0/"
	 width="37" height="47" viewBox="-0.53 -0.05 37 47" enable-background="new -0.53 -0.05 37 47" xml:space="preserve">
<defs>
</defs>
<path fill="#231F20" d="M17.94,10.2c3.24,0,6.48,0.84,9.24,2.58v30.84c-2.76,1.62-5.94,2.52-9.18,2.52c-9.96,0-18-8.04-18-18
	c0-4.44,1.74-8.76,4.68-12.06L6,17.16c-2.76,3-4.38,6.9-4.38,10.98C1.62,37.2,9,44.46,18,44.46c2.58,0,5.16-0.66,7.5-1.8V13.74
	c-2.28-1.2-4.86-1.86-7.44-1.86c-0.72,0-1.44,0-2.1,0.18l-0.72-1.5l8.46-8.88H9.06V0h18.6L17.94,10.2z M28.32,13.5
	c4.62,3.3,7.62,8.7,7.62,14.46c0,6.06-2.64,11.4-7.62,14.88V13.5z"/>
</svg>
