<?xml version="1.0" encoding="utf-8"?>
<!-- Generator: Adobe Illustrator 12.0.0, SVG Export Plug-In  -->
<!DOCTYPE svg PUBLIC "-//W3C//DTD SVG 1.1//EN" "http://www.w3.org/Graphics/SVG/1.1/DTD/svg11.dtd" [
	<!ENTITY ns_flows "http://ns.adobe.com/Flows/1.0/">
	<!ENTITY ns_svg "http://www.w3.org/2000/svg">
	<!ENTITY ns_xlink "http://www.w3.org/1999/xlink">
]>
<svg  version="1.1" xmlns="&ns_svg;" xmlns:xlink="&ns_xlink;" xmlns:a="http://ns.adobe.com/AdobeSVGViewerExtensions/3.0/"
	 width="31" height="55" viewBox="-0.42 -0.48 31 55" enable-background="new -0.42 -0.48 31 55" xml:space="preserve">
<defs>
</defs>
<path fill="#231F20" d="M26.72,9.1c0,6.25-5.86,11.05-11.91,13.2c7.42,0.16,14.8,3.91,14.8,12.15c0,12.19-15.94,19.92-29.61,19.92
	v-1.45c10.94-0.23,21.99-6.64,21.99-18.48c0-6.21-3.28-10.78-8.48-11.17c-1.6,0.63-2.81,1.17-3.75,1.17c-0.9,0-1.29-0.39-1.29-1.02
	c0-0.98,0.94-1.52,2.07-1.52c0.9,0,1.76,0.23,2.81,0.31c4.3-3.28,6.13-7.46,6.13-11.52c0-5.04-2.7-7.19-6.95-7.19
	c-4.38,0-8.16,2.3-10.63,7.11L0.55,10C2.97,4.77,7.27,0,15.2,0C21.84,0,26.72,3.44,26.72,9.1z"/>
</svg>
