<?xml version="1.0" encoding="utf-8"?>
<!-- Generator: Adobe Illustrator 12.0.0, SVG Export Plug-In  -->
<!DOCTYPE svg PUBLIC "-//W3C//DTD SVG 1.1//EN" "http://www.w3.org/Graphics/SVG/1.1/DTD/svg11.dtd" [
	<!ENTITY ns_flows "http://ns.adobe.com/Flows/1.0/">
	<!ENTITY ns_svg "http://www.w3.org/2000/svg">
	<!ENTITY ns_xlink "http://www.w3.org/1999/xlink">
]>
<svg  version="1.1" xmlns="&ns_svg;" xmlns:xlink="&ns_xlink;" xmlns:a="http://ns.adobe.com/AdobeSVGViewerExtensions/3.0/"
	 width="37" height="47" viewBox="-0.53 -0.05 37 47" enable-background="new -0.53 -0.05 37 47" xml:space="preserve">
<defs>
</defs>
<path fill="#231F20" d="M18,46.14c-9.96,0-18-8.04-18-18c0-1.68,0.3-3.42,0.78-5.04l1.62,0.48c-0.48,1.5-0.72,3-0.72,4.56
	c0,9,7.32,16.32,16.32,16.32c2.58,0,5.16-0.66,7.5-1.8V13.74c-2.28-1.26-4.92-1.86-7.5-1.86c-5.04,0-9,2.4-12.36,5.52V0h18.9v1.68
	H7.32v12.06c3.12-2.28,6.9-3.54,10.8-3.54c3.18,0,6.36,0.9,9.06,2.58v30.84C24.42,45.24,21.24,46.14,18,46.14z M28.32,13.5
	c4.8,3.42,7.62,8.76,7.62,14.64c0,5.88-2.76,11.4-7.62,14.76V13.5z"/>
</svg>
