<?xml version="1.0" encoding="utf-8"?>
<!-- Generator: Adobe Illustrator 12.0.0, SVG Export Plug-In  -->
<!DOCTYPE svg PUBLIC "-//W3C//DTD SVG 1.1//EN" "http://www.w3.org/Graphics/SVG/1.1/DTD/svg11.dtd" [
	<!ENTITY ns_flows "http://ns.adobe.com/Flows/1.0/">
	<!ENTITY ns_svg "http://www.w3.org/2000/svg">
	<!ENTITY ns_xlink "http://www.w3.org/1999/xlink">
]>
<svg  version="1.1" xmlns="&ns_svg;" xmlns:xlink="&ns_xlink;" xmlns:a="http://ns.adobe.com/AdobeSVGViewerExtensions/3.0/"
	 width="37" height="48" viewBox="-0.38 -0.21 37 48" enable-background="new -0.38 -0.21 37 48" xml:space="preserve">
<defs>
</defs>
<path fill="#231F20" d="M27.36,44.58c-2.82,1.62-6,2.46-9.24,2.46C8.04,47.04,0,39.06,0,28.98c0-6.3,3.3-12.18,8.7-15.42
	c-0.48-1.08-0.6-2.28-0.6-3.48C8.1,4.44,12.48,0,18.12,0c5.58,0,10.02,4.5,10.02,10.08c0,0.9-0.24,3.12-0.78,3.9V44.58z M18.12,1.68
	c-4.62,0-8.34,3.78-8.34,8.4c0,1.56,0.36,2.82,1.14,4.14c-5.64,3.12-9.24,8.22-9.24,14.76c0,9.12,7.26,16.5,16.44,16.5
	c2.64,0,5.22-0.6,7.56-1.86V14.4l-0.3-0.18c0.6-1.5,1.08-2.52,1.08-4.2C26.46,5.4,22.74,1.68,18.12,1.68z M28.5,43.86v-29.7
	c4.86,3.42,7.74,8.88,7.74,14.82C36.24,34.86,33.3,40.5,28.5,43.86z"/>
</svg>
