<?xml version="1.0" encoding="utf-8"?>
<!-- Generator: Adobe Illustrator 12.0.0, SVG Export Plug-In  -->
<!DOCTYPE svg PUBLIC "-//W3C//DTD SVG 1.1//EN" "http://www.w3.org/Graphics/SVG/1.1/DTD/svg11.dtd" [
	<!ENTITY ns_flows "http://ns.adobe.com/Flows/1.0/">
	<!ENTITY ns_svg "http://www.w3.org/2000/svg">
	<!ENTITY ns_xlink "http://www.w3.org/1999/xlink">
]>
<svg  version="1.1" xmlns="&ns_svg;" xmlns:xlink="&ns_xlink;" xmlns:a="http://ns.adobe.com/AdobeSVGViewerExtensions/3.0/"
	 width="37" height="47" viewBox="-0.53 -0.21 37 47" enable-background="new -0.53 -0.21 37 47" xml:space="preserve">
<defs>
</defs>
<path fill="#231F20" d="M19.02,45.96h-2.1l9.24-12c-2.52,1.26-5.34,1.92-8.16,1.92c-10.38,0-18-8.16-18-18.36C0,7.74,8.52,0,18.06,0
	c3.3,0,6.6,0.84,9.36,2.64V35.1L19.02,45.96z M25.74,3.6C23.22,2.22,20.88,1.68,18,1.68c-6.72,0-13.02,4.26-15.3,10.62
	c-0.54,1.44-1.02,3.3-1.02,4.86c0,9.36,6.72,17.04,16.38,17.04c2.64,0,5.34-0.66,7.68-1.92V3.6z M28.56,3.42
	c4.68,3.36,7.38,8.88,7.38,14.64c0,7.08-3.3,10.38-7.38,15.54V3.42z"/>
</svg>
