<?xml version="1.0" encoding="iso-8859-1"?>
<!-- Generator: Adobe Illustrator 16.0.0, SVG Export Plug-In . SVG Version: 6.00 Build 0)  -->
<!DOCTYPE svg PUBLIC "-//W3C//DTD SVG 1.1//EN" "http://www.w3.org/Graphics/SVG/1.1/DTD/svg11.dtd">
<svg version="1.1" id="Capa_1" xmlns="http://www.w3.org/2000/svg" xmlns:xlink="http://www.w3.org/1999/xlink" x="0px" y="0px"
	 width="466.743px" height="466.743px" viewBox="0 0 466.743 466.743" style="enable-background:new 0 0 466.743 466.743;"
	 xml:space="preserve">
<g>
	<g>
		<path d="M17.679,452.477l14.026-7.045l-14.138-28.108l19.696-39.173h29.721h7.586l19.853,39.481l-13.984,27.783l14.03,7.062
			l0.072-0.148l0.289,0.148l13.048-25.952h37.618l13.048,25.952l14.03-7.045l-13.796-27.431l20.576-40.908h36.961l20.576,40.908
			l-13.792,27.431l14.026,7.053l13.044-25.944h37.626l13.048,25.944l14.03-7.053l-13.802-27.415l20.041-39.85h7.898h21.641h7.898
			l20.029,39.834l-19.517,38.808h18.014l2.172-4.324l0,0l6.524-12.979l6.523-12.98h37.182l13.04,25.952l14.029-7.045l-13.785-27.431
			l23.98-47.685l-23.916-47.548l23.916-47.557l-23.64-47.017l23.64-47.013l-23.64-47.015l23.64-47.017l-23.904-47.55l9.217-18.292
			l-14.029-7.058l-8.532,16.966h-37.618l-8.527-16.966l-0.108,0.057l-0.012-0.057l-14.03,7.058l8.937,17.759l-19.7,39.167h-37.626
			L301.28,39.381l9.085-18.073l0,0l0,0l5.406-11.373H298.19l-2.168,4.322l0,0l-6.019,11.984l-2.513,4.976h-7.898h-29.407
			L241.65,14.25l-0.229,0.119l-0.057-0.112l-14.025,7.061l8.938,17.757l-19.703,39.167h-37.612l-19.707-39.167l8.943-17.757
			l-14.028-7.061l-0.024,0.05l-0.104-0.057l-8.532,16.966h-29.719h-7.57L99.688,14.25l-2.495-4.315H79.615l5.731,11.383l0,0
			l1.961,3.891l6.981,13.866l-6.562,13.054L74.594,78.241h-7.901H37.263L17.574,39.066l8.937-17.759L12.473,14.25L0,39.066
			l23.91,47.55L0,134.167l23.642,47.015L0,228.195l23.642,47.017L0,322.231l23.91,47.548L0,417.323L17.679,452.477z
			 M145.503,409.461h-29.711h-7.586l-19.853-39.485l19.532-38.844h37.618L165.21,370.3L145.503,409.461z M301.424,228.188
			l19.705-39.164h7.895h29.41l19.7,39.164l-19.7,39.165h-29.731h-7.573l-4.709-9.35L301.424,228.188z M307.343,275.528
			l-19.532,38.836h-37.626l-19.692-39.16l19.692-39.165h29.407h7.898L307.343,275.528z M300.623,194.23l-13.132,26.108h-7.898
			h-29.407l-19.7-39.164l19.7-39.167h29.407h7.898l13.132,26.11l6.561,13.057L300.623,194.23z M236.278,228.188l-19.703,39.165
			h-37.612l-19.707-39.165l19.707-39.164h37.612L236.278,228.188z M145.503,220.338h-29.719h-7.578l-4.703-9.349l-15-29.815
			l19.703-39.167h7.896h29.4l19.707,39.167L145.503,220.338z M108.214,236.039h7.9h29.396l19.707,39.165l-19.707,39.16h-29.719
			h-7.578l-4.703-9.345l-15-29.815L108.214,236.039z M178.963,361.392l-19.707-39.177l19.707-39.16h37.612l19.703,39.16
			l-19.703,39.177H178.963z M287.795,409.461h-37.61l-19.7-39.161l19.7-39.168h29.716h7.59l19.853,39.473L287.795,409.461z
			 M358.418,362.449h-7.759h-21.957h-7.573l-19.857-39.48l19.536-38.856h37.61l19.708,39.169L358.418,362.449z M449.194,370.3
			l-19.7,39.161h-36.499l-20.254-40.274l19.14-38.047h37.621L449.194,370.3z M449.194,275.204l-19.7,39.16h-37.618l-19.704-39.16
			l19.704-39.165h37.618L449.194,275.204z M449.194,181.182l-19.7,39.165h-37.618l-19.704-39.165l19.704-39.165h37.618
			L449.194,181.182z M391.875,47.983h37.618l19.7,39.167l-19.7,39.167h-37.618l-19.704-39.167L391.875,47.983z M321.129,95h7.895
			h29.41l19.7,39.167l-19.7,39.165h-29.731h-7.573l-4.709-9.349l-14.996-29.815L321.129,95z M250.185,47.983h37.61l19.548,38.844
			l-19.853,39.479h-7.898h-29.407l-19.692-39.156L250.185,47.983z M216.575,95l19.703,39.167l-19.703,39.165h-37.612l-19.707-39.165
			L178.963,95H216.575z M101.103,61.045l7.104-14.128h7.908h29.389l19.707,39.167l-19.707,39.157h-37.618L88.354,86.394
			L101.103,61.045z M17.574,134.167L37.269,95h37.62l19.542,38.846l-19.853,39.478h-7.901H37.263L17.574,134.167z M17.574,228.188
			l19.695-39.164h29.408h7.901l13.132,26.108l6.562,13.056l-6.562,13.057l-13.132,26.108h-7.901H37.263L17.574,228.188z
			 M17.574,322.215l19.695-39.16h29.408h7.901l19.853,39.485l-19.542,38.836H37.263L17.574,322.215z"/>
	</g>
</g>
<g>
</g>
<g>
</g>
<g>
</g>
<g>
</g>
<g>
</g>
<g>
</g>
<g>
</g>
<g>
</g>
<g>
</g>
<g>
</g>
<g>
</g>
<g>
</g>
<g>
</g>
<g>
</g>
<g>
</g>
</svg>
