<?xml version="1.0" encoding="utf-8"?>
<!-- Generator: Adobe Illustrator 12.0.0, SVG Export Plug-In . SVG Version: 6.00 Build 51448)  -->
<!DOCTYPE svg PUBLIC "-//W3C//DTD SVG 1.1//EN" "http://www.w3.org/Graphics/SVG/1.1/DTD/svg11.dtd" [
	<!ENTITY ns_svg "http://www.w3.org/2000/svg">
	<!ENTITY ns_xlink "http://www.w3.org/1999/xlink">
]>
<svg  version="1.1" id="Layer_1" xmlns="&ns_svg;" xmlns:xlink="&ns_xlink;" width="88" height="88" viewBox="-0.16 -0.21 88 88"
	 overflow="visible" enable-background="new -0.16 -0.21 88 88" xml:space="preserve">
<path fill="none" d="M33.15,71.729c-3.38-3.949-3.9-8.6-3.1-13.279H13.49h-1v-1.99h1h16.97c0.69-2.859,1.79-5.689,2.94-8.34H20.73
	h-1v-1.99h1h13.56c0.24-0.529,0.48-1.061,0.72-1.57c1.51-3.3,2.81-6.14,2.81-7.77c0-2.73,0.28-4.37,0.92-5.18
	c-1.09-0.86-1.95-2.05-2.64-3.47l-23.25,3.22l-0.43,15.28l-0.03,0.99l-1.99-0.061l0.03-1l0.9-32.009
	C4.5,22.19,0.35,32.27,0.35,43.31c0,12.55,5.36,23.839,13.91,31.72c1.34,0.64,3.46,1.33,6.47,1.33
	C25.32,76.36,30.95,73.12,33.15,71.729z"/>
<path fill="none" d="M35,15.15c1.54,9.91,2.78,15.99,8.46,15.99c6.06,0,11.7-1.11,14.49-1.76C56.029,18.5,55.1,6.43,54.92,3.96
	l-0.279-1.52c-0.051-0.28-0.101-0.57-0.16-0.85c-3.51-0.92-7.201-1.42-11-1.42c-3.78,0-7.45,0.49-10.95,1.4
	c0.33,1.96,0.68,3.83,1.05,5.54C34.17,9.81,34.59,12.53,35,15.15z"/>
<path fill="none" d="M67.92,77.351c2.971-2.201,5.95-4.351,8.42-6.101c1.09-1.28,2.1-2.62,3.04-4.021
	c-3.069-4.859-6.649-9.72-9.819-13.66c-2.82,3.5-17.41,20.971-28.511,21.65c-2.5,0.15-4.66-0.539-6.46-2.05
	c-2.05,1.34-8.42,5.181-13.85,5.181c-0.96,0-1.83-0.07-2.64-0.17c7.12,5.199,15.9,8.27,25.39,8.27c6.13,0,11.95-1.28,17.231-3.58
	C62.6,81.36,64.95,79.55,67.92,77.351z"/>
<path fill="none" d="M34.48,23.33c-0.59-2.43-1.01-5.13-1.44-7.87c-0.41-2.6-0.82-5.29-1.4-7.92c-0.36-1.67-0.71-3.5-1.03-5.41
	c-6.55,2.04-12.43,5.61-17.22,10.29L13,26.31L34.48,23.33z"/>
<path fill="none" d="M40.92,73.24c8.91-0.55,20.99-13.71,25.609-19.15l-17.139,4.32l-0.121,0.03h-0.119H45.02h-1v-1.99h1h4.01
	l18.961-4.78c-1.61-1.92-3.07-3.54-4.23-4.7c-2.3-2.3-4.09-8.56-5.439-15.63c-2.91,0.68-8.6,1.79-14.85,1.79
	c-0.87,0-1.65-0.11-2.36-0.32l-0.73,0.74l-0.25-0.25c-0.14,0.5-0.3,1.51-0.3,3.5c0,2.06-1.32,4.95-3,8.6
	c-1.67,3.641-3.62,7.91-4.54,12.15v0.91h-0.18c-0.79,4.37-0.36,8.66,2.72,12.16l0.11-0.08l0.51,0.73
	C36.93,72.729,38.72,73.38,40.92,73.24z"/>
<path fill="none" d="M58.88,3.46l0.011,0.11c0.979,13.7,3.93,36.83,7.689,40.59c3.65,3.649,9.859,11.28,15.08,19.26
	c3.17-6,4.97-12.84,4.97-20.11c0-18.43-11.56-34.16-27.83-40.34l0.07,0.38L58.88,3.46z"/>
<path fill="#231F20" d="M67.981,51.67L49.02,56.45h-4.01h-1v1.99h1h4.131h0.119l0.12-0.03l17.14-4.32
	C61.891,59.53,49.82,72.69,40.91,73.24c-2.2,0.14-3.99-0.521-5.49-1.99l0.63,0.899l-0.81,0.57c-0.05,0.04-0.28,0.2-0.67,0.45
	c1.8,1.521,3.96,2.21,6.46,2.05c11.1-0.68,25.691-18.14,28.51-21.65C69.02,52.92,68.49,52.28,67.981,51.67z"/>
<path fill="#231F20" d="M32.09,58.44h-0.81h-1.23c-0.79,4.68-0.28,9.34,3.1,13.279c0.59-0.369,0.94-0.609,0.95-0.63l0.71-0.5
	C31.73,67.11,31.31,62.819,32.09,58.44z"/>
<path fill="#231F20" d="M32.28,56.45v1.08c0.92-4.24,2.87-8.51,4.54-12.15c1.67-3.65,3-6.54,3-8.6c0-1.99,0.17-3,0.3-3.5l0.25,0.25
	l0.73-0.74c-0.89-0.26-1.67-0.67-2.36-1.21c-0.64,0.82-0.92,2.46-0.92,5.18c0,1.63-1.3,4.47-2.81,7.771
	c-0.23,0.51-0.47,1.039-0.72,1.57h0.06h1v1.989h-1H33.4c-1.15,2.65-2.25,5.479-2.94,8.341h0.82h1V56.45z"/>
<path fill="#231F20" d="M33.04,15.46c0.43,2.74,0.85,5.44,1.44,7.87l1.33-0.18l0.68,4.93l-0.38,0.05c0.69,1.42,1.54,2.61,2.64,3.47
	c0.69,0.54,1.47,0.95,2.36,1.21c0.71,0.21,1.5,0.32,2.36,0.32c6.25,0,11.94-1.11,14.85-1.79c-0.12-0.65-0.24-1.3-0.36-1.96
	c-2.79,0.65-8.431,1.76-14.49,1.76c-5.68,0-6.91-6.07-8.46-15.99c-0.41-2.63-0.83-5.35-1.42-8.03c-0.37-1.7-0.72-3.58-1.05-5.54
	c-0.65,0.17-1.29,0.35-1.92,0.55c0.32,1.91,0.67,3.74,1.03,5.41C32.21,10.17,32.63,12.86,33.04,15.46z"/>
<path fill="#231F20" d="M16.68,26.47c-0.19,0.03-0.28,0.061-0.33,0.07l0.24,1.8c0.05,0.03,0.19,0.01,0.35,0
	c0.26-0.04,0.51-0.12,0.68-0.25c0.31-0.24,0.38-0.55,0.34-0.86C17.88,26.6,17.39,26.37,16.68,26.47z"/>
<path fill="#231F20" d="M24.11,26.29c-0.08-0.59-0.56-0.79-1.21-0.7c-0.23,0.04-0.34,0.06-0.37,0.09l0.23,1.68
	c0.04,0.01,0.17-0.01,0.36-0.04C23.97,27.19,24.16,26.63,24.11,26.29z"/>
<path fill="#231F20" d="M19.79,26.3c-0.13,0.59-0.29,1.34-0.43,1.93c0,0.03,0,0.04,0.02,0.03l1.35-0.19
	c-0.29-0.56-0.64-1.24-0.92-1.78L19.79,26.3z"/>
<path fill="#231F20" d="M35.81,23.15l-1.33,0.18L13,26.31l-0.14,5.04l23.25-3.22l0.38-0.05L35.81,23.15z"/>
<path fill="#231F20" d="M10.4,47.56l1.99,0.061l0.03-0.99l0.43-15.28l0.14-5.04l0.39-13.89c-0.71,0.69-1.39,1.4-2.05,2.14
	l-0.9,32.009L10.4,47.56z"/>
<polygon fill="#231F20" points="35.34,48.11 35.34,46.12 34.35,46.12 34.29,46.12 20.73,46.12 19.74,46.12 19.74,48.11 20.73,48.11 
	33.4,48.11 34.35,48.11 "/>
<polygon fill="#231F20" points="32.09,58.44 32.28,58.44 32.28,57.54 32.28,56.45 31.28,56.45 30.46,56.45 13.49,56.45 12.5,56.45 
	12.5,58.44 13.49,58.44 30.05,58.44 31.28,58.44 "/>
<path fill="#231F20" d="M34.58,73.181c0.38-0.25,0.62-0.41,0.67-0.451l0.81-0.569l-0.63-0.9l-0.51-0.729l-0.11,0.08l-0.71,0.5
	c-0.02,0.01-0.36,0.25-0.95,0.63c-2.21,1.39-7.84,4.64-12.42,4.64c-3.01,0-5.14-0.68-6.47-1.33c0.58,0.54,1.18,1.061,1.8,1.57h1.54
	v1v0.21c0.16,0.12,0.33,0.239,0.5,0.37c0.81,0.109,1.68,0.17,2.64,0.17C26.17,78.351,32.53,74.51,34.58,73.181z"/>
<path fill="#231F20" d="M17.59,76.601h-1.54c0.5,0.409,1.01,0.819,1.54,1.209v-0.209V76.601z"/>
<path fill="#231F20" d="M54.92,3.96c0.18,2.47,1.109,14.54,3.03,25.41c0.12,0.66,0.239,1.32,0.36,1.96
	c1.35,7.08,3.14,13.33,5.439,15.63c1.16,1.16,2.62,2.78,4.23,4.7c0.51,0.61,1.029,1.239,1.569,1.909
	c3.181,3.94,6.75,8.801,9.82,13.66c0.819-1.229,1.58-2.51,2.28-3.819c-5.211-7.979-11.43-15.61-15.08-19.26
	c-3.76-3.76-6.711-26.89-7.69-40.59l-0.01-0.11L58.85,3.34l-0.07-0.38c-1.399-0.53-2.829-0.99-4.299-1.38
	c0.049,0.28,0.1,0.57,0.16,0.85L54.92,3.96z"/>
<path fill="#231F20" d="M23.12,27.32c-0.2,0.02-0.32,0.04-0.36,0.04l-0.23-1.68c0.03-0.03,0.15-0.05,0.37-0.09
	c0.65-0.09,1.13,0.11,1.21,0.7C24.16,26.63,23.97,27.19,23.12,27.32z"/>
<circle fill="none" stroke="#231F20" cx="43.63" cy="43.63" r="43.13"/>
</svg>
