<?xml version="1.0" encoding="utf-8"?>
<!-- Generator: Adobe Illustrator 12.0.0, SVG Export Plug-In  -->
<!DOCTYPE svg PUBLIC "-//W3C//DTD SVG 1.1//EN" "http://www.w3.org/Graphics/SVG/1.1/DTD/svg11.dtd" [
	<!ENTITY ns_flows "http://ns.adobe.com/Flows/1.0/">
	<!ENTITY ns_svg "http://www.w3.org/2000/svg">
	<!ENTITY ns_xlink "http://www.w3.org/1999/xlink">
]>
<svg  version="1.1" xmlns="&ns_svg;" xmlns:xlink="&ns_xlink;" xmlns:a="http://ns.adobe.com/AdobeSVGViewerExtensions/3.0/"
	 width="113" height="113" viewBox="-0.5 -0.3 113 113" enable-background="new -0.5 -0.3 113 113" xml:space="preserve">
<defs>
</defs>
<polygon fill="#FFFFFF" stroke="#666666" points="71.12,0.7 111.81,39.68 111.81,96.01 32.14,96.01 32.14,39.68 "/>
<polyline fill="none" stroke="#666666" points="111.81,44.34 72.25,83.45 32.14,43.09 "/>
<path fill="#FFFFFF" stroke="#666666" d="M32.03,90.54c1.3-1.39,37.48-37.12,37.48-37.12c1.29-1.39,3.42-1.39,4.71,0l37.48,37.12"/>
<polygon fill="#FFFFFF" stroke="#666666" points="39.48,16.82 80.17,55.8 80.17,112.13 0.5,112.13 0.5,55.8 "/>
<rect x="9.5" y="69.62" fill="#666666" stroke="#666666" stroke-width="0.5922" width="35.33" height="4.45"/>
<rect x="9.5" y="76.17" fill="#666666" stroke="#666666" stroke-width="0.7411" width="55.33" height="4.45"/>
<rect x="9.5" y="83.11" fill="#666666" stroke="#666666" stroke-width="0.6806" width="46.67" height="4.45"/>
<rect x="9.5" y="89.94" fill="#666666" stroke="#666666" stroke-width="0.5251" width="26.59" height="4.65"/>
<rect x="9.5" y="96.99" fill="#666666" stroke="#666666" stroke-width="0.3874" width="14.47" height="4.65"/>
</svg>
