<?xml version="1.0" encoding="utf-8"?>
<!-- Generator: Adobe Illustrator 12.0.0, SVG Export Plug-In  -->
<!DOCTYPE svg PUBLIC "-//W3C//DTD SVG 1.1//EN" "http://www.w3.org/Graphics/SVG/1.1/DTD/svg11.dtd" [
	<!ENTITY ns_flows "http://ns.adobe.com/Flows/1.0/">
	<!ENTITY ns_svg "http://www.w3.org/2000/svg">
	<!ENTITY ns_xlink "http://www.w3.org/1999/xlink">
]>
<svg  version="1.1" xmlns="&ns_svg;" xmlns:xlink="&ns_xlink;" xmlns:a="http://ns.adobe.com/AdobeSVGViewerExtensions/3.0/"
	 width="100" height="80" viewBox="-0.96 -0.56 100 80" enable-background="new -0.96 -0.56 100 80" xml:space="preserve">
<defs>
</defs>
<g>
	<g>
		<line fill="none" stroke="#636667" stroke-width="1.049" x1="93.45" y1="62.29" x2="66.73" y2="62.29"/>
		<path fill="#636667" d="M64.88,63.1c1.3,0.39,2.15,0.75,3.19,1.17V60.3c-0.37,0.18-1.89,0.78-3.19,1.17
			c-1.39,0.42-2.66,0.71-3.47,0.81C62.22,62.39,63.48,62.68,64.88,63.1z"/>
		<path fill="#636667" d="M95.3,61.49c-1.3-0.39-2.15-0.75-3.19-1.17v3.97c0.37-0.18,1.89-0.78,3.19-1.17
			c1.39-0.42,2.66-0.71,3.47-0.81C97.96,62.2,96.7,61.91,95.3,61.49z"/>
	</g>
</g>
<path d="M2.59,33.53H2.07v-5.72c0-0.52,0.02-1.06,0.06-1.62c-0.05,0.05-0.11,0.11-0.17,0.16c-0.06,0.05-0.61,0.48-1.66,1.31L0,27.27
	l2.13-1.59h0.46V33.53z"/>
<path d="M11.34,31.52H9.99v2.01h-0.5v-2.01H5.44v-0.36l3.9-5.53h0.65v5.43h1.35V31.52z M9.48,31.06v-2.25
	c0-1.08,0.03-1.99,0.08-2.72H9.51c-0.07,0.13-0.29,0.47-0.66,1.01l-2.77,3.96H9.48z"/>
<path d="M14.62,25.54c0.67,0,1.2,0.17,1.61,0.51c0.41,0.34,0.61,0.8,0.61,1.38c0,0.4-0.13,0.76-0.38,1.06
	c-0.25,0.31-0.66,0.59-1.23,0.85c0.69,0.28,1.17,0.59,1.45,0.93c0.28,0.34,0.42,0.74,0.42,1.22c0,0.65-0.23,1.17-0.68,1.55
	s-1.06,0.58-1.82,0.58c-0.79,0-1.4-0.18-1.82-0.54s-0.63-0.89-0.63-1.58c0-0.47,0.15-0.88,0.45-1.24c0.3-0.35,0.76-0.66,1.38-0.91
	c-0.58-0.27-0.98-0.56-1.22-0.86c-0.24-0.3-0.35-0.66-0.35-1.09c0-0.38,0.1-0.71,0.29-0.99s0.46-0.5,0.8-0.66
	S14.2,25.54,14.62,25.54z M12.69,31.59c0,0.49,0.17,0.88,0.5,1.15c0.33,0.27,0.8,0.41,1.41,0.41c0.59,0,1.06-0.14,1.42-0.43
	c0.36-0.29,0.54-0.68,0.54-1.17c0-0.44-0.14-0.81-0.42-1.08c-0.28-0.28-0.82-0.57-1.63-0.87c-0.66,0.25-1.13,0.54-1.4,0.84
	C12.82,30.74,12.69,31.13,12.69,31.59z M14.6,26.03c-0.5,0-0.91,0.12-1.22,0.37c-0.31,0.25-0.46,0.59-0.46,1.02
	c0,0.25,0.06,0.47,0.17,0.66c0.11,0.19,0.28,0.37,0.49,0.52c0.21,0.16,0.57,0.34,1.07,0.54c0.58-0.23,1-0.47,1.26-0.75
	c0.25-0.27,0.38-0.6,0.38-0.98c0-0.43-0.15-0.77-0.45-1.02S15.13,26.03,14.6,26.03z"/>
<path d="M18.64,33.11c0-0.35,0.14-0.53,0.43-0.53c0.29,0,0.44,0.18,0.44,0.53s-0.15,0.53-0.44,0.53
	C18.78,33.64,18.64,33.46,18.64,33.11z"/>
<path d="M23.27,28.81c0.84,0,1.5,0.2,1.98,0.61c0.48,0.4,0.72,0.96,0.72,1.67c0,0.81-0.25,1.43-0.75,1.88
	c-0.5,0.45-1.19,0.67-2.07,0.67c-0.39,0-0.76-0.04-1.11-0.12c-0.35-0.08-0.64-0.19-0.88-0.33v-0.55c0.39,0.2,0.73,0.33,1.03,0.41
	c0.3,0.08,0.62,0.12,0.96,0.12c0.69,0,1.24-0.18,1.66-0.54c0.42-0.36,0.62-0.85,0.62-1.47c0-0.58-0.2-1.04-0.61-1.37
	c-0.4-0.33-0.95-0.5-1.65-0.5c-0.47,0-0.95,0.07-1.46,0.21l-0.32-0.21l0.31-3.59h3.78v0.52H22.2l-0.24,2.77
	C22.52,28.86,22.95,28.81,23.27,28.81z"/>
<path d="M34.93,33.53V29.7c0-0.57-0.11-0.98-0.33-1.25c-0.22-0.26-0.56-0.39-1.02-0.39c-0.6,0-1.04,0.17-1.33,0.49
	c-0.29,0.33-0.43,0.85-0.43,1.55v3.42h-0.54v-3.99c0-0.99-0.45-1.48-1.35-1.48c-0.61,0-1.06,0.18-1.34,0.53s-0.42,0.93-0.42,1.71
	v3.22h-0.53v-5.84h0.44l0.11,0.8h0.03c0.16-0.29,0.39-0.51,0.69-0.67c0.3-0.16,0.63-0.24,0.98-0.24c0.92,0,1.51,0.35,1.77,1.04h0.02
	c0.19-0.33,0.45-0.59,0.77-0.77c0.32-0.18,0.68-0.27,1.09-0.27c0.64,0,1.12,0.17,1.43,0.51c0.32,0.34,0.48,0.88,0.48,1.62v3.82
	H34.93z"/>
<path d="M44.64,33.53V29.7c0-0.57-0.11-0.98-0.33-1.25c-0.22-0.26-0.56-0.39-1.02-0.39c-0.6,0-1.04,0.17-1.33,0.49
	c-0.29,0.33-0.43,0.85-0.43,1.55v3.42h-0.54v-3.99c0-0.99-0.45-1.48-1.35-1.48c-0.61,0-1.06,0.18-1.34,0.53s-0.42,0.93-0.42,1.71
	v3.22h-0.53v-5.84h0.44l0.11,0.8h0.03c0.16-0.29,0.39-0.51,0.69-0.67c0.3-0.16,0.63-0.24,0.98-0.24c0.92,0,1.51,0.35,1.77,1.04h0.02
	c0.19-0.33,0.45-0.59,0.77-0.77c0.32-0.18,0.68-0.27,1.09-0.27c0.64,0,1.12,0.17,1.43,0.51c0.32,0.34,0.48,0.88,0.48,1.62v3.82
	H44.64z"/>
<path d="M55.68,78.55h-0.53v-5.72c0-0.52,0.02-1.06,0.06-1.62c-0.05,0.05-0.11,0.11-0.17,0.16c-0.06,0.05-0.61,0.48-1.66,1.3
	l-0.31-0.38l2.13-1.6h0.46V78.55z"/>
<path d="M64.42,76.54h-1.35v2.01h-0.5v-2.01h-4.04v-0.36l3.9-5.53h0.65v5.43h1.35V76.54z M62.57,76.08v-2.24
	c0-1.08,0.03-1.99,0.08-2.72H62.6c-0.07,0.13-0.29,0.47-0.66,1.01l-2.77,3.96H62.57z"/>
<path d="M67.7,70.57c0.67,0,1.2,0.17,1.61,0.51c0.41,0.34,0.61,0.8,0.61,1.38c0,0.4-0.13,0.75-0.38,1.06
	c-0.25,0.31-0.66,0.59-1.23,0.85c0.69,0.28,1.17,0.59,1.45,0.93c0.28,0.34,0.42,0.75,0.42,1.22c0,0.65-0.23,1.17-0.68,1.55
	s-1.06,0.58-1.82,0.58c-0.79,0-1.4-0.18-1.82-0.54s-0.63-0.89-0.63-1.58c0-0.47,0.15-0.88,0.45-1.24c0.3-0.35,0.76-0.66,1.38-0.91
	c-0.58-0.27-0.98-0.56-1.22-0.86s-0.35-0.66-0.35-1.09c0-0.38,0.1-0.71,0.29-0.99c0.19-0.28,0.46-0.5,0.8-0.66
	S67.28,70.57,67.7,70.57z M65.77,76.62c0,0.49,0.17,0.88,0.5,1.15c0.33,0.27,0.8,0.41,1.41,0.41c0.59,0,1.06-0.14,1.42-0.43
	c0.36-0.29,0.54-0.68,0.54-1.17c0-0.45-0.14-0.81-0.42-1.08c-0.28-0.28-0.82-0.57-1.63-0.87c-0.66,0.25-1.13,0.54-1.4,0.84
	C65.91,75.77,65.77,76.15,65.77,76.62z M67.69,71.05c-0.5,0-0.91,0.13-1.22,0.37c-0.31,0.25-0.46,0.59-0.46,1.02
	c0,0.25,0.06,0.47,0.17,0.66c0.11,0.19,0.28,0.37,0.49,0.52c0.21,0.16,0.57,0.34,1.07,0.54c0.58-0.22,1-0.47,1.26-0.75
	c0.25-0.27,0.38-0.6,0.38-0.98c0-0.43-0.15-0.77-0.45-1.02C68.63,71.18,68.21,71.05,67.69,71.05z"/>
<path d="M71.72,78.13c0-0.35,0.14-0.53,0.43-0.53c0.29,0,0.44,0.18,0.44,0.53s-0.15,0.53-0.44,0.53
	C71.87,78.66,71.72,78.49,71.72,78.13z"/>
<path d="M76.35,73.83c0.84,0,1.5,0.2,1.98,0.61c0.48,0.4,0.72,0.96,0.72,1.67c0,0.81-0.25,1.43-0.75,1.88
	c-0.5,0.45-1.19,0.67-2.07,0.67c-0.39,0-0.76-0.04-1.11-0.12c-0.35-0.08-0.64-0.19-0.88-0.33v-0.55c0.39,0.2,0.73,0.33,1.03,0.41
	c0.3,0.08,0.62,0.12,0.96,0.12c0.69,0,1.24-0.18,1.66-0.54c0.42-0.36,0.62-0.85,0.62-1.47c0-0.58-0.2-1.04-0.61-1.37
	c-0.4-0.33-0.95-0.5-1.65-0.5c-0.47,0-0.95,0.07-1.46,0.21l-0.32-0.21l0.31-3.59h3.78v0.52h-3.28l-0.24,2.77
	C75.6,73.89,76.04,73.83,76.35,73.83z"/>
<path d="M88.02,78.55v-3.83c0-0.57-0.11-0.98-0.33-1.25s-0.56-0.39-1.02-0.39c-0.6,0-1.04,0.17-1.33,0.49
	c-0.29,0.33-0.43,0.85-0.43,1.55v3.42h-0.54v-3.99c0-0.99-0.45-1.48-1.35-1.48c-0.61,0-1.06,0.18-1.34,0.54s-0.42,0.93-0.42,1.71
	v3.22h-0.53v-5.84h0.44l0.11,0.8h0.03C81.47,73.22,81.7,73,82,72.84c0.3-0.16,0.63-0.24,0.98-0.24c0.92,0,1.51,0.35,1.77,1.04h0.02
	c0.19-0.33,0.45-0.59,0.77-0.77c0.32-0.18,0.68-0.27,1.09-0.27c0.64,0,1.12,0.17,1.43,0.51c0.32,0.34,0.48,0.88,0.48,1.62v3.82
	H88.02z"/>
<path d="M97.73,78.55v-3.83c0-0.57-0.11-0.98-0.33-1.25s-0.56-0.39-1.02-0.39c-0.6,0-1.04,0.17-1.33,0.49
	c-0.29,0.33-0.43,0.85-0.43,1.55v3.42h-0.54v-3.99c0-0.99-0.45-1.48-1.35-1.48c-0.61,0-1.06,0.18-1.34,0.54s-0.42,0.93-0.42,1.71
	v3.22h-0.53v-5.84h0.44l0.11,0.8h0.03c0.16-0.29,0.39-0.52,0.69-0.67c0.3-0.16,0.63-0.24,0.98-0.24c0.92,0,1.51,0.35,1.77,1.04h0.02
	c0.19-0.33,0.45-0.59,0.77-0.77c0.32-0.18,0.68-0.27,1.09-0.27c0.64,0,1.12,0.17,1.43,0.51c0.32,0.34,0.48,0.88,0.48,1.62v3.82
	H97.73z"/>
<g>
	<g>
		<line fill="none" stroke="#636667" stroke-width="1.049" x1="51.24" y1="6.38" x2="51.24" y2="46.38"/>
		<path fill="#636667" d="M52.05,48.24c0.39-1.3,0.75-2.15,1.17-3.19h-3.97c0.18,0.37,0.78,1.89,1.17,3.19
			c0.42,1.39,0.71,2.66,0.81,3.47C51.34,50.9,51.63,49.63,52.05,48.24z"/>
		<path fill="#636667" d="M50.44,4.53c-0.39,1.3-0.75,2.15-1.17,3.19h3.97c-0.18-0.37-0.78-1.89-1.17-3.19
			c-0.42-1.39-0.71-2.66-0.81-3.47C51.14,1.87,50.86,3.13,50.44,4.53z"/>
	</g>
</g>
<rect x="60.34" y="0.25" fill="#FFFFFF" stroke="#3F3F3F" stroke-width="0.5" width="38.06" height="53.83"/>
</svg>
