<?xml version="1.0" encoding="utf-8"?>
<!-- Generator: Adobe Illustrator 12.0.0, SVG Export Plug-In  -->
<!DOCTYPE svg PUBLIC "-//W3C//DTD SVG 1.1//EN" "http://www.w3.org/Graphics/SVG/1.1/DTD/svg11.dtd" [
	<!ENTITY ns_flows "http://ns.adobe.com/Flows/1.0/">
	<!ENTITY ns_svg "http://www.w3.org/2000/svg">
	<!ENTITY ns_xlink "http://www.w3.org/1999/xlink">
]>
<svg  version="1.1" xmlns="&ns_svg;" xmlns:xlink="&ns_xlink;" xmlns:a="http://ns.adobe.com/AdobeSVGViewerExtensions/3.0/"
	 width="100" height="107" viewBox="-0.96 -0.08 100 107" enable-background="new -0.96 -0.08 100 107" xml:space="preserve">
<defs>
</defs>
<g>
	<g>
		<g enable-background="new    ">
			<defs>
				<polygon id="XMLID_4_" enable-background="new    " points="98.45,70.84 72.85,79.39 70.39,63.19 95.99,54.64 				"/>
			</defs>
			<clipPath id="XMLID_1_">
				<use xlink:href="#XMLID_4_" />
			</clipPath>
			<g clip-path="url(#XMLID_1_)">
				<g>
					<g>
						<g>
							<path fill="#3F3F3F" d="M71.57,70.94c0.28,1.85,1.51,3.38,3.67,4.22c4.02,1.56,9.97,0.17,14.22-3.11l-0.72-0.28
								c-3.88,2.92-9.23,4.14-12.87,2.73c-1.97-0.77-3.1-2.18-3.36-3.87c-0.3-1.95,0.56-4.28,2.62-6.44
								c3.85-4.04,10.44-5.98,14.69-4.34l0.63-0.66c-4.64-1.8-11.82,0.33-16.02,4.72C72.19,66.27,71.25,68.81,71.57,70.94"/>
							<path fill="#3F3F3F" d="M86.65,70.97l2.08,0.81l0.72,0.28l2.49,0.96c0.22-0.56,1.24-2.79,2.29-4.65
								c1.12-1.98,2.26-3.73,3.11-4.82c-1.13,0.99-3.04,2.44-5.28,3.99C89.98,68.98,88.47,69.86,86.65,70.97"/>
						</g>
					</g>
				</g>
			</g>
		</g>
	</g>
</g>
<g>
	<g>
		<line fill="none" stroke="#636667" stroke-width="1.049" x1="92.59" y1="90.16" x2="65.88" y2="90.16"/>
		<path fill="#636667" d="M64.02,90.96c1.3,0.39,2.15,0.75,3.19,1.17v-3.97c-0.37,0.18-1.89,0.78-3.19,1.17
			c-1.39,0.42-2.65,0.71-3.47,0.81C61.37,90.25,62.63,90.54,64.02,90.96z"/>
		<path fill="#636667" d="M94.45,89.35c-1.3-0.39-2.14-0.75-3.19-1.17v3.97c0.38-0.18,1.89-0.78,3.19-1.17
			c1.39-0.42,2.66-0.71,3.47-0.81C97.11,90.06,95.84,89.77,94.45,89.35z"/>
	</g>
</g>
<path d="M2.59,41.98H2.07v-5.72c0-0.52,0.02-1.06,0.06-1.62c-0.05,0.05-0.11,0.11-0.17,0.16c-0.06,0.05-0.61,0.48-1.66,1.31L0,35.73
	l2.13-1.59h0.46V41.98z"/>
<path d="M11.34,39.98H9.99v2.01h-0.5v-2.01H5.44v-0.36l3.9-5.53h0.65v5.43h1.35V39.98z M9.48,39.52v-2.25
	c0-1.08,0.03-1.99,0.08-2.72H9.51c-0.07,0.13-0.29,0.47-0.66,1.01l-2.77,3.96H9.48z"/>
<path d="M14.62,34c0.67,0,1.2,0.17,1.61,0.51c0.41,0.34,0.61,0.8,0.61,1.38c0,0.4-0.13,0.76-0.38,1.06
	c-0.25,0.31-0.66,0.59-1.23,0.85c0.69,0.28,1.17,0.59,1.45,0.93c0.28,0.34,0.42,0.74,0.42,1.22c0,0.65-0.23,1.17-0.68,1.55
	s-1.06,0.58-1.82,0.58c-0.79,0-1.4-0.18-1.82-0.54s-0.63-0.89-0.63-1.58c0-0.47,0.15-0.88,0.45-1.24c0.3-0.35,0.76-0.66,1.38-0.91
	c-0.58-0.27-0.98-0.56-1.22-0.86c-0.24-0.3-0.35-0.66-0.35-1.09c0-0.38,0.1-0.71,0.29-0.99s0.46-0.5,0.8-0.66S14.2,34,14.62,34z
	 M12.69,40.05c0,0.49,0.17,0.88,0.5,1.15c0.33,0.27,0.8,0.41,1.41,0.41c0.59,0,1.06-0.14,1.42-0.43c0.36-0.29,0.54-0.68,0.54-1.17
	c0-0.44-0.14-0.81-0.42-1.08c-0.28-0.28-0.82-0.57-1.63-0.87c-0.66,0.25-1.13,0.54-1.4,0.84C12.82,39.2,12.69,39.58,12.69,40.05z
	 M14.6,34.48c-0.5,0-0.91,0.12-1.22,0.37c-0.31,0.25-0.46,0.59-0.46,1.02c0,0.25,0.06,0.47,0.17,0.66c0.11,0.19,0.28,0.37,0.49,0.52
	c0.21,0.16,0.57,0.34,1.07,0.54c0.58-0.23,1-0.47,1.26-0.75c0.25-0.27,0.38-0.6,0.38-0.98c0-0.43-0.15-0.77-0.45-1.02
	S15.13,34.48,14.6,34.48z"/>
<path d="M18.64,41.57c0-0.35,0.14-0.53,0.43-0.53c0.29,0,0.44,0.18,0.44,0.53s-0.15,0.53-0.44,0.53
	C18.78,42.09,18.64,41.92,18.64,41.57z"/>
<path d="M23.27,37.27c0.84,0,1.5,0.2,1.98,0.61c0.48,0.4,0.72,0.96,0.72,1.67c0,0.81-0.25,1.43-0.75,1.88
	c-0.5,0.45-1.19,0.67-2.07,0.67c-0.39,0-0.76-0.04-1.11-0.12c-0.35-0.08-0.64-0.19-0.88-0.33v-0.55c0.39,0.2,0.73,0.33,1.03,0.41
	c0.3,0.08,0.62,0.12,0.96,0.12c0.69,0,1.24-0.18,1.66-0.54c0.42-0.36,0.62-0.85,0.62-1.47c0-0.58-0.2-1.04-0.61-1.37
	c-0.4-0.33-0.95-0.5-1.65-0.5c-0.47,0-0.95,0.07-1.46,0.21l-0.32-0.21l0.31-3.59h3.78v0.52H22.2l-0.24,2.77
	C22.52,37.32,22.95,37.27,23.27,37.27z"/>
<path d="M34.93,41.98v-3.83c0-0.57-0.11-0.98-0.33-1.25c-0.22-0.26-0.56-0.39-1.02-0.39c-0.6,0-1.04,0.17-1.33,0.49
	c-0.29,0.33-0.43,0.85-0.43,1.55v3.42h-0.54v-3.99c0-0.99-0.45-1.48-1.35-1.48c-0.61,0-1.06,0.18-1.34,0.53s-0.42,0.93-0.42,1.71
	v3.22h-0.53v-5.84h0.44l0.11,0.8h0.03c0.16-0.29,0.39-0.51,0.69-0.67c0.3-0.16,0.63-0.24,0.98-0.24c0.92,0,1.51,0.35,1.77,1.04h0.02
	c0.19-0.33,0.45-0.59,0.77-0.77c0.32-0.18,0.68-0.27,1.09-0.27c0.64,0,1.12,0.17,1.43,0.51c0.32,0.34,0.48,0.88,0.48,1.62v3.82
	H34.93z"/>
<path d="M44.64,41.98v-3.83c0-0.57-0.11-0.98-0.33-1.25c-0.22-0.26-0.56-0.39-1.02-0.39c-0.6,0-1.04,0.17-1.33,0.49
	c-0.29,0.33-0.43,0.85-0.43,1.55v3.42h-0.54v-3.99c0-0.99-0.45-1.48-1.35-1.48c-0.61,0-1.06,0.18-1.34,0.53s-0.42,0.93-0.42,1.71
	v3.22h-0.53v-5.84h0.44l0.11,0.8h0.03c0.16-0.29,0.39-0.51,0.69-0.67c0.3-0.16,0.63-0.24,0.98-0.24c0.92,0,1.51,0.35,1.77,1.04h0.02
	c0.19-0.33,0.45-0.59,0.77-0.77c0.32-0.18,0.68-0.27,1.09-0.27c0.64,0,1.12,0.17,1.43,0.51c0.32,0.34,0.48,0.88,0.48,1.62v3.82
	H44.64z"/>
<path d="M54.83,106.42H54.3v-5.72c0-0.52,0.02-1.06,0.06-1.62c-0.05,0.05-0.11,0.11-0.17,0.16c-0.06,0.05-0.61,0.49-1.66,1.31
	l-0.31-0.38l2.13-1.59h0.46V106.42z"/>
<path d="M63.57,104.41h-1.35v2.01h-0.5v-2.01h-4.04v-0.36l3.9-5.53h0.65v5.43h1.35V104.41z M61.71,103.95v-2.25
	c0-1.08,0.03-1.99,0.08-2.72h-0.04c-0.07,0.13-0.29,0.47-0.66,1.01l-2.77,3.96H61.71z"/>
<path d="M66.85,98.44c0.67,0,1.2,0.17,1.61,0.51s0.61,0.8,0.61,1.38c0,0.4-0.13,0.75-0.38,1.06c-0.25,0.31-0.66,0.59-1.23,0.85
	c0.69,0.28,1.17,0.59,1.45,0.93c0.28,0.34,0.42,0.74,0.42,1.22c0,0.65-0.23,1.17-0.68,1.55s-1.06,0.58-1.82,0.58
	c-0.79,0-1.4-0.18-1.82-0.54c-0.42-0.36-0.63-0.89-0.63-1.58c0-0.47,0.15-0.88,0.45-1.24c0.3-0.35,0.76-0.66,1.38-0.91
	c-0.58-0.27-0.98-0.56-1.22-0.86c-0.24-0.3-0.35-0.66-0.35-1.09c0-0.38,0.1-0.71,0.29-0.99c0.19-0.29,0.46-0.5,0.8-0.66
	C66.05,98.51,66.43,98.44,66.85,98.44z M64.92,104.49c0,0.49,0.17,0.88,0.5,1.15c0.33,0.27,0.8,0.41,1.41,0.41
	c0.59,0,1.06-0.14,1.42-0.43s0.54-0.68,0.54-1.17c0-0.44-0.14-0.81-0.42-1.08s-0.82-0.57-1.63-0.87c-0.66,0.25-1.13,0.54-1.4,0.84
	C65.06,103.64,64.92,104.02,64.92,104.49z M66.84,98.92c-0.5,0-0.91,0.12-1.22,0.37c-0.31,0.25-0.46,0.59-0.46,1.02
	c0,0.25,0.06,0.47,0.17,0.66c0.11,0.19,0.28,0.37,0.49,0.52c0.21,0.16,0.57,0.34,1.07,0.54c0.58-0.23,1-0.47,1.26-0.75
	c0.25-0.27,0.38-0.6,0.38-0.98c0-0.43-0.15-0.77-0.45-1.02C67.78,99.05,67.36,98.92,66.84,98.92z"/>
<path d="M70.87,106c0-0.35,0.14-0.53,0.43-0.53c0.29,0,0.44,0.18,0.44,0.53s-0.15,0.53-0.44,0.53
	C71.02,106.53,70.87,106.36,70.87,106z"/>
<path d="M75.5,101.7c0.84,0,1.5,0.2,1.98,0.61c0.48,0.41,0.72,0.96,0.72,1.67c0,0.81-0.25,1.43-0.75,1.88
	c-0.5,0.45-1.19,0.67-2.07,0.67c-0.39,0-0.76-0.04-1.11-0.12c-0.35-0.08-0.64-0.19-0.88-0.33v-0.55c0.39,0.2,0.73,0.33,1.03,0.41
	c0.3,0.08,0.62,0.12,0.96,0.12c0.69,0,1.24-0.18,1.66-0.54c0.42-0.36,0.62-0.85,0.62-1.47c0-0.58-0.2-1.04-0.61-1.37
	c-0.4-0.33-0.95-0.5-1.65-0.5c-0.47,0-0.95,0.07-1.46,0.21l-0.32-0.21l0.31-3.59h3.78v0.52h-3.28l-0.24,2.77
	C74.75,101.75,75.19,101.7,75.5,101.7z"/>
<path d="M87.17,106.42v-3.83c0-0.57-0.11-0.99-0.33-1.25c-0.22-0.26-0.56-0.39-1.02-0.39c-0.6,0-1.04,0.17-1.33,0.49
	c-0.29,0.33-0.43,0.85-0.43,1.55v3.42h-0.54v-3.99c0-0.99-0.45-1.48-1.35-1.48c-0.61,0-1.06,0.18-1.34,0.53s-0.42,0.93-0.42,1.71
	v3.22h-0.53v-5.84h0.44l0.11,0.8h0.03c0.16-0.29,0.39-0.51,0.69-0.67c0.3-0.16,0.63-0.24,0.98-0.24c0.92,0,1.51,0.35,1.77,1.04h0.02
	c0.19-0.33,0.45-0.59,0.77-0.77s0.68-0.27,1.09-0.27c0.64,0,1.12,0.17,1.43,0.51c0.32,0.34,0.48,0.88,0.48,1.62v3.82H87.17z"/>
<path d="M96.88,106.42v-3.83c0-0.57-0.11-0.99-0.33-1.25c-0.22-0.26-0.56-0.39-1.02-0.39c-0.6,0-1.04,0.17-1.33,0.49
	c-0.29,0.33-0.43,0.85-0.43,1.55v3.42h-0.54v-3.99c0-0.99-0.45-1.48-1.35-1.48c-0.61,0-1.06,0.18-1.34,0.53s-0.42,0.93-0.42,1.71
	v3.22h-0.53v-5.84h0.44l0.11,0.8h0.03c0.16-0.29,0.39-0.51,0.69-0.67c0.3-0.16,0.63-0.24,0.98-0.24c0.92,0,1.51,0.35,1.77,1.04h0.02
	c0.19-0.33,0.45-0.59,0.77-0.77s0.68-0.27,1.09-0.27c0.64,0,1.12,0.17,1.43,0.51c0.32,0.34,0.48,0.88,0.48,1.62v3.82H96.88z"/>
<g>
	<g>
		<line fill="none" stroke="#636667" stroke-width="1.049" x1="51.24" y1="14.84" x2="51.24" y2="54.84"/>
		<path fill="#636667" d="M52.05,56.7c0.39-1.3,0.75-2.15,1.17-3.19h-3.97c0.18,0.37,0.78,1.89,1.17,3.19
			c0.42,1.39,0.71,2.66,0.81,3.47C51.34,59.35,51.63,58.09,52.05,56.7z"/>
		<path fill="#636667" d="M50.44,12.98c-0.39,1.3-0.75,2.15-1.17,3.19h3.97c-0.18-0.37-0.78-1.89-1.17-3.19
			c-0.42-1.39-0.71-2.66-0.81-3.47C51.14,10.33,50.86,11.59,50.44,12.98z"/>
	</g>
</g>
<polygon fill="#FFFFFF" stroke="#3F3F3F" stroke-width="0.5" points="98.63,51.28 59.02,59.28 59.02,8.3 98.63,0.31 "/>
<polygon fill="#FFFFFF" stroke="#3F3F3F" stroke-width="0.5" points="92.01,64.44 59.02,59.28 59.02,8.3 92.01,13.42 "/>
</svg>
