<?xml version="1.0" encoding="utf-8"?>
<!-- Generator: Adobe Illustrator 12.0.0, SVG Export Plug-In  -->
<!DOCTYPE svg PUBLIC "-//W3C//DTD SVG 1.1//EN" "http://www.w3.org/Graphics/SVG/1.1/DTD/svg11.dtd" [
	<!ENTITY ns_flows "http://ns.adobe.com/Flows/1.0/">
	<!ENTITY ns_svg "http://www.w3.org/2000/svg">
	<!ENTITY ns_xlink "http://www.w3.org/1999/xlink">
]>
<svg  version="1.1" xmlns="&ns_svg;" xmlns:xlink="&ns_xlink;" xmlns:a="http://ns.adobe.com/AdobeSVGViewerExtensions/3.0/"
	 width="88" height="97" viewBox="-0.06 -0.68 88 97" enable-background="new -0.06 -0.68 88 97" xml:space="preserve">
<defs>
</defs>
<polygon fill="none" stroke="#3F3F3F" points="87.28,0.83 72.82,8.58 58.35,0.83 43.89,8.58 29.43,0.83 14.96,8.58 0.5,0.83 
	0.5,87.62 12.9,95.37 25.29,87.62 37.69,95.37 50.09,87.62 62.48,95.37 74.88,87.62 87.28,95.37 "/>
<g>
	<path fill="none" stroke="#3F3F3F" d="M80.43,49.74c0,5.12-4.24,9.3-9.41,9.3H16.76c-5.18,0-9.41-4.19-9.41-9.3
		c0-5.12,4.24-9.3,9.41-9.3h54.26C76.2,40.44,80.43,44.62,80.43,49.74z"/>
</g>
<rect x="37.88" y="33.02" fill="#666666" stroke="#666666" stroke-width="0.3216" width="12.01" height="3.86"/>
<rect x="22.06" y="68.78" fill="#666666" stroke="#666666" stroke-width="0.6153" width="45.94" height="3.69"/>
<rect x="20.92" y="10.41" fill="#666666" stroke="#666666" stroke-width="0.6153" width="45.94" height="3.69"/>
<rect x="14.92" y="17.49" fill="#666666" stroke="#666666" stroke-width="0.691" width="57.95" height="3.69"/>
<rect x="9.03" y="75.63" fill="#666666" stroke="#666666" stroke-width="0.758" width="69.73" height="3.69"/>
</svg>
