<?xml version="1.0" encoding="utf-8"?>
<!-- Generator: Adobe Illustrator 12.0.0, SVG Export Plug-In  -->
<!DOCTYPE svg PUBLIC "-//W3C//DTD SVG 1.1//EN" "http://www.w3.org/Graphics/SVG/1.1/DTD/svg11.dtd" [
	<!ENTITY ns_flows "http://ns.adobe.com/Flows/1.0/">
	<!ENTITY ns_svg "http://www.w3.org/2000/svg">
	<!ENTITY ns_xlink "http://www.w3.org/1999/xlink">
]>
<svg  version="1.1" xmlns="&ns_svg;" xmlns:xlink="&ns_xlink;" xmlns:a="http://ns.adobe.com/AdobeSVGViewerExtensions/3.0/"
	 width="88" height="87" viewBox="-0.113 -0.939 88 87" enable-background="new -0.113 -0.939 88 87" xml:space="preserve">
<defs>
</defs>
<path fill="#000100" d="M24.325,4.893c0.36,0,0.652-0.292,0.652-0.652s-0.292-0.652-0.652-0.652c-0.146,0-0.286-0.022-0.427-0.043
	c-0.524,0.267-1.044,0.543-1.557,0.831C22.937,4.695,23.605,4.893,24.325,4.893z"/>
<path fill="#000100" d="M31.72,4.893c0.36,0,0.652-0.292,0.652-0.652S32.08,3.589,31.72,3.589c-1.368,0-2.512-0.946-2.836-2.215
	c-0.408,0.148-0.81,0.31-1.213,0.469C28.189,3.599,29.798,4.893,31.72,4.893z"/>
<path fill="#000100" d="M39.111,3.589c-1.618,0-2.935-1.317-2.935-2.937c0-0.36-0.292-0.652-0.652-0.652s-0.652,0.292-0.652,0.652
	c0,2.338,1.901,4.241,4.239,4.241c0.36,0,0.652-0.292,0.652-0.652S39.471,3.589,39.111,3.589z"/>
<path fill="#000100" d="M13.238,12.285c0.36,0,0.652-0.292,0.652-0.652c0-0.304-0.212-0.547-0.494-0.62
	c-0.39,0.374-0.774,0.754-1.15,1.142C12.566,12.233,12.895,12.285,13.238,12.285z"/>
<path fill="#000100" d="M20.631,12.285c0.36,0,0.652-0.292,0.652-0.652s-0.292-0.652-0.652-0.652c-1.62,0-2.937-1.317-2.937-2.937
	c0-0.2-0.096-0.373-0.238-0.493c-0.351,0.263-0.691,0.539-1.033,0.812C16.589,10.551,18.402,12.285,20.631,12.285z"/>
<path fill="#000100" d="M28.023,10.981c-1.62,0-2.937-1.317-2.937-2.937c0-0.36-0.292-0.652-0.652-0.652s-0.652,0.292-0.652,0.652
	c0,2.338,1.902,4.241,4.241,4.241c0.36,0,0.652-0.292,0.652-0.652S28.383,10.981,28.023,10.981z"/>
<path fill="#000100" d="M32.479,8.044c0-0.36-0.292-0.652-0.652-0.652s-0.652,0.292-0.652,0.652c0,2.338,1.902,4.241,4.24,4.241
	c0.36,0,0.652-0.292,0.652-0.652s-0.292-0.652-0.652-0.652C33.796,10.981,32.479,9.664,32.479,8.044z"/>
<path fill="#000100" d="M42.808,10.981c-1.62,0-2.937-1.317-2.937-2.937c0-0.36-0.292-0.652-0.652-0.652s-0.652,0.292-0.652,0.652
	c0,2.338,1.902,4.241,4.241,4.241c0.36,0,0.652-0.292,0.652-0.652S43.167,10.981,42.808,10.981z"/>
<path fill="#000100" d="M10.194,19.026c0-0.36-0.292-0.652-0.652-0.652c-0.707,0-1.348-0.262-1.855-0.68
	c-0.248,0.357-0.49,0.718-0.727,1.082c0.717,0.557,1.606,0.901,2.582,0.901C9.902,19.678,10.194,19.386,10.194,19.026z"/>
<path fill="#000100" d="M13.347,14.785c-0.36,0-0.652,0.292-0.652,0.652c0,2.338,1.902,4.241,4.24,4.241
	c0.36,0,0.652-0.292,0.652-0.652s-0.292-0.652-0.652-0.652c-1.619,0-2.936-1.317-2.936-2.937
	C13.999,15.077,13.707,14.785,13.347,14.785z"/>
<path fill="#000100" d="M21.391,15.437c0-0.36-0.292-0.652-0.652-0.652s-0.652,0.292-0.652,0.652c0,2.338,1.901,4.241,4.238,4.241
	c0.36,0,0.652-0.292,0.652-0.652s-0.292-0.652-0.652-0.652C22.708,18.374,21.391,17.057,21.391,15.437z"/>
<path fill="#000100" d="M28.784,15.437c0-0.36-0.292-0.652-0.652-0.652s-0.652,0.292-0.652,0.652c0,2.338,1.902,4.241,4.24,4.241
	c0.36,0,0.652-0.292,0.652-0.652s-0.292-0.652-0.652-0.652C30.101,18.374,28.784,17.057,28.784,15.437z"/>
<path fill="#000100" d="M39.111,18.374c-1.618,0-2.935-1.317-2.935-2.937c0-0.36-0.292-0.652-0.652-0.652s-0.652,0.292-0.652,0.652
	c0,2.338,1.901,4.241,4.239,4.241c0.36,0,0.652-0.292,0.652-0.652S39.471,18.374,39.111,18.374z"/>
<path fill="#000100" d="M5.847,27.07c0.36,0,0.652-0.292,0.652-0.652s-0.292-0.652-0.652-0.652c-0.863,0-1.632-0.381-2.17-0.976
	c-0.188,0.419-0.374,0.84-0.549,1.266C3.866,26.68,4.807,27.07,5.847,27.07z"/>
<path fill="#000100" d="M10.301,22.83c0-0.36-0.292-0.652-0.652-0.652S8.998,22.47,8.998,22.83c0,2.338,1.902,4.241,4.241,4.241
	c0.36,0,0.652-0.292,0.652-0.652s-0.292-0.652-0.652-0.652C11.619,25.767,10.301,24.449,10.301,22.83z"/>
<path fill="#000100" d="M17.694,22.83c0-0.36-0.292-0.652-0.652-0.652S16.39,22.47,16.39,22.83c0,2.338,1.902,4.241,4.241,4.241
	c0.36,0,0.652-0.292,0.652-0.652s-0.292-0.652-0.652-0.652C19.011,25.767,17.694,24.449,17.694,22.83z"/>
<path fill="#000100" d="M28.023,25.767c-1.62,0-2.937-1.317-2.937-2.937c0-0.36-0.292-0.652-0.652-0.652s-0.652,0.292-0.652,0.652
	c0,2.338,1.902,4.241,4.241,4.241c0.36,0,0.652-0.292,0.652-0.652S28.383,25.767,28.023,25.767z"/>
<path fill="#000100" d="M32.479,22.83c0-0.36-0.292-0.652-0.652-0.652s-0.652,0.292-0.652,0.652c0,2.338,1.902,4.241,4.24,4.241
	c0.36,0,0.652-0.292,0.652-0.652s-0.292-0.652-0.652-0.652C33.796,25.767,32.479,24.449,32.479,22.83z"/>
<path fill="#000100" d="M42.808,25.767c-1.62,0-2.937-1.317-2.937-2.937c0-0.36-0.292-0.652-0.652-0.652s-0.652,0.292-0.652,0.652
	c0,2.338,1.902,4.241,4.241,4.241c0.36,0,0.652-0.292,0.652-0.652S43.167,25.767,42.808,25.767z"/>
<path fill="#000100" d="M2.801,33.811c0-0.36-0.292-0.652-0.652-0.652c-0.425,0-0.828-0.095-1.193-0.259
	c-0.098,0.427-0.197,0.853-0.282,1.283c0.461,0.173,0.955,0.28,1.475,0.28C2.509,34.463,2.801,34.171,2.801,33.811z"/>
<path fill="#000100" d="M9.542,33.159c-1.619,0-2.936-1.317-2.936-2.936c0-0.36-0.292-0.652-0.652-0.652s-0.652,0.292-0.652,0.652
	c0,2.338,1.902,4.24,4.24,4.24c0.36,0,0.652-0.292,0.652-0.652S9.902,33.159,9.542,33.159z"/>
<path fill="#000100" d="M16.935,33.159c-1.619,0-2.936-1.317-2.936-2.936c0-0.36-0.292-0.652-0.652-0.652s-0.652,0.292-0.652,0.652
	c0,2.338,1.902,4.24,4.24,4.24c0.36,0,0.652-0.292,0.652-0.652S17.294,33.159,16.935,33.159z"/>
<path fill="#000100" d="M21.391,30.223c0-0.36-0.292-0.652-0.652-0.652s-0.652,0.292-0.652,0.652c0,2.338,1.901,4.24,4.238,4.24
	c0.36,0,0.652-0.292,0.652-0.652s-0.292-0.652-0.652-0.652C22.708,33.159,21.391,31.842,21.391,30.223z"/>
<path fill="#000100" d="M28.784,30.223c0-0.36-0.292-0.652-0.652-0.652s-0.652,0.292-0.652,0.652c0,2.338,1.902,4.24,4.24,4.24
	c0.36,0,0.652-0.292,0.652-0.652s-0.292-0.652-0.652-0.652C30.101,33.159,28.784,31.842,28.784,30.223z"/>
<path fill="#000100" d="M39.111,34.463c0.36,0,0.652-0.292,0.652-0.652s-0.292-0.652-0.652-0.652c-1.618,0-2.935-1.317-2.935-2.936
	c0-0.36-0.292-0.652-0.652-0.652s-0.652,0.292-0.652,0.652C34.873,32.561,36.774,34.463,39.111,34.463z"/>
<path fill="#000100" d="M2.91,37.615c0-0.36-0.292-0.652-0.652-0.652s-0.652,0.292-0.652,0.652c0,2.337,1.902,4.238,4.241,4.238
	c0.36,0,0.652-0.292,0.652-0.652s-0.292-0.652-0.652-0.652C4.227,40.549,2.91,39.232,2.91,37.615z"/>
<path fill="#000100" d="M10.301,37.615c0-0.36-0.292-0.652-0.652-0.652s-0.652,0.292-0.652,0.652c0,2.337,1.902,4.238,4.241,4.238
	c0.36,0,0.652-0.292,0.652-0.652s-0.292-0.652-0.652-0.652C11.619,40.549,10.301,39.232,10.301,37.615z"/>
<path fill="#000100" d="M17.694,37.615c0-0.36-0.292-0.652-0.652-0.652s-0.652,0.292-0.652,0.652c0,2.337,1.902,4.238,4.241,4.238
	c0.36,0,0.652-0.292,0.652-0.652s-0.292-0.652-0.652-0.652C19.011,40.549,17.694,39.232,17.694,37.615z"/>
<path fill="#000100" d="M28.023,41.853c0.36,0,0.652-0.292,0.652-0.652s-0.292-0.652-0.652-0.652c-1.62,0-2.937-1.316-2.937-2.934
	c0-0.36-0.292-0.652-0.652-0.652s-0.652,0.292-0.652,0.652C23.783,39.952,25.685,41.853,28.023,41.853z"/>
<path fill="#000100" d="M32.479,37.615c0-0.36-0.292-0.652-0.652-0.652s-0.652,0.292-0.652,0.652c0,2.337,1.902,4.238,4.24,4.238
	c0.36,0,0.652-0.292,0.652-0.652s-0.292-0.652-0.652-0.652C33.796,40.549,32.479,39.232,32.479,37.615z"/>
<path fill="#000100" d="M42.808,41.853c0.36,0,0.652-0.292,0.652-0.652s-0.292-0.652-0.652-0.652c-1.62,0-2.937-1.316-2.937-2.934
	c0-0.36-0.292-0.652-0.652-0.652s-0.652,0.292-0.652,0.652C38.567,39.952,40.469,41.853,42.808,41.853z"/>
<path fill="#000100" d="M43,0.652C43,0.292,42.708,0,42.349,0s-0.652,0.292-0.652,0.652c0,2.338,1.902,4.241,4.24,4.241
	c0.36,0,0.652-0.292,0.652-0.652s-0.292-0.652-0.652-0.652C44.318,3.589,43,2.271,43,0.652z"/>
<path fill="#000100" d="M53.329,3.589c-1.619,0-2.936-1.317-2.936-2.937c0-0.36-0.292-0.652-0.652-0.652s-0.652,0.292-0.652,0.652
	c0,2.338,1.902,4.241,4.24,4.241c0.36,0,0.652-0.292,0.652-0.652S53.689,3.589,53.329,3.589z"/>
<path fill="#000100" d="M56.481,0.652c0,2.338,1.902,4.241,4.24,4.241c0.36,0,0.652-0.292,0.652-0.652s-0.292-0.652-0.652-0.652
	c-1.489,0-2.71-1.12-2.898-2.56c-0.441-0.147-0.884-0.292-1.332-0.425C56.489,0.621,56.481,0.635,56.481,0.652z"/>
<path fill="#000100" d="M46.697,8.044c0-0.36-0.292-0.652-0.652-0.652s-0.652,0.292-0.652,0.652c0,2.338,1.902,4.241,4.24,4.241
	c0.36,0,0.652-0.292,0.652-0.652s-0.292-0.652-0.652-0.652C48.014,10.981,46.697,9.664,46.697,8.044z"/>
<path fill="#000100" d="M57.025,10.981c-1.62,0-2.937-1.317-2.937-2.937c0-0.36-0.292-0.652-0.652-0.652s-0.652,0.292-0.652,0.652
	c0,2.338,1.902,4.241,4.241,4.241c0.36,0,0.652-0.292,0.652-0.652S57.385,10.981,57.025,10.981z"/>
<path fill="#000100" d="M64.417,10.981c-1.619,0-2.936-1.317-2.936-2.937c0-0.36-0.292-0.652-0.652-0.652s-0.652,0.292-0.652,0.652
	c0,2.338,1.902,4.241,4.24,4.241c0.36,0,0.652-0.292,0.652-0.652S64.777,10.981,64.417,10.981z"/>
<path fill="#000100" d="M71.81,10.981c-1.619,0-2.936-1.317-2.936-2.937c0-0.36-0.292-0.652-0.652-0.652s-0.652,0.292-0.652,0.652
	c0,2.338,1.902,4.241,4.24,4.241c0.36,0,0.652-0.292,0.652-0.652S72.17,10.981,71.81,10.981z"/>
<path fill="#000100" d="M43,15.437c0-0.36-0.292-0.652-0.652-0.652s-0.652,0.292-0.652,0.652c0,2.338,1.902,4.241,4.24,4.241
	c0.36,0,0.652-0.292,0.652-0.652s-0.292-0.652-0.652-0.652C44.318,18.374,43,17.057,43,15.437z"/>
<path fill="#000100" d="M53.329,18.374c-1.619,0-2.936-1.317-2.936-2.937c0-0.36-0.292-0.652-0.652-0.652s-0.652,0.292-0.652,0.652
	c0,2.338,1.902,4.241,4.24,4.241c0.36,0,0.652-0.292,0.652-0.652S53.689,18.374,53.329,18.374z"/>
<path fill="#000100" d="M57.785,15.437c0-0.36-0.292-0.652-0.652-0.652s-0.652,0.292-0.652,0.652c0,2.338,1.902,4.241,4.24,4.241
	c0.36,0,0.652-0.292,0.652-0.652s-0.292-0.652-0.652-0.652C59.102,18.374,57.785,17.057,57.785,15.437z"/>
<path fill="#000100" d="M65.178,15.437c0-0.36-0.292-0.652-0.652-0.652s-0.652,0.292-0.652,0.652c0,2.338,1.902,4.241,4.239,4.241
	c0.36,0,0.652-0.292,0.652-0.652s-0.292-0.652-0.652-0.652C66.494,18.374,65.178,17.057,65.178,15.437z"/>
<path fill="#000100" d="M72.571,15.437c0-0.36-0.292-0.652-0.652-0.652s-0.652,0.292-0.652,0.652c0,2.338,1.902,4.241,4.239,4.241
	c0.36,0,0.652-0.292,0.652-0.652s-0.292-0.652-0.652-0.652C73.888,18.374,72.571,17.057,72.571,15.437z"/>
<path fill="#000100" d="M81.064,19.244c-0.736-1.161-1.524-2.284-2.363-3.368C78.857,17.364,79.772,18.618,81.064,19.244z"/>
<path fill="#000100" d="M46.697,22.83c0-0.36-0.292-0.652-0.652-0.652s-0.652,0.292-0.652,0.652c0,2.338,1.902,4.241,4.24,4.241
	c0.36,0,0.652-0.292,0.652-0.652s-0.292-0.652-0.652-0.652C48.014,25.767,46.697,24.449,46.697,22.83z"/>
<path fill="#000100" d="M57.025,25.767c-1.62,0-2.937-1.317-2.937-2.937c0-0.36-0.292-0.652-0.652-0.652s-0.652,0.292-0.652,0.652
	c0,2.338,1.902,4.241,4.241,4.241c0.36,0,0.652-0.292,0.652-0.652S57.385,25.767,57.025,25.767z"/>
<path fill="#000100" d="M64.417,25.767c-1.619,0-2.936-1.317-2.936-2.937c0-0.36-0.292-0.652-0.652-0.652s-0.652,0.292-0.652,0.652
	c0,2.338,1.902,4.241,4.24,4.241c0.36,0,0.652-0.292,0.652-0.652S64.777,25.767,64.417,25.767z"/>
<path fill="#000100" d="M71.81,25.767c-1.619,0-2.936-1.317-2.936-2.937c0-0.36-0.292-0.652-0.652-0.652s-0.652,0.292-0.652,0.652
	c0,2.338,1.902,4.241,4.24,4.241c0.36,0,0.652-0.292,0.652-0.652S72.17,25.767,71.81,25.767z"/>
<path fill="#000100" d="M79.202,27.07c0.36,0,0.652-0.292,0.652-0.652s-0.292-0.652-0.652-0.652c-1.619,0-2.936-1.317-2.936-2.937
	c0-0.36-0.292-0.652-0.652-0.652s-0.652,0.292-0.652,0.652C74.962,25.168,76.864,27.07,79.202,27.07z"/>
<path fill="#000100" d="M82.354,22.83c0,1.712,1.025,3.183,2.49,3.852c-0.603-1.53-1.284-3.02-2.047-4.461
	C82.54,22.308,82.354,22.544,82.354,22.83z"/>
<path fill="#000100" d="M43,30.223c0-0.36-0.292-0.652-0.652-0.652s-0.652,0.292-0.652,0.652c0,2.338,1.902,4.24,4.24,4.24
	c0.36,0,0.652-0.292,0.652-0.652s-0.292-0.652-0.652-0.652C44.318,33.159,43,31.842,43,30.223z"/>
<path fill="#000100" d="M53.329,34.463c0.36,0,0.652-0.292,0.652-0.652s-0.292-0.652-0.652-0.652c-1.619,0-2.936-1.317-2.936-2.936
	c0-0.36-0.292-0.652-0.652-0.652s-0.652,0.292-0.652,0.652C49.089,32.561,50.991,34.463,53.329,34.463z"/>
<path fill="#000100" d="M57.785,30.223c0-0.36-0.292-0.652-0.652-0.652s-0.652,0.292-0.652,0.652c0,2.338,1.902,4.24,4.24,4.24
	c0.36,0,0.652-0.292,0.652-0.652s-0.292-0.652-0.652-0.652C59.102,33.159,57.785,31.842,57.785,30.223z"/>
<path fill="#000100" d="M65.178,30.223c0-0.36-0.292-0.652-0.652-0.652s-0.652,0.292-0.652,0.652c0,2.338,1.902,4.24,4.239,4.24
	c0.36,0,0.652-0.292,0.652-0.652s-0.292-0.652-0.652-0.652C66.494,33.159,65.178,31.842,65.178,30.223z"/>
<path fill="#000100" d="M72.571,30.223c0-0.36-0.292-0.652-0.652-0.652s-0.652,0.292-0.652,0.652c0,2.338,1.902,4.24,4.239,4.24
	c0.36,0,0.652-0.292,0.652-0.652s-0.292-0.652-0.652-0.652C73.888,33.159,72.571,31.842,72.571,30.223z"/>
<path fill="#000100" d="M82.898,34.463c0.36,0,0.652-0.292,0.652-0.652s-0.292-0.652-0.652-0.652c-1.619,0-2.937-1.317-2.937-2.936
	c0-0.36-0.292-0.652-0.652-0.652s-0.652,0.292-0.652,0.652C78.657,32.561,80.56,34.463,82.898,34.463z"/>
<path fill="#000100" d="M46.697,37.615c0-0.36-0.292-0.652-0.652-0.652s-0.652,0.292-0.652,0.652c0,2.337,1.902,4.238,4.24,4.238
	c0.36,0,0.652-0.292,0.652-0.652s-0.292-0.652-0.652-0.652C48.014,40.549,46.697,39.232,46.697,37.615z"/>
<path fill="#000100" d="M57.025,41.853c0.36,0,0.652-0.292,0.652-0.652s-0.292-0.652-0.652-0.652c-1.62,0-2.937-1.316-2.937-2.934
	c0-0.36-0.292-0.652-0.652-0.652s-0.652,0.292-0.652,0.652C52.785,39.952,54.687,41.853,57.025,41.853z"/>
<path fill="#000100" d="M64.417,41.853c0.36,0,0.652-0.292,0.652-0.652s-0.292-0.652-0.652-0.652c-1.619,0-2.936-1.316-2.936-2.934
	c0-0.36-0.292-0.652-0.652-0.652s-0.652,0.292-0.652,0.652C60.177,39.952,62.079,41.853,64.417,41.853z"/>
<path fill="#000100" d="M71.81,41.853c0.36,0,0.652-0.292,0.652-0.652s-0.292-0.652-0.652-0.652c-1.619,0-2.936-1.316-2.936-2.934
	c0-0.36-0.292-0.652-0.652-0.652s-0.652,0.292-0.652,0.652C67.569,39.952,69.472,41.853,71.81,41.853z"/>
<path fill="#000100" d="M79.854,41.201c0-0.36-0.292-0.652-0.652-0.652c-1.619,0-2.936-1.316-2.936-2.934
	c0-0.36-0.292-0.652-0.652-0.652s-0.652,0.292-0.652,0.652c0,2.337,1.902,4.238,4.24,4.238
	C79.563,41.853,79.854,41.561,79.854,41.201z"/>
<path fill="#000100" d="M86.595,41.853c0.36,0,0.652-0.292,0.652-0.652s-0.292-0.652-0.652-0.652c-1.619,0-2.937-1.316-2.937-2.934
	c0-0.36-0.292-0.652-0.652-0.652s-0.652,0.292-0.652,0.652C82.354,39.952,84.256,41.853,86.595,41.853z"/>
<path fill="#000100" d="M2.801,48.18c0-0.36-0.292-0.652-0.652-0.652c-0.852,0-1.613-0.37-2.149-0.951
	c0.05,0.587,0.113,1.17,0.186,1.751c0.59,0.312,1.251,0.505,1.964,0.505C2.509,48.833,2.801,48.541,2.801,48.18z"/>
<path fill="#000100" d="M6.606,44.591c0-0.36-0.292-0.652-0.652-0.652s-0.652,0.292-0.652,0.652c0,2.339,1.902,4.241,4.24,4.241
	c0.36,0,0.652-0.292,0.652-0.652s-0.292-0.652-0.652-0.652C7.923,47.528,6.606,46.21,6.606,44.591z"/>
<path fill="#000100" d="M16.935,48.833c0.36,0,0.652-0.292,0.652-0.652s-0.292-0.652-0.652-0.652c-1.619,0-2.936-1.317-2.936-2.937
	c0-0.36-0.292-0.652-0.652-0.652s-0.652,0.292-0.652,0.652C12.695,46.93,14.597,48.833,16.935,48.833z"/>
<path fill="#000100" d="M21.391,44.591c0-0.36-0.292-0.652-0.652-0.652s-0.652,0.292-0.652,0.652c0,2.339,1.901,4.241,4.238,4.241
	c0.36,0,0.652-0.292,0.652-0.652s-0.292-0.652-0.652-0.652C22.708,47.528,21.391,46.21,21.391,44.591z"/>
<path fill="#000100" d="M31.72,48.833c0.36,0,0.652-0.292,0.652-0.652s-0.292-0.652-0.652-0.652c-1.619,0-2.936-1.317-2.936-2.937
	c0-0.36-0.292-0.652-0.652-0.652s-0.652,0.292-0.652,0.652C27.48,46.93,29.382,48.833,31.72,48.833z"/>
<path fill="#000100" d="M39.111,48.833c0.36,0,0.652-0.292,0.652-0.652s-0.292-0.652-0.652-0.652c-1.618,0-2.935-1.317-2.935-2.937
	c0-0.36-0.292-0.652-0.652-0.652s-0.652,0.292-0.652,0.652C34.873,46.93,36.774,48.833,39.111,48.833z"/>
<path fill="#000100" d="M2.258,51.333c-0.36,0-0.652,0.292-0.652,0.652c0,2.337,1.902,4.239,4.241,4.239
	c0.36,0,0.652-0.292,0.652-0.652s-0.292-0.652-0.652-0.652c-1.62,0-2.937-1.316-2.937-2.935C2.91,51.625,2.618,51.333,2.258,51.333z
	"/>
<path fill="#000100" d="M13.238,56.224c0.36,0,0.652-0.292,0.652-0.652s-0.292-0.652-0.652-0.652c-1.62,0-2.937-1.316-2.937-2.935
	c0-0.36-0.292-0.652-0.652-0.652s-0.652,0.292-0.652,0.652C8.998,54.322,10.9,56.224,13.238,56.224z"/>
<path fill="#000100" d="M20.631,56.224c0.36,0,0.652-0.292,0.652-0.652s-0.292-0.652-0.652-0.652c-1.62,0-2.937-1.316-2.937-2.935
	c0-0.36-0.292-0.652-0.652-0.652s-0.652,0.292-0.652,0.652C16.39,54.322,18.292,56.224,20.631,56.224z"/>
<path fill="#000100" d="M28.023,56.224c0.36,0,0.652-0.292,0.652-0.652s-0.292-0.652-0.652-0.652c-1.62,0-2.937-1.316-2.937-2.935
	c0-0.36-0.292-0.652-0.652-0.652s-0.652,0.292-0.652,0.652C23.783,54.322,25.685,56.224,28.023,56.224z"/>
<path fill="#000100" d="M35.415,56.224c0.36,0,0.652-0.292,0.652-0.652s-0.292-0.652-0.652-0.652c-1.619,0-2.936-1.316-2.936-2.935
	c0-0.36-0.292-0.652-0.652-0.652s-0.652,0.292-0.652,0.652C31.175,54.322,33.077,56.224,35.415,56.224z"/>
<path fill="#000100" d="M42.808,56.224c0.36,0,0.652-0.292,0.652-0.652s-0.292-0.652-0.652-0.652c-1.62,0-2.937-1.316-2.937-2.935
	c0-0.36-0.292-0.652-0.652-0.652s-0.652,0.292-0.652,0.652C38.567,54.322,40.469,56.224,42.808,56.224z"/>
<path fill="#000100" d="M9.542,63.618c0.36,0,0.652-0.292,0.652-0.652s-0.292-0.652-0.652-0.652c-1.619,0-2.936-1.317-2.936-2.937
	c0-0.36-0.292-0.652-0.652-0.652s-0.652,0.292-0.652,0.652C5.302,61.715,7.204,63.618,9.542,63.618z"/>
<path fill="#000100" d="M16.935,63.618c0.36,0,0.652-0.292,0.652-0.652s-0.292-0.652-0.652-0.652c-1.619,0-2.936-1.317-2.936-2.937
	c0-0.36-0.292-0.652-0.652-0.652s-0.652,0.292-0.652,0.652C12.695,61.715,14.597,63.618,16.935,63.618z"/>
<path fill="#000100" d="M24.325,63.618c0.36,0,0.652-0.292,0.652-0.652s-0.292-0.652-0.652-0.652c-1.618,0-2.934-1.317-2.934-2.937
	c0-0.36-0.292-0.652-0.652-0.652s-0.652,0.292-0.652,0.652C20.087,61.715,21.988,63.618,24.325,63.618z"/>
<path fill="#000100" d="M31.72,63.618c0.36,0,0.652-0.292,0.652-0.652s-0.292-0.652-0.652-0.652c-1.619,0-2.936-1.317-2.936-2.937
	c0-0.36-0.292-0.652-0.652-0.652s-0.652,0.292-0.652,0.652C27.48,61.715,29.382,63.618,31.72,63.618z"/>
<path fill="#000100" d="M39.111,63.618c0.36,0,0.652-0.292,0.652-0.652s-0.292-0.652-0.652-0.652c-1.618,0-2.935-1.317-2.935-2.937
	c0-0.36-0.292-0.652-0.652-0.652s-0.652,0.292-0.652,0.652C34.873,61.715,36.774,63.618,39.111,63.618z"/>
<path fill="#000100" d="M13.89,70.358c0-0.36-0.292-0.652-0.652-0.652c-1.62,0-2.937-1.316-2.937-2.936
	c0-0.36-0.292-0.652-0.652-0.652S8.998,66.41,8.998,66.77c0,2.338,1.902,4.24,4.241,4.24C13.598,71.01,13.89,70.718,13.89,70.358z"
	/>
<path fill="#000100" d="M20.631,71.01c0.36,0,0.652-0.292,0.652-0.652s-0.292-0.652-0.652-0.652c-1.62,0-2.937-1.316-2.937-2.936
	c0-0.36-0.292-0.652-0.652-0.652S16.39,66.41,16.39,66.77C16.39,69.108,18.292,71.01,20.631,71.01z"/>
<path fill="#000100" d="M28.023,71.01c0.36,0,0.652-0.292,0.652-0.652s-0.292-0.652-0.652-0.652c-1.62,0-2.937-1.316-2.937-2.936
	c0-0.36-0.292-0.652-0.652-0.652s-0.652,0.292-0.652,0.652C23.783,69.108,25.685,71.01,28.023,71.01z"/>
<path fill="#000100" d="M35.415,71.01c0.36,0,0.652-0.292,0.652-0.652s-0.292-0.652-0.652-0.652c-1.619,0-2.936-1.316-2.936-2.936
	c0-0.36-0.292-0.652-0.652-0.652s-0.652,0.292-0.652,0.652C31.175,69.108,33.077,71.01,35.415,71.01z"/>
<path fill="#000100" d="M42.808,71.01c0.36,0,0.652-0.292,0.652-0.652s-0.292-0.652-0.652-0.652c-1.62,0-2.937-1.316-2.937-2.936
	c0-0.36-0.292-0.652-0.652-0.652s-0.652,0.292-0.652,0.652C38.567,69.108,40.469,71.01,42.808,71.01z"/>
<path fill="#000100" d="M13.999,74.162c0-0.36-0.292-0.652-0.652-0.652c-0.283,0-0.519,0.184-0.608,0.437
	c0.507,0.507,1.028,1,1.559,1.482C14.111,75.043,13.999,74.617,13.999,74.162z"/>
<path fill="#000100" d="M16.935,77.098c-0.297,0-0.579-0.058-0.85-0.141c0.463,0.378,0.931,0.749,1.409,1.107
	c0.054-0.095,0.092-0.198,0.092-0.314C17.586,77.39,17.294,77.098,16.935,77.098z"/>
<path fill="#000100" d="M24.325,78.403c0.36,0,0.652-0.292,0.652-0.652s-0.292-0.652-0.652-0.652c-1.618,0-2.934-1.317-2.934-2.937
	c0-0.36-0.292-0.652-0.652-0.652s-0.652,0.292-0.652,0.652C20.087,76.5,21.988,78.403,24.325,78.403z"/>
<path fill="#000100" d="M31.72,78.403c0.36,0,0.652-0.292,0.652-0.652s-0.292-0.652-0.652-0.652c-1.619,0-2.936-1.317-2.936-2.937
	c0-0.36-0.292-0.652-0.652-0.652s-0.652,0.292-0.652,0.652C27.48,76.5,29.382,78.403,31.72,78.403z"/>
<path fill="#000100" d="M39.111,78.403c0.36,0,0.652-0.292,0.652-0.652s-0.292-0.652-0.652-0.652c-1.618,0-2.935-1.317-2.935-2.937
	c0-0.36-0.292-0.652-0.652-0.652s-0.652,0.292-0.652,0.652C34.873,76.5,36.774,78.403,39.111,78.403z"/>
<path fill="#000100" d="M25.086,81.555c0-0.36-0.292-0.652-0.652-0.652s-0.652,0.292-0.652,0.652c0,0.154,0.029,0.3,0.045,0.449
	c0.5,0.257,1.005,0.505,1.517,0.742C25.182,82.382,25.086,81.98,25.086,81.555z"/>
<path fill="#000100" d="M35.415,85.793c0.36,0,0.652-0.292,0.652-0.652s-0.292-0.652-0.652-0.652c-1.619,0-2.936-1.315-2.936-2.934
	c0-0.36-0.292-0.652-0.652-0.652s-0.652,0.292-0.652,0.652C31.175,83.892,33.077,85.793,35.415,85.793z"/>
<path fill="#000100" d="M42.808,84.489c-1.62,0-2.937-1.315-2.937-2.934c0-0.36-0.292-0.652-0.652-0.652s-0.652,0.292-0.652,0.652
	c0,2.337,1.902,4.238,4.241,4.238c0.36,0,0.652-0.292,0.652-0.652S43.167,84.489,42.808,84.489z"/>
<path fill="#000100" d="M46.588,48.18c0-0.36-0.292-0.652-0.652-0.652c-1.619,0-2.936-1.317-2.936-2.937
	c0-0.36-0.292-0.652-0.652-0.652s-0.652,0.292-0.652,0.652c0,2.339,1.902,4.241,4.24,4.241
	C46.296,48.833,46.588,48.541,46.588,48.18z"/>
<path fill="#000100" d="M53.329,48.833c0.36,0,0.652-0.292,0.652-0.652s-0.292-0.652-0.652-0.652c-1.619,0-2.936-1.317-2.936-2.937
	c0-0.36-0.292-0.652-0.652-0.652s-0.652,0.292-0.652,0.652C49.089,46.93,50.991,48.833,53.329,48.833z"/>
<path fill="#000100" d="M60.721,48.833c0.36,0,0.652-0.292,0.652-0.652s-0.292-0.652-0.652-0.652c-1.619,0-2.936-1.317-2.936-2.937
	c0-0.36-0.292-0.652-0.652-0.652s-0.652,0.292-0.652,0.652C56.481,46.93,58.383,48.833,60.721,48.833z"/>
<path fill="#000100" d="M68.112,48.833c0.36,0,0.652-0.292,0.652-0.652s-0.292-0.652-0.652-0.652c-1.618,0-2.935-1.317-2.935-2.937
	c0-0.36-0.292-0.652-0.652-0.652s-0.652,0.292-0.652,0.652C63.873,46.93,65.775,48.833,68.112,48.833z"/>
<path fill="#000100" d="M75.506,48.833c0.36,0,0.652-0.292,0.652-0.652s-0.292-0.652-0.652-0.652c-1.618,0-2.935-1.317-2.935-2.937
	c0-0.36-0.292-0.652-0.652-0.652s-0.652,0.292-0.652,0.652C71.267,46.93,73.169,48.833,75.506,48.833z"/>
<path fill="#000100" d="M83.551,48.18c0-0.36-0.292-0.652-0.652-0.652c-1.619,0-2.937-1.317-2.937-2.937
	c0-0.36-0.292-0.652-0.652-0.652s-0.652,0.292-0.652,0.652c0,2.339,1.902,4.241,4.241,4.241
	C83.259,48.833,83.551,48.541,83.551,48.18z"/>
<path fill="#000100" d="M49.633,56.224c0.36,0,0.652-0.292,0.652-0.652s-0.292-0.652-0.652-0.652c-1.619,0-2.936-1.316-2.936-2.935
	c0-0.36-0.292-0.652-0.652-0.652s-0.652,0.292-0.652,0.652C45.393,54.322,47.295,56.224,49.633,56.224z"/>
<path fill="#000100" d="M57.025,56.224c0.36,0,0.652-0.292,0.652-0.652s-0.292-0.652-0.652-0.652c-1.62,0-2.937-1.316-2.937-2.935
	c0-0.36-0.292-0.652-0.652-0.652s-0.652,0.292-0.652,0.652C52.785,54.322,54.687,56.224,57.025,56.224z"/>
<path fill="#000100" d="M64.417,56.224c0.36,0,0.652-0.292,0.652-0.652s-0.292-0.652-0.652-0.652c-1.619,0-2.936-1.316-2.936-2.935
	c0-0.36-0.292-0.652-0.652-0.652s-0.652,0.292-0.652,0.652C60.177,54.322,62.079,56.224,64.417,56.224z"/>
<path fill="#000100" d="M71.81,56.224c0.36,0,0.652-0.292,0.652-0.652s-0.292-0.652-0.652-0.652c-1.619,0-2.936-1.316-2.936-2.935
	c0-0.36-0.292-0.652-0.652-0.652s-0.652,0.292-0.652,0.652C67.569,54.322,69.472,56.224,71.81,56.224z"/>
<path fill="#000100" d="M79.202,56.224c0.36,0,0.652-0.292,0.652-0.652s-0.292-0.652-0.652-0.652c-1.619,0-2.936-1.316-2.936-2.935
	c0-0.36-0.292-0.652-0.652-0.652s-0.652,0.292-0.652,0.652C74.962,54.322,76.864,56.224,79.202,56.224z"/>
<path fill="#000100" d="M83.658,51.985c0-0.36-0.292-0.652-0.652-0.652s-0.652,0.292-0.652,0.652c0,2.075,1.503,3.801,3.478,4.162
	c0.133-0.419,0.253-0.843,0.374-1.267C84.771,54.687,83.658,53.469,83.658,51.985z"/>
<path fill="#000100" d="M46.588,62.965c0-0.36-0.292-0.652-0.652-0.652c-1.619,0-2.936-1.317-2.936-2.937
	c0-0.36-0.292-0.652-0.652-0.652s-0.652,0.292-0.652,0.652c0,2.339,1.902,4.241,4.24,4.241
	C46.296,63.618,46.588,63.326,46.588,62.965z"/>
<path fill="#000100" d="M53.329,63.618c0.36,0,0.652-0.292,0.652-0.652s-0.292-0.652-0.652-0.652c-1.619,0-2.936-1.317-2.936-2.937
	c0-0.36-0.292-0.652-0.652-0.652s-0.652,0.292-0.652,0.652C49.089,61.715,50.991,63.618,53.329,63.618z"/>
<path fill="#000100" d="M60.721,63.618c0.36,0,0.652-0.292,0.652-0.652s-0.292-0.652-0.652-0.652c-1.619,0-2.936-1.317-2.936-2.937
	c0-0.36-0.292-0.652-0.652-0.652s-0.652,0.292-0.652,0.652C56.481,61.715,58.383,63.618,60.721,63.618z"/>
<path fill="#000100" d="M68.112,63.618c0.36,0,0.652-0.292,0.652-0.652s-0.292-0.652-0.652-0.652c-1.618,0-2.935-1.317-2.935-2.937
	c0-0.36-0.292-0.652-0.652-0.652s-0.652,0.292-0.652,0.652C63.873,61.715,65.775,63.618,68.112,63.618z"/>
<path fill="#000100" d="M75.506,63.618c0.36,0,0.652-0.292,0.652-0.652s-0.292-0.652-0.652-0.652c-1.618,0-2.935-1.317-2.935-2.937
	c0-0.36-0.292-0.652-0.652-0.652s-0.652,0.292-0.652,0.652C71.267,61.715,73.169,63.618,75.506,63.618z"/>
<path fill="#000100" d="M79.962,59.376c0-0.36-0.292-0.652-0.652-0.652s-0.652,0.292-0.652,0.652c0,2.264,1.787,4.103,4.022,4.219
	c0.203-0.38,0.396-0.766,0.59-1.152c-0.106-0.075-0.23-0.13-0.371-0.13C81.279,62.313,79.962,60.996,79.962,59.376z"/>
<path fill="#000100" d="M49.633,71.01c0.36,0,0.652-0.292,0.652-0.652s-0.292-0.652-0.652-0.652c-1.619,0-2.936-1.316-2.936-2.936
	c0-0.36-0.292-0.652-0.652-0.652s-0.652,0.292-0.652,0.652C45.393,69.108,47.295,71.01,49.633,71.01z"/>
<path fill="#000100" d="M57.025,71.01c0.36,0,0.652-0.292,0.652-0.652s-0.292-0.652-0.652-0.652c-1.62,0-2.937-1.316-2.937-2.936
	c0-0.36-0.292-0.652-0.652-0.652s-0.652,0.292-0.652,0.652C52.785,69.108,54.687,71.01,57.025,71.01z"/>
<path fill="#000100" d="M64.417,71.01c0.36,0,0.652-0.292,0.652-0.652s-0.292-0.652-0.652-0.652c-1.619,0-2.936-1.316-2.936-2.936
	c0-0.36-0.292-0.652-0.652-0.652s-0.652,0.292-0.652,0.652C60.177,69.108,62.079,71.01,64.417,71.01z"/>
<path fill="#000100" d="M71.81,71.01c0.36,0,0.652-0.292,0.652-0.652s-0.292-0.652-0.652-0.652c-1.619,0-2.936-1.316-2.936-2.936
	c0-0.36-0.292-0.652-0.652-0.652s-0.652,0.292-0.652,0.652C67.569,69.108,69.472,71.01,71.81,71.01z"/>
<path fill="#000100" d="M76.267,66.77c0-0.36-0.292-0.652-0.652-0.652s-0.652,0.292-0.652,0.652c0,1.868,1.223,3.44,2.904,4.004
	c0.301-0.365,0.587-0.74,0.876-1.115C77.343,69.436,76.267,68.232,76.267,66.77z"/>
<path fill="#000100" d="M46.588,77.75c0-0.36-0.292-0.652-0.652-0.652c-1.619,0-2.936-1.317-2.936-2.937
	c0-0.36-0.292-0.652-0.652-0.652s-0.652,0.292-0.652,0.652c0,2.339,1.902,4.241,4.24,4.241
	C46.296,78.403,46.588,78.111,46.588,77.75z"/>
<path fill="#000100" d="M53.329,78.403c0.36,0,0.652-0.292,0.652-0.652s-0.292-0.652-0.652-0.652c-1.619,0-2.936-1.317-2.936-2.937
	c0-0.36-0.292-0.652-0.652-0.652s-0.652,0.292-0.652,0.652C49.089,76.5,50.991,78.403,53.329,78.403z"/>
<path fill="#000100" d="M60.721,78.403c0.36,0,0.652-0.292,0.652-0.652s-0.292-0.652-0.652-0.652c-1.619,0-2.936-1.317-2.936-2.937
	c0-0.36-0.292-0.652-0.652-0.652s-0.652,0.292-0.652,0.652C56.481,76.5,58.383,78.403,60.721,78.403z"/>
<path fill="#000100" d="M68.112,78.403c0.36,0,0.652-0.292,0.652-0.652s-0.292-0.652-0.652-0.652c-1.618,0-2.935-1.317-2.935-2.937
	c0-0.36-0.292-0.652-0.652-0.652s-0.652,0.292-0.652,0.652C63.873,76.5,65.775,78.403,68.112,78.403z"/>
<path fill="#000100" d="M72.571,74.162c0-0.36-0.292-0.652-0.652-0.652s-0.652,0.292-0.652,0.652c0,0.915,0.298,1.758,0.792,2.451
	c0.335-0.279,0.663-0.567,0.989-0.856C72.749,75.296,72.571,74.75,72.571,74.162z"/>
<path fill="#000100" d="M49.633,85.793c0.36,0,0.652-0.292,0.652-0.652s-0.292-0.652-0.652-0.652c-1.619,0-2.936-1.315-2.936-2.934
	c0-0.36-0.292-0.652-0.652-0.652s-0.652,0.292-0.652,0.652C45.393,83.892,47.295,85.793,49.633,85.793z"/>
<path fill="#000100" d="M57.025,84.489c-1.62,0-2.937-1.315-2.937-2.934c0-0.36-0.292-0.652-0.652-0.652s-0.652,0.292-0.652,0.652
	c0,1.674,0.984,3.11,2.397,3.799c0.774-0.205,1.539-0.435,2.296-0.681C57.36,84.56,57.202,84.489,57.025,84.489z"/>
<path fill="#000100" d="M61.481,81.555c0-0.36-0.292-0.652-0.652-0.652s-0.652,0.292-0.652,0.652c0,0.704,0.189,1.359,0.495,1.944
	c0.402-0.166,0.798-0.343,1.194-0.521C61.628,82.555,61.481,82.075,61.481,81.555z"/>
</svg>
