<?xml version="1.0" encoding="utf-8"?>
<!-- Generator: Adobe Illustrator 12.0.0, SVG Export Plug-In  -->
<!DOCTYPE svg PUBLIC "-//W3C//DTD SVG 1.1//EN" "http://www.w3.org/Graphics/SVG/1.1/DTD/svg11.dtd" [
	<!ENTITY ns_flows "http://ns.adobe.com/Flows/1.0/">
	<!ENTITY ns_svg "http://www.w3.org/2000/svg">
	<!ENTITY ns_xlink "http://www.w3.org/1999/xlink">
]>
<svg  version="1.1" xmlns="&ns_svg;" xmlns:xlink="&ns_xlink;" xmlns:a="http://ns.adobe.com/AdobeSVGViewerExtensions/3.0/"
	 width="87" height="112" viewBox="-0.91 -0.6 87 112" enable-background="new -0.91 -0.6 87 112" xml:space="preserve">
<defs>
</defs>
<rect x="16.79" y="0.54" fill="#FFFFFF" stroke="#3F3F3F" stroke-width="1.0784" width="68.55" height="94.39"/>
<rect x="0.54" y="16.06" fill="#FFFFFF" stroke="#3F3F3F" stroke-width="1.0784" width="68.55" height="94.39"/>
<rect x="21.12" y="26.45" fill="#666666" stroke="#666666" stroke-width="0.6153" width="31.02" height="3.69"/>
<rect x="8.09" y="33.3" fill="#666666" stroke="#666666" stroke-width="0.758" width="54.82" height="3.69"/>
<rect x="24.6" y="47.82" fill="#666666" stroke="#666666" stroke-width="0.2825" width="19.61" height="1.82"/>
<rect x="24.6" y="51.11" fill="#666666" stroke="#666666" stroke-width="0.2825" width="19.61" height="1.82"/>
<rect x="24.6" y="54.39" fill="#666666" stroke="#666666" stroke-width="0.2825" width="19.61" height="1.82"/>
<rect x="24.6" y="57.68" fill="#666666" stroke="#666666" stroke-width="0.2825" width="19.61" height="1.82"/>
<rect x="24.6" y="60.96" fill="#666666" stroke="#666666" stroke-width="0.2825" width="19.61" height="1.82"/>
<rect x="26.65" y="101.58" fill="#666666" stroke="#666666" stroke-width="0.2914" width="14.76" height="2.58"/>
<rect x="5.91" y="72.28" fill="#666666" stroke="#666666" stroke-width="0.3777" width="25.9" height="2.47"/>
<rect x="5.91" y="76.78" fill="#666666" stroke="#666666" stroke-width="0.3777" width="25.9" height="2.47"/>
<rect x="5.91" y="87.96" fill="#666666" stroke="#666666" stroke-width="0.3777" width="25.9" height="2.47"/>
<rect x="5.91" y="92.46" fill="#666666" stroke="#666666" stroke-width="0.3777" width="25.9" height="2.47"/>
<rect x="36.65" y="87.96" fill="#666666" stroke="#666666" stroke-width="0.3777" width="25.9" height="2.47"/>
<rect x="36.65" y="92.46" fill="#666666" stroke="#666666" stroke-width="0.3777" width="25.9" height="2.47"/>
<rect x="36.65" y="72.45" fill="#666666" stroke="#666666" stroke-width="0.3777" width="25.9" height="2.47"/>
<rect x="36.65" y="76.95" fill="#666666" stroke="#666666" stroke-width="0.3777" width="25.9" height="2.47"/>
</svg>
