<?xml version="1.0" encoding="utf-8"?>
<!-- Generator: Adobe Illustrator 12.0.0, SVG Export Plug-In . SVG Version: 6.00 Build 51448)  -->
<!DOCTYPE svg PUBLIC "-//W3C//DTD SVG 1.1//EN" "http://www.w3.org/Graphics/SVG/1.1/DTD/svg11.dtd" [
	<!ENTITY ns_svg "http://www.w3.org/2000/svg">
	<!ENTITY ns_xlink "http://www.w3.org/1999/xlink">
]>
<svg  version="1.1" id="Layer_1" xmlns="&ns_svg;" xmlns:xlink="&ns_xlink;" width="49" height="49" viewBox="-0.13 -0.38 49 49"
	 overflow="visible" enable-background="new -0.13 -0.38 49 49" xml:space="preserve">
<rect x="30.52" y="8.94" fill="none" width="2.33" height="2.34"/>
<rect x="30.52" y="6.18" fill="none" width="2.33" height="2.34"/>
<rect x="30.52" y="14.45" fill="none" width="2.33" height="2.33"/>
<rect x="30.52" y="11.69" fill="none" width="2.33" height="2.34"/>
<rect x="19.83" y="19.95" fill="none" width="10.271" height="2.34"/>
<rect x="19.83" y="30.97" fill="none" width="10.271" height="2.34"/>
<rect x="19.83" y="28.22" fill="none" width="10.271" height="2.33"/>
<rect x="19.83" y="25.46" fill="none" width="10.271" height="2.33"/>
<rect x="19.83" y="22.71" fill="none" width="10.271" height="2.34"/>
<rect x="19.83" y="41.99" fill="none" width="10.271" height="2.329"/>
<rect x="19.83" y="33.729" fill="none" width="10.271" height="2.33"/>
<rect x="19.83" y="44.74" fill="none" width="10.271" height="2.329"/>
<rect x="19.83" y="39.229" fill="none" width="10.271" height="2.33"/>
<rect x="19.83" y="36.479" fill="none" width="10.271" height="2.34"/>
<rect x="30.52" y="3.43" fill="none" width="2.33" height="2.33"/>
<rect x="33.27" y="22.71" fill="none" width="2.34" height="2.34"/>
<rect x="33.27" y="25.46" fill="none" width="2.34" height="2.33"/>
<rect x="33.27" y="19.95" fill="none" width="2.34" height="2.34"/>
<rect x="33.27" y="11.69" fill="none" width="2.34" height="2.34"/>
<rect x="33.27" y="14.45" fill="none" width="2.34" height="2.33"/>
<rect x="33.27" y="28.22" fill="none" width="2.34" height="2.33"/>
<rect x="33.27" y="17.2" fill="none" width="2.34" height="2.34"/>
<rect x="33.27" y="41.99" fill="none" width="2.34" height="2.329"/>
<rect x="33.27" y="30.97" fill="none" width="2.34" height="2.34"/>
<rect x="33.27" y="39.229" fill="none" width="2.34" height="2.33"/>
<rect x="33.27" y="36.479" fill="none" width="2.34" height="2.34"/>
<rect x="33.27" y="33.729" fill="none" width="2.34" height="2.33"/>
<rect x="30.52" y="17.2" fill="none" width="2.33" height="2.34"/>
<rect x="30.52" y="33.729" fill="none" width="2.33" height="2.33"/>
<rect x="30.52" y="30.97" fill="none" width="2.33" height="2.34"/>
<rect x="30.52" y="25.46" fill="none" width="2.33" height="2.33"/>
<rect x="30.52" y="28.22" fill="none" width="2.33" height="2.33"/>
<rect x="30.52" y="19.95" fill="none" width="2.33" height="2.34"/>
<rect x="30.52" y="22.71" fill="none" width="2.33" height="2.34"/>
<rect x="33.27" y="3.43" fill="none" width="2.34" height="2.33"/>
<rect x="33.27" y="6.18" fill="none" width="2.34" height="2.34"/>
<rect x="33.27" y="8.94" fill="none" width="2.34" height="2.34"/>
<rect x="30.52" y="39.229" fill="none" width="2.33" height="2.33"/>
<rect x="30.52" y="36.479" fill="none" width="2.33" height="2.34"/>
<rect x="30.52" y="41.99" fill="none" width="2.33" height="2.329"/>
<rect x="19.83" y="8.94" fill="none" width="10.271" height="2.34"/>
<rect x="17.08" y="3.43" fill="none" width="2.34" height="2.33"/>
<rect x="17.08" y="0.67" fill="none" width="2.34" height="2.34"/>
<rect x="17.08" y="6.18" fill="none" width="2.34" height="2.34"/>
<rect x="14.32" y="36.479" fill="none" width="2.33" height="2.34"/>
<rect x="17.08" y="8.94" fill="none" width="2.34" height="2.34"/>
<rect x="14.32" y="39.229" fill="none" width="2.33" height="2.33"/>
<rect x="14.32" y="41.99" fill="none" width="2.33" height="2.329"/>
<rect x="17.08" y="19.95" fill="none" width="2.34" height="2.34"/>
<rect x="19.83" y="17.2" fill="none" width="10.271" height="2.34"/>
<rect x="17.08" y="25.46" fill="none" width="2.34" height="2.33"/>
<rect x="17.08" y="17.2" fill="none" width="2.34" height="2.34"/>
<rect x="17.08" y="11.69" fill="none" width="2.34" height="2.34"/>
<rect x="17.08" y="14.45" fill="none" width="2.34" height="2.33"/>
<rect x="14.32" y="28.22" fill="none" width="2.33" height="2.33"/>
<rect x="14.32" y="8.94" fill="none" width="2.33" height="2.34"/>
<rect x="14.32" y="14.45" fill="none" width="2.33" height="2.33"/>
<rect x="14.32" y="6.18" fill="none" width="2.33" height="2.34"/>
<rect x="14.32" y="11.69" fill="none" width="2.33" height="2.34"/>
<rect x="14.32" y="33.729" fill="none" width="2.33" height="2.33"/>
<rect x="14.32" y="3.43" fill="none" width="2.33" height="2.33"/>
<rect x="17.08" y="28.22" fill="none" width="2.34" height="2.33"/>
<rect x="14.32" y="17.2" fill="none" width="2.33" height="2.34"/>
<rect x="14.32" y="30.97" fill="none" width="2.33" height="2.34"/>
<rect x="14.32" y="25.46" fill="none" width="2.33" height="2.33"/>
<rect x="14.32" y="22.71" fill="none" width="2.33" height="2.34"/>
<rect x="14.32" y="19.95" fill="none" width="2.33" height="2.34"/>
<rect x="17.08" y="22.71" fill="none" width="2.34" height="2.34"/>
<rect x="17.08" y="33.729" fill="none" width="2.34" height="2.33"/>
<rect x="19.83" y="6.18" fill="none" width="10.271" height="2.34"/>
<rect x="19.83" y="3.43" fill="none" width="10.271" height="2.33"/>
<rect x="19.83" y="11.69" fill="none" width="10.271" height="2.34"/>
<rect x="17.08" y="44.74" fill="none" width="2.34" height="2.329"/>
<rect x="19.83" y="14.45" fill="none" width="10.271" height="2.33"/>
<rect x="17.08" y="39.229" fill="none" width="2.34" height="2.33"/>
<rect x="19.83" y="0.67" fill="none" width="10.271" height="2.34"/>
<rect x="17.08" y="41.99" fill="none" width="2.34" height="2.329"/>
<rect x="17.08" y="30.97" fill="none" width="2.34" height="2.34"/>
<rect x="17.08" y="36.479" fill="none" width="2.34" height="2.34"/>
<path fill="#231F20" d="M31.479,0.67c-0.319-0.1-0.64-0.19-0.959-0.27v0.27H31.479z"/>
<path fill="#231F20" d="M30.1,0.67V0.29c-0.061-0.01-0.11-0.03-0.17-0.04H19.83v0.42H30.1z"/>
<path fill="#231F20" d="M19.41,0.67V0.25h-0.79c-0.52,0.12-1.04,0.26-1.55,0.42l0,0H19.41z"/>
<path fill="#231F20" d="M11.84,3.01c-0.23,0.14-0.45,0.28-0.67,0.42h2.73V3.01H11.84z"/>
<rect x="19.83" y="3.01" fill="#231F20" width="10.271" height="0.42"/>
<path fill="#231F20" d="M37.38,3.43c-0.22-0.14-0.439-0.28-0.67-0.42H36.02v0.42H37.38z"/>
<rect x="14.32" y="3.01" fill="#231F20" width="2.33" height="0.42"/>
<rect x="17.08" y="3.01" fill="#231F20" width="2.34" height="0.42"/>
<rect x="30.52" y="3.01" fill="#231F20" width="2.33" height="0.42"/>
<rect x="33.27" y="3.01" fill="#231F20" width="2.34" height="0.42"/>
<path fill="#231F20" d="M8.09,5.76C7.94,5.9,7.79,6.04,7.64,6.18h6.27V5.76H8.09z"/>
<rect x="33.27" y="5.76" fill="#231F20" width="2.34" height="0.42"/>
<rect x="14.32" y="5.76" fill="#231F20" width="2.33" height="0.42"/>
<rect x="17.08" y="5.76" fill="#231F20" width="2.34" height="0.42"/>
<path fill="#231F20" d="M40.92,6.18c-0.149-0.14-0.3-0.28-0.45-0.42h-4.43v0.42H40.92z"/>
<rect x="30.52" y="5.76" fill="#231F20" width="2.33" height="0.42"/>
<rect x="19.83" y="5.76" fill="#231F20" width="10.271" height="0.42"/>
<rect x="30.52" y="8.52" fill="#231F20" width="2.33" height="0.42"/>
<path fill="#231F20" d="M5.45,8.52C5.34,8.65,5.23,8.8,5.13,8.94h8.78V8.52H5.45z"/>
<path fill="#231F20" d="M43.431,8.94C43.319,8.8,43.21,8.66,43.1,8.52h-7.07v0.42H43.431z"/>
<rect x="17.08" y="8.52" fill="#231F20" width="2.34" height="0.42"/>
<rect x="14.32" y="8.52" fill="#231F20" width="2.33" height="0.42"/>
<rect x="19.83" y="8.52" fill="#231F20" width="10.271" height="0.42"/>
<rect x="33.27" y="8.52" fill="#231F20" width="2.34" height="0.42"/>
<rect x="17.08" y="11.27" fill="#231F20" width="2.34" height="0.42"/>
<rect x="30.52" y="11.27" fill="#231F20" width="2.33" height="0.42"/>
<rect x="33.27" y="11.27" fill="#231F20" width="2.34" height="0.42"/>
<path fill="#231F20" d="M3.5,11.27c-0.08,0.14-0.16,0.28-0.24,0.42h10.65v-0.42H3.5z"/>
<rect x="14.32" y="11.27" fill="#231F20" width="2.33" height="0.42"/>
<path fill="#231F20" d="M45.3,11.69c-0.08-0.14-0.16-0.28-0.24-0.42H36.03v0.42H45.3z"/>
<rect x="19.83" y="11.27" fill="#231F20" width="10.271" height="0.42"/>
<rect x="14.32" y="14.03" fill="#231F20" width="2.33" height="0.42"/>
<rect x="33.27" y="14.03" fill="#231F20" width="2.34" height="0.42"/>
<rect x="19.83" y="14.03" fill="#231F20" width="10.271" height="0.42"/>
<rect x="30.52" y="14.03" fill="#231F20" width="2.33" height="0.42"/>
<path fill="#231F20" d="M2.06,14.03C2,14.17,1.94,14.3,1.88,14.45h12.03v-0.42H2.06z"/>
<path fill="#231F20" d="M46.681,14.45c-0.061-0.14-0.131-0.28-0.19-0.42H36.03v0.42H46.681z"/>
<rect x="17.08" y="14.03" fill="#231F20" width="2.34" height="0.42"/>
<rect x="17.08" y="16.78" fill="#231F20" width="2.34" height="0.42"/>
<rect x="33.27" y="16.78" fill="#231F20" width="2.34" height="0.42"/>
<path fill="#231F20" d="M1.03,16.78c-0.04,0.14-0.08,0.28-0.12,0.42H13.9v-0.42H1.03z"/>
<rect x="30.52" y="16.78" fill="#231F20" width="2.33" height="0.42"/>
<rect x="14.32" y="16.78" fill="#231F20" width="2.33" height="0.42"/>
<rect x="19.83" y="16.78" fill="#231F20" width="10.271" height="0.42"/>
<path fill="#231F20" d="M47.64,17.2c-0.039-0.14-0.08-0.28-0.119-0.42h-11.5v0.42H47.64z"/>
<rect x="17.08" y="19.53" fill="#231F20" width="2.34" height="0.42"/>
<path fill="#231F20" d="M48.26,19.95c-0.021-0.14-0.05-0.28-0.069-0.42H36.03v0.42H48.26z"/>
<path fill="#231F20" d="M0.37,19.53c-0.03,0.14-0.05,0.28-0.07,0.42h13.61v-0.42H0.37z"/>
<rect x="14.32" y="19.53" fill="#231F20" width="2.33" height="0.42"/>
<rect x="33.27" y="19.53" fill="#231F20" width="2.34" height="0.42"/>
<rect x="19.83" y="19.53" fill="#231F20" width="10.271" height="0.42"/>
<rect x="30.52" y="19.53" fill="#231F20" width="2.33" height="0.42"/>
<rect x="30.52" y="22.29" fill="#231F20" width="2.33" height="0.42"/>
<path fill="#231F20" d="M48.559,22.71c-0.01-0.14-0.02-0.28-0.029-0.42h-12.5v0.42H48.559z"/>
<rect x="33.27" y="22.29" fill="#231F20" width="2.34" height="0.42"/>
<path fill="#231F20" d="M0.03,22.29C0.02,22.43,0.01,22.57,0,22.71h13.9v-0.42H0.03z"/>
<rect x="14.32" y="22.29" fill="#231F20" width="2.33" height="0.42"/>
<rect x="17.08" y="22.29" fill="#231F20" width="2.34" height="0.42"/>
<rect x="19.83" y="22.29" fill="#231F20" width="10.271" height="0.42"/>
<rect x="17.08" y="25.04" fill="#231F20" width="2.34" height="0.42"/>
<rect x="14.32" y="25.04" fill="#231F20" width="2.33" height="0.42"/>
<path fill="#231F20" d="M48.53,25.46c0.01-0.141,0.02-0.279,0.029-0.42H36.03v0.42H48.53z"/>
<rect x="30.52" y="25.04" fill="#231F20" width="2.33" height="0.42"/>
<rect x="33.27" y="25.04" fill="#231F20" width="2.34" height="0.42"/>
<path fill="#231F20" d="M0,25.04c0.01,0.141,0.02,0.279,0.03,0.42h13.88v-0.42H0z"/>
<rect x="19.83" y="25.04" fill="#231F20" width="10.271" height="0.42"/>
<rect x="14.32" y="27.8" fill="#231F20" width="2.33" height="0.42"/>
<rect x="19.83" y="27.8" fill="#231F20" width="10.271" height="0.42"/>
<rect x="17.08" y="27.8" fill="#231F20" width="2.34" height="0.42"/>
<rect x="30.52" y="27.8" fill="#231F20" width="2.33" height="0.42"/>
<path fill="#231F20" d="M0.29,27.8c0.02,0.141,0.05,0.28,0.08,0.42h13.54V27.8H0.29z"/>
<path fill="#231F20" d="M48.19,28.22c0.029-0.14,0.049-0.279,0.08-0.42H36.03v0.42H48.19z"/>
<rect x="33.27" y="27.8" fill="#231F20" width="2.34" height="0.42"/>
<rect x="33.27" y="30.55" fill="#231F20" width="2.34" height="0.42"/>
<rect x="30.52" y="30.55" fill="#231F20" width="2.33" height="0.42"/>
<rect x="19.83" y="30.55" fill="#231F20" width="10.271" height="0.42"/>
<path fill="#231F20" d="M47.54,30.97c0.04-0.14,0.08-0.279,0.12-0.42H36.03v0.42H47.54z"/>
<path fill="#231F20" d="M0.9,30.55c0.04,0.141,0.08,0.28,0.12,0.42H13.9v-0.42H0.9z"/>
<rect x="14.32" y="30.55" fill="#231F20" width="2.33" height="0.42"/>
<rect x="17.08" y="30.55" fill="#231F20" width="2.34" height="0.42"/>
<rect x="14.32" y="33.309" fill="#231F20" width="2.33" height="0.42"/>
<rect x="30.52" y="33.309" fill="#231F20" width="2.33" height="0.42"/>
<path fill="#231F20" d="M1.86,33.309c0.06,0.141,0.12,0.28,0.19,0.42h11.86v-0.42H1.86z"/>
<rect x="19.83" y="33.309" fill="#231F20" width="10.271" height="0.42"/>
<path fill="#231F20" d="M46.51,33.729c0.06-0.14,0.13-0.279,0.19-0.42H36.03v0.42H46.51z"/>
<rect x="33.27" y="33.309" fill="#231F20" width="2.34" height="0.42"/>
<rect x="17.08" y="33.309" fill="#231F20" width="2.34" height="0.42"/>
<path fill="#231F20" d="M45.08,36.479c0.08-0.14,0.16-0.279,0.239-0.42H36.03v0.42H45.08z"/>
<rect x="17.08" y="36.059" fill="#231F20" width="2.34" height="0.42"/>
<rect x="33.27" y="36.059" fill="#231F20" width="2.34" height="0.42"/>
<path fill="#231F20" d="M3.24,36.059c0.08,0.141,0.16,0.28,0.24,0.42h10.43v-0.42H3.24z"/>
<rect x="14.32" y="36.059" fill="#231F20" width="2.33" height="0.42"/>
<rect x="30.52" y="36.059" fill="#231F20" width="2.33" height="0.42"/>
<rect x="19.83" y="36.059" fill="#231F20" width="10.271" height="0.42"/>
<rect x="19.83" y="38.809" fill="#231F20" width="10.271" height="0.42"/>
<rect x="17.08" y="38.809" fill="#231F20" width="2.34" height="0.42"/>
<path fill="#231F20" d="M43.13,39.229c0.11-0.14,0.221-0.279,0.33-0.42h-7.43v0.42H43.13z"/>
<rect x="14.32" y="38.809" fill="#231F20" width="2.33" height="0.42"/>
<rect x="33.27" y="38.809" fill="#231F20" width="2.34" height="0.42"/>
<rect x="30.52" y="38.809" fill="#231F20" width="2.33" height="0.42"/>
<path fill="#231F20" d="M5.1,38.809c0.11,0.141,0.22,0.28,0.33,0.42h8.48v-0.42H5.1z"/>
<path fill="#231F20" d="M7.6,41.569c0.15,0.141,0.3,0.281,0.45,0.421h5.85v-0.421H7.6z"/>
<path fill="#231F20" d="M40.5,41.99c0.149-0.14,0.3-0.28,0.45-0.421h-4.93v0.421H40.5z"/>
<rect x="17.08" y="41.569" fill="#231F20" width="2.34" height="0.421"/>
<rect x="30.52" y="41.569" fill="#231F20" width="2.33" height="0.421"/>
<rect x="19.83" y="41.569" fill="#231F20" width="10.271" height="0.421"/>
<rect x="33.27" y="41.569" fill="#231F20" width="2.34" height="0.421"/>
<rect x="14.32" y="41.569" fill="#231F20" width="2.33" height="0.421"/>
<path fill="#231F20" d="M36.78,44.74c0.22-0.13,0.439-0.28,0.66-0.421h-1.42v0.421H36.78z"/>
<rect x="19.83" y="44.319" fill="#231F20" width="10.271" height="0.421"/>
<rect x="14.32" y="44.319" fill="#231F20" width="2.33" height="0.421"/>
<rect x="17.08" y="44.319" fill="#231F20" width="2.34" height="0.421"/>
<path fill="#231F20" d="M11.11,44.319c0.22,0.141,0.44,0.281,0.66,0.421h2.13v-0.421H11.11z"/>
<rect x="33.27" y="44.319" fill="#231F20" width="2.34" height="0.421"/>
<rect x="30.52" y="44.319" fill="#231F20" width="2.33" height="0.421"/>
<path fill="#231F20" d="M31.6,47.08h-1.08v0.31C30.88,47.29,31.24,47.19,31.6,47.08z"/>
<path fill="#231F20" d="M17.08,47.08v0.04c0.45,0.14,0.91,0.26,1.38,0.38h0.96v-0.42H17.08z"/>
<polygon fill="#231F20" points="19.83,47.08 19.83,47.5 30.1,47.5 30.1,47.5 30.1,47.08 "/>
<path fill="#231F20" d="M14.32,41.99v-0.421V39.24v-0.421v-2.34v-0.42v-2.33v-0.42v-2.34v-0.42v-2.33V27.8v-2.33v-0.42v-2.34v-0.42
	v-2.34v-0.42V17.2v-0.42v-2.33v-0.42v-2.34v-0.42V8.94V8.52V6.18V5.76V3.43V3.01V1.72c-0.14,0.061-0.28,0.12-0.42,0.19v1.1v0.42
	v2.33v0.42v2.34v0.42v2.34v0.42v2.34v0.42v2.33v0.42v2.34v0.42v2.34v0.42v2.339v0.421v2.329v0.421v2.329v0.421v2.34v0.42v2.33v0.42
	v2.34v0.42v2.33v0.42v2.33v0.42v1.14c0.14,0.07,0.28,0.131,0.42,0.19v-1.33v-0.42V41.99z"/>
<path fill="#231F20" d="M17.08,44.74v-0.421V41.99v-0.421V39.24v-0.421v-2.34v-0.42v-2.33v-0.42v-2.34v-0.42v-2.33V27.8v-2.33v-0.42
	v-2.34v-0.42v-2.34v-0.42V17.2v-0.42v-2.33v-0.42v-2.34v-0.42V8.94V8.52V6.18V5.76V3.43V3.01V0.67l0,0
	c-0.14,0.04-0.28,0.09-0.42,0.14v2.2v0.42v2.33v0.42v2.34v0.42v2.34v0.42v2.34v0.42v2.33v0.42v2.34v0.42v2.34v0.42v2.339v0.421
	v2.329v0.421v2.329v0.421v2.34v0.42v2.33v0.42v2.34v0.42v2.33v0.42v2.33v0.42V47c0.14,0.05,0.28,0.101,0.42,0.14V47.1V44.74z"/>
<path fill="#231F20" d="M19.83,44.74v-0.421V41.99v-0.421V39.24v-0.421v-2.34v-0.42v-2.33v-0.42v-2.34v-0.42v-2.33V27.8v-2.33v-0.42
	v-2.34v-0.42v-2.34v-0.42V17.2v-0.42v-2.33v-0.42v-2.34v-0.42V8.94V8.52V6.18V5.76V3.43V3.01V0.67V0.25V0
	c-0.14,0.03-0.28,0.05-0.42,0.08v0.18v0.42v2.34v0.42v2.33v0.42v2.34v0.42v2.34v0.42v2.34v0.42v2.33v0.42v2.34v0.42v2.34v0.42v2.34
	v0.42v2.33v0.42v2.33V31v2.34v0.42v2.33v0.42v2.341v0.42v2.33v0.42v2.33v0.42v2.33v0.42v0.22c0.14,0.03,0.28,0.05,0.42,0.079V47.5
	v-0.42V44.74z"/>
<path fill="#231F20" d="M30.52,41.99v-0.421V39.24v-0.421v-2.34v-0.42v-2.33v-0.42v-2.34v-0.42v-2.33V27.8v-2.33v-0.42v-2.34v-0.42
	v-2.34v-0.42V17.2v-0.42v-2.33v-0.42v-2.34v-0.42V8.94V8.52V6.18V5.76V3.43V3.01V0.67V0.4c-0.141-0.04-0.28-0.07-0.42-0.11v0.38
	v2.34v0.42v2.33v0.42v2.34v0.42v2.34v0.42v2.34v0.42v2.33v0.42v2.34v0.42v2.34v0.42v2.339v0.421v2.329v0.421v2.329v0.421v2.34v0.42
	v2.33v0.42v2.34v0.42v2.33v0.42v2.33v0.42v2.33v0.42c0.14-0.03,0.279-0.069,0.42-0.11v-0.31v-2.33v-0.42V41.99z"/>
<path fill="#231F20" d="M33.27,41.99v-0.421V39.24v-0.421v-2.34v-0.42v-2.33v-0.42v-2.34v-0.42v-2.33V27.8v-2.33v-0.42v-2.34v-0.42
	v-2.34v-0.42V17.2v-0.42v-2.33v-0.42v-2.34v-0.42V8.94V8.52V6.18V5.76V3.43V3.01v-1.7c-0.141-0.06-0.28-0.11-0.42-0.17V3v0.42v2.33
	v0.42v2.34v0.42v2.34v0.42v2.34v0.42v2.33v0.42v2.34v0.42v2.34v0.42v2.34v0.42v2.33v0.42v2.33v0.42v2.34v0.421v2.329v0.421v2.34
	v0.42v2.33V42v2.33v0.42v1.899c0.14-0.049,0.279-0.109,0.42-0.17V44.75v-0.42V41.99z"/>
<path fill="#231F20" d="M35.61,2.39v0.62v0.42v2.33v0.42v2.34v0.42v2.34v0.42v2.34v0.42v2.33v0.42v2.34v0.42v2.34v0.42v2.339v0.421
	v2.329v0.421v2.329v0.421v2.34v0.42v2.33v0.42v2.34v0.42v2.33v0.42v2.33v0.42v0.66c0.14-0.069,0.279-0.149,0.42-0.22v-0.43v-0.42
	v-2.33V41.6v-2.33v-0.42V36.51v-0.42v-2.33v-0.42V31v-0.42v-2.33V27.8v-2.33v-0.42v-2.34v-0.42v-2.34v-0.42V17.2v-0.42v-2.33v-0.42
	v-2.34v-0.42V8.94V8.52V6.18V5.76V3.43V3.01V2.62C35.89,2.54,35.75,2.46,35.61,2.39z"/>
</svg>
