<?xml version="1.0" encoding="utf-8"?>
<!-- Generator: Adobe Illustrator 12.0.0, SVG Export Plug-In  -->
<!DOCTYPE svg PUBLIC "-//W3C//DTD SVG 1.1//EN" "http://www.w3.org/Graphics/SVG/1.1/DTD/svg11.dtd" [
	<!ENTITY ns_flows "http://ns.adobe.com/Flows/1.0/">
	<!ENTITY ns_svg "http://www.w3.org/2000/svg">
	<!ENTITY ns_xlink "http://www.w3.org/1999/xlink">
]>
<svg  version="1.1" xmlns="&ns_svg;" xmlns:xlink="&ns_xlink;" xmlns:a="http://ns.adobe.com/AdobeSVGViewerExtensions/3.0/"
	 width="89" height="89" viewBox="-0.487 -0.33 89 89" enable-background="new -0.487 -0.33 89 89" xml:space="preserve">
<defs>
</defs>
<rect x="46.649" y="74.598" fill="none" width="2.998" height="2.998"/>
<rect x="50.29" y="27.263" fill="none" width="2.998" height="2.999"/>
<rect x="46.649" y="78.238" fill="none" width="2.998" height="2.999"/>
<rect x="46.649" y="70.956" fill="none" width="2.998" height="2.999"/>
<rect x="46.649" y="81.88" fill="none" width="2.998" height="2.998"/>
<rect x="46.649" y="67.315" fill="none" width="2.998" height="2.998"/>
<rect x="50.29" y="30.904" fill="none" width="2.998" height="2.998"/>
<rect x="50.29" y="16.34" fill="none" width="2.998" height="2.998"/>
<rect x="50.29" y="19.98" fill="none" width="2.998" height="2.999"/>
<rect x="50.29" y="23.622" fill="none" width="2.998" height="2.998"/>
<rect x="46.649" y="63.674" fill="none" width="2.998" height="2.999"/>
<rect x="50.29" y="9.057" fill="none" width="2.998" height="2.999"/>
<rect x="50.29" y="1.774" fill="none" width="2.998" height="2.999"/>
<rect x="50.29" y="5.416" fill="none" width="2.998" height="2.998"/>
<rect x="50.29" y="12.698" fill="none" width="2.998" height="2.999"/>
<rect x="46.649" y="27.263" fill="none" width="2.998" height="2.999"/>
<rect x="46.649" y="23.622" fill="none" width="2.998" height="2.998"/>
<rect x="46.649" y="30.904" fill="none" width="2.998" height="2.998"/>
<rect x="46.649" y="60.033" fill="none" width="2.998" height="2.998"/>
<rect x="46.649" y="19.98" fill="none" width="2.998" height="2.999"/>
<rect x="46.649" y="12.698" fill="none" width="2.998" height="2.999"/>
<rect x="46.649" y="16.34" fill="none" width="2.998" height="2.998"/>
<rect x="46.649" y="34.545" fill="none" width="2.998" height="2.999"/>
<rect x="46.649" y="49.109" fill="none" width="2.998" height="2.998"/>
<rect x="46.649" y="52.75" fill="none" width="2.998" height="3"/>
<rect x="46.649" y="56.393" fill="none" width="2.998" height="2.998"/>
<rect x="46.649" y="41.827" fill="none" width="2.998" height="2.999"/>
<rect x="46.649" y="38.187" fill="none" width="2.998" height="2.998"/>
<rect x="46.649" y="45.469" fill="none" width="2.998" height="2.998"/>
<rect x="50.29" y="34.545" fill="none" width="2.998" height="2.999"/>
<rect x="53.931" y="38.187" fill="none" width="2.998" height="2.998"/>
<rect x="53.931" y="34.545" fill="none" width="2.998" height="2.999"/>
<rect x="53.931" y="16.34" fill="none" width="2.998" height="2.998"/>
<rect x="53.931" y="30.904" fill="none" width="2.998" height="2.998"/>
<rect x="53.931" y="23.622" fill="none" width="2.998" height="2.998"/>
<rect x="53.931" y="19.98" fill="none" width="2.998" height="2.999"/>
<rect x="53.931" y="27.263" fill="none" width="2.998" height="2.999"/>
<rect x="53.931" y="45.469" fill="none" width="2.998" height="2.998"/>
<rect x="50.29" y="38.187" fill="none" width="2.998" height="2.998"/>
<rect x="53.931" y="49.109" fill="none" width="2.998" height="2.998"/>
<rect x="53.931" y="63.674" fill="none" width="2.998" height="2.999"/>
<rect x="46.649" y="9.057" fill="none" width="2.998" height="2.999"/>
<rect x="53.931" y="67.315" fill="none" width="2.998" height="2.998"/>
<rect x="53.931" y="52.75" fill="none" width="2.998" height="3"/>
<rect x="53.931" y="60.033" fill="none" width="2.998" height="2.998"/>
<rect x="53.931" y="56.393" fill="none" width="2.998" height="2.998"/>
<rect x="53.931" y="41.827" fill="none" width="2.998" height="2.999"/>
<rect x="50.29" y="52.75" fill="none" width="2.998" height="3"/>
<rect x="50.29" y="56.393" fill="none" width="2.998" height="2.998"/>
<rect x="50.29" y="60.033" fill="none" width="2.998" height="2.998"/>
<rect x="53.931" y="70.956" fill="none" width="2.998" height="2.999"/>
<rect x="50.29" y="49.109" fill="none" width="2.998" height="2.998"/>
<rect x="50.29" y="41.827" fill="none" width="2.998" height="2.999"/>
<rect x="50.29" y="45.469" fill="none" width="2.998" height="2.998"/>
<rect x="53.931" y="12.698" fill="none" width="2.998" height="2.999"/>
<rect x="50.29" y="63.674" fill="none" width="2.998" height="2.999"/>
<rect x="53.931" y="5.416" fill="none" width="2.998" height="2.998"/>
<rect x="35.728" y="19.98" fill="none" width="2.998" height="2.999"/>
<rect x="53.931" y="9.057" fill="none" width="2.998" height="2.999"/>
<rect x="50.29" y="81.88" fill="none" width="2.998" height="2.998"/>
<rect x="50.29" y="70.956" fill="none" width="2.998" height="2.999"/>
<rect x="50.29" y="78.238" fill="none" width="2.998" height="2.999"/>
<rect x="50.29" y="74.598" fill="none" width="2.998" height="2.998"/>
<rect x="50.29" y="67.315" fill="none" width="2.998" height="2.998"/>
<rect x="39.368" y="9.057" fill="none" width="2.998" height="2.999"/>
<rect x="39.368" y="12.698" fill="none" width="2.998" height="2.999"/>
<rect x="39.368" y="16.34" fill="none" width="2.998" height="2.998"/>
<rect x="39.368" y="19.98" fill="none" width="2.998" height="2.999"/>
<rect x="39.368" y="1.774" fill="none" width="2.998" height="2.999"/>
<rect x="46.649" y="5.416" fill="none" width="2.998" height="2.998"/>
<rect x="35.728" y="81.88" fill="none" width="2.998" height="2.998"/>
<rect x="39.368" y="23.622" fill="none" width="2.998" height="2.998"/>
<rect x="39.368" y="30.904" fill="none" width="2.998" height="2.998"/>
<rect x="39.368" y="27.263" fill="none" width="2.998" height="2.999"/>
<rect x="39.368" y="45.469" fill="none" width="2.998" height="2.998"/>
<rect x="39.368" y="49.109" fill="none" width="2.998" height="2.998"/>
<rect x="39.368" y="41.827" fill="none" width="2.998" height="2.999"/>
<rect x="39.368" y="38.187" fill="none" width="2.998" height="2.998"/>
<rect x="35.728" y="78.238" fill="none" width="2.998" height="2.999"/>
<rect x="39.368" y="34.545" fill="none" width="2.998" height="2.999"/>
<rect x="35.728" y="34.545" fill="none" width="2.998" height="2.999"/>
<rect x="35.728" y="38.187" fill="none" width="2.998" height="2.998"/>
<rect x="35.728" y="45.469" fill="none" width="2.998" height="2.998"/>
<rect x="35.728" y="41.827" fill="none" width="2.998" height="2.999"/>
<rect x="39.368" y="52.75" fill="none" width="2.998" height="3"/>
<rect x="35.728" y="30.904" fill="none" width="2.998" height="2.998"/>
<rect x="35.728" y="23.622" fill="none" width="2.998" height="2.998"/>
<rect x="35.728" y="27.263" fill="none" width="2.998" height="2.999"/>
<rect x="35.728" y="60.033" fill="none" width="2.998" height="2.998"/>
<rect x="35.728" y="67.315" fill="none" width="2.998" height="2.998"/>
<rect x="35.728" y="63.674" fill="none" width="2.998" height="2.999"/>
<rect x="35.728" y="70.956" fill="none" width="2.998" height="2.999"/>
<rect x="35.728" y="49.109" fill="none" width="2.998" height="2.998"/>
<rect x="35.728" y="74.598" fill="none" width="2.998" height="2.998"/>
<rect x="35.728" y="52.75" fill="none" width="2.998" height="3"/>
<rect x="35.728" y="56.393" fill="none" width="2.998" height="2.998"/>
<rect x="39.368" y="5.416" fill="none" width="2.998" height="2.998"/>
<rect x="43.009" y="45.469" fill="none" width="2.998" height="2.998"/>
<rect x="43.009" y="30.904" fill="none" width="2.998" height="2.998"/>
<rect x="43.009" y="52.75" fill="none" width="2.998" height="3"/>
<rect x="43.009" y="56.393" fill="none" width="2.998" height="2.998"/>
<rect x="43.009" y="38.187" fill="none" width="2.998" height="2.998"/>
<rect x="43.009" y="41.827" fill="none" width="2.998" height="2.999"/>
<rect x="43.009" y="34.545" fill="none" width="2.998" height="2.999"/>
<rect x="43.009" y="60.033" fill="none" width="2.998" height="2.998"/>
<rect x="43.009" y="49.109" fill="none" width="2.998" height="2.998"/>
<rect x="43.009" y="78.238" fill="none" width="2.998" height="2.999"/>
<rect x="43.009" y="81.88" fill="none" width="2.998" height="2.998"/>
<rect x="46.649" y="1.774" fill="none" width="2.998" height="2.999"/>
<rect x="43.009" y="63.674" fill="none" width="2.998" height="2.999"/>
<rect x="43.009" y="67.315" fill="none" width="2.998" height="2.998"/>
<rect x="43.009" y="74.598" fill="none" width="2.998" height="2.998"/>
<rect x="43.009" y="70.956" fill="none" width="2.998" height="2.999"/>
<rect x="43.009" y="19.98" fill="none" width="2.998" height="2.999"/>
<rect x="39.368" y="74.598" fill="none" width="2.998" height="2.998"/>
<rect x="43.009" y="27.263" fill="none" width="2.998" height="2.999"/>
<rect x="39.368" y="78.238" fill="none" width="2.998" height="2.999"/>
<rect x="39.368" y="63.674" fill="none" width="2.998" height="2.999"/>
<rect x="39.368" y="60.033" fill="none" width="2.998" height="2.998"/>
<rect x="39.368" y="81.88" fill="none" width="2.998" height="2.998"/>
<rect x="39.368" y="67.315" fill="none" width="2.998" height="2.998"/>
<rect x="39.368" y="70.956" fill="none" width="2.998" height="2.999"/>
<rect x="39.368" y="56.393" fill="none" width="2.998" height="2.998"/>
<rect x="43.009" y="23.622" fill="none" width="2.998" height="2.998"/>
<rect x="43.009" y="1.774" fill="none" width="2.998" height="2.999"/>
<rect x="43.009" y="16.34" fill="none" width="2.998" height="2.998"/>
<rect x="43.009" y="5.416" fill="none" width="2.998" height="2.998"/>
<rect x="43.009" y="12.698" fill="none" width="2.998" height="2.999"/>
<rect x="43.009" y="9.057" fill="none" width="2.998" height="2.999"/>
<rect x="75.773" y="56.393" fill="none" width="2.998" height="2.998"/>
<rect x="61.212" y="74.598" fill="none" width="2.998" height="2.998"/>
<rect x="61.212" y="78.238" fill="none" width="2.998" height="2.999"/>
<rect x="61.212" y="67.315" fill="none" width="2.998" height="2.998"/>
<rect x="61.212" y="70.956" fill="none" width="2.998" height="2.999"/>
<rect x="64.853" y="9.057" fill="none" width="2.997" height="2.999"/>
<rect x="64.853" y="19.98" fill="none" width="2.997" height="2.999"/>
<rect x="64.853" y="12.698" fill="none" width="2.997" height="2.999"/>
<rect x="64.853" y="16.34" fill="none" width="2.997" height="2.998"/>
<rect x="61.212" y="60.033" fill="none" width="2.998" height="2.998"/>
<rect x="61.212" y="45.469" fill="none" width="2.998" height="2.998"/>
<rect x="61.212" y="49.109" fill="none" width="2.998" height="2.998"/>
<rect x="61.212" y="41.827" fill="none" width="2.998" height="2.999"/>
<rect x="61.212" y="63.674" fill="none" width="2.998" height="2.999"/>
<rect x="64.853" y="23.622" fill="none" width="2.997" height="2.998"/>
<rect x="61.212" y="56.393" fill="none" width="2.998" height="2.998"/>
<rect x="61.212" y="52.75" fill="none" width="2.998" height="3"/>
<rect x="68.492" y="12.698" fill="none" width="2.998" height="2.999"/>
<rect x="64.853" y="67.315" fill="none" width="2.997" height="2.998"/>
<rect x="64.853" y="63.674" fill="none" width="2.997" height="2.999"/>
<rect x="64.853" y="56.393" fill="none" width="2.997" height="2.998"/>
<rect x="64.853" y="27.263" fill="none" width="2.997" height="2.999"/>
<rect x="68.492" y="16.34" fill="none" width="2.998" height="2.998"/>
<rect x="64.853" y="74.598" fill="none" width="2.997" height="2.998"/>
<rect x="61.212" y="38.187" fill="none" width="2.998" height="2.998"/>
<rect x="64.853" y="60.033" fill="none" width="2.997" height="2.998"/>
<rect x="64.853" y="38.187" fill="none" width="2.997" height="2.998"/>
<rect x="68.492" y="19.98" fill="none" width="2.998" height="2.999"/>
<rect x="64.853" y="30.904" fill="none" width="2.997" height="2.998"/>
<rect x="64.853" y="52.75" fill="none" width="2.997" height="3"/>
<rect x="64.853" y="49.109" fill="none" width="2.997" height="2.998"/>
<rect x="53.931" y="74.598" fill="none" width="2.998" height="2.998"/>
<rect x="64.853" y="45.469" fill="none" width="2.997" height="2.998"/>
<rect x="64.853" y="34.545" fill="none" width="2.997" height="2.999"/>
<rect x="57.571" y="30.904" fill="none" width="2.998" height="2.998"/>
<rect x="57.571" y="23.622" fill="none" width="2.998" height="2.998"/>
<rect x="57.571" y="27.263" fill="none" width="2.998" height="2.999"/>
<rect x="57.571" y="52.75" fill="none" width="2.998" height="3"/>
<rect x="61.212" y="34.545" fill="none" width="2.998" height="2.999"/>
<rect x="57.571" y="49.109" fill="none" width="2.998" height="2.998"/>
<rect x="57.571" y="45.469" fill="none" width="2.998" height="2.998"/>
<rect x="57.571" y="41.827" fill="none" width="2.998" height="2.999"/>
<rect x="57.571" y="38.187" fill="none" width="2.998" height="2.998"/>
<rect x="57.571" y="5.416" fill="none" width="2.998" height="2.998"/>
<rect x="35.728" y="16.34" fill="none" width="2.998" height="2.998"/>
<rect x="57.571" y="16.34" fill="none" width="2.998" height="2.998"/>
<rect x="57.571" y="19.98" fill="none" width="2.998" height="2.999"/>
<rect x="57.571" y="12.698" fill="none" width="2.998" height="2.999"/>
<rect x="57.571" y="9.057" fill="none" width="2.998" height="2.999"/>
<rect x="57.571" y="34.545" fill="none" width="2.998" height="2.999"/>
<rect x="61.212" y="16.34" fill="none" width="2.998" height="2.998"/>
<rect x="61.212" y="12.698" fill="none" width="2.998" height="2.999"/>
<rect x="61.212" y="19.98" fill="none" width="2.998" height="2.999"/>
<rect x="57.571" y="56.393" fill="none" width="2.998" height="2.998"/>
<rect x="61.212" y="23.622" fill="none" width="2.998" height="2.998"/>
<rect x="61.212" y="30.904" fill="none" width="2.998" height="2.998"/>
<rect x="61.212" y="9.057" fill="none" width="2.998" height="2.999"/>
<rect x="61.212" y="27.263" fill="none" width="2.998" height="2.999"/>
<rect x="57.571" y="63.674" fill="none" width="2.998" height="2.999"/>
<rect x="61.212" y="5.416" fill="none" width="2.998" height="2.998"/>
<rect x="57.571" y="60.033" fill="none" width="2.998" height="2.998"/>
<rect x="57.571" y="67.315" fill="none" width="2.998" height="2.998"/>
<rect x="57.571" y="70.956" fill="none" width="2.998" height="2.999"/>
<rect x="57.571" y="78.238" fill="none" width="2.998" height="2.999"/>
<rect x="57.571" y="74.598" fill="none" width="2.998" height="2.998"/>
<rect x="64.853" y="41.827" fill="none" width="2.997" height="2.999"/>
<rect x="75.773" y="63.674" fill="none" width="2.998" height="2.999"/>
<rect x="75.773" y="67.315" fill="none" width="2.998" height="2.998"/>
<rect x="79.414" y="23.622" fill="none" width="2.998" height="2.998"/>
<rect x="75.773" y="60.033" fill="none" width="2.998" height="2.998"/>
<rect x="79.414" y="30.904" fill="none" width="2.998" height="2.998"/>
<rect x="79.414" y="34.545" fill="none" width="2.998" height="2.999"/>
<rect x="75.773" y="52.75" fill="none" width="2.998" height="3"/>
<rect x="79.414" y="27.263" fill="none" width="2.998" height="2.999"/>
<rect x="75.773" y="27.263" fill="none" width="2.998" height="2.999"/>
<rect x="75.773" y="30.904" fill="none" width="2.998" height="2.998"/>
<rect x="79.414" y="38.187" fill="none" width="2.998" height="2.998"/>
<rect x="75.773" y="49.109" fill="none" width="2.998" height="2.998"/>
<rect x="75.773" y="34.545" fill="none" width="2.998" height="2.999"/>
<rect x="75.773" y="45.469" fill="none" width="2.998" height="2.998"/>
<rect x="75.773" y="41.827" fill="none" width="2.998" height="2.999"/>
<rect x="75.773" y="38.187" fill="none" width="2.998" height="2.998"/>
<rect x="83.055" y="45.469" fill="none" width="2.997" height="2.998"/>
<rect x="83.055" y="49.109" fill="none" width="2.997" height="2.998"/>
<rect x="75.773" y="23.622" fill="none" width="2.998" height="2.998"/>
<rect x="83.055" y="41.827" fill="none" width="2.997" height="2.999"/>
<rect x="83.055" y="52.75" fill="none" width="2.997" height="3"/>
<rect x="53.931" y="78.238" fill="none" width="2.998" height="2.999"/>
<rect x="53.931" y="81.88" fill="none" width="2.998" height="2.998"/>
<rect x="83.055" y="38.187" fill="none" width="2.997" height="2.998"/>
<rect x="79.414" y="60.033" fill="none" width="2.998" height="2.998"/>
<rect x="79.414" y="49.109" fill="none" width="2.998" height="2.998"/>
<rect x="79.414" y="52.75" fill="none" width="2.998" height="3"/>
<rect x="79.414" y="45.469" fill="none" width="2.998" height="2.998"/>
<rect x="79.414" y="41.827" fill="none" width="2.998" height="2.999"/>
<rect x="83.055" y="30.904" fill="none" width="2.997" height="2.998"/>
<rect x="79.414" y="56.393" fill="none" width="2.998" height="2.998"/>
<rect x="83.055" y="34.545" fill="none" width="2.997" height="2.999"/>
<rect x="68.492" y="70.956" fill="none" width="2.998" height="2.999"/>
<rect x="68.492" y="60.033" fill="none" width="2.998" height="2.998"/>
<rect x="68.492" y="56.393" fill="none" width="2.998" height="2.998"/>
<rect x="68.492" y="63.674" fill="none" width="2.998" height="2.999"/>
<rect x="68.492" y="52.75" fill="none" width="2.998" height="3"/>
<rect x="68.492" y="74.598" fill="none" width="2.998" height="2.998"/>
<rect x="68.492" y="67.315" fill="none" width="2.998" height="2.998"/>
<rect x="68.492" y="23.622" fill="none" width="2.998" height="2.998"/>
<rect x="68.492" y="27.263" fill="none" width="2.998" height="2.999"/>
<rect x="68.492" y="30.904" fill="none" width="2.998" height="2.998"/>
<rect x="72.133" y="16.34" fill="none" width="2.998" height="2.998"/>
<rect x="68.492" y="34.545" fill="none" width="2.998" height="2.999"/>
<rect x="68.492" y="41.827" fill="none" width="2.998" height="2.999"/>
<rect x="68.492" y="38.187" fill="none" width="2.998" height="2.998"/>
<rect x="68.492" y="45.469" fill="none" width="2.998" height="2.998"/>
<rect x="68.492" y="49.109" fill="none" width="2.998" height="2.998"/>
<rect x="72.133" y="56.393" fill="none" width="2.998" height="2.998"/>
<rect x="75.773" y="19.98" fill="none" width="2.998" height="2.999"/>
<rect x="72.133" y="60.033" fill="none" width="2.998" height="2.998"/>
<rect x="72.133" y="49.109" fill="none" width="2.998" height="2.998"/>
<rect x="72.133" y="52.75" fill="none" width="2.998" height="3"/>
<rect x="72.133" y="19.98" fill="none" width="2.998" height="2.999"/>
<rect x="72.133" y="70.956" fill="none" width="2.998" height="2.999"/>
<rect x="72.133" y="67.315" fill="none" width="2.998" height="2.998"/>
<rect x="72.133" y="63.674" fill="none" width="2.998" height="2.999"/>
<rect x="72.133" y="27.263" fill="none" width="2.998" height="2.999"/>
<rect x="72.133" y="23.622" fill="none" width="2.998" height="2.998"/>
<rect x="72.133" y="30.904" fill="none" width="2.998" height="2.998"/>
<rect x="72.133" y="41.827" fill="none" width="2.998" height="2.999"/>
<rect x="72.133" y="34.545" fill="none" width="2.998" height="2.999"/>
<rect x="72.133" y="45.469" fill="none" width="2.998" height="2.998"/>
<rect x="72.133" y="38.187" fill="none" width="2.998" height="2.998"/>
<rect x="64.853" y="70.956" fill="none" width="2.997" height="2.999"/>
<rect x="13.885" y="34.545" fill="none" width="2.998" height="2.999"/>
<rect x="13.885" y="27.263" fill="none" width="2.998" height="2.999"/>
<rect x="13.885" y="30.904" fill="none" width="2.998" height="2.998"/>
<rect x="13.885" y="45.469" fill="none" width="2.998" height="2.998"/>
<rect x="13.885" y="41.827" fill="none" width="2.998" height="2.999"/>
<rect x="13.885" y="38.187" fill="none" width="2.998" height="2.998"/>
<rect x="28.446" y="19.98" fill="none" width="2.998" height="2.999"/>
<rect x="28.446" y="23.622" fill="none" width="2.998" height="2.998"/>
<rect x="28.446" y="30.904" fill="none" width="2.998" height="2.998"/>
<rect x="13.885" y="12.698" fill="none" width="2.998" height="2.999"/>
<rect x="13.885" y="16.34" fill="none" width="2.998" height="2.998"/>
<rect x="13.885" y="23.622" fill="none" width="2.998" height="2.998"/>
<rect x="13.885" y="19.98" fill="none" width="2.998" height="2.999"/>
<rect x="28.446" y="27.263" fill="none" width="2.998" height="2.999"/>
<rect x="10.244" y="67.315" fill="none" width="2.998" height="2.998"/>
<rect x="13.885" y="70.956" fill="none" width="2.998" height="2.999"/>
<rect x="17.525" y="9.057" fill="none" width="2.998" height="2.999"/>
<rect x="28.446" y="9.057" fill="none" width="2.998" height="2.999"/>
<rect x="13.885" y="67.315" fill="none" width="2.998" height="2.998"/>
<rect x="28.446" y="5.416" fill="none" width="2.998" height="2.998"/>
<rect x="28.446" y="16.34" fill="none" width="2.998" height="2.998"/>
<rect x="17.525" y="12.698" fill="none" width="2.998" height="2.999"/>
<rect x="13.885" y="63.674" fill="none" width="2.998" height="2.999"/>
<rect x="13.885" y="56.393" fill="none" width="2.998" height="2.998"/>
<rect x="13.885" y="49.109" fill="none" width="2.998" height="2.998"/>
<rect x="13.885" y="52.75" fill="none" width="2.998" height="3"/>
<rect x="13.885" y="60.033" fill="none" width="2.998" height="2.998"/>
<rect x="28.446" y="12.698" fill="none" width="2.998" height="2.999"/>
<rect x="28.446" y="41.827" fill="none" width="2.998" height="2.999"/>
<rect x="10.244" y="23.622" fill="none" width="2.998" height="2.998"/>
<rect x="28.446" y="63.674" fill="none" width="2.998" height="2.999"/>
<rect x="28.446" y="60.033" fill="none" width="2.998" height="2.998"/>
<rect x="10.244" y="27.263" fill="none" width="2.998" height="2.999"/>
<rect x="28.446" y="67.315" fill="none" width="2.998" height="2.998"/>
<rect x="10.244" y="34.545" fill="none" width="2.998" height="2.999"/>
<rect x="10.244" y="30.904" fill="none" width="2.998" height="2.998"/>
<rect x="10.244" y="19.98" fill="none" width="2.998" height="2.999"/>
<rect x="6.604" y="63.674" fill="none" width="2.997" height="2.999"/>
<rect x="28.446" y="78.238" fill="none" width="2.998" height="2.999"/>
<rect x="10.244" y="16.34" fill="none" width="2.998" height="2.998"/>
<rect x="28.446" y="74.598" fill="none" width="2.998" height="2.998"/>
<rect x="28.446" y="70.956" fill="none" width="2.998" height="2.999"/>
<rect x="28.446" y="56.393" fill="none" width="2.998" height="2.998"/>
<rect x="10.244" y="52.75" fill="none" width="2.998" height="3"/>
<rect x="10.244" y="56.393" fill="none" width="2.998" height="2.998"/>
<rect x="17.525" y="16.34" fill="none" width="2.998" height="2.998"/>
<rect x="10.244" y="60.033" fill="none" width="2.998" height="2.998"/>
<rect x="28.446" y="38.187" fill="none" width="2.998" height="2.998"/>
<rect x="10.244" y="63.674" fill="none" width="2.998" height="2.999"/>
<rect x="28.446" y="45.469" fill="none" width="2.998" height="2.998"/>
<rect x="10.244" y="41.827" fill="none" width="2.998" height="2.999"/>
<rect x="10.244" y="45.469" fill="none" width="2.998" height="2.998"/>
<rect x="28.446" y="52.75" fill="none" width="2.998" height="3"/>
<rect x="28.446" y="34.545" fill="none" width="2.998" height="2.999"/>
<rect x="10.244" y="38.187" fill="none" width="2.998" height="2.998"/>
<rect x="10.244" y="49.109" fill="none" width="2.998" height="2.998"/>
<rect x="28.446" y="49.109" fill="none" width="2.998" height="2.998"/>
<rect x="21.166" y="19.98" fill="none" width="2.998" height="2.999"/>
<rect x="21.166" y="49.109" fill="none" width="2.998" height="2.998"/>
<rect x="21.166" y="41.827" fill="none" width="2.998" height="2.999"/>
<rect x="24.807" y="41.827" fill="none" width="2.997" height="2.999"/>
<rect x="21.166" y="45.469" fill="none" width="2.998" height="2.998"/>
<rect x="21.166" y="60.033" fill="none" width="2.998" height="2.998"/>
<rect x="21.166" y="52.75" fill="none" width="2.998" height="3"/>
<rect x="21.166" y="56.393" fill="none" width="2.998" height="2.998"/>
<rect x="21.166" y="34.545" fill="none" width="2.998" height="2.999"/>
<rect x="24.807" y="49.109" fill="none" width="2.997" height="2.998"/>
<rect x="21.166" y="27.263" fill="none" width="2.998" height="2.999"/>
<rect x="21.166" y="23.622" fill="none" width="2.998" height="2.998"/>
<rect x="21.166" y="30.904" fill="none" width="2.998" height="2.998"/>
<rect x="24.807" y="38.187" fill="none" width="2.997" height="2.998"/>
<rect x="21.166" y="38.187" fill="none" width="2.998" height="2.998"/>
<rect x="24.807" y="45.469" fill="none" width="2.997" height="2.998"/>
<rect x="21.166" y="63.674" fill="none" width="2.998" height="2.999"/>
<rect x="24.807" y="5.416" fill="none" width="2.997" height="2.998"/>
<rect x="24.807" y="9.057" fill="none" width="2.997" height="2.999"/>
<rect x="24.807" y="27.263" fill="none" width="2.997" height="2.999"/>
<rect x="24.807" y="23.622" fill="none" width="2.997" height="2.998"/>
<rect x="24.807" y="16.34" fill="none" width="2.997" height="2.998"/>
<rect x="24.807" y="12.698" fill="none" width="2.997" height="2.999"/>
<rect x="21.166" y="70.956" fill="none" width="2.998" height="2.999"/>
<rect x="24.807" y="34.545" fill="none" width="2.997" height="2.999"/>
<rect x="24.807" y="30.904" fill="none" width="2.997" height="2.998"/>
<rect x="21.166" y="67.315" fill="none" width="2.998" height="2.998"/>
<rect x="21.166" y="78.238" fill="none" width="2.998" height="2.999"/>
<rect x="21.166" y="74.598" fill="none" width="2.998" height="2.998"/>
<rect x="21.166" y="12.698" fill="none" width="2.998" height="2.999"/>
<rect x="17.525" y="41.827" fill="none" width="2.998" height="2.999"/>
<rect x="24.807" y="70.956" fill="none" width="2.997" height="2.999"/>
<rect x="17.525" y="45.469" fill="none" width="2.998" height="2.998"/>
<rect x="17.525" y="52.75" fill="none" width="2.998" height="3"/>
<rect x="17.525" y="38.187" fill="none" width="2.998" height="2.998"/>
<rect x="17.525" y="49.109" fill="none" width="2.998" height="2.998"/>
<rect x="24.807" y="67.315" fill="none" width="2.997" height="2.998"/>
<rect x="17.525" y="34.545" fill="none" width="2.998" height="2.999"/>
<rect x="24.807" y="19.98" fill="none" width="2.997" height="2.999"/>
<rect x="17.525" y="19.98" fill="none" width="2.998" height="2.999"/>
<rect x="17.525" y="23.622" fill="none" width="2.998" height="2.998"/>
<rect x="24.807" y="74.598" fill="none" width="2.997" height="2.998"/>
<rect x="17.525" y="30.904" fill="none" width="2.998" height="2.998"/>
<rect x="24.807" y="78.238" fill="none" width="2.997" height="2.999"/>
<rect x="24.807" y="56.393" fill="none" width="2.997" height="2.998"/>
<rect x="17.525" y="74.598" fill="none" width="2.998" height="2.998"/>
<rect x="6.604" y="60.033" fill="none" width="2.997" height="2.998"/>
<rect x="21.166" y="9.057" fill="none" width="2.998" height="2.999"/>
<rect x="24.807" y="52.75" fill="none" width="2.997" height="3"/>
<rect x="21.166" y="16.34" fill="none" width="2.998" height="2.998"/>
<rect x="17.525" y="63.674" fill="none" width="2.998" height="2.999"/>
<rect x="24.807" y="60.033" fill="none" width="2.997" height="2.998"/>
<rect x="24.807" y="63.674" fill="none" width="2.997" height="2.999"/>
<rect x="17.525" y="60.033" fill="none" width="2.998" height="2.998"/>
<rect x="17.525" y="56.393" fill="none" width="2.998" height="2.998"/>
<rect x="17.525" y="70.956" fill="none" width="2.998" height="2.999"/>
<rect x="17.525" y="67.315" fill="none" width="2.998" height="2.998"/>
<rect x="17.525" y="27.263" fill="none" width="2.998" height="2.999"/>
<rect x="6.604" y="34.545" fill="none" width="2.997" height="2.999"/>
<rect x="6.604" y="38.187" fill="none" width="2.997" height="2.998"/>
<rect x="32.087" y="41.827" fill="none" width="2.998" height="2.999"/>
<rect x="6.604" y="30.904" fill="none" width="2.997" height="2.998"/>
<rect x="6.604" y="23.622" fill="none" width="2.997" height="2.998"/>
<rect x="2.964" y="34.545" fill="none" width="2.998" height="2.999"/>
<rect x="6.604" y="27.263" fill="none" width="2.997" height="2.999"/>
<rect x="6.604" y="41.827" fill="none" width="2.997" height="2.999"/>
<rect x="32.087" y="38.187" fill="none" width="2.998" height="2.998"/>
<rect x="6.604" y="45.469" fill="none" width="2.997" height="2.998"/>
<rect x="32.087" y="19.98" fill="none" width="2.998" height="2.999"/>
<rect x="32.087" y="16.34" fill="none" width="2.998" height="2.998"/>
<rect x="2.964" y="30.904" fill="none" width="2.998" height="2.998"/>
<rect x="32.087" y="23.622" fill="none" width="2.998" height="2.998"/>
<rect x="35.728" y="12.698" fill="none" width="2.998" height="2.999"/>
<rect x="32.087" y="30.904" fill="none" width="2.998" height="2.998"/>
<rect x="32.087" y="27.263" fill="none" width="2.998" height="2.999"/>
<rect x="32.087" y="34.545" fill="none" width="2.998" height="2.999"/>
<rect x="32.087" y="45.469" fill="none" width="2.998" height="2.998"/>
<rect x="2.964" y="49.109" fill="none" width="2.998" height="2.998"/>
<rect x="32.087" y="70.956" fill="none" width="2.998" height="2.999"/>
<rect x="2.964" y="52.75" fill="none" width="2.998" height="3"/>
<rect x="2.964" y="56.393" fill="none" width="2.998" height="2.998"/>
<rect x="2.964" y="45.469" fill="none" width="2.998" height="2.998"/>
<rect x="32.087" y="81.88" fill="none" width="2.998" height="2.998"/>
<rect x="2.964" y="41.827" fill="none" width="2.998" height="2.999"/>
<rect x="32.087" y="78.238" fill="none" width="2.998" height="2.999"/>
<rect x="32.087" y="74.598" fill="none" width="2.998" height="2.998"/>
<rect x="35.728" y="9.057" fill="none" width="2.998" height="2.999"/>
<rect x="32.087" y="56.393" fill="none" width="2.998" height="2.998"/>
<rect x="32.087" y="52.75" fill="none" width="2.998" height="3"/>
<rect x="35.728" y="5.416" fill="none" width="2.998" height="2.998"/>
<rect x="32.087" y="67.315" fill="none" width="2.998" height="2.998"/>
<rect x="32.087" y="49.109" fill="none" width="2.998" height="2.998"/>
<rect x="32.087" y="63.674" fill="none" width="2.998" height="2.999"/>
<rect x="35.728" y="1.774" fill="none" width="2.998" height="2.999"/>
<rect x="32.087" y="60.033" fill="none" width="2.998" height="2.998"/>
<rect x="2.964" y="38.187" fill="none" width="2.998" height="2.998"/>
<rect x="32.087" y="9.057" fill="none" width="2.998" height="2.999"/>
<rect x="28.446" y="81.88" fill="none" width="2.998" height="2.998"/>
<rect x="6.604" y="56.393" fill="none" width="2.997" height="2.998"/>
<rect x="6.604" y="52.75" fill="none" width="2.997" height="3"/>
<rect x="32.087" y="12.698" fill="none" width="2.998" height="2.999"/>
<rect x="32.087" y="5.416" fill="none" width="2.998" height="2.998"/>
<rect x="32.087" y="1.774" fill="none" width="2.998" height="2.999"/>
<rect x="6.604" y="49.109" fill="none" width="2.997" height="2.998"/>
<rect x="39.368" y="1.132" fill="#000100" width="2.998" height="0.643"/>
<rect x="35.728" y="1.132" fill="#000100" width="2.998" height="0.643"/>
<path fill="#000100" d="M35.085,1.774V1.132h-1.083c-0.644,0.15-1.283,0.313-1.916,0.491v0.151H35.085z"/>
<path fill="#000100" d="M56.476,1.774c-0.807-0.238-1.624-0.451-2.449-0.643h-0.096v0.643H56.476z"/>
<rect x="43.009" y="1.132" fill="#000100" width="2.998" height="0.643"/>
<rect x="46.649" y="1.132" fill="#000100" width="2.998" height="0.643"/>
<rect x="50.29" y="1.132" fill="#000100" width="2.998" height="0.643"/>
<rect x="39.368" y="4.773" fill="#000100" width="2.998" height="0.643"/>
<rect x="53.931" y="4.773" fill="#000100" width="2.998" height="0.643"/>
<rect x="32.087" y="4.773" fill="#000100" width="2.998" height="0.643"/>
<path fill="#000100" d="M64.21,5.416V4.883c-0.071-0.037-0.142-0.073-0.213-0.109h-2.785v0.643H64.21z"/>
<rect x="43.009" y="4.773" fill="#000100" width="2.998" height="0.643"/>
<rect x="50.29" y="4.773" fill="#000100" width="2.998" height="0.643"/>
<path fill="#000100" d="M65.224,5.416c-0.124-0.068-0.247-0.137-0.372-0.204v0.204H65.224z"/>
<path fill="#000100" d="M24.033,4.773c-0.412,0.21-0.824,0.42-1.228,0.643h1.359V4.773H24.033z"/>
<rect x="35.728" y="4.773" fill="#000100" width="2.998" height="0.643"/>
<rect x="24.807" y="4.773" fill="#000100" width="2.997" height="0.643"/>
<rect x="46.649" y="4.773" fill="#000100" width="2.998" height="0.643"/>
<rect x="28.446" y="4.773" fill="#000100" width="2.998" height="0.643"/>
<rect x="57.571" y="4.773" fill="#000100" width="2.998" height="0.643"/>
<path fill="#000100" d="M70.786,9.057c-0.284-0.218-0.57-0.432-0.859-0.643h-1.435v0.643H70.786z"/>
<rect x="57.571" y="8.414" fill="#000100" width="2.998" height="0.643"/>
<rect x="61.212" y="8.414" fill="#000100" width="2.998" height="0.643"/>
<rect x="64.853" y="8.414" fill="#000100" width="2.997" height="0.643"/>
<rect x="24.807" y="8.414" fill="#000100" width="2.997" height="0.643"/>
<rect x="21.166" y="8.414" fill="#000100" width="2.998" height="0.643"/>
<path fill="#000100" d="M20.523,9.057V8.414h-2.421c-0.192,0.14-0.387,0.277-0.577,0.421v0.222H20.523z"/>
<rect x="28.446" y="8.414" fill="#000100" width="2.998" height="0.643"/>
<rect x="46.649" y="8.414" fill="#000100" width="2.998" height="0.643"/>
<rect x="43.009" y="8.414" fill="#000100" width="2.998" height="0.643"/>
<rect x="32.087" y="8.414" fill="#000100" width="2.998" height="0.643"/>
<rect x="53.931" y="8.414" fill="#000100" width="2.998" height="0.643"/>
<rect x="35.728" y="8.414" fill="#000100" width="2.998" height="0.643"/>
<rect x="50.29" y="8.414" fill="#000100" width="2.998" height="0.643"/>
<rect x="39.368" y="8.414" fill="#000100" width="2.998" height="0.643"/>
<rect x="17.525" y="12.056" fill="#000100" width="2.998" height="0.643"/>
<rect x="13.885" y="12.056" fill="#000100" width="2.998" height="0.643"/>
<rect x="61.212" y="12.056" fill="#000100" width="2.998" height="0.643"/>
<rect x="57.571" y="12.056" fill="#000100" width="2.998" height="0.643"/>
<rect x="50.29" y="12.056" fill="#000100" width="2.998" height="0.643"/>
<rect x="28.446" y="12.056" fill="#000100" width="2.998" height="0.643"/>
<rect x="64.853" y="12.056" fill="#000100" width="2.997" height="0.643"/>
<rect x="35.728" y="12.056" fill="#000100" width="2.998" height="0.643"/>
<path fill="#000100" d="M13.06,12.698h0.183v-0.174C13.182,12.583,13.12,12.639,13.06,12.698z"/>
<path fill="#000100" d="M74.969,12.698c-0.221-0.218-0.449-0.429-0.674-0.643h-2.162v0.643H74.969z"/>
<rect x="43.009" y="12.056" fill="#000100" width="2.998" height="0.643"/>
<rect x="21.166" y="12.056" fill="#000100" width="2.998" height="0.643"/>
<rect x="46.649" y="12.056" fill="#000100" width="2.998" height="0.643"/>
<rect x="53.931" y="12.056" fill="#000100" width="2.998" height="0.643"/>
<rect x="24.807" y="12.056" fill="#000100" width="2.997" height="0.643"/>
<rect x="39.368" y="12.056" fill="#000100" width="2.998" height="0.643"/>
<rect x="32.087" y="12.056" fill="#000100" width="2.998" height="0.643"/>
<rect x="68.492" y="12.056" fill="#000100" width="2.998" height="0.643"/>
<rect x="50.29" y="15.697" fill="#000100" width="2.998" height="0.643"/>
<rect x="32.087" y="15.697" fill="#000100" width="2.998" height="0.643"/>
<rect x="72.133" y="15.697" fill="#000100" width="2.998" height="0.643"/>
<rect x="13.885" y="15.697" fill="#000100" width="2.998" height="0.643"/>
<rect x="68.492" y="15.697" fill="#000100" width="2.998" height="0.643"/>
<rect x="61.212" y="15.697" fill="#000100" width="2.998" height="0.643"/>
<rect x="24.807" y="15.697" fill="#000100" width="2.997" height="0.643"/>
<rect x="39.368" y="15.697" fill="#000100" width="2.998" height="0.643"/>
<rect x="35.728" y="15.697" fill="#000100" width="2.998" height="0.643"/>
<path fill="#000100" d="M78.262,16.34c-0.175-0.216-0.351-0.43-0.529-0.643h-1.959v0.643H78.262z"/>
<rect x="28.446" y="15.697" fill="#000100" width="2.998" height="0.643"/>
<rect x="17.525" y="15.697" fill="#000100" width="2.998" height="0.643"/>
<rect x="57.571" y="15.697" fill="#000100" width="2.998" height="0.643"/>
<rect x="53.931" y="15.697" fill="#000100" width="2.998" height="0.643"/>
<rect x="43.009" y="15.697" fill="#000100" width="2.998" height="0.643"/>
<rect x="46.649" y="15.697" fill="#000100" width="2.998" height="0.643"/>
<rect x="64.853" y="15.697" fill="#000100" width="2.997" height="0.643"/>
<path fill="#000100" d="M13.242,16.34v-0.643h-2.945c-0.017,0.021-0.036,0.04-0.053,0.061v0.582H13.242z"/>
<rect x="21.166" y="15.697" fill="#000100" width="2.998" height="0.643"/>
<rect x="10.244" y="19.338" fill="#000100" width="2.998" height="0.643"/>
<rect x="68.492" y="19.338" fill="#000100" width="2.998" height="0.643"/>
<rect x="35.728" y="19.338" fill="#000100" width="2.998" height="0.643"/>
<rect x="50.29" y="19.338" fill="#000100" width="2.998" height="0.643"/>
<rect x="21.166" y="19.338" fill="#000100" width="2.998" height="0.643"/>
<rect x="57.571" y="19.338" fill="#000100" width="2.998" height="0.643"/>
<rect x="17.525" y="19.338" fill="#000100" width="2.998" height="0.643"/>
<path fill="#000100" d="M7.537,19.338c-0.143,0.211-0.276,0.429-0.416,0.643h2.48v-0.643H7.537z"/>
<rect x="75.773" y="19.338" fill="#000100" width="2.998" height="0.643"/>
<rect x="32.087" y="19.338" fill="#000100" width="2.998" height="0.643"/>
<rect x="61.212" y="19.338" fill="#000100" width="2.998" height="0.643"/>
<rect x="43.009" y="19.338" fill="#000100" width="2.998" height="0.643"/>
<rect x="13.885" y="19.338" fill="#000100" width="2.998" height="0.643"/>
<path fill="#000100" d="M80.908,19.98c-0.14-0.214-0.272-0.432-0.416-0.643h-1.079v0.643H80.908z"/>
<rect x="72.133" y="19.338" fill="#000100" width="2.998" height="0.643"/>
<rect x="28.446" y="19.338" fill="#000100" width="2.998" height="0.643"/>
<rect x="64.853" y="19.338" fill="#000100" width="2.997" height="0.643"/>
<rect x="39.368" y="19.338" fill="#000100" width="2.998" height="0.643"/>
<rect x="53.931" y="19.338" fill="#000100" width="2.998" height="0.643"/>
<rect x="24.807" y="19.338" fill="#000100" width="2.997" height="0.643"/>
<rect x="46.649" y="19.338" fill="#000100" width="2.998" height="0.643"/>
<rect x="13.885" y="22.979" fill="#000100" width="2.998" height="0.643"/>
<rect x="32.087" y="22.979" fill="#000100" width="2.998" height="0.643"/>
<rect x="43.009" y="22.979" fill="#000100" width="2.998" height="0.643"/>
<path fill="#000100" d="M5.318,22.979c-0.115,0.211-0.22,0.429-0.332,0.643h0.976v-0.643H5.318z"/>
<rect x="6.604" y="22.979" fill="#000100" width="2.997" height="0.643"/>
<rect x="46.649" y="22.979" fill="#000100" width="2.998" height="0.643"/>
<rect x="39.368" y="22.979" fill="#000100" width="2.998" height="0.643"/>
<rect x="57.571" y="22.979" fill="#000100" width="2.998" height="0.643"/>
<rect x="61.212" y="22.979" fill="#000100" width="2.998" height="0.643"/>
<rect x="35.728" y="22.979" fill="#000100" width="2.998" height="0.643"/>
<rect x="24.807" y="22.979" fill="#000100" width="2.997" height="0.643"/>
<rect x="79.414" y="22.979" fill="#000100" width="2.998" height="0.643"/>
<rect x="64.853" y="22.979" fill="#000100" width="2.997" height="0.643"/>
<rect x="68.492" y="22.979" fill="#000100" width="2.998" height="0.643"/>
<rect x="17.525" y="22.979" fill="#000100" width="2.998" height="0.643"/>
<rect x="50.29" y="22.979" fill="#000100" width="2.998" height="0.643"/>
<rect x="75.773" y="22.979" fill="#000100" width="2.998" height="0.643"/>
<rect x="28.446" y="22.979" fill="#000100" width="2.998" height="0.643"/>
<rect x="72.133" y="22.979" fill="#000100" width="2.998" height="0.643"/>
<rect x="10.244" y="22.979" fill="#000100" width="2.998" height="0.643"/>
<rect x="53.931" y="22.979" fill="#000100" width="2.998" height="0.643"/>
<rect x="21.166" y="22.979" fill="#000100" width="2.998" height="0.643"/>
<rect x="32.087" y="26.62" fill="#000100" width="2.998" height="0.643"/>
<rect x="61.212" y="26.62" fill="#000100" width="2.998" height="0.643"/>
<rect x="28.446" y="26.62" fill="#000100" width="2.998" height="0.643"/>
<rect x="75.773" y="26.62" fill="#000100" width="2.998" height="0.643"/>
<rect x="39.368" y="26.62" fill="#000100" width="2.998" height="0.643"/>
<rect x="79.414" y="26.62" fill="#000100" width="2.998" height="0.643"/>
<rect x="21.166" y="26.62" fill="#000100" width="2.998" height="0.643"/>
<rect x="72.133" y="26.62" fill="#000100" width="2.998" height="0.643"/>
<rect x="43.009" y="26.62" fill="#000100" width="2.998" height="0.643"/>
<rect x="10.244" y="26.62" fill="#000100" width="2.998" height="0.643"/>
<rect x="46.649" y="26.62" fill="#000100" width="2.998" height="0.643"/>
<rect x="53.931" y="26.62" fill="#000100" width="2.998" height="0.643"/>
<rect x="13.885" y="26.62" fill="#000100" width="2.998" height="0.643"/>
<rect x="57.571" y="26.62" fill="#000100" width="2.998" height="0.643"/>
<rect x="6.604" y="26.62" fill="#000100" width="2.997" height="0.643"/>
<rect x="50.29" y="26.62" fill="#000100" width="2.998" height="0.643"/>
<rect x="68.492" y="26.62" fill="#000100" width="2.998" height="0.643"/>
<rect x="35.728" y="26.62" fill="#000100" width="2.998" height="0.643"/>
<rect x="24.807" y="26.62" fill="#000100" width="2.997" height="0.643"/>
<rect x="64.853" y="26.62" fill="#000100" width="2.997" height="0.643"/>
<rect x="17.525" y="26.62" fill="#000100" width="2.998" height="0.643"/>
<path fill="#000100" d="M84.745,27.263c-0.089-0.215-0.177-0.43-0.269-0.643h-1.422v0.643H84.745z"/>
<path fill="#000100" d="M3.553,26.62c-0.092,0.213-0.179,0.428-0.268,0.643h2.677V26.62H3.553z"/>
<rect x="6.604" y="30.262" fill="#000100" width="2.997" height="0.643"/>
<rect x="72.133" y="30.262" fill="#000100" width="2.998" height="0.643"/>
<path fill="#000100" d="M2.181,30.262c-0.071,0.215-0.15,0.426-0.218,0.643h0.358v-0.643H2.181z"/>
<rect x="46.649" y="30.262" fill="#000100" width="2.998" height="0.643"/>
<rect x="79.414" y="30.262" fill="#000100" width="2.998" height="0.643"/>
<rect x="17.525" y="30.262" fill="#000100" width="2.998" height="0.643"/>
<rect x="28.446" y="30.262" fill="#000100" width="2.998" height="0.643"/>
<rect x="39.368" y="30.262" fill="#000100" width="2.998" height="0.643"/>
<rect x="43.009" y="30.262" fill="#000100" width="2.998" height="0.643"/>
<rect x="75.773" y="30.262" fill="#000100" width="2.998" height="0.643"/>
<rect x="2.964" y="30.262" fill="#000100" width="2.998" height="0.643"/>
<rect x="68.492" y="30.262" fill="#000100" width="2.998" height="0.643"/>
<rect x="57.571" y="30.262" fill="#000100" width="2.998" height="0.643"/>
<rect x="32.087" y="30.262" fill="#000100" width="2.998" height="0.643"/>
<rect x="61.212" y="30.262" fill="#000100" width="2.998" height="0.643"/>
<path fill="#000100" d="M86.052,30.904v-0.045c-0.063-0.201-0.137-0.397-0.202-0.598h-2.795v0.643H86.052z"/>
<rect x="10.244" y="30.262" fill="#000100" width="2.998" height="0.643"/>
<rect x="50.29" y="30.262" fill="#000100" width="2.998" height="0.643"/>
<rect x="21.166" y="30.262" fill="#000100" width="2.998" height="0.643"/>
<rect x="13.885" y="30.262" fill="#000100" width="2.998" height="0.643"/>
<rect x="64.853" y="30.262" fill="#000100" width="2.997" height="0.643"/>
<rect x="53.931" y="30.262" fill="#000100" width="2.998" height="0.643"/>
<rect x="24.807" y="30.262" fill="#000100" width="2.997" height="0.643"/>
<rect x="35.728" y="30.262" fill="#000100" width="2.998" height="0.643"/>
<rect x="72.133" y="33.902" fill="#000100" width="2.998" height="0.643"/>
<rect x="53.931" y="33.902" fill="#000100" width="2.998" height="0.643"/>
<rect x="83.055" y="33.902" fill="#000100" width="2.997" height="0.643"/>
<rect x="32.087" y="33.902" fill="#000100" width="2.998" height="0.643"/>
<rect x="35.728" y="33.902" fill="#000100" width="2.998" height="0.643"/>
<rect x="2.964" y="33.902" fill="#000100" width="2.998" height="0.643"/>
<rect x="21.166" y="33.902" fill="#000100" width="2.998" height="0.643"/>
<rect x="64.853" y="33.902" fill="#000100" width="2.997" height="0.643"/>
<rect x="75.773" y="33.902" fill="#000100" width="2.998" height="0.643"/>
<rect x="39.368" y="33.902" fill="#000100" width="2.998" height="0.643"/>
<rect x="61.212" y="33.902" fill="#000100" width="2.998" height="0.643"/>
<rect x="57.571" y="33.902" fill="#000100" width="2.998" height="0.643"/>
<rect x="10.244" y="33.902" fill="#000100" width="2.998" height="0.643"/>
<rect x="6.604" y="33.902" fill="#000100" width="2.997" height="0.643"/>
<rect x="43.009" y="33.902" fill="#000100" width="2.998" height="0.643"/>
<rect x="28.446" y="33.902" fill="#000100" width="2.998" height="0.643"/>
<path fill="#000100" d="M87.02,34.545c-0.047-0.215-0.098-0.429-0.148-0.643h-0.177v0.643H87.02z"/>
<rect x="13.885" y="33.902" fill="#000100" width="2.998" height="0.643"/>
<rect x="50.29" y="33.902" fill="#000100" width="2.998" height="0.643"/>
<rect x="46.649" y="33.902" fill="#000100" width="2.998" height="0.643"/>
<rect x="68.492" y="33.902" fill="#000100" width="2.998" height="0.643"/>
<path fill="#000100" d="M1.159,33.902c-0.05,0.214-0.101,0.428-0.148,0.643h1.311v-0.643H1.159z"/>
<rect x="79.414" y="33.902" fill="#000100" width="2.998" height="0.643"/>
<rect x="17.525" y="33.902" fill="#000100" width="2.998" height="0.643"/>
<rect x="24.807" y="33.902" fill="#000100" width="2.997" height="0.643"/>
<path fill="#000100" d="M87.655,38.187c-0.028-0.214-0.05-0.43-0.081-0.643h-0.88v0.643H87.655z"/>
<rect x="57.571" y="37.544" fill="#000100" width="2.998" height="0.643"/>
<rect x="28.446" y="37.544" fill="#000100" width="2.998" height="0.643"/>
<rect x="17.525" y="37.544" fill="#000100" width="2.998" height="0.643"/>
<rect x="21.166" y="37.544" fill="#000100" width="2.998" height="0.643"/>
<rect x="35.728" y="37.544" fill="#000100" width="2.998" height="0.643"/>
<rect x="13.885" y="37.544" fill="#000100" width="2.998" height="0.643"/>
<rect x="83.055" y="37.544" fill="#000100" width="2.997" height="0.643"/>
<rect x="43.009" y="37.544" fill="#000100" width="2.998" height="0.643"/>
<path fill="#000100" d="M0.457,37.544c-0.032,0.213-0.054,0.429-0.082,0.643h1.947v-0.643H0.457z"/>
<rect x="6.604" y="37.544" fill="#000100" width="2.997" height="0.643"/>
<rect x="68.492" y="37.544" fill="#000100" width="2.998" height="0.643"/>
<rect x="50.29" y="37.544" fill="#000100" width="2.998" height="0.643"/>
<rect x="64.853" y="37.544" fill="#000100" width="2.997" height="0.643"/>
<rect x="24.807" y="37.544" fill="#000100" width="2.997" height="0.643"/>
<rect x="10.244" y="37.544" fill="#000100" width="2.998" height="0.643"/>
<rect x="32.087" y="37.544" fill="#000100" width="2.998" height="0.643"/>
<rect x="2.964" y="37.544" fill="#000100" width="2.998" height="0.643"/>
<rect x="39.368" y="37.544" fill="#000100" width="2.998" height="0.643"/>
<rect x="61.212" y="37.544" fill="#000100" width="2.998" height="0.643"/>
<rect x="53.931" y="37.544" fill="#000100" width="2.998" height="0.643"/>
<rect x="72.133" y="37.544" fill="#000100" width="2.998" height="0.643"/>
<rect x="79.414" y="37.544" fill="#000100" width="2.998" height="0.643"/>
<rect x="75.773" y="37.544" fill="#000100" width="2.998" height="0.643"/>
<rect x="46.649" y="37.544" fill="#000100" width="2.998" height="0.643"/>
<rect x="50.29" y="41.185" fill="#000100" width="2.998" height="0.643"/>
<rect x="64.853" y="41.185" fill="#000100" width="2.997" height="0.643"/>
<rect x="13.885" y="41.185" fill="#000100" width="2.998" height="0.643"/>
<rect x="83.055" y="41.185" fill="#000100" width="2.997" height="0.643"/>
<path fill="#000100" d="M87.995,41.827c-0.01-0.215-0.03-0.428-0.044-0.643h-1.257v0.643H87.995z"/>
<rect x="32.087" y="41.185" fill="#000100" width="2.998" height="0.643"/>
<rect x="68.492" y="41.185" fill="#000100" width="2.998" height="0.643"/>
<rect x="46.649" y="41.185" fill="#000100" width="2.998" height="0.643"/>
<path fill="#000100" d="M0.079,41.185c-0.013,0.214-0.034,0.427-0.044,0.643h2.287v-0.643H0.079z"/>
<rect x="6.604" y="41.185" fill="#000100" width="2.997" height="0.643"/>
<rect x="72.133" y="41.185" fill="#000100" width="2.998" height="0.643"/>
<rect x="24.807" y="41.185" fill="#000100" width="2.997" height="0.643"/>
<rect x="35.728" y="41.185" fill="#000100" width="2.998" height="0.643"/>
<rect x="53.931" y="41.185" fill="#000100" width="2.998" height="0.643"/>
<rect x="75.773" y="41.185" fill="#000100" width="2.998" height="0.643"/>
<rect x="21.166" y="41.185" fill="#000100" width="2.998" height="0.643"/>
<rect x="28.446" y="41.185" fill="#000100" width="2.998" height="0.643"/>
<rect x="61.212" y="41.185" fill="#000100" width="2.998" height="0.643"/>
<rect x="39.368" y="41.185" fill="#000100" width="2.998" height="0.643"/>
<rect x="57.571" y="41.185" fill="#000100" width="2.998" height="0.643"/>
<rect x="43.009" y="41.185" fill="#000100" width="2.998" height="0.643"/>
<rect x="17.525" y="41.185" fill="#000100" width="2.998" height="0.643"/>
<rect x="79.414" y="41.185" fill="#000100" width="2.998" height="0.643"/>
<rect x="2.964" y="41.185" fill="#000100" width="2.998" height="0.643"/>
<rect x="10.244" y="41.185" fill="#000100" width="2.998" height="0.643"/>
<rect x="79.414" y="44.826" fill="#000100" width="2.998" height="0.643"/>
<rect x="53.931" y="44.826" fill="#000100" width="2.998" height="0.643"/>
<rect x="46.649" y="44.826" fill="#000100" width="2.998" height="0.643"/>
<rect x="83.055" y="44.826" fill="#000100" width="2.997" height="0.643"/>
<rect x="2.964" y="44.826" fill="#000100" width="2.998" height="0.643"/>
<rect x="28.446" y="44.826" fill="#000100" width="2.998" height="0.643"/>
<rect x="32.087" y="44.826" fill="#000100" width="2.998" height="0.643"/>
<path fill="#000100" d="M88.014,45.469c0.007-0.214,0.013-0.428,0.017-0.643h-1.336v0.643H88.014z"/>
<rect x="17.525" y="44.826" fill="#000100" width="2.998" height="0.643"/>
<rect x="43.009" y="44.826" fill="#000100" width="2.998" height="0.643"/>
<rect x="24.807" y="44.826" fill="#000100" width="2.997" height="0.643"/>
<rect x="72.133" y="44.826" fill="#000100" width="2.998" height="0.643"/>
<rect x="21.166" y="44.826" fill="#000100" width="2.998" height="0.643"/>
<rect x="10.244" y="44.826" fill="#000100" width="2.998" height="0.643"/>
<rect x="6.604" y="44.826" fill="#000100" width="2.997" height="0.643"/>
<rect x="39.368" y="44.826" fill="#000100" width="2.998" height="0.643"/>
<path fill="#000100" d="M0,44.826c0.004,0.214,0.009,0.429,0.017,0.643h2.305v-0.643H0z"/>
<rect x="68.492" y="44.826" fill="#000100" width="2.998" height="0.643"/>
<rect x="75.773" y="44.826" fill="#000100" width="2.998" height="0.643"/>
<rect x="35.728" y="44.826" fill="#000100" width="2.998" height="0.643"/>
<rect x="61.212" y="44.826" fill="#000100" width="2.998" height="0.643"/>
<rect x="57.571" y="44.826" fill="#000100" width="2.998" height="0.643"/>
<rect x="50.29" y="44.826" fill="#000100" width="2.998" height="0.643"/>
<rect x="13.885" y="44.826" fill="#000100" width="2.998" height="0.643"/>
<rect x="64.853" y="44.826" fill="#000100" width="2.997" height="0.643"/>
<rect x="72.133" y="48.467" fill="#000100" width="2.998" height="0.643"/>
<rect x="61.212" y="48.467" fill="#000100" width="2.998" height="0.643"/>
<rect x="6.604" y="48.467" fill="#000100" width="2.997" height="0.643"/>
<rect x="24.807" y="48.467" fill="#000100" width="2.997" height="0.643"/>
<rect x="75.773" y="48.467" fill="#000100" width="2.998" height="0.643"/>
<rect x="13.885" y="48.467" fill="#000100" width="2.998" height="0.643"/>
<rect x="10.244" y="48.467" fill="#000100" width="2.998" height="0.643"/>
<rect x="21.166" y="48.467" fill="#000100" width="2.998" height="0.643"/>
<rect x="64.853" y="48.467" fill="#000100" width="2.997" height="0.643"/>
<rect x="79.414" y="48.467" fill="#000100" width="2.998" height="0.643"/>
<rect x="50.29" y="48.467" fill="#000100" width="2.998" height="0.643"/>
<rect x="2.964" y="48.467" fill="#000100" width="2.998" height="0.643"/>
<rect x="17.525" y="48.467" fill="#000100" width="2.998" height="0.643"/>
<path fill="#000100" d="M87.747,49.109c0.025-0.215,0.059-0.427,0.08-0.643h-1.133v0.643H87.747z"/>
<rect x="32.087" y="48.467" fill="#000100" width="2.998" height="0.643"/>
<rect x="46.649" y="48.467" fill="#000100" width="2.998" height="0.643"/>
<rect x="83.055" y="48.467" fill="#000100" width="2.997" height="0.643"/>
<rect x="57.571" y="48.467" fill="#000100" width="2.998" height="0.643"/>
<rect x="39.368" y="48.467" fill="#000100" width="2.998" height="0.643"/>
<rect x="53.931" y="48.467" fill="#000100" width="2.998" height="0.643"/>
<rect x="28.446" y="48.467" fill="#000100" width="2.998" height="0.643"/>
<path fill="#000100" d="M0.203,48.467c0.022,0.216,0.055,0.428,0.08,0.643h2.039v-0.643H0.203z"/>
<rect x="43.009" y="48.467" fill="#000100" width="2.998" height="0.643"/>
<rect x="68.492" y="48.467" fill="#000100" width="2.998" height="0.643"/>
<rect x="35.728" y="48.467" fill="#000100" width="2.998" height="0.643"/>
<rect x="35.728" y="52.107" fill="#000100" width="2.998" height="0.643"/>
<rect x="17.525" y="52.107" fill="#000100" width="2.998" height="0.643"/>
<rect x="39.368" y="52.107" fill="#000100" width="2.998" height="0.643"/>
<path fill="#000100" d="M87.181,52.75c0.042-0.213,0.074-0.429,0.114-0.643h-0.601v0.643H87.181z"/>
<rect x="43.009" y="52.107" fill="#000100" width="2.998" height="0.643"/>
<rect x="32.087" y="52.107" fill="#000100" width="2.998" height="0.643"/>
<rect x="64.853" y="52.107" fill="#000100" width="2.997" height="0.643"/>
<rect x="68.492" y="52.107" fill="#000100" width="2.998" height="0.643"/>
<rect x="2.964" y="52.107" fill="#000100" width="2.998" height="0.643"/>
<rect x="61.212" y="52.107" fill="#000100" width="2.998" height="0.643"/>
<rect x="13.885" y="52.107" fill="#000100" width="2.998" height="0.643"/>
<rect x="50.29" y="52.107" fill="#000100" width="2.998" height="0.643"/>
<rect x="28.446" y="52.107" fill="#000100" width="2.998" height="0.643"/>
<rect x="53.931" y="52.107" fill="#000100" width="2.998" height="0.643"/>
<rect x="83.055" y="52.107" fill="#000100" width="2.997" height="0.643"/>
<rect x="57.571" y="52.107" fill="#000100" width="2.998" height="0.643"/>
<rect x="46.649" y="52.107" fill="#000100" width="2.998" height="0.643"/>
<rect x="79.414" y="52.107" fill="#000100" width="2.998" height="0.643"/>
<rect x="72.133" y="52.107" fill="#000100" width="2.998" height="0.643"/>
<rect x="6.604" y="52.107" fill="#000100" width="2.997" height="0.643"/>
<rect x="21.166" y="52.107" fill="#000100" width="2.998" height="0.643"/>
<rect x="75.773" y="52.107" fill="#000100" width="2.998" height="0.643"/>
<rect x="24.807" y="52.107" fill="#000100" width="2.997" height="0.643"/>
<path fill="#000100" d="M0.735,52.107c0.04,0.214,0.072,0.43,0.115,0.643h1.471v-0.643H0.735z"/>
<rect x="10.244" y="52.107" fill="#000100" width="2.998" height="0.643"/>
<rect x="64.853" y="55.75" fill="#000100" width="2.997" height="0.643"/>
<rect x="43.009" y="55.75" fill="#000100" width="2.998" height="0.643"/>
<rect x="35.728" y="55.75" fill="#000100" width="2.998" height="0.643"/>
<rect x="10.244" y="55.75" fill="#000100" width="2.998" height="0.643"/>
<rect x="46.649" y="55.75" fill="#000100" width="2.998" height="0.643"/>
<rect x="83.055" y="55.75" fill="#000100" width="2.997" height="0.643"/>
<rect x="17.525" y="55.75" fill="#000100" width="2.998" height="0.643"/>
<rect x="13.885" y="55.75" fill="#000100" width="2.998" height="0.643"/>
<rect x="39.368" y="55.75" fill="#000100" width="2.998" height="0.643"/>
<rect x="72.133" y="55.75" fill="#000100" width="2.998" height="0.643"/>
<path fill="#000100" d="M1.574,55.75c0.06,0.215,0.12,0.429,0.183,0.643h0.564V55.75H1.574z"/>
<rect x="50.29" y="55.75" fill="#000100" width="2.998" height="0.643"/>
<rect x="57.571" y="55.75" fill="#000100" width="2.998" height="0.643"/>
<rect x="6.604" y="55.75" fill="#000100" width="2.997" height="0.643"/>
<rect x="28.446" y="55.75" fill="#000100" width="2.998" height="0.643"/>
<rect x="79.414" y="55.75" fill="#000100" width="2.998" height="0.643"/>
<rect x="61.212" y="55.75" fill="#000100" width="2.998" height="0.643"/>
<rect x="53.931" y="55.75" fill="#000100" width="2.998" height="0.643"/>
<rect x="68.492" y="55.75" fill="#000100" width="2.998" height="0.643"/>
<rect x="75.773" y="55.75" fill="#000100" width="2.998" height="0.643"/>
<rect x="2.964" y="55.75" fill="#000100" width="2.998" height="0.643"/>
<rect x="24.807" y="55.75" fill="#000100" width="2.997" height="0.643"/>
<rect x="32.087" y="55.75" fill="#000100" width="2.998" height="0.643"/>
<rect x="21.166" y="55.75" fill="#000100" width="2.998" height="0.643"/>
<rect x="39.368" y="59.391" fill="#000100" width="2.998" height="0.643"/>
<rect x="79.414" y="59.391" fill="#000100" width="2.998" height="0.643"/>
<rect x="50.29" y="59.391" fill="#000100" width="2.998" height="0.643"/>
<rect x="32.087" y="59.391" fill="#000100" width="2.998" height="0.643"/>
<rect x="10.244" y="59.391" fill="#000100" width="2.998" height="0.643"/>
<rect x="43.009" y="59.391" fill="#000100" width="2.998" height="0.643"/>
<rect x="75.773" y="59.391" fill="#000100" width="2.998" height="0.643"/>
<rect x="53.931" y="59.391" fill="#000100" width="2.998" height="0.643"/>
<rect x="61.212" y="59.391" fill="#000100" width="2.998" height="0.643"/>
<rect x="28.446" y="59.391" fill="#000100" width="2.998" height="0.643"/>
<rect x="57.571" y="59.391" fill="#000100" width="2.998" height="0.643"/>
<rect x="13.885" y="59.391" fill="#000100" width="2.998" height="0.643"/>
<path fill="#000100" d="M2.964,59.391v0.554c0.012,0.03,0.023,0.06,0.035,0.089h2.963v-0.643H2.964z"/>
<rect x="64.853" y="59.391" fill="#000100" width="2.997" height="0.643"/>
<rect x="21.166" y="59.391" fill="#000100" width="2.998" height="0.643"/>
<rect x="35.728" y="59.391" fill="#000100" width="2.998" height="0.643"/>
<rect x="72.133" y="59.391" fill="#000100" width="2.998" height="0.643"/>
<rect x="6.604" y="59.391" fill="#000100" width="2.997" height="0.643"/>
<rect x="68.492" y="59.391" fill="#000100" width="2.998" height="0.643"/>
<path fill="#000100" d="M85.031,60.033c0.084-0.215,0.173-0.427,0.253-0.643h-2.229v0.643H85.031z"/>
<rect x="46.649" y="59.391" fill="#000100" width="2.998" height="0.643"/>
<rect x="17.525" y="59.391" fill="#000100" width="2.998" height="0.643"/>
<rect x="24.807" y="59.391" fill="#000100" width="2.997" height="0.643"/>
<rect x="68.492" y="63.031" fill="#000100" width="2.998" height="0.643"/>
<rect x="39.368" y="63.031" fill="#000100" width="2.998" height="0.643"/>
<rect x="21.166" y="63.031" fill="#000100" width="2.998" height="0.643"/>
<rect x="10.244" y="63.031" fill="#000100" width="2.998" height="0.643"/>
<rect x="64.853" y="63.031" fill="#000100" width="2.997" height="0.643"/>
<rect x="28.446" y="63.031" fill="#000100" width="2.998" height="0.643"/>
<rect x="61.212" y="63.031" fill="#000100" width="2.998" height="0.643"/>
<rect x="17.525" y="63.031" fill="#000100" width="2.998" height="0.643"/>
<rect x="50.29" y="63.031" fill="#000100" width="2.998" height="0.643"/>
<rect x="57.571" y="63.031" fill="#000100" width="2.998" height="0.643"/>
<rect x="13.885" y="63.031" fill="#000100" width="2.998" height="0.643"/>
<rect x="53.931" y="63.031" fill="#000100" width="2.998" height="0.643"/>
<rect x="75.773" y="63.031" fill="#000100" width="2.998" height="0.643"/>
<rect x="24.807" y="63.031" fill="#000100" width="2.997" height="0.643"/>
<path fill="#000100" d="M83.416,63.674c0.107-0.215,0.221-0.426,0.325-0.643h-0.686v0.643H83.416z"/>
<path fill="#000100" d="M4.29,63.031c0.104,0.217,0.217,0.428,0.325,0.643h1.348v-0.643H4.29z"/>
<rect x="72.133" y="63.031" fill="#000100" width="2.998" height="0.643"/>
<rect x="79.414" y="63.031" fill="#000100" width="2.998" height="0.643"/>
<rect x="35.728" y="63.031" fill="#000100" width="2.998" height="0.643"/>
<rect x="32.087" y="63.031" fill="#000100" width="2.998" height="0.643"/>
<rect x="6.604" y="63.031" fill="#000100" width="2.997" height="0.643"/>
<rect x="43.009" y="63.031" fill="#000100" width="2.998" height="0.643"/>
<rect x="46.649" y="63.031" fill="#000100" width="2.998" height="0.643"/>
<rect x="57.571" y="66.673" fill="#000100" width="2.998" height="0.643"/>
<rect x="13.885" y="66.673" fill="#000100" width="2.998" height="0.643"/>
<rect x="61.212" y="66.673" fill="#000100" width="2.998" height="0.643"/>
<rect x="43.009" y="66.673" fill="#000100" width="2.998" height="0.643"/>
<rect x="72.133" y="66.673" fill="#000100" width="2.998" height="0.643"/>
<rect x="21.166" y="66.673" fill="#000100" width="2.998" height="0.643"/>
<rect x="50.29" y="66.673" fill="#000100" width="2.998" height="0.643"/>
<rect x="24.807" y="66.673" fill="#000100" width="2.997" height="0.643"/>
<rect x="10.244" y="66.673" fill="#000100" width="2.998" height="0.643"/>
<rect x="35.728" y="66.673" fill="#000100" width="2.998" height="0.643"/>
<rect x="68.492" y="66.673" fill="#000100" width="2.998" height="0.643"/>
<rect x="64.853" y="66.673" fill="#000100" width="2.997" height="0.643"/>
<rect x="28.446" y="66.673" fill="#000100" width="2.998" height="0.643"/>
<rect x="75.773" y="66.673" fill="#000100" width="2.998" height="0.643"/>
<rect x="32.087" y="66.673" fill="#000100" width="2.998" height="0.643"/>
<rect x="39.368" y="66.673" fill="#000100" width="2.998" height="0.643"/>
<path fill="#000100" d="M6.604,66.673v0.563c0.017,0.027,0.034,0.054,0.051,0.08h2.946v-0.643H6.604z"/>
<rect x="53.931" y="66.673" fill="#000100" width="2.998" height="0.643"/>
<rect x="17.525" y="66.673" fill="#000100" width="2.998" height="0.643"/>
<rect x="46.649" y="66.673" fill="#000100" width="2.998" height="0.643"/>
<path fill="#000100" d="M81.374,67.315c0.134-0.214,0.27-0.426,0.4-0.643h-2.36v0.643H81.374z"/>
<rect x="39.368" y="70.313" fill="#000100" width="2.998" height="0.643"/>
<rect x="72.133" y="70.313" fill="#000100" width="2.998" height="0.643"/>
<rect x="64.853" y="70.313" fill="#000100" width="2.997" height="0.643"/>
<rect x="43.009" y="70.313" fill="#000100" width="2.998" height="0.643"/>
<rect x="13.885" y="70.313" fill="#000100" width="2.998" height="0.643"/>
<rect x="35.728" y="70.313" fill="#000100" width="2.998" height="0.643"/>
<rect x="68.492" y="70.313" fill="#000100" width="2.998" height="0.643"/>
<rect x="21.166" y="70.313" fill="#000100" width="2.998" height="0.643"/>
<rect x="75.773" y="70.313" fill="#000100" width="2.998" height="0.643"/>
<rect x="50.29" y="70.313" fill="#000100" width="2.998" height="0.643"/>
<rect x="28.446" y="70.313" fill="#000100" width="2.998" height="0.643"/>
<rect x="17.525" y="70.313" fill="#000100" width="2.998" height="0.643"/>
<path fill="#000100" d="M8.695,70.313c0.163,0.218,0.335,0.428,0.501,0.643h0.405v-0.643H8.695z"/>
<rect x="32.087" y="70.313" fill="#000100" width="2.998" height="0.643"/>
<rect x="53.931" y="70.313" fill="#000100" width="2.998" height="0.643"/>
<rect x="57.571" y="70.313" fill="#000100" width="2.998" height="0.643"/>
<rect x="46.649" y="70.313" fill="#000100" width="2.998" height="0.643"/>
<rect x="24.807" y="70.313" fill="#000100" width="2.997" height="0.643"/>
<rect x="10.244" y="70.313" fill="#000100" width="2.998" height="0.643"/>
<rect x="61.212" y="70.313" fill="#000100" width="2.998" height="0.643"/>
<rect x="24.807" y="73.955" fill="#000100" width="2.997" height="0.643"/>
<rect x="46.649" y="73.955" fill="#000100" width="2.998" height="0.643"/>
<rect x="43.009" y="73.955" fill="#000100" width="2.998" height="0.643"/>
<rect x="39.368" y="73.955" fill="#000100" width="2.998" height="0.643"/>
<rect x="50.29" y="73.955" fill="#000100" width="2.998" height="0.643"/>
<rect x="28.446" y="73.955" fill="#000100" width="2.998" height="0.643"/>
<rect x="17.525" y="73.955" fill="#000100" width="2.998" height="0.643"/>
<rect x="68.492" y="73.955" fill="#000100" width="2.998" height="0.643"/>
<rect x="64.853" y="73.955" fill="#000100" width="2.997" height="0.643"/>
<rect x="32.087" y="73.955" fill="#000100" width="2.998" height="0.643"/>
<rect x="53.931" y="73.955" fill="#000100" width="2.998" height="0.643"/>
<rect x="72.133" y="73.955" fill="#000100" width="2.998" height="0.643"/>
<rect x="21.166" y="73.955" fill="#000100" width="2.998" height="0.643"/>
<rect x="35.728" y="73.955" fill="#000100" width="2.998" height="0.643"/>
<path fill="#000100" d="M76.291,73.955h-0.518v0.543C75.947,74.317,76.121,74.139,76.291,73.955z"/>
<rect x="13.885" y="73.955" fill="#000100" width="2.998" height="0.643"/>
<rect x="57.571" y="73.955" fill="#000100" width="2.998" height="0.643"/>
<rect x="61.212" y="73.955" fill="#000100" width="2.998" height="0.643"/>
<path fill="#000100" d="M11.738,73.955c0.202,0.217,0.407,0.43,0.613,0.643h0.892v-0.643H11.738z"/>
<rect x="35.728" y="77.596" fill="#000100" width="2.998" height="0.643"/>
<rect x="64.853" y="77.596" fill="#000100" width="2.997" height="0.643"/>
<rect x="46.649" y="77.596" fill="#000100" width="2.998" height="0.643"/>
<rect x="68.492" y="77.596" fill="#000100" width="2.998" height="0.643"/>
<rect x="53.931" y="77.596" fill="#000100" width="2.998" height="0.643"/>
<rect x="39.368" y="77.596" fill="#000100" width="2.998" height="0.643"/>
<rect x="43.009" y="77.596" fill="#000100" width="2.998" height="0.643"/>
<path fill="#000100" d="M15.547,77.596c0.255,0.217,0.511,0.432,0.771,0.643h0.565v-0.643H15.547z"/>
<rect x="50.29" y="77.596" fill="#000100" width="2.998" height="0.643"/>
<rect x="57.571" y="77.596" fill="#000100" width="2.998" height="0.643"/>
<rect x="24.807" y="77.596" fill="#000100" width="2.997" height="0.643"/>
<rect x="61.212" y="77.596" fill="#000100" width="2.998" height="0.643"/>
<rect x="17.525" y="77.596" fill="#000100" width="2.998" height="0.643"/>
<rect x="32.087" y="77.596" fill="#000100" width="2.998" height="0.643"/>
<rect x="21.166" y="77.596" fill="#000100" width="2.998" height="0.643"/>
<path fill="#000100" d="M72.482,77.596h-0.349v0.303C72.251,77.8,72.365,77.695,72.482,77.596z"/>
<rect x="28.446" y="77.596" fill="#000100" width="2.998" height="0.643"/>
<rect x="61.212" y="81.237" fill="#000100" width="2.998" height="0.643"/>
<rect x="32.087" y="81.237" fill="#000100" width="2.998" height="0.643"/>
<rect x="39.368" y="81.237" fill="#000100" width="2.998" height="0.643"/>
<rect x="24.807" y="81.237" fill="#000100" width="2.997" height="0.643"/>
<rect x="57.571" y="81.237" fill="#000100" width="2.998" height="0.643"/>
<path fill="#000100" d="M20.502,81.237c0.007,0.005,0.014,0.009,0.021,0.014v-0.014H20.502z"/>
<rect x="43.009" y="81.237" fill="#000100" width="2.998" height="0.643"/>
<path fill="#000100" d="M66.487,81.88c0.351-0.208,0.695-0.425,1.04-0.643h-2.674v0.643H66.487z"/>
<rect x="28.446" y="81.237" fill="#000100" width="2.998" height="0.643"/>
<rect x="35.728" y="81.237" fill="#000100" width="2.998" height="0.643"/>
<rect x="53.931" y="81.237" fill="#000100" width="2.998" height="0.643"/>
<rect x="46.649" y="81.237" fill="#000100" width="2.998" height="0.643"/>
<path fill="#000100" d="M21.166,81.237v0.426c0.124,0.075,0.252,0.143,0.376,0.217h2.622v-0.643H21.166z"/>
<rect x="50.29" y="81.237" fill="#000100" width="2.998" height="0.643"/>
<rect x="46.649" y="84.878" fill="#000100" width="2.998" height="0.643"/>
<rect x="32.087" y="84.878" fill="#000100" width="2.998" height="0.643"/>
<rect x="43.009" y="84.878" fill="#000100" width="2.998" height="0.643"/>
<path fill="#000100" d="M27.613,84.878c0.063,0.025,0.127,0.05,0.19,0.075v-0.075H27.613z"/>
<rect x="35.728" y="84.878" fill="#000100" width="2.998" height="0.643"/>
<rect x="50.29" y="84.878" fill="#000100" width="2.998" height="0.643"/>
<rect x="39.368" y="84.878" fill="#000100" width="2.998" height="0.643"/>
<path fill="#000100" d="M28.446,84.878v0.328c0.285,0.108,0.57,0.213,0.857,0.314h2.141v-0.643H28.446z"/>
<rect x="53.931" y="84.878" fill="#000100" width="2.998" height="0.643"/>
<path fill="#000100" d="M60.416,84.878h-2.845v0.643h1.154C59.295,85.318,59.857,85.103,60.416,84.878z"/>
<path fill="#000100" d="M2.964,56.393V55.75v-3v-0.643v-2.998v-0.643v-2.998v-0.643v-2.999v-0.643v-2.998v-0.643v-2.999v-0.643
	v-2.998v-0.643v-2.185c-0.227,0.583-0.44,1.173-0.643,1.768v0.417v0.643v2.998v0.643v2.999v0.643v2.998v0.643v2.999v0.643v2.998
	v0.643v2.998v0.643v3v0.643v1.783c0.202,0.596,0.416,1.186,0.643,1.769v-0.554V56.393z"/>
<path fill="#000100" d="M6.604,63.674v-0.643v-2.998v-0.643v-2.998V55.75v-3v-0.643v-2.998v-0.643v-2.998v-0.643v-2.999v-0.643
	v-2.998v-0.643v-2.999v-0.643v-2.998v-0.643v-2.999V26.62v-2.998v-0.643v-2.193c-0.22,0.354-0.433,0.712-0.643,1.073v1.12v0.643
	v2.998v0.643v2.999v0.643v2.998v0.643v2.999v0.643v2.998v0.643v2.999v0.643v2.998v0.643v2.998v0.643v3v0.643v2.998v0.643v2.998
	v0.643v2.489c0.21,0.36,0.422,0.719,0.643,1.072v-0.563V63.674z"/>
<path fill="#000100" d="M10.244,67.315v-0.643v-2.999v-0.643v-2.998v-0.643v-2.998V55.75v-3v-0.643v-2.998v-0.643v-2.998v-0.643
	v-2.999v-0.643v-2.998v-0.643v-2.999v-0.643v-2.998v-0.643v-2.999V26.62v-2.998v-0.643V19.98v-0.643V16.34v-0.582
	c-0.218,0.261-0.43,0.527-0.643,0.793v2.787v0.643v2.999v0.643v2.998v0.643v2.999v0.643v2.998v0.643v2.999v0.643v2.998v0.643v2.999
	v0.643v2.998v0.643v2.998v0.643v3v0.643v2.998v0.643v2.998v0.643v2.999v0.643v2.998v0.643v0.516
	c0.212,0.266,0.424,0.532,0.643,0.793v-1.309v-0.643V67.315z"/>
<path fill="#000100" d="M13.885,70.956v-0.643v-2.998v-0.643v-2.999v-0.643v-2.998v-0.643v-2.998V55.75v-3v-0.643v-2.998v-0.643
	v-2.998v-0.643v-2.999v-0.643v-2.998v-0.643v-2.999v-0.643v-2.998v-0.643v-2.999V26.62v-2.998v-0.643V19.98v-0.643V16.34v-0.643
	v-2.999v-0.643v-0.144c-0.216,0.203-0.431,0.406-0.643,0.613v0.174v2.999v0.643v2.998v0.643v2.999v0.643v2.998v0.643v2.999v0.643
	v2.998v0.643v2.999v0.643v2.998v0.643v2.999v0.643v2.998v0.643v2.998v0.643v3v0.643v2.998v0.643v2.998v0.643v2.999v0.643v2.998
	v0.643v2.999v0.643v0.9c0.212,0.207,0.427,0.41,0.643,0.612v-1.513v-0.643V70.956z"/>
<path fill="#000100" d="M17.525,74.598v-0.643v-2.999v-0.643v-2.998v-0.643v-2.999v-0.643v-2.998v-0.643v-2.998V55.75v-3v-0.643
	v-2.998v-0.643v-2.998v-0.643v-2.999v-0.643v-2.998v-0.643v-2.999v-0.643v-2.998v-0.643v-2.999V26.62v-2.998v-0.643V19.98v-0.643
	V16.34v-0.643v-2.999v-0.643V9.057V8.835c-0.218,0.164-0.428,0.337-0.643,0.505v2.716v0.643v2.999v0.643v2.998v0.643v2.999v0.643
	v2.998v0.643v2.999v0.643v2.998v0.643v2.999v0.643v2.998v0.643v2.999v0.643v2.998v0.643v2.998v0.643v3v0.643v2.998v0.643v2.998
	v0.643v2.999v0.643v2.998v0.643v2.999v0.643v2.998v0.643v0.444c0.214,0.168,0.425,0.341,0.643,0.505v-0.949v-0.643V74.598z"/>
<path fill="#000100" d="M21.166,78.238v-0.643v-2.998v-0.643v-2.999v-0.643v-2.998v-0.643v-2.999v-0.643v-2.998v-0.643v-2.998V55.75
	v-3v-0.643v-2.998v-0.643v-2.998v-0.643v-2.999v-0.643v-2.998v-0.643v-2.999v-0.643v-2.998v-0.643v-2.999V26.62v-2.998v-0.643V19.98
	v-0.643V16.34v-0.643v-2.999v-0.643V9.057V8.414V6.359c-0.218,0.132-0.427,0.276-0.643,0.412v1.643v0.643v2.999v0.643v2.999v0.643
	v2.998v0.643v2.999v0.643v2.998v0.643v2.999v0.643v2.998v0.643v2.999v0.643v2.998v0.643v2.999v0.643v2.998v0.643v2.998v0.643v3
	v0.643v2.998v0.643v2.998v0.643v2.999v0.643v2.998v0.643v2.999v0.643v2.998v0.643v2.999v0.014c0.215,0.136,0.425,0.279,0.643,0.412
	v-0.426V78.238z"/>
<path fill="#000100" d="M24.807,78.238v-0.643v-2.998v-0.643v-2.999v-0.643v-2.998v-0.643v-2.999v-0.643v-2.998v-0.643v-2.998V55.75
	v-3v-0.643v-2.998v-0.643v-2.998v-0.643v-2.999v-0.643v-2.998v-0.643v-2.999v-0.643v-2.998v-0.643v-2.999V26.62v-2.998v-0.643V19.98
	v-0.643V16.34v-0.643v-2.999v-0.643V9.057V8.414V5.416V4.773V4.377c-0.217,0.105-0.428,0.22-0.643,0.329v0.067v0.643v2.998v0.643
	v2.999v0.643v2.999v0.643v2.998v0.643v2.999v0.643v2.998v0.643v2.999v0.643v2.998v0.643v2.999v0.643v2.998v0.643v2.999v0.643v2.998
	v0.643v2.998v0.643v3v0.643v2.998v0.643v2.998v0.643v2.999v0.643v2.998v0.643v2.999v0.643v2.998v0.643v2.999v0.643v1.436
	c0.215,0.109,0.426,0.225,0.643,0.329V81.88v-0.643V78.238z"/>
<path fill="#000100" d="M28.446,81.88v-0.643v-2.999v-0.643v-2.998v-0.643v-2.999v-0.643v-2.998v-0.643v-2.999v-0.643v-2.998v-0.643
	v-2.998V55.75v-3v-0.643v-2.998v-0.643v-2.998v-0.643v-2.999v-0.643v-2.998v-0.643v-2.999v-0.643v-2.998v-0.643v-2.999V26.62v-2.998
	v-0.643V19.98v-0.643V16.34v-0.643v-2.999v-0.643V9.057V8.414V5.416V4.773V2.815c-0.216,0.082-0.429,0.168-0.643,0.253v1.705v0.643
	v2.998v0.643v2.999v0.643v2.999v0.643v2.998v0.643v2.999v0.643v2.998v0.643v2.999v0.643v2.998v0.643v2.999v0.643v2.998v0.643v2.999
	v0.643v2.998v0.643v2.998v0.643v3v0.643v2.998v0.643v2.998v0.643v2.999v0.643v2.998v0.643v2.999v0.643v2.998v0.643v2.999v0.643
	v2.998v0.075c0.214,0.085,0.427,0.172,0.643,0.253v-0.328V81.88z"/>
<path fill="#000100" d="M32.087,81.88v-0.643v-2.999v-0.643v-2.998v-0.643v-2.999v-0.643v-2.998v-0.643v-2.999v-0.643v-2.998v-0.643
	v-2.998V55.75v-3v-0.643v-2.998v-0.643v-2.998v-0.643v-2.999v-0.643v-2.998v-0.643v-2.999v-0.643v-2.998v-0.643v-2.999V26.62v-2.998
	v-0.643V19.98v-0.643V16.34v-0.643v-2.999v-0.643V9.057V8.414V5.416V4.773V1.774V1.623c-0.214,0.06-0.43,0.119-0.643,0.183v2.968
	v0.643v2.998v0.643v2.999v0.643v2.999v0.643v2.998v0.643v2.999v0.643v2.998v0.643v2.999v0.643v2.998v0.643v2.999v0.643v2.998v0.643
	v2.999v0.643v2.998v0.643v2.998v0.643v3v0.643v2.998v0.643v2.998v0.643v2.999v0.643v2.998v0.643v2.999v0.643v2.998v0.643v2.999
	v0.643v2.998v0.643v0.695c0.213,0.063,0.428,0.122,0.643,0.183v-0.878v-0.643V81.88z"/>
<path fill="#000100" d="M35.728,81.88v-0.643v-2.999v-0.643v-2.998v-0.643v-2.999v-0.643v-2.998v-0.643v-2.999v-0.643v-2.998v-0.643
	v-2.998V55.75v-3v-0.643v-2.998v-0.643v-2.998v-0.643v-2.999v-0.643v-2.998v-0.643v-2.999v-0.643v-2.998v-0.643v-2.999V26.62v-2.998
	v-0.643V19.98v-0.643V16.34v-0.643v-2.999v-0.643V9.057V8.414V5.416V4.773V1.774V1.132V0.765c-0.214,0.041-0.43,0.074-0.643,0.117
	v0.25v0.643v2.999v0.643v2.998v0.643v2.999v0.643v2.999v0.643v2.998v0.643v2.999v0.643v2.998v0.643v2.999v0.643v2.998v0.643v2.999
	v0.643v2.998v0.643v2.999v0.643v2.998v0.643v2.998v0.643v3v0.643v2.998v0.643v2.998v0.643v2.999v0.643v2.998v0.643v2.999v0.643
	v2.998v0.643v2.999v0.643v2.998v0.643v1.619c0.212,0.044,0.429,0.077,0.643,0.117v-1.736v-0.643V81.88z"/>
<path fill="#000100" d="M39.368,81.88v-0.643v-2.999v-0.643v-2.998v-0.643v-2.999v-0.643v-2.998v-0.643v-2.999v-0.643v-2.998v-0.643
	v-2.998V55.75v-3v-0.643v-2.998v-0.643v-2.998v-0.643v-2.999v-0.643v-2.998v-0.643v-2.999v-0.643v-2.998v-0.643v-2.999V26.62v-2.998
	v-0.643V19.98v-0.643V16.34v-0.643v-2.999v-0.643V9.057V8.414V5.416V4.773V1.774V1.132V0.22c-0.216,0.023-0.428,0.056-0.643,0.082
	v0.83v0.643v2.999v0.643v2.998v0.643v2.999v0.643v2.999v0.643v2.998v0.643v2.999v0.643v2.998v0.643v2.999v0.643v2.998v0.643v2.999
	v0.643v2.998v0.643v2.999v0.643v2.998v0.643v2.998v0.643v3v0.643v2.998v0.643v2.998v0.643v2.999v0.643v2.998v0.643v2.999v0.643
	v2.998v0.643v2.999v0.643v2.998v0.643v2.199c0.215,0.025,0.427,0.059,0.643,0.081v-2.28v-0.643V81.88z"/>
<path fill="#000100" d="M43.009,81.88v-0.643v-2.999v-0.643v-2.998v-0.643v-2.999v-0.643v-2.998v-0.643v-2.999v-0.643v-2.998v-0.643
	v-2.998V55.75v-3v-0.643v-2.998v-0.643v-2.998v-0.643v-2.999v-0.643v-2.998v-0.643v-2.999v-0.643v-2.998v-0.643v-2.999V26.62v-2.998
	v-0.643V19.98v-0.643V16.34v-0.643v-2.999v-0.643V9.057V8.414V5.416V4.773V1.774V1.132V0c-0.214,0.005-0.429,0.008-0.643,0.016
	v1.116v0.643v2.999v0.643v2.998v0.643v2.999v0.643v2.999v0.643v2.998v0.643v2.999v0.643v2.998v0.643v2.999v0.643v2.998v0.643v2.999
	v0.643v2.998v0.643v2.999v0.643v2.998v0.643v2.998v0.643v3v0.643v2.998v0.643v2.998v0.643v2.999v0.643v2.998v0.643v2.999v0.643
	v2.998v0.643v2.999v0.643v2.998v0.643v2.484c0.213,0.008,0.428,0.012,0.643,0.017v-2.501v-0.643V81.88z"/>
<path fill="#000100" d="M46.649,81.88v-0.643v-2.999v-0.643v-2.998v-0.643v-2.999v-0.643v-2.998v-0.643v-2.999v-0.643v-2.998v-0.643
	v-2.998V55.75v-3v-0.643v-2.998v-0.643v-2.998v-0.643v-2.999v-0.643v-2.998v-0.643v-2.999v-0.643v-2.998v-0.643v-2.999V26.62v-2.998
	v-0.643V19.98v-0.643V16.34v-0.643v-2.999v-0.643V9.057V8.414V5.416V4.773V1.774V1.132V0.06c-0.214-0.013-0.428-0.025-0.643-0.035
	v1.107v0.643v2.999v0.643v2.998v0.643v2.999v0.643v2.999v0.643v2.998v0.643v2.999v0.643v2.998v0.643v2.999v0.643v2.998v0.643v2.999
	v0.643v2.998v0.643v2.999v0.643v2.998v0.643v2.998v0.643v3v0.643v2.998v0.643v2.998v0.643v2.999v0.643v2.998v0.643v2.999v0.643
	v2.998v0.643v2.999v0.643v2.998v0.643v2.476c0.215-0.009,0.429-0.021,0.643-0.034v-2.441v-0.643V81.88z"/>
<path fill="#000100" d="M50.29,81.88v-0.643v-2.999v-0.643v-2.998v-0.643v-2.999v-0.643v-2.998v-0.643v-2.999v-0.643v-2.998v-0.643
	v-2.998V55.75v-3v-0.643v-2.998v-0.643v-2.998v-0.643v-2.999v-0.643v-2.998v-0.643v-2.999v-0.643v-2.998v-0.643v-2.999V26.62v-2.998
	v-0.643V19.98v-0.643V16.34v-0.643v-2.999v-0.643V9.057V8.414V5.416V4.773V1.774V1.132V0.427c-0.213-0.03-0.428-0.054-0.643-0.082
	v0.786v0.643v2.999v0.643v2.998v0.643v2.999v0.643v2.999v0.643v2.998v0.643v2.999v0.643v2.998v0.643v2.999v0.643v2.998v0.643v2.999
	v0.643v2.998v0.643v2.999v0.643v2.998v0.643v2.998v0.643v3v0.643v2.998v0.643v2.998v0.643v2.999v0.643v2.998v0.643v2.999v0.643
	v2.998v0.643v2.999v0.643v2.998v0.643v2.155c0.214-0.027,0.429-0.051,0.643-0.081v-2.074v-0.643V81.88z"/>
<path fill="#000100" d="M53.931,81.88v-0.643v-2.999v-0.643v-2.998v-0.643v-2.999v-0.643v-2.998v-0.643v-2.999v-0.643v-2.998v-0.643
	v-2.998V55.75v-3v-0.643v-2.998v-0.643v-2.998v-0.643v-2.999v-0.643v-2.998v-0.643v-2.999v-0.643v-2.998v-0.643v-2.999V26.62v-2.998
	v-0.643V19.98v-0.643V16.34v-0.643v-2.999v-0.643V9.057V8.414V5.416V4.773V1.774V1.132V1.109c-0.214-0.049-0.427-0.102-0.643-0.148
	v0.17v0.643v2.999v0.643v2.998v0.643v2.999v0.643v2.999v0.643v2.998v0.643v2.999v0.643v2.998v0.643v2.999v0.643v2.998v0.643v2.999
	v0.643v2.998v0.643v2.999v0.643v2.998v0.643v2.998v0.643v3v0.643v2.998v0.643v2.998v0.643v2.999v0.643v2.998v0.643v2.999v0.643
	v2.998v0.643v2.999v0.643v2.998v0.643v1.54c0.215-0.047,0.428-0.1,0.643-0.148v-1.392v-0.643V81.88z"/>
<path fill="#000100" d="M57.571,81.88v-0.643v-2.999v-0.643v-2.998v-0.643v-2.999v-0.643v-2.998v-0.643v-2.999v-0.643v-2.998v-0.643
	v-2.998V55.75v-3v-0.643v-2.998v-0.643v-2.998v-0.643v-2.999v-0.643v-2.998v-0.643v-2.999v-0.643v-2.998v-0.643v-2.999V26.62v-2.998
	v-0.643V19.98v-0.643V16.34v-0.643v-2.999v-0.643V9.057V8.414V5.416V4.773V2.111c-0.214-0.069-0.427-0.142-0.643-0.208v2.87v0.643
	v2.998v0.643v2.999v0.643v2.999v0.643v2.998v0.643v2.999v0.643v2.998v0.643v2.999v0.643v2.998v0.643v2.999v0.643v2.998v0.643v2.999
	v0.643v2.998v0.643v2.998v0.643v3v0.643v2.998v0.643v2.998v0.643v2.999v0.643v2.998v0.643v2.999v0.643v2.998v0.643v2.999v0.643
	v2.998v0.643v0.598c0.216-0.065,0.428-0.138,0.643-0.207v-0.391v-0.643V81.88z"/>
<path fill="#000100" d="M60.569,8.414v0.643v2.999v0.643v2.999v0.643v2.998v0.643v2.999v0.643v2.998v0.643v2.999v0.643v2.998v0.643
	v2.999v0.643v2.998v0.643v2.999v0.643v2.998v0.643v2.998v0.643v3v0.643v2.998v0.643v2.998v0.643v2.999v0.643v2.998v0.643v2.999
	v0.643v2.998v0.643v2.999v0.643v2.938c0.214-0.087,0.431-0.167,0.643-0.257V81.88v-0.643v-2.999v-0.643v-2.998v-0.643v-2.999v-0.643
	v-2.998v-0.643v-2.999v-0.643v-2.998v-0.643v-2.998V55.75v-3v-0.643v-2.998v-0.643v-2.998v-0.643v-2.999v-0.643v-2.998v-0.643
	v-2.999v-0.643v-2.998v-0.643v-2.999V26.62v-2.998v-0.643V19.98v-0.643V16.34v-0.643v-2.999v-0.643V9.057V8.414V5.416V4.773V3.461
	c-0.212-0.09-0.429-0.17-0.643-0.257v1.569v0.643V8.414z"/>
<path fill="#000100" d="M64.21,8.414v0.643v2.999v0.643v2.999v0.643v2.998v0.643v2.999v0.643v2.998v0.643v2.999v0.643v2.998v0.643
	v2.999v0.643v2.998v0.643v2.999v0.643v2.998v0.643v2.998v0.643v3v0.643v2.998v0.643v2.998v0.643v2.999v0.643v2.998v0.643v2.999
	v0.643v2.998v0.643v2.999v0.643v1.259c0.214-0.11,0.431-0.215,0.643-0.329v-0.93v-0.643v-2.999v-0.643v-2.998v-0.643v-2.999v-0.643
	v-2.998v-0.643v-2.999v-0.643v-2.998v-0.643v-2.998V55.75v-3v-0.643v-2.998v-0.643v-2.998v-0.643v-2.999v-0.643v-2.998v-0.643
	v-2.999v-0.643v-2.998v-0.643v-2.999V26.62v-2.998v-0.643V19.98v-0.643V16.34v-0.643v-2.999v-0.643V9.057V8.414V5.416V5.212
	c-0.212-0.114-0.429-0.219-0.643-0.329v0.533V8.414z"/>
<path fill="#000100" d="M67.85,12.056v0.643v2.999v0.643v2.998v0.643v2.999v0.643v2.998v0.643v2.999v0.643v2.998v0.643v2.999v0.643
	v2.998v0.643v2.999v0.643v2.998v0.643v2.998v0.643v3v0.643v2.998v0.643v2.998v0.643v2.999v0.643v2.998v0.643v2.999v0.643v2.998
	v0.643v2.792c0.214-0.138,0.431-0.271,0.643-0.412v-2.38v-0.643v-2.998v-0.643v-2.999v-0.643v-2.998v-0.643v-2.999v-0.643v-2.998
	v-0.643v-2.998V55.75v-3v-0.643v-2.998v-0.643v-2.998v-0.643v-2.999v-0.643v-2.998v-0.643v-2.999v-0.643v-2.998v-0.643v-2.999V26.62
	v-2.998v-0.643V19.98v-0.643V16.34v-0.643v-2.999v-0.643V9.057V8.414v-1.01c-0.211-0.141-0.429-0.274-0.643-0.412v1.422v0.643
	V12.056z"/>
<path fill="#000100" d="M71.49,15.697v0.643v2.998v0.643v2.999v0.643v2.998v0.643v2.999v0.643v2.998v0.643v2.999v0.643v2.998v0.643
	v2.999v0.643v2.998v0.643v2.998v0.643v3v0.643v2.998v0.643v2.998v0.643v2.999v0.643v2.998v0.643v2.999v0.643v2.998v0.643v0.174
	c0.214-0.172,0.432-0.339,0.643-0.514v-0.303v-2.998v-0.643v-2.999v-0.643v-2.998v-0.643v-2.999v-0.643v-2.998v-0.643v-2.998V55.75
	v-3v-0.643v-2.998v-0.643v-2.998v-0.643v-2.999v-0.643v-2.998v-0.643v-2.999v-0.643v-2.998v-0.643v-2.999V26.62v-2.998v-0.643V19.98
	v-0.643V16.34v-0.643v-2.999v-0.643v-1.932c-0.211-0.175-0.428-0.342-0.643-0.514v2.445v0.643V15.697z"/>
<path fill="#000100" d="M75.131,19.338v0.643v2.999v0.643v2.998v0.643v2.999v0.643v2.998v0.643v2.999v0.643v2.998v0.643v2.999v0.643
	v2.998v0.643v2.998v0.643v3v0.643v2.998v0.643v2.998v0.643v2.999v0.643v2.998v0.643v2.999v0.643v0.572
	c0.219-0.219,0.428-0.448,0.643-0.672v-0.543v-2.999v-0.643v-2.998v-0.643v-2.999v-0.643v-2.998v-0.643v-2.998V55.75v-3v-0.643
	v-2.998v-0.643v-2.998v-0.643v-2.999v-0.643v-2.998v-0.643v-2.999v-0.643v-2.998v-0.643v-2.999V26.62v-2.998v-0.643V19.98v-0.643
	V16.34v-0.643v-2.173c-0.215-0.224-0.423-0.453-0.643-0.672v2.845v0.643V19.338z"/>
<path fill="#000100" d="M78.771,22.979v0.643v2.998v0.643v2.999v0.643v2.998v0.643v2.999v0.643v2.998v0.643v2.999v0.643v2.998v0.643
	v2.998v0.643v3v0.643v2.998v0.643v2.998v0.643v2.999v0.643v2.998v0.643v0.077c0.215-0.276,0.434-0.551,0.643-0.832v-2.886v-0.643
	v-2.999v-0.643v-2.998v-0.643v-2.998V55.75v-3v-0.643v-2.998v-0.643v-2.998v-0.643v-2.999v-0.643v-2.998v-0.643v-2.999v-0.643
	v-2.998v-0.643v-2.999V26.62v-2.998v-0.643V19.98v-0.643v-1.517c-0.209-0.282-0.427-0.556-0.643-0.833v2.349v0.643V22.979z"/>
<path fill="#000100" d="M82.412,26.62v0.643v2.999v0.643v2.998v0.643v2.999v0.643v2.998v0.643v2.999v0.643v2.998v0.643v2.998v0.643
	v3v0.643v2.998v0.643v2.998v0.643v1.89c0.22-0.392,0.434-0.786,0.643-1.186v-0.704v-0.643v-2.998v-0.643v-2.998V55.75v-3v-0.643
	v-2.998v-0.643v-2.998v-0.643v-2.999v-0.643v-2.998v-0.643v-2.999v-0.643v-2.998v-0.643v-2.999V26.62v-2.976
	c-0.208-0.399-0.422-0.794-0.643-1.186v0.521v0.643V26.62z"/>
<path fill="#000100" d="M86.052,33.902v0.643v2.999v0.643v2.998v0.643v2.999v0.643v2.998v0.643v2.998v0.643v3v0.643v0.77
	c0.234-0.75,0.448-1.51,0.643-2.276V52.75v-0.643v-2.998v-0.643v-2.998v-0.643v-2.999v-0.643v-2.998v-0.643v-2.999v-0.643v-0.767
	c-0.194-0.767-0.408-1.526-0.643-2.276v0.045V33.902z"/>
</svg>
