<?xml version="1.0" encoding="utf-8"?>
<!-- Generator: Adobe Illustrator 12.0.0, SVG Export Plug-In  -->
<!DOCTYPE svg PUBLIC "-//W3C//DTD SVG 1.1//EN" "http://www.w3.org/Graphics/SVG/1.1/DTD/svg11.dtd" [
	<!ENTITY ns_flows "http://ns.adobe.com/Flows/1.0/">
	<!ENTITY ns_svg "http://www.w3.org/2000/svg">
	<!ENTITY ns_xlink "http://www.w3.org/1999/xlink">
]>
<svg  version="1.1" xmlns="&ns_svg;" xmlns:xlink="&ns_xlink;" xmlns:a="http://ns.adobe.com/AdobeSVGViewerExtensions/3.0/"
	 width="88" height="88" viewBox="-0.16 -0.21 88 88" enable-background="new -0.16 -0.21 88 88" xml:space="preserve">
<defs>
</defs>
<path fill="none" d="M33.15,71.73c-3.38-3.95-3.9-8.6-3.1-13.28H13.49h-1v-1.99h1h16.97c0.69-2.86,1.79-5.69,2.94-8.34H20.73h-1
	v-1.99h1h13.56c0.24-0.53,0.48-1.06,0.72-1.57c1.51-3.3,2.81-6.14,2.81-7.77c0-2.73,0.28-4.37,0.92-5.18
	c-1.09-0.86-1.95-2.05-2.64-3.47l-23.25,3.22l-0.43,15.28l-0.03,0.99l-1.99-0.06l0.03-1l0.9-32.01C4.5,22.19,0.35,32.27,0.35,43.31
	c0,12.55,5.36,23.84,13.91,31.72c1.34,0.64,3.46,1.33,6.47,1.33C25.32,76.36,30.95,73.12,33.15,71.73z"/>
<path fill="none" d="M35,15.15c1.54,9.91,2.78,15.99,8.46,15.99c6.06,0,11.7-1.11,14.49-1.76C56.03,18.5,55.1,6.43,54.92,3.96
	l-0.28-1.52c-0.05-0.28-0.1-0.57-0.16-0.85c-3.51-0.92-7.2-1.42-11-1.42c-3.78,0-7.45,0.49-10.95,1.4c0.33,1.96,0.68,3.83,1.05,5.54
	C34.17,9.81,34.59,12.53,35,15.15z"/>
<path fill="none" d="M67.92,77.35c2.97-2.2,5.95-4.35,8.42-6.1c1.09-1.28,2.1-2.62,3.04-4.02c-3.07-4.86-6.65-9.72-9.82-13.66
	c-2.82,3.5-17.41,20.97-28.51,21.65c-2.5,0.15-4.66-0.54-6.46-2.05c-2.05,1.34-8.42,5.18-13.85,5.18c-0.96,0-1.83-0.07-2.64-0.17
	c7.12,5.2,15.9,8.27,25.39,8.27c6.13,0,11.95-1.28,17.23-3.58C62.6,81.36,64.95,79.55,67.92,77.35z"/>
<path fill="none" d="M34.48,23.33c-0.59-2.43-1.01-5.13-1.44-7.87c-0.41-2.6-0.82-5.29-1.4-7.92c-0.36-1.67-0.71-3.5-1.03-5.41
	c-6.55,2.04-12.43,5.61-17.22,10.29l-0.39,13.89L34.48,23.33z"/>
<path fill="none" d="M40.92,73.24c8.91-0.55,20.99-13.71,25.61-19.15l-17.14,4.32l-0.12,0.03h-0.12h-4.13h-1v-1.99h1h4.01
	l18.96-4.78c-1.61-1.92-3.07-3.54-4.23-4.7c-2.3-2.3-4.09-8.56-5.44-15.63c-2.91,0.68-8.6,1.79-14.85,1.79
	c-0.87,0-1.65-0.11-2.36-0.32l-0.73,0.74l-0.25-0.25c-0.14,0.5-0.3,1.51-0.3,3.5c0,2.06-1.32,4.95-3,8.6
	c-1.67,3.64-3.62,7.91-4.54,12.15v0.91h-0.18c-0.79,4.37-0.36,8.66,2.72,12.16l0.11-0.08l0.51,0.73
	C36.93,72.73,38.72,73.38,40.92,73.24z"/>
<path fill="none" d="M58.88,3.46l0.01,0.11c0.98,13.7,3.93,36.83,7.69,40.59c3.65,3.65,9.86,11.28,15.08,19.26
	c3.17-6,4.97-12.84,4.97-20.11c0-18.43-11.56-34.16-27.83-40.34l0.07,0.38L58.88,3.46z"/>
<path fill="#3F3F3F" d="M60.71,82.86c6.06-2.64,11.39-6.64,15.62-11.6c-2.46,1.75-5.45,3.9-8.42,6.1
	C64.95,79.55,62.6,81.36,60.71,82.86z"/>
<path fill="#3F3F3F" d="M67.98,51.67l-18.96,4.78h-4.01h-1v1.99h1h4.13h0.12l0.12-0.03l17.14-4.32c-4.63,5.44-16.7,18.6-25.61,19.15
	c-2.2,0.14-3.99-0.52-5.49-1.99l0.63,0.9l-0.81,0.57c-0.05,0.04-0.28,0.2-0.67,0.45c1.8,1.52,3.96,2.21,6.46,2.05
	c11.1-0.68,25.69-18.14,28.51-21.65C69.02,52.92,68.49,52.28,67.98,51.67z"/>
<path fill="#3F3F3F" d="M32.09,58.44h-0.81h-1.23c-0.79,4.68-0.28,9.34,3.1,13.28c0.59-0.37,0.94-0.61,0.95-0.63l0.71-0.5
	C31.73,67.11,31.31,62.82,32.09,58.44z"/>
<path fill="#3F3F3F" d="M32.28,56.45v1.08c0.92-4.24,2.87-8.51,4.54-12.15c1.67-3.65,3-6.54,3-8.6c0-1.99,0.17-3,0.3-3.5l0.25,0.25
	l0.73-0.74c-0.89-0.26-1.67-0.67-2.36-1.21c-0.64,0.82-0.92,2.46-0.92,5.18c0,1.63-1.3,4.47-2.81,7.77
	c-0.23,0.51-0.47,1.04-0.72,1.57h0.06h1v1.99h-1H33.4c-1.15,2.65-2.25,5.48-2.94,8.34h0.82H32.28z"/>
<path fill="#3F3F3F" d="M33.04,15.46c0.43,2.74,0.85,5.44,1.44,7.87l1.33-0.18l0.68,4.93l-0.38,0.05c0.69,1.42,1.54,2.61,2.64,3.47
	c0.69,0.54,1.47,0.95,2.36,1.21c0.71,0.21,1.5,0.32,2.36,0.32c6.25,0,11.94-1.11,14.85-1.79c-0.12-0.65-0.24-1.3-0.36-1.96
	c-2.79,0.65-8.43,1.76-14.49,1.76c-5.68,0-6.91-6.07-8.46-15.99c-0.41-2.63-0.83-5.35-1.42-8.03c-0.37-1.7-0.72-3.58-1.05-5.54
	c-0.65,0.17-1.29,0.35-1.92,0.55c0.32,1.91,0.67,3.74,1.03,5.41C32.21,10.17,32.63,12.86,33.04,15.46z"/>
<path fill="#3F3F3F" d="M16.68,26.47c-0.19,0.03-0.28,0.06-0.33,0.07l0.24,1.8c0.05,0.03,0.19,0.01,0.35,0
	c0.26-0.04,0.51-0.12,0.68-0.25c0.31-0.24,0.38-0.55,0.34-0.86C17.88,26.6,17.39,26.37,16.68,26.47z"/>
<path fill="#3F3F3F" d="M24.11,26.29c-0.08-0.59-0.56-0.79-1.21-0.7c-0.23,0.04-0.34,0.06-0.37,0.09l0.23,1.68
	c0.04,0.01,0.17-0.01,0.36-0.04C23.97,27.19,24.16,26.63,24.11,26.29z"/>
<path fill="#3F3F3F" d="M19.79,26.3c-0.13,0.59-0.29,1.34-0.43,1.93c0,0.03,0,0.04,0.02,0.03l1.35-0.19
	c-0.29-0.56-0.64-1.24-0.92-1.78L19.79,26.3z"/>
<path fill="#3F3F3F" d="M35.81,23.15l-1.33,0.18l-21.48,2.98l-0.14,5.04l23.25-3.22l0.38-0.05L35.81,23.15z M17.7,28.33
	c-0.19,0.1-0.41,0.2-0.82,0.25c-0.11,0.02-0.2,0.02-0.24,0.03l0.18,1.3l0.69-0.08c0.01,0.07,0.02,0.14,0.03,0.21
	c-0.24,0.03-0.56,0.08-0.83,0.12c-0.19,0.03-0.41,0.06-0.6,0.09c-0.02-0.07-0.02-0.15-0.03-0.21l0.4-0.09
	c0.02,0,0.02-0.01,0.02-0.02l-0.48-3.37l-0.43,0.05c-0.01-0.07-0.02-0.14-0.02-0.21c0.22-0.04,0.53-0.09,0.84-0.13
	c0.48-0.07,0.7-0.09,0.99-0.04c0.52,0.06,0.84,0.44,0.89,0.84C18.37,27.63,18.08,28.1,17.7,28.33z M21.59,29.47
	c-0.27,0.03-0.51,0.08-0.73,0.1c-0.01-0.06-0.02-0.14-0.02-0.2l0.5-0.09c0.01,0,0.01-0.02,0.01-0.03c-0.16-0.3-0.35-0.66-0.5-0.94
	c-0.01-0.02-0.01-0.03-0.04-0.02l-1.5,0.22c-0.07,0.34-0.16,0.76-0.23,1.09l0.59-0.07c0.01,0.06,0.02,0.14,0.02,0.2
	c-0.22,0.04-0.49,0.07-0.78,0.11c-0.17,0.03-0.35,0.06-0.5,0.08c-0.01-0.07-0.02-0.14-0.02-0.21l0.34-0.08
	c0.01,0,0.02-0.01,0.03-0.02c0.28-1.14,0.62-2.71,0.89-3.85c0.05-0.01,0.14-0.03,0.18-0.03c0.57,1.03,1.3,2.45,1.86,3.49l0.38-0.04
	c0.01,0.06,0.02,0.14,0.02,0.21C21.95,29.42,21.77,29.45,21.59,29.47z M25.13,28.97c-0.1,0.02-0.2,0.03-0.28,0.05
	c-0.26-0.25-0.76-1.03-1.01-1.3c-0.18-0.19-0.32-0.24-0.66-0.19c-0.28,0.04-0.36,0.06-0.39,0.07l0.2,1.45l0.55-0.07
	c0.01,0.07,0.02,0.14,0.02,0.22c-0.19,0.03-0.45,0.06-0.68,0.09c-0.22,0.04-0.43,0.07-0.61,0.1c-0.01-0.07-0.02-0.15-0.02-0.21
	l0.4-0.08c0.02,0,0.03-0.01,0.03-0.02l-0.47-3.36l-0.44,0.04c-0.01-0.07-0.01-0.14-0.02-0.21c0.31-0.05,0.7-0.11,1.08-0.16
	c0.33-0.05,0.53-0.06,0.8-0.02c0.38,0.05,0.76,0.35,0.82,0.77c0.07,0.52-0.23,0.95-0.67,1.18l0,0.03c0.3,0.09,0.5,0.41,0.89,0.94
	c0.3,0.42,0.37,0.46,0.44,0.45l0.39-0.04c0.01,0.07,0.02,0.15,0.02,0.22C25.4,28.93,25.26,28.95,25.13,28.97z M28.65,28.48
	c-0.12,0.03-0.21,0.04-0.33,0.05c-0.12-0.09-0.47-0.5-0.84-0.92c-0.32-0.35-0.73-0.76-0.93-0.74c-0.13,0.02-0.3,0.05-0.4,0.07
	l0.22,1.62l0.52-0.06c0.02,0.07,0.02,0.15,0.03,0.21c-0.18,0.03-0.44,0.06-0.66,0.09c-0.21,0.03-0.44,0.06-0.63,0.09
	c-0.01-0.06-0.02-0.14-0.02-0.21l0.42-0.08c0.01,0,0.02-0.01,0.01-0.02l-0.48-3.37l-0.45,0.05c-0.01-0.07-0.02-0.15-0.02-0.21
	c0.2-0.03,0.43-0.06,0.64-0.09c0.2-0.03,0.42-0.06,0.61-0.09c0.01,0.07,0.02,0.15,0.03,0.21l-0.45,0.08
	c-0.03,0.01-0.03,0.02-0.02,0.04l0.21,1.5c0.11-0.02,0.3-0.05,0.44-0.11c0.19-0.22,0.76-1.15,1.04-1.64c0-0.01,0-0.02-0.01-0.02
	l-0.43,0.03c-0.01-0.07-0.02-0.14-0.02-0.21c0.22-0.03,0.46-0.06,0.73-0.1c0.15-0.02,0.31-0.05,0.44-0.07
	c0.01,0.06,0.02,0.14,0.02,0.21l-0.34,0.06c-0.4,0.64-0.8,1.24-1.14,1.75l0.01,0.03c0.29,0.16,0.57,0.43,0.83,0.72
	c0.23,0.25,0.43,0.47,0.7,0.76c0.09,0.08,0.15,0.1,0.22,0.1l0.46-0.04c0.01,0.07,0.02,0.14,0.03,0.21
	C28.95,28.43,28.79,28.45,28.65,28.48z M31.42,28.15c-0.39,0.06-0.81,0-1.16-0.21c-0.42-0.24-0.73-0.71-0.82-1.32v-0.01
	c-0.11-0.81,0.14-1.44,0.51-1.85c0.37-0.42,0.87-0.58,1.25-0.63c0.31-0.05,0.61-0.02,0.76,0.03c0.06,0.31,0.13,0.63,0.19,0.93
	c-0.08,0.02-0.17,0.05-0.25,0.07l-0.18-0.63c-0.01-0.05-0.04-0.08-0.06-0.09c-0.16-0.08-0.35-0.07-0.57-0.04
	c-0.37,0.06-0.74,0.23-0.98,0.56c-0.29,0.4-0.44,0.91-0.36,1.49c0.07,0.5,0.2,0.83,0.54,1.14c0.26,0.23,0.7,0.36,1.14,0.3
	c0.38-0.05,0.77-0.25,1.04-0.42c0.04,0.07,0.07,0.15,0.09,0.22C32.13,27.94,31.77,28.1,31.42,28.15z M33.61,27.77
	c-0.24,0.04-0.46,0.08-0.66,0.1c-0.01-0.07-0.02-0.15-0.02-0.21l0.44-0.08c0.01,0,0.02-0.01,0.02-0.03l-0.48-3.36l-0.46,0.05
	c-0.02-0.07-0.02-0.15-0.03-0.21c0.21-0.03,0.43-0.06,0.65-0.09c0.24-0.04,0.48-0.07,0.71-0.1c0.01,0.07,0.01,0.14,0.02,0.21
	l-0.55,0.1c-0.01,0-0.01,0-0.01,0.02l0.44,3.26c0.01,0.1,0.02,0.11,0.26,0.08c0.78-0.11,0.98-0.16,1.07-0.19
	c0.05-0.03,0.08-0.07,0.09-0.14l0.13-0.65c0.08,0,0.17,0.01,0.24,0.02c-0.02,0.27-0.06,0.67-0.09,0.98
	C35.1,27.57,34.4,27.66,33.61,27.77z"/>
<path fill="#3F3F3F" d="M10.4,47.56l1.99,0.06l0.03-0.99l0.43-15.28l0.14-5.04l0.39-13.89c-0.71,0.69-1.39,1.4-2.05,2.14l-0.9,32.01
	L10.4,47.56z"/>
<polygon fill="#3F3F3F" points="35.34,48.11 35.34,46.12 34.35,46.12 34.29,46.12 20.73,46.12 19.74,46.12 19.74,48.11 20.73,48.11 
	33.4,48.11 34.35,48.11 "/>
<polygon fill="#3F3F3F" points="32.09,58.44 32.28,58.44 32.28,57.54 32.28,56.45 31.28,56.45 30.46,56.45 13.49,56.45 12.5,56.45 
	12.5,58.44 13.49,58.44 30.05,58.44 31.28,58.44 "/>
<path fill="#3F3F3F" d="M34.58,73.18c0.38-0.25,0.62-0.41,0.67-0.45l0.81-0.57l-0.63-0.9l-0.51-0.73l-0.11,0.08l-0.71,0.5
	c-0.02,0.01-0.36,0.25-0.95,0.63c-2.21,1.39-7.84,4.64-12.42,4.64c-3.01,0-5.14-0.68-6.47-1.33c0.58,0.54,1.18,1.06,1.8,1.57h1.54v1
	v0.21c0.16,0.12,0.33,0.24,0.5,0.37c0.81,0.11,1.68,0.17,2.64,0.17C26.17,78.35,32.53,74.51,34.58,73.18z"/>
<path fill="#3F3F3F" d="M17.59,76.6h-1.54c0.5,0.41,1.01,0.82,1.54,1.21V77.6V76.6z"/>
<path fill="#3F3F3F" d="M54.92,3.96c0.18,2.47,1.11,14.54,3.03,25.41c0.12,0.66,0.24,1.32,0.36,1.96
	c1.35,7.08,3.14,13.33,5.44,15.63c1.16,1.16,2.62,2.78,4.23,4.7c0.51,0.61,1.03,1.24,1.57,1.91c3.18,3.94,6.75,8.8,9.82,13.66
	c0.82-1.23,1.58-2.51,2.28-3.82c-5.21-7.98-11.43-15.61-15.08-19.26c-3.76-3.76-6.71-26.89-7.69-40.59l-0.01-0.11l-0.02-0.11
	l-0.07-0.38c-1.4-0.53-2.83-0.99-4.3-1.38c0.05,0.28,0.1,0.57,0.16,0.85L54.92,3.96z"/>
<path fill="#3F3F3F" d="M17.4,26.25c-0.3-0.05-0.52-0.03-0.99,0.04c-0.3,0.04-0.61,0.09-0.84,0.13c0,0.07,0.01,0.14,0.02,0.21
	l0.43-0.05l0.48,3.37c0,0.01-0.01,0.02-0.02,0.02l-0.4,0.09c0.01,0.06,0.01,0.14,0.03,0.21c0.19-0.03,0.41-0.06,0.6-0.09
	c0.27-0.04,0.59-0.09,0.83-0.12c0-0.07-0.02-0.14-0.03-0.21l-0.69,0.08l-0.18-1.3c0.04-0.01,0.13-0.01,0.24-0.03
	c0.41-0.06,0.63-0.15,0.82-0.25c0.38-0.22,0.67-0.7,0.59-1.24C18.24,26.69,17.92,26.32,17.4,26.25z M17.63,28.08
	c-0.17,0.13-0.42,0.21-0.68,0.25c-0.16,0.02-0.3,0.03-0.35,0l-0.24-1.8c0.05-0.02,0.14-0.04,0.33-0.07c0.71-0.1,1.2,0.13,1.28,0.76
	C18.01,27.53,17.93,27.85,17.63,28.08z"/>
<path fill="#3F3F3F" d="M21.7,29.23c-0.56-1.04-1.29-2.46-1.86-3.49c-0.04,0.01-0.13,0.02-0.18,0.03c-0.27,1.14-0.61,2.71-0.89,3.85
	c-0.01,0.01-0.02,0.02-0.03,0.02l-0.34,0.08c0,0.06,0.01,0.14,0.02,0.21c0.15-0.02,0.34-0.05,0.5-0.08
	c0.29-0.04,0.55-0.08,0.78-0.11c0-0.06-0.01-0.14-0.02-0.2l-0.59,0.07c0.07-0.33,0.15-0.75,0.23-1.09l1.5-0.22
	c0.03,0,0.03,0.01,0.04,0.02c0.16,0.28,0.34,0.63,0.5,0.94c0.01,0.01,0,0.02-0.01,0.03l-0.5,0.09c0,0.07,0.01,0.14,0.02,0.2
	c0.22-0.03,0.46-0.07,0.73-0.1c0.17-0.03,0.36-0.05,0.51-0.07c0-0.07-0.01-0.15-0.02-0.21L21.7,29.23z M19.39,28.27
	c-0.02,0.01-0.03-0.01-0.02-0.03c0.14-0.59,0.3-1.34,0.43-1.93l0.02-0.01c0.28,0.54,0.64,1.23,0.92,1.78L19.39,28.27z"/>
<path fill="#3F3F3F" d="M25.1,28.74c-0.07,0.01-0.13-0.03-0.44-0.45c-0.4-0.54-0.59-0.85-0.89-0.94l0-0.03
	c0.44-0.24,0.74-0.66,0.67-1.18c-0.06-0.43-0.44-0.72-0.82-0.77c-0.27-0.04-0.47-0.03-0.8,0.02c-0.38,0.05-0.77,0.11-1.08,0.16
	c0,0.07,0.01,0.13,0.02,0.21l0.44-0.04l0.47,3.36c0,0.01-0.01,0.02-0.03,0.02l-0.4,0.08c0,0.06,0.01,0.14,0.02,0.21
	c0.19-0.03,0.4-0.06,0.61-0.1c0.23-0.03,0.49-0.06,0.68-0.09c-0.01-0.08-0.02-0.15-0.02-0.22l-0.55,0.07l-0.2-1.45
	c0.03-0.01,0.12-0.03,0.39-0.07c0.33-0.04,0.47,0,0.66,0.19c0.26,0.27,0.75,1.05,1.01,1.3c0.08-0.02,0.18-0.03,0.28-0.05
	c0.13-0.02,0.28-0.04,0.38-0.05c0-0.07-0.01-0.15-0.02-0.22L25.1,28.74z M23.12,27.32c-0.2,0.02-0.32,0.04-0.36,0.04l-0.23-1.68
	c0.03-0.03,0.15-0.05,0.37-0.09c0.65-0.09,1.13,0.11,1.21,0.7C24.16,26.63,23.97,27.19,23.12,27.32z"/>
<path fill="#3F3F3F" d="M28.6,28.24c-0.07,0.01-0.13-0.01-0.22-0.1c-0.27-0.29-0.47-0.51-0.7-0.76c-0.25-0.29-0.54-0.56-0.83-0.72
	l-0.01-0.03c0.34-0.51,0.74-1.11,1.14-1.75l0.34-0.06c0-0.07-0.01-0.15-0.02-0.21c-0.12,0.02-0.29,0.05-0.44,0.07
	c-0.28,0.04-0.51,0.08-0.73,0.1c0,0.07,0.01,0.14,0.02,0.21l0.43-0.03c0.01,0,0.02,0,0.01,0.02c-0.28,0.5-0.85,1.42-1.04,1.64
	c-0.14,0.06-0.33,0.1-0.44,0.11l-0.21-1.5c0-0.02,0-0.03,0.02-0.04l0.45-0.08c-0.01-0.07-0.02-0.14-0.03-0.21
	c-0.19,0.02-0.41,0.06-0.61,0.09c-0.21,0.03-0.45,0.06-0.64,0.09c0.01,0.07,0.02,0.15,0.02,0.21l0.45-0.05l0.48,3.37
	c0,0.01,0,0.02-0.01,0.02l-0.42,0.08c0.01,0.07,0.02,0.15,0.02,0.21c0.19-0.03,0.42-0.06,0.63-0.09c0.22-0.03,0.47-0.06,0.66-0.09
	c0-0.06-0.01-0.15-0.03-0.21l-0.52,0.06l-0.22-1.62c0.1-0.02,0.27-0.05,0.4-0.07c0.2-0.03,0.61,0.39,0.93,0.74
	c0.37,0.41,0.72,0.83,0.84,0.92c0.12-0.01,0.21-0.03,0.33-0.05c0.14-0.03,0.29-0.05,0.43-0.07c0-0.07-0.02-0.14-0.03-0.21
	L28.6,28.24z"/>
<path fill="#3F3F3F" d="M31.43,27.89c-0.43,0.06-0.87-0.06-1.14-0.3c-0.34-0.31-0.47-0.63-0.54-1.14c-0.08-0.57,0.07-1.09,0.36-1.49
	c0.25-0.33,0.61-0.51,0.98-0.56c0.22-0.03,0.41-0.04,0.57,0.04c0.02,0.01,0.05,0.03,0.06,0.09l0.18,0.63
	c0.08-0.02,0.17-0.04,0.25-0.07c-0.06-0.31-0.12-0.62-0.19-0.93c-0.15-0.05-0.45-0.07-0.76-0.03c-0.39,0.05-0.88,0.21-1.25,0.63
	c-0.37,0.41-0.63,1.04-0.51,1.85v0.01c0.09,0.6,0.4,1.08,0.82,1.32c0.35,0.21,0.77,0.26,1.16,0.21c0.35-0.05,0.71-0.2,1.15-0.46
	c-0.02-0.07-0.06-0.15-0.09-0.22C32.2,27.64,31.81,27.83,31.43,27.89z"/>
<path fill="#3F3F3F" d="M35.46,26.55c-0.07-0.02-0.16-0.02-0.24-0.02l-0.13,0.65c-0.01,0.07-0.04,0.12-0.09,0.14
	c-0.09,0.03-0.29,0.08-1.07,0.19c-0.24,0.03-0.25,0.02-0.26-0.08l-0.44-3.26c0-0.02,0-0.02,0.01-0.02l0.55-0.1
	c0-0.07-0.01-0.15-0.02-0.21c-0.23,0.03-0.48,0.07-0.71,0.1c-0.23,0.03-0.45,0.06-0.65,0.09c0,0.06,0.01,0.14,0.03,0.21l0.46-0.05
	l0.48,3.36c0,0.01,0,0.03-0.02,0.03l-0.44,0.08c0.01,0.06,0.01,0.14,0.02,0.21c0.2-0.03,0.42-0.06,0.66-0.1
	c0.79-0.11,1.49-0.2,1.77-0.24C35.4,27.23,35.44,26.82,35.46,26.55z"/>
<circle fill="none" stroke="#3F3F3F" cx="43.63" cy="43.63" r="43.13"/>
</svg>
