<?xml version="1.0" encoding="utf-8"?>
<!-- Generator: Adobe Illustrator 12.0.0, SVG Export Plug-In . SVG Version: 6.00 Build 51448)  -->
<!DOCTYPE svg PUBLIC "-//W3C//DTD SVG 1.1//EN" "http://www.w3.org/Graphics/SVG/1.1/DTD/svg11.dtd" [
	<!ENTITY ns_svg "http://www.w3.org/2000/svg">
	<!ENTITY ns_xlink "http://www.w3.org/1999/xlink">
]>
<svg  version="1.1" id="Layer_1" xmlns="&ns_svg;" xmlns:xlink="&ns_xlink;" width="90" height="90" viewBox="-0.731 -0.959 90 90"
	 overflow="visible" enable-background="new -0.731 -0.959 90 90" xml:space="preserve">
<g>
	<path fill="#231F20" d="M20.378,5.575c-0.691,0.421-1.366,0.865-2.031,1.323L6.984,18.261c-0.458,0.665-0.902,1.34-1.324,2.031
		L20.378,5.575z"/>
	<path fill="#231F20" d="M32.542,0.481c-0.325,0.082-0.646,0.172-0.967,0.261L0.828,31.489c-0.088,0.322-0.179,0.643-0.26,0.967
		L32.542,0.481z"/>
	<path fill="#231F20" d="M40.869-0.774c-0.256,0.014-0.51,0.04-0.765,0.058L-0.63,40.018c-0.019,0.255-0.044,0.509-0.058,0.765
		L40.869-0.774z"/>
	<path fill="#231F20" d="M47.781-0.616c-0.218-0.022-0.438-0.031-0.657-0.05L-0.58,47.038c0.019,0.219,0.028,0.439,0.05,0.657
		L47.781-0.616z"/>
	<path fill="#231F20" d="M59.179,2.129c-0.169-0.065-0.336-0.136-0.507-0.2L2.015,58.586c0.064,0.171,0.134,0.338,0.2,0.508
		L59.179,2.129z"/>
	<path fill="#231F20" d="M64.03,4.35c-0.154-0.083-0.313-0.159-0.468-0.239L4.196,63.477c0.081,0.155,0.157,0.313,0.24,0.467
		L64.03,4.35z"/>
	<path fill="#231F20" d="M72.371,10.15c-0.125-0.11-0.252-0.219-0.379-0.328L9.907,71.907c0.109,0.126,0.218,0.253,0.328,0.379
		L72.371,10.15z"/>
	<path fill="#231F20" d="M75.936,13.656c-0.112-0.124-0.229-0.243-0.342-0.365L13.376,75.509c0.123,0.113,0.242,0.23,0.365,0.343
		L75.936,13.656z"/>
	<path fill="#231F20" d="M79.086,17.578c-0.099-0.137-0.194-0.277-0.294-0.413L17.249,78.707c0.136,0.1,0.276,0.195,0.413,0.294
		L79.086,17.578z"/>
	<path fill="#231F20" d="M81.829,21.906c-0.084-0.151-0.173-0.299-0.259-0.449L21.542,81.485c0.15,0.085,0.297,0.175,0.449,0.258
		L81.829,21.906z"/>
	<path fill="#231F20" d="M84.108,26.697c-0.068-0.168-0.13-0.34-0.2-0.507L26.275,83.822c0.167,0.07,0.339,0.133,0.507,0.2
		L84.108,26.697z"/>
	<path fill="#231F20" d="M85.874,32.001c-0.048-0.185-0.105-0.367-0.156-0.551L31.536,85.634c0.184,0.051,0.366,0.107,0.551,0.156
		L85.874,32.001z"/>
	<path fill="#231F20" d="M86.993,37.954c-0.024-0.21-0.052-0.419-0.079-0.627L37.412,86.828c0.208,0.028,0.417,0.056,0.627,0.08
		L86.993,37.954z"/>
	<path fill="#231F20" d="M87.275,44.744c0.008-0.241,0.014-0.483,0.019-0.725l-43.19,43.19c0.242-0.005,0.484-0.011,0.726-0.019
		L87.275,44.744z"/>
	<path fill="#231F20" d="M86.238,52.852c0.068-0.304,0.143-0.604,0.204-0.91L52.025,86.357c0.306-0.062,0.607-0.135,0.91-0.203
		L86.238,52.852z"/>
	<path fill="#231F20" d="M82.021,64.14c0.258-0.477,0.501-0.962,0.742-1.449L62.774,82.68c0.486-0.241,0.973-0.484,1.449-0.742
		L82.021,64.14z"/>
</g>
</svg>
