<?xml version="1.0" encoding="utf-8"?>
<!-- Generator: Adobe Illustrator 12.0.0, SVG Export Plug-In . SVG Version: 6.00 Build 51448)  -->
<!DOCTYPE svg PUBLIC "-//W3C//DTD SVG 1.1//EN" "http://www.w3.org/Graphics/SVG/1.1/DTD/svg11.dtd" [
	<!ENTITY ns_svg "http://www.w3.org/2000/svg">
	<!ENTITY ns_xlink "http://www.w3.org/1999/xlink">
]>
<svg  version="1.1" id="Layer_1" xmlns="&ns_svg;" xmlns:xlink="&ns_xlink;" width="90" height="90" viewBox="-0.731 -0.959 90 90"
	 overflow="visible" enable-background="new -0.731 -0.959 90 90" xml:space="preserve">
<path fill="#000100" d="M8.333,18.787L18.765,8.354C14.729,11.223,11.201,14.751,8.333,18.787z"/>
<path fill="#000100" d="M35.608,1.079c-0.585,0.116-1.164,0.25-1.741,0.389L1.445,33.888c-0.14,0.577-0.273,1.156-0.389,1.741
	L35.608,1.079z"/>
<path fill="#000100" d="M45.98,0.271c-0.438-0.017-0.877-0.029-1.318-0.033L0.215,44.686c0.004,0.44,0.016,0.879,0.033,1.317
	L45.98,0.271z"/>
<path fill="#000100" d="M54.397,1.417c-0.364-0.086-0.729-0.176-1.099-0.253L1.142,53.322c0.077,0.369,0.167,0.732,0.254,1.098
	L54.397,1.417z"/>
<path fill="#000100" d="M61.596,3.785c-0.317-0.136-0.64-0.262-0.96-0.391L3.371,60.658c0.129,0.32,0.255,0.643,0.391,0.961
	L61.596,3.785z"/>
<path fill="#000100" d="M73.311,11.201c-0.239-0.211-0.479-0.421-0.724-0.627L10.551,72.609c0.206,0.244,0.417,0.484,0.627,0.725
	L73.311,11.201z"/>
<path fill="#000100" d="M15.293,77.434c0.241,0.209,0.479,0.422,0.724,0.627l62.02-62.02c-0.205-0.245-0.418-0.484-0.627-0.724
	L15.293,77.434z"/>
<path fill="#000100" d="M82.015,21.628c-0.168-0.281-0.346-0.555-0.52-0.832L20.772,81.518c0.277,0.176,0.551,0.353,0.832,0.521
	L82.015,21.628z"/>
<path fill="#000100" d="M85.175,28.033c-0.129-0.322-0.25-0.648-0.385-0.967L27.043,84.813c0.319,0.137,0.645,0.258,0.967,0.385
	L85.175,28.033z"/>
<path fill="#000100" d="M87.382,35.392c-0.076-0.37-0.168-0.732-0.254-1.098L34.27,87.152c0.366,0.084,0.729,0.178,1.098,0.253
	L87.382,35.392z"/>
<path fill="#000100" d="M88.271,44.066c-0.002-0.441-0.018-0.879-0.033-1.318L42.725,88.262c0.438,0.014,0.876,0.031,1.318,0.033
	L88.271,44.066z"/>
<path fill="#000100" d="M86.966,54.938c0.145-0.582,0.283-1.166,0.404-1.756L53.158,87.395c0.59-0.121,1.174-0.26,1.756-0.404
	L86.966,54.938z"/>
<path fill="#000100" d="M79.573,70.545l-9.053,9.053C73.958,77.036,77.011,73.984,79.573,70.545z"/>
</svg>
