<?xml version="1.0" encoding="utf-8"?>
<!DOCTYPE svg PUBLIC "-//W3C//DTD SVG 1.1//EN" "http://www.w3.org/Graphics/SVG/1.1/DTD/svg11.dtd">
<svg version="1.1" id="Layer_1" xmlns="http://www.w3.org/2000/svg" xmlns:xlink="http://www.w3.org/1999/xlink" x="0px" y="0px"
	 width="19.9px" height="21.9px" viewBox="0 0 19.9 21.9" enable-background="new 0 0 19.9 21.9" xml:space="preserve">
<path fill="#e79299" d="M0,21.9l5.8-7.6c-2-1.5-3.1-3.8-3.1-6.3c0-4.4,3.6-7.9,8-7.9c4.6,0,8,3.7,8,8.2c0,2.6-1.3,4.2-2.8,6.1h4.1
	v2.2H11l4.1-5.3c0.8-1,1.1-2.1,1.1-3.3c0-3.1-2.5-5.5-5.5-5.5c-3,0-5.5,2.5-5.5,5.5c0,2.7,1.9,4.9,4.5,5.5l-4.8,6.2h15.1v2.3H0z
	 M5.7,19.2L13,9.7c0.4-0.5,0.6-1.2,0.6-1.8c0-1.7-1.4-2.8-3.1-2.8C9,5,7.7,6.4,7.7,7.9c0,1.6,1.3,2.9,2.9,2.9c0.4,0,0.7-0.1,1-0.2
	L10,13c-2.4-0.3-4.4-2.4-4.4-4.8c0-2.9,2.2-5.3,5.2-5.3c2.8,0,5.1,2.4,5.1,5.2c0,1.1-0.4,2.2-1.1,3l-4.6,6h9.8v2.2H5.7z M8.2,7.9
	c0-1.3,1.1-2.5,2.4-2.5c1.5,0,2.6,1.1,2.6,2.6c0,1.4-1.2,2.5-2.5,2.5C9.4,10.5,8.2,9.4,8.2,7.9z M10.7,7.1c-0.5,0-0.9,0.4-0.9,0.9
	c0,0.5,0.4,0.9,0.9,0.9c0.5,0,0.9-0.4,0.9-0.9C11.5,7.5,11.2,7.1,10.7,7.1z"/>
</svg>
