<?xml version="1.0" encoding="utf-8"?>
<!-- Generator: Adobe Illustrator 16.0.0, SVG Export Plug-In . SVG Version: 6.00 Build 0)  -->
<!DOCTYPE svg PUBLIC "-//W3C//DTD SVG 1.1//EN" "http://www.w3.org/Graphics/SVG/1.1/DTD/svg11.dtd">
<svg version="1.1" id="Layer_1" xmlns="http://www.w3.org/2000/svg" xmlns:xlink="http://www.w3.org/1999/xlink" x="0px" y="0px"
	 width="108.7px" height="60.1px" viewBox="0 0 108.7 60.1" enable-background="new 0 0 108.7 60.1" xml:space="preserve">
<path fill="#AF1827" d="M11.3,58v-6.2H0l11.7-36.4h2.2V58H11.3z M11.3,24.5l-4.2,13h4.2V24.5z M15.1,58V15.4h13.1V58H15.1z
	 M22.9,19.5l-1.1-1.6l-1.1,1.6L19,20l1.1,1.6v1.9l1.7-0.7l1.8,0.7v-1.9l1.1-1.6L22.9,19.5z M22.9,30.1l-1.1-1.7l-1.1,1.7L19,30.6
	l1.1,1.6V34l1.7-0.6l1.8,0.6v-1.9l1.1-1.6L22.9,30.1z M22.9,40.7l-1.1-1.6l-1.1,1.6L19,41.2l1.1,1.6v1.9l1.7-0.6l1.8,0.6v-1.9
	l1.1-1.6L22.9,40.7z M22.9,51.3l-1.1-1.6l-1.1,1.6L19,51.8l1.1,1.6v1.9l1.7-0.7l1.8,0.7v-1.9l1.1-1.6L22.9,51.3z M31.9,51.7V58h-2.5
	V15.4h2.5v22.1h4.3v14.2H31.9z"/>
<polygon fill="#AF1827" points="82.1,0 80.2,4 75.8,4.6 79,7.7 78.2,12 82.1,10 86,12 85.3,7.7 88.4,4.6 84.1,4 "/>
<polygon fill="#AF1827" points="101.3,22.9 98.7,17.7 96.2,22.9 90.5,23.7 94.6,27.8 93.6,33.5 98.7,30.8 103.9,33.5 102.9,27.8 
	107,23.7 "/>
<polygon fill="#AF1827" points="105.2,8 106.3,5.3 108.7,3.6 106,2.5 104.3,0.1 103.2,2.8 100.8,4.5 103.5,5.6 "/>
<polygon fill="#AF1827" points="82.6,15.6 82,17.8 80.3,19.3 82.5,19.9 84,21.6 84.6,19.4 86.3,17.9 84.1,17.3 "/>
<polygon fill="#AF1827" points="81.2,23.4 80.1,26.5 77,27.5 80.1,28.6 81.2,31.7 82.2,28.6 85.3,27.5 82.2,26.5 "/>
<polygon fill="#AF1827" points="93.1,15.2 95.9,13.4 98.9,14.6 97.2,11.9 98.4,8.8 95.7,10.6 92.6,9.4 94.3,12.1 "/>
<polygon fill="#AF1827" points="45.5,33.2 44.6,35 42.6,35.3 44.1,36.8 43.7,38.8 45.5,37.9 47.4,38.8 47,36.8 48.5,35.3 46.5,35 
	"/>
<polygon fill="#AF1827" points="54.6,43.9 53.3,41.5 52.1,43.9 49.5,44.3 51.4,46.2 50.9,48.9 53.3,47.6 55.8,48.9 55.3,46.2 
	57.2,44.3 "/>
<polygon fill="#AF1827" points="56.4,36.9 56.9,35.7 58,34.9 56.7,34.3 56,33.2 55.4,34.5 54.3,35.3 55.6,35.8 "/>
<polygon fill="#AF1827" points="45.8,40.5 45.5,41.5 44.7,42.2 45.7,42.5 46.4,43.3 46.7,42.3 47.5,41.6 46.5,41.3 "/>
<polygon fill="#AF1827" points="45.1,44.2 44.6,45.6 43.1,46.1 44.6,46.6 45.1,48.1 45.6,46.6 47,46.1 45.6,45.6 "/>
<polygon fill="#AF1827" points="50.7,40.3 52,39.5 53.4,40.1 52.6,38.8 53.2,37.3 51.9,38.1 50.5,37.6 51.3,38.9 "/>
<polygon fill="#AF1827" points="65,36 63.6,38.9 60.5,39.3 62.8,41.5 62.2,44.7 65,43.2 67.8,44.7 67.3,41.5 69.6,39.3 66.4,38.9 
	"/>
<polygon fill="#AF1827" points="78.8,52.5 77,48.8 75.1,52.5 71,53.1 74,56 73.3,60.1 77,58.2 80.7,60.1 80,56 82.9,53.1 "/>
<polygon fill="#AF1827" points="81.6,41.8 82.4,39.8 84.1,38.6 82.2,37.8 81,36.1 80.2,38 78.4,39.2 80.4,40 "/>
<polygon fill="#AF1827" points="65.4,47.2 64.9,48.8 63.7,49.9 65.3,50.3 66.3,51.5 66.8,50 68,48.9 66.4,48.4 "/>
<polygon fill="#AF1827" points="64.3,52.9 63.6,55.1 61.4,55.9 63.6,56.6 64.3,58.8 65.1,56.6 67.3,55.9 65.1,55.1 "/>
<polygon fill="#AF1827" points="73,46.9 74.9,45.7 77.1,46.6 75.9,44.6 76.8,42.4 74.8,43.6 72.6,42.8 73.8,44.8 "/>
</svg>
