<?xml version="1.0" encoding="utf-8"?>
<!-- Generator: Adobe Illustrator 16.0.0, SVG Export Plug-In . SVG Version: 6.00 Build 0)  -->
<!DOCTYPE svg PUBLIC "-//W3C//DTD SVG 1.1//EN" "http://www.w3.org/Graphics/SVG/1.1/DTD/svg11.dtd">
<svg version="1.1" id="Layer_1" xmlns="http://www.w3.org/2000/svg" xmlns:xlink="http://www.w3.org/1999/xlink" x="0px" y="0px"
	 width="105.4px" height="64.7px" viewBox="0 0 105.4 64.7" enable-background="new 0 0 105.4 64.7" xml:space="preserve">
<g>
	<g>
		<path fill="#020203" d="M17.9,19.1H16L15.4,17H8.7l-0.5,2.1H6.3l5-19.1h1.6L17.9,19.1z M15.1,15.6l-0.4-1.5H9.2L9,15.6H15.1z
			 M14.4,12.8l-2.3-8.3l-2.3,8.3H14.4z"/>
		<path fill="#020203" d="M34.7,19.1h-6.9V3.9h1.9v13.6h5V19.1z"/>
		<path fill="#020203" d="M46.2,19.1h-1.8V3.9h1.8V19.1z"/>
		<path fill="#020203" d="M65.7,19.2c-1.3,0-2.4-0.3-3.6-0.7c-1.1-0.4-2.1-1.1-3-1.8s-1.6-1.7-2.1-2.8c-0.5-1.1-0.8-2.2-0.8-3.5
			c0-1.1,0.2-2.1,0.5-2.9c0.3-0.8,0.8-1.5,1.4-2.1c0.6-0.6,1.2-1,1.9-1.3c0.7-0.3,1.5-0.4,2.3-0.4c0.4,0,0.9,0,1.3,0.1
			c0.5,0.1,0.9,0.2,1.4,0.5l-0.3,0.9l-0.2,1c-0.4-0.3-0.8-0.4-1.1-0.6s-0.7-0.2-1-0.2c-0.5,0-1.1,0.1-1.6,0.4
			c-0.5,0.3-1,0.6-1.4,1.1c-0.4,0.5-0.7,1-1,1.6c-0.3,0.6-0.4,1.3-0.4,2c0,1.9,0.7,3.5,2,4.8s3.1,2.1,5.6,2.5V19.2z"/>
		<path fill="#020203" d="M75.8,19.1V3.9h6.7v1.9h-4.9v1.1h7.1v1.7h-7.1v9h5.7v1.6H75.8z"/>
		<path fill="#020203" d="M6.8,39.1H0.1V23.8h1.6v14h5.1V39.1z"/>
		<path fill="#020203" d="M20.6,39.1h-1.5l-0.4-1.3h-3.9l-0.3,1.3h-1.4l3.2-12.2h1.2L20.6,39.1z M18.5,36.7l-0.2-0.6h-3.2l-0.1,0.6
			H18.5z M18,34.9c-0.2-0.8-0.4-1.5-0.6-2.2c-0.2-0.7-0.4-1.4-0.6-2.2l-1.2,4.4H18z"/>
		<path fill="#020203" d="M35.4,26.6c0,0.8-0.2,1.5-0.4,2c-0.2,0.5-0.6,0.9-1,1.3c-0.4,0.3-0.9,0.6-1.4,0.8
			c-0.5,0.2-1.1,0.4-1.7,0.6c-0.3,0.1-0.6,0.2-0.9,0.3c-0.3,0.1-0.7,0.2-1,0.4v7.3h-1.5V23.8h4.1c0.3,0,0.7,0,1.1,0.1
			c0.4,0.1,0.9,0.2,1.3,0.5s0.7,0.5,1,0.9C35.3,25.6,35.4,26.1,35.4,26.6z M33.9,26.9c0-0.6-0.2-1.1-0.6-1.3c-0.4-0.2-1-0.4-1.8-0.4
			h-2.4v5c0.6-0.2,1.1-0.3,1.7-0.5c0.6-0.2,1.1-0.4,1.5-0.6c0.5-0.2,0.8-0.5,1.1-0.9C33.7,27.8,33.9,27.4,33.9,26.9z"/>
		<path fill="#020203" d="M49.3,30.8c0,0.5-0.1,1-0.3,1.4s-0.4,0.8-0.8,1.1c-0.3,0.3-0.7,0.6-1.2,0.7c-0.5,0.2-0.9,0.3-1.5,0.3
			s-1-0.1-1.5-0.3c-0.5-0.2-0.9-0.4-1.2-0.7c-0.4-0.3-0.6-0.7-0.8-1.1s-0.3-0.9-0.3-1.4c0-0.5,0.1-1,0.3-1.5
			c0.2-0.5,0.4-0.9,0.8-1.2c0.3-0.4,0.7-0.6,1.2-0.8c0.5-0.2,1-0.3,1.5-0.3c0.5,0,1,0.1,1.5,0.3c0.5,0.2,0.9,0.5,1.2,0.8
			c0.3,0.4,0.6,0.8,0.8,1.2C49.2,29.8,49.3,30.3,49.3,30.8z M47.9,30.6c0-0.3-0.1-0.6-0.2-0.9c-0.1-0.3-0.3-0.5-0.5-0.8
			c-0.2-0.2-0.5-0.4-0.7-0.5c-0.3-0.1-0.6-0.2-0.9-0.2c-0.3,0-0.6,0.1-0.9,0.2c-0.3,0.1-0.5,0.3-0.8,0.5c-0.2,0.2-0.4,0.5-0.5,0.8
			c-0.1,0.3-0.2,0.6-0.2,0.9c0,0.3,0.1,0.6,0.2,0.9c0.1,0.3,0.3,0.5,0.5,0.8s0.5,0.4,0.8,0.5c0.3,0.1,0.6,0.2,0.9,0.2
			c0.3,0,0.6-0.1,0.9-0.2c0.3-0.1,0.5-0.3,0.8-0.5c0.2-0.2,0.4-0.5,0.5-0.8C47.8,31.3,47.9,31,47.9,30.6z M46.4,39.1h-1.7v-1.5h1.7
			V39.1z"/>
		<path fill="#020203" d="M63.9,39.1h-1.8l-3.6-7.2h-0.8v7.2h-1.5V26.9h4c0.8,0,1.5,0.2,2,0.6s0.7,1,0.7,1.8c0,0.4-0.1,0.7-0.2,1
			c-0.1,0.3-0.3,0.5-0.6,0.7s-0.5,0.4-0.8,0.5c-0.3,0.1-0.6,0.2-1,0.3L63.9,39.1z M60.2,30.4c0.4,0,0.6-0.1,0.8-0.3
			c0.2-0.2,0.3-0.5,0.3-0.8c0-0.2-0.1-0.5-0.2-0.7c-0.2-0.2-0.4-0.3-0.8-0.4h-2.5v2.2H60.2z"/>
		<path fill="#020203" d="M69.9,28.4v-1.4h7.4v1.4h-2.9v10.8h-1.6V28.4H69.9z"/>
		<path fill="#020203" d="M84.2,39.1V26.9h5.4v1.5h-3.9v0.9h5.7v1.3h-5.7v7.2h4.5v1.3H84.2z"/>
	</g>
	<g>
		<path d="M105.4,28.2c0,0.7-0.6,1.3-1.5,1.6c-0.8,0.3-1.9,0.5-3.1,0.5c-0.7,0-2.8-0.1-4.1-1.1c-0.3-0.3-0.5-0.6-0.5-0.8
			c0-0.2,0-0.3,0.1-0.5c-1.4-1.1-2.8-2-4.3-2c-1,0-2,0.4-2,1.8c0,1.1,0.7,1.7,1.2,1.9c0.2,0.1,0.2,0.2,0.1,0.2
			c-0.1,0-0.3,0.2-0.5,0.2c-0.2,0-0.4,0-0.6-0.1c-0.3-0.2-0.9-0.8-0.9-1.7c0-0.6,0.2-1.4,1.1-2.2c0.5-0.4,1.3-0.8,2.3-0.8
			c1.5,0,3,1,4.1,1.8c0.2-0.5,0.6-0.6,0.8-0.6c0.9,0,1.6,0.9,2.9,1.9c1.3,0.9,2,1.2,2.7,1.2c0.6,0,1.4-0.3,1.4-1
			c0-0.5-0.4-0.8-0.7-0.8c-0.1,0-0.2-0.1-0.1-0.1c0.1,0,0.4-0.4,0.8-0.4C104.9,27.3,105.4,27.6,105.4,28.2L105.4,28.2z"/>
	</g>
	<g>
		<path d="M4.1,3.5C4,3.5,3.9,3.3,4,3.2C4,3.1,4,3,4.1,3.1c0.1,0,0.2,0.1,0.3,0.1c0.2,0.1,0.5,0,0.7-0.1C5.4,3,5.9,2.6,6.3,2.2
			C6.5,2.1,7,1.7,7.7,2C7.9,2,8.3,2.3,8.5,2.5c0.3,0.4,0.3,0.7,0.2,1C8.5,4,8.1,4.1,8,4.2C7.9,4.3,7.9,4.3,8,4.3
			c0.1,0,0.2,0.1,0.3,0.1c0.3,0.1,1.8,0.2,2.1,0c0.2-0.1,0.2-0.2,0.2-0.3c0-0.1,0.3-0.3,0.4-0.2c0.1,0.1-0.1,0.4,0,0.6
			c0,0.2,0,0.3-0.1,0.5c-0.2,0.2-0.5,0.4-0.9,0.3C9.5,5.1,8.2,5,8,4.8c-0.1-0.1-0.2,0-0.1,0.1C8,5.2,8.1,5.4,8,5.8
			C7.9,6,7.7,6.4,7.2,6.7C6.6,7,6.1,6.9,5.9,6.8C5.7,6.7,5.3,6.6,5.1,6.3c-0.2-0.2-0.3-0.5-0.3-1c0-0.5-0.1-1-0.1-1.3
			C4.7,3.9,4.5,3.7,4.3,3.6L4.1,3.5z"/>
	</g>
</g>
<g>
	<path d="M3.3,52.6c0,1.2,0.9,1.8,2.8,1.8c0.5,0,0.9-0.1,1.3-0.2v-0.1c0-1,0.6-1.9,1.8-2.7c1.1-0.7,2.2-1.1,3.2-1.1
		c0.3,0,0.6,0.1,0.8,0.2c0.3,0.2,0.4,0.4,0.4,0.7c0,0.7-0.8,1.4-2.5,2.1c-1.3,0.5-2.4,0.9-3.5,1c0,0.2,0.1,0.4,0.2,0.5h0.3
		c0.7,0,1.1,0.1,1.1,0.5c0,0.2-0.2,0.3-0.5,0.3c-0.3,0-0.6-0.2-1-0.6c-0.9,0.1-1.8,0.4-2.7,1c-0.9,0.6-1.5,1.3-2,2.1
		c-0.4,0.6-0.5,1.1-0.5,1.4c0,0.4,0.3,0.7,0.8,0.9c0.4,0.1,0.8,0.2,1.3,0.2c1,0,2-0.2,3-0.7c1.2-0.6,1.8-1.3,1.8-2.2
		c0-0.3-0.1-0.5-0.4-0.6c-0.2-0.1-0.4-0.2-0.7-0.2c-0.8,0-1.6,0.3-2.6,0.8c-0.8,0.5-1.5,1.1-2.1,1.8l-0.1,0l-0.1-0.1l0-0.1
		c0.4-0.7,1.1-1.3,2.1-1.9s1.9-0.9,2.7-0.9c0.3,0,0.6,0.1,0.8,0.2c0.3,0.2,0.4,0.4,0.4,0.7c0,1-0.6,1.7-1.9,2.4
		c-1,0.5-2.1,0.8-3.1,0.8c-0.7,0-1.3-0.1-1.8-0.4C2.3,60.2,2,59.7,2,59.1c0-1.2,0.7-2.2,2-3c1.1-0.7,2.3-1.1,3.7-1.2l-0.2-0.4
		c-0.4,0.1-0.9,0.1-1.4,0.1c-2,0-3-0.6-3-1.9c0-1,0.6-1.8,1.8-2.3c1-0.4,2-0.7,3.1-0.6l0.2,0l0.1,0.1l-0.1,0.1C7.6,50,7,50,6.4,50.1
		c-0.7,0.1-1.3,0.3-1.7,0.5c-0.6,0.3-1,0.7-1.3,1.3C3.3,52.1,3.3,52.3,3.3,52.6z M13.5,51.2c0-0.2-0.1-0.4-0.3-0.5
		c-0.2-0.1-0.4-0.2-0.6-0.2c-0.8,0-1.8,0.4-2.8,1.2c-1,0.8-1.6,1.6-2,2.4c1-0.2,2.1-0.5,3.3-1C12.7,52.5,13.5,51.8,13.5,51.2z
		 M8.9,55.5c0.1,0,0.2,0,0.2-0.1c0-0.2-0.3-0.3-0.8-0.3H8.2C8.5,55.3,8.7,55.5,8.9,55.5z"/>
	<path d="M12.5,59.8c0.2,0,0.5-0.2,1-0.4l0.1,0.1c0,0.1-0.2,0.3-0.5,0.4c-0.3,0.1-0.6,0.2-0.7,0.2c-0.7,0.6-1.4,1-2,1
		c-0.5,0-0.7-0.2-0.7-0.6c0-0.4,0.2-0.6,0.5-0.6c0.2,0,0.3,0.1,0.3,0.3c0,0.3-0.2,0.5-0.5,0.4c0,0.1,0.1,0.2,0.3,0.2
		c0.8,0,1.6-1,2.2-2.9c-0.2,0.1-0.9,0.7-2.3,1.6L10,59.5c0,0,0.6-0.4,1.6-1.2c1-0.7,1.6-1.1,1.7-1.2l0.1,0.1
		c-0.2,0.1-0.4,0.3-0.7,0.5c0,0.1,0,0.2,0,0.3c0,0.1,0,0.2,0,0.4s0,0.3,0,0.4C12.8,59.2,12.7,59.6,12.5,59.8z"/>
	<path d="M13.6,59.6l-0.1-0.1l0-0.1c1.4-0.9,2.4-1.8,3-2.5h-0.4l-0.1-0.1c0-0.1,0.3-0.1,0.7-0.1l1.3-1.4h0.9l-1.3,1.4h0.9l0.1,0.1
		c0,0.1-0.4,0.1-1.2,0.1c-0.6,0.7-1.2,1.3-1.8,1.9c-1,1.1-1.5,1.7-1.5,1.8l0.1,0.1c0.6,0,1.4-0.4,2.6-1.3l0.1,0.1
		c0,0.2-0.4,0.5-1.2,0.9C15,60.8,14.5,61,14.2,61c-0.3,0-0.5-0.2-0.5-0.5c0-0.3,0.2-0.7,0.5-1.1c0.3-0.3,0.6-0.6,0.9-0.9
		C14.7,58.9,14.1,59.2,13.6,59.6z"/>
	<path d="M18,60.5c-0.1,0.2-0.2,0.3-0.5,0.5c-0.2-0.1-0.3-0.3-0.4-0.5c0.1-0.2,0.2-0.4,0.5-0.5C17.7,60.1,17.9,60.3,18,60.5z"/>
	<path d="M24,60.8c0.3,0,0.7-0.2,1.2-0.6c0.5-0.4,0.8-0.6,0.9-0.6l0.1,0.1c0,0.2-0.3,0.4-1,0.8c-0.6,0.4-1,0.5-1.3,0.5
		c-0.1,0-0.2,0-0.3-0.1c-0.1-0.1-0.2-0.2-0.2-0.3c0-0.2,0-0.3,0.1-0.5c-0.3,0-0.7,0.2-1.3,0.5c-0.6,0.3-0.9,0.4-0.9,0.4l-0.1-0.1
		l0.1-0.1c0.2-0.1,0.5-0.2,0.8-0.4c1-0.6,2.2-1.4,3.4-2.6c-0.6,0.4-1.1,0.6-1.5,0.6c-0.1,0-0.3-0.1-0.4-0.2
		c-0.1-0.1-0.2-0.2-0.2-0.4c0-0.6,0.4-1.1,1.1-1.5c0.7-0.4,1.3-0.6,1.9-0.6c0.5,0,0.8,0.2,0.8,0.7c0,0.6-0.5,1.3-1.6,2.1
		c-0.2,0.2-1,0.7-2.4,1.5c0.5,0,0.7,0.2,0.7,0.5C24.2,60.5,24.1,60.6,24,60.8z M26.7,56.3L26.7,56.3C27,56.3,27,56.1,27,56
		c0-0.1-0.1-0.2-0.2-0.2c-0.4,0-0.9,0.2-1.7,0.7c-0.8,0.5-1.2,0.9-1.2,1.3c0,0.1,0.1,0.2,0.3,0.2c0.3,0,0.7-0.1,1-0.4
		c0.2-0.2,0.5-0.4,0.9-0.8C26.4,56.5,26.6,56.4,26.7,56.3z"/>
	<path d="M28.7,58.2L28.7,58.2c-0.4-0.1-1.2,0.4-2.5,1.4l-0.1-0.1l0-0.1c0.4-0.3,0.8-0.6,1.2-0.9c0.6-0.4,1-0.6,1.3-0.6
		c0.2,0,0.4,0.1,0.4,0.4c0,0.2-0.1,0.5-0.3,0.8c1-0.8,1.8-1.2,2.3-1.2c0.3,0,0.4,0.2,0.4,0.5c0,0.4-0.2,0.8-0.7,1.3
		c-0.5,0.5-0.7,0.8-0.7,0.9c0,0.1,0,0.1,0.1,0.1c0.4,0,0.9-0.2,1.5-0.7c0.7-0.4,1-0.7,1-0.7l0,0.1c0,0.2-0.4,0.5-1.2,0.9
		C30.8,60.8,30.2,61,30,61c-0.3,0-0.5-0.2-0.5-0.5c0-0.3,0.2-0.7,0.7-1.2c0.3-0.4,0.7-0.7,1-1.1l-0.1,0c-0.8,0-2.1,1-3.8,2.9h-0.8
		C27.2,60.1,27.9,59.2,28.7,58.2z"/>
	<path d="M32.3,60.2c0-0.6,0.4-1.1,1.1-1.6c0.7-0.5,1.3-0.7,1.9-0.7c0.4,0,0.7,0.2,0.7,0.5l4.3-5h1c-1.1,1.3-2.2,2.5-3.3,3.8
		c-1.9,2.1-2.8,3.3-2.9,3.4l0.1,0.1c0.3,0,0.8-0.2,1.5-0.6c0.7-0.5,1-0.7,1.1-0.7l0,0.1c0,0.2-0.4,0.5-1.2,0.9
		c-0.8,0.4-1.3,0.6-1.5,0.6c-0.3,0-0.4-0.1-0.4-0.3c0-0.1,0-0.3,0.1-0.4C34.1,60.8,33.5,61,33,61C32.5,61,32.3,60.8,32.3,60.2z
		 M33,60.8c0.4,0,1-0.3,1.7-0.8c0.7-0.6,1.1-1.1,1.1-1.5c0-0.2-0.1-0.4-0.4-0.4c-0.4,0-0.9,0.3-1.6,0.9c-0.7,0.6-1.1,1.1-1.1,1.5
		C32.7,60.7,32.8,60.8,33,60.8z"/>
	<path d="M53.9,60.8c0.4,0,1-0.2,1.7-0.7c0.8-0.6,1.2-0.8,1.4-0.9l0.1,0.1c0,0.2-0.5,0.6-1.4,1.1c-0.9,0.5-1.4,0.7-1.7,0.7
		c-0.2,0-0.4-0.1-0.6-0.2c-0.2-0.2-0.3-0.3-0.3-0.5c0-0.8,1.1-2.5,3.4-5c2-2.2,3.5-3.7,4.6-4.5c-1.2,0.3-2.4,1.2-3.7,2.6l-4.5,5
		c-0.8,0.8-1.3,1.4-1.5,1.6c-0.6,0.6-1.2,1-1.7,1.3c-0.1-0.1-0.2-0.2-0.2-0.4c0-0.9,1.1-2.7,3.4-5.3c2-2.2,3.6-3.8,4.8-4.7
		c-1.2,0.3-2.6,1.4-4.3,3.2c-1.4,1.6-2.9,3.2-4.3,4.8c-1.6,1.6-3,2.4-4.2,2.4c-0.4,0-0.8-0.1-1.1-0.3c-0.4-0.2-0.6-0.6-0.6-0.9
		c0-0.5,0.2-0.7,0.7-0.7c0.1,0,0.2,0.1,0.3,0.2c0.1,0.1,0.1,0.2,0.1,0.3c0,0.3-0.2,0.5-0.6,0.5c-0.1,0-0.1,0-0.2-0.1
		c0,0.3,0.2,0.5,0.5,0.6c0.3,0.1,0.5,0.2,0.8,0.2c1,0,2.3-0.7,3.9-2.2c0.3-0.3,1.7-1.8,4.1-4.4c1.6-1.8,3-2.9,3.9-3.4
		c0.6-0.3,1-0.4,1.3-0.4H58l0.1,0.1l0,0.1c-1.2,1.2-2.7,2.9-4.3,4.9c-1.5,1.8-2.8,3.6-3.9,5.3c0.7-0.6,1.6-1.4,2.7-2.6l4.6-4.9
		c1.3-1.4,2.6-2.3,3.8-2.8c0.3-0.1,0.4-0.1,0.5-0.1c0.1,0,0.1,0,0.1,0.1l0,0.1c-0.8,0.8-2.2,2.5-4.4,5.1c-2.4,2.9-3.6,4.5-3.6,4.9
		C53.5,60.8,53.6,60.8,53.9,60.8z"/>
	<path d="M56.4,60.3c0-0.6,0.4-1.1,1.1-1.6c0.7-0.5,1.3-0.7,1.9-0.7c0.5,0,0.7,0.2,0.7,0.6c0,0.1,0,0.2-0.1,0.3
		c0.1-0.1,0.4-0.4,0.8-0.9h0.8c-0.4,0.5-0.9,0.9-1.3,1.4c-0.7,0.8-1,1.2-1.1,1.3l0.1,0.1c0.3,0,0.7-0.2,1.3-0.7c0.6-0.5,1-0.7,1-0.7
		l0.1,0.1c0,0.2-0.4,0.5-1.1,0.9c-0.7,0.4-1.2,0.6-1.4,0.6c-0.3,0-0.4-0.2-0.4-0.5c0-0.1,0-0.3,0.1-0.4c-0.7,0.6-1.3,0.8-1.8,0.8
		C56.6,61,56.4,60.8,56.4,60.3z M57.1,60.8c0.4,0,1-0.3,1.7-0.8c0.7-0.6,1.1-1.1,1.1-1.5c0-0.2-0.1-0.4-0.4-0.4
		c-0.4,0-0.9,0.3-1.6,0.9c-0.7,0.6-1.1,1.1-1.1,1.5C56.8,60.7,56.9,60.8,57.1,60.8z"/>
	<path d="M66.9,57.9h0.8L65,61.1c0.6-0.2,1.3-0.6,2-1.2c0.1-0.1,0.3-0.3,0.6-0.5l0.1,0l0.1,0.1l0,0.1c-0.2,0.3-0.7,0.7-1.4,1.1
		c-1,0.5-1.5,0.8-1.6,0.8c-0.2,0.2-0.7,0.6-1.3,1.2c-0.7,0.7-1.2,1.1-1.5,1.4c-0.6,0.4-1.2,0.7-1.7,0.7c-0.4,0-0.6-0.2-0.6-0.5
		c0-0.6,0.5-1.1,1.6-1.7c0.3-0.1,1.1-0.5,2.4-1L65,60c-0.9,0.7-1.7,1-2.2,1c-0.2,0-0.3-0.1-0.4-0.2c-0.1-0.1-0.2-0.3-0.2-0.4
		c0-0.3,0.3-0.7,0.8-1.3c0.5-0.6,0.8-0.9,0.8-0.9l-0.1-0.1c-0.2,0-0.6,0.2-1.1,0.7c-0.5,0.5-0.8,0.8-0.8,0.8l-0.1-0.1
		c0-0.2,0.3-0.5,0.9-0.9c0.6-0.4,1-0.7,1.2-0.7c0.3,0,0.4,0.2,0.4,0.5c0,0.3-0.3,0.7-0.8,1.3c-0.5,0.6-0.8,0.9-0.8,1
		c0,0.1,0.1,0.1,0.2,0.1C63.7,60.8,65,59.8,66.9,57.9z M60.2,64.5c0.6,0,1.2-0.3,1.8-1c0,0,0.5-0.6,1.4-1.7
		c-1.1,0.4-1.8,0.7-2.1,0.9c-1,0.5-1.5,1-1.5,1.5C59.8,64.4,59.9,64.5,60.2,64.5z"/>
	<path d="M72,61h-0.8l3.6-4.3c-0.6,0.3-1.1,0.7-1.7,1c-0.9,0.5-1.4,0.8-1.6,0.8l-0.1-0.1l0.1-0.1c0.5-0.3,2.1-1.2,4.8-2.8
		c0,0,0,0,0.1,0l0.1,0.1c-0.1,0.2-0.8,1.1-2.1,2.6C73.6,59.1,72.8,60.1,72,61z"/>
	<path d="M75.6,60.8c0.6,0,1.3-0.3,2-0.9c0.3-0.2,0.8-0.8,1.5-1.7c-0.7,0.5-1.3,0.8-1.8,0.8c-0.4,0-0.6-0.2-0.6-0.7
		c0-0.6,0.4-1.2,1.2-1.7c0.7-0.5,1.4-0.8,2-0.8c0.5,0,0.8,0.3,0.8,0.8c0,0.9-0.6,1.8-1.9,2.9c-1.2,1-2.3,1.5-3.2,1.5
		c-0.4,0-0.7-0.1-0.7-0.2c0-0.1,0-0.1,0.1-0.1c0.1,0,0.1,0,0.3,0S75.6,60.8,75.6,60.8z M80.1,56c-0.4,0-0.9,0.3-1.7,1
		c-0.8,0.7-1.2,1.2-1.2,1.6c0,0.1,0.1,0.2,0.2,0.2c0.6,0,1.5-0.5,2.4-1.6l0.1,0.1c0.3-0.4,0.5-0.7,0.5-1C80.4,56.1,80.3,56,80.1,56z
		"/>
	<path d="M80.4,60.8c0.6,0,1.3-0.3,2-0.9c0.3-0.2,0.8-0.8,1.5-1.7c-0.7,0.5-1.3,0.8-1.8,0.8c-0.4,0-0.6-0.2-0.6-0.7
		c0-0.6,0.4-1.2,1.2-1.7c0.7-0.5,1.4-0.8,2-0.8c0.5,0,0.8,0.3,0.8,0.8c0,0.9-0.6,1.8-1.9,2.9c-1.2,1-2.3,1.5-3.2,1.5
		c-0.4,0-0.7-0.1-0.7-0.2c0-0.1,0-0.1,0.1-0.1c0.1,0,0.1,0,0.3,0S80.4,60.8,80.4,60.8z M84.8,56c-0.4,0-0.9,0.3-1.7,1
		c-0.8,0.7-1.2,1.2-1.2,1.6c0,0.1,0.1,0.2,0.2,0.2c0.6,0,1.5-0.5,2.4-1.6l0.1,0.1c0.3-0.4,0.5-0.7,0.5-1C85.2,56.1,85.1,56,84.8,56z
		"/>
	<path d="M85.2,60.2c0-0.6,0.3-1,0.9-1.4c0.3-0.2,0.9-0.4,1.7-0.7c-0.1-0.3-0.2-0.5-0.2-0.7c0-0.4,0.2-0.9,0.7-1.3
		c0.5-0.4,0.9-0.6,1.4-0.6c0.2,0,0.4,0.1,0.6,0.2c0.2,0.1,0.3,0.3,0.3,0.5c0,0.6-0.6,1.2-1.9,1.7c0.1,0.3,0.1,0.5,0.1,0.7
		c0,0.6-0.3,1.1-0.9,1.6c-0.6,0.5-1.1,0.7-1.7,0.7C85.6,61,85.2,60.7,85.2,60.2z M86.3,60.8c0.5,0,0.9-0.1,1.3-0.4
		c0.4-0.3,0.6-0.7,0.6-1.2c0-0.2-0.1-0.5-0.3-0.9c-0.6,0.1-1.1,0.3-1.6,0.6c-0.6,0.4-0.9,0.8-0.9,1.3C85.4,60.6,85.7,60.8,86.3,60.8
		z M89.7,55.8c-0.3,0-0.7,0.1-1,0.3c-0.3,0.3-0.5,0.5-0.5,0.9c0,0.2,0.1,0.4,0.3,0.8c1.2-0.4,1.9-0.9,1.9-1.5
		C90.4,55.9,90.2,55.8,89.7,55.8z"/>
</g>
<line fill="none" stroke="#000000" stroke-width="0.25" stroke-miterlimit="10" x1="0" y1="44.3" x2="92" y2="44.3"/>
<line fill="none" stroke="#000000" stroke-width="0.25" stroke-miterlimit="10" x1="0" y1="46.2" x2="92" y2="46.2"/>
</svg>
