<?xml version="1.0" encoding="utf-8"?>
<!-- Generator: Adobe Illustrator 16.0.0, SVG Export Plug-In . SVG Version: 6.00 Build 0)  -->
<!DOCTYPE svg PUBLIC "-//W3C//DTD SVG 1.1//EN" "http://www.w3.org/Graphics/SVG/1.1/DTD/svg11.dtd">
<svg version="1.1" id="Layer_1" xmlns="http://www.w3.org/2000/svg" xmlns:xlink="http://www.w3.org/1999/xlink" x="0px" y="0px"
	 width="33.9px" height="26.7px" viewBox="0 0 33.9 26.7" enable-background="new 0 0 33.9 26.7" xml:space="preserve">
<g>
	<g>
		<g>
			<path d="M21.6,10.5c3.2,0,5.8,2.6,5.8,5.8c0,3.2-2.6,5.8-5.8,5.8s-5.8-2.6-5.8-5.8C15.8,13.1,18.4,10.5,21.6,10.5z"/>
			<path d="M32,3.8h-1.3c-1,0-2.3-0.7-2.8-1.6l-0.4-0.6C27,0.7,25.8,0,24.8,0h-6.5c-1,0-2.3,0.7-2.9,1.5L15,2.2
				c-0.6,0.8-1.9,1.5-2.9,1.5H8.6c-1,0-1.8-0.4-1.8-0.9c0-0.5-0.8-0.9-1.8-0.9H3.4c-1,0-1.8,0.4-1.8,0.9c0,0.5-0.4,0.9-0.8,0.9
				S0,4.6,0,5.6v19.3c0,1,0.8,1.8,1.8,1.8H32c1,0,1.8-0.8,1.8-1.8V5.6C33.9,4.6,33.1,3.8,32,3.8z M4.9,8.9H3.9C2.8,8.9,2,8.2,2,7.3
				s0.8-1.6,1.8-1.6h1.1c1,0,1.8,0.7,1.8,1.6S5.9,8.9,4.9,8.9z M21.6,24.8c-4.7,0-8.5-3.8-8.5-8.5c0-4.7,3.8-8.5,8.5-8.5
				c4.7,0,8.5,3.8,8.5,8.5C30.1,21,26.3,24.8,21.6,24.8z M30.7,8.4c-0.7,0-1.3-0.6-1.3-1.3s0.6-1.3,1.3-1.3S32,6.3,32,7.1
				S31.4,8.4,30.7,8.4z"/>
		</g>
	</g>
</g>
</svg>
