<?xml version="1.0" encoding="utf-8"?>
<!-- Generator: Adobe Illustrator 16.0.0, SVG Export Plug-In . SVG Version: 6.00 Build 0)  -->
<!DOCTYPE svg PUBLIC "-//W3C//DTD SVG 1.1//EN" "http://www.w3.org/Graphics/SVG/1.1/DTD/svg11.dtd">
<svg version="1.1" id="Layer_1" xmlns="http://www.w3.org/2000/svg" xmlns:xlink="http://www.w3.org/1999/xlink" x="0px" y="0px"
	 width="144.3px" height="46.5px" viewBox="0 0 144.3 46.5" enable-background="new 0 0 144.3 46.5" xml:space="preserve">
<g>
	<g>
		<line fill="none" stroke="#000000" stroke-width="0.25" x1="0.4" y1="12.5" x2="144.3" y2="12.5"/>
		<line fill="none" stroke="#000000" stroke-width="0.25" x1="0" y1="26.6" x2="143.9" y2="26.6"/>
		<rect x="48.8" y="21.9" fill="#FFFFFF" width="29.7" height="8.6"/>
		<rect x="52.8" y="9.4" fill="#FFFFFF" width="32.1" height="8.6"/>
		<g>
			<path d="M55.8,9.4c0,3.7,3,5.6,9.1,5.6c1.6,0,3-0.2,4.2-0.5v-0.4c-0.1-3.2,1.8-6.1,5.7-8.6c3.5-2.3,6.9-3.4,10.3-3.4
				c1,0,1.9,0.2,2.6,0.6C88.6,3.2,89,3.9,89,4.8c0,2.2-2.6,4.5-7.9,6.7c-4.1,1.7-7.8,2.8-11.1,3.3c0,0.6,0.2,1.1,0.6,1.6h1.1
				c2.3-0.1,3.5,0.4,3.5,1.6c0,0.6-0.5,1-1.5,1c-0.9,0-2-0.6-3.3-1.9c-3,0.2-5.9,1.3-8.8,3.2c-2.8,1.8-4.9,4.1-6.5,6.8
				c-1.1,1.9-1.7,3.4-1.7,4.5c0,1.3,0.8,2.3,2.5,3c1.2,0.5,2.6,0.7,4.2,0.7c3.1,0,6.3-0.8,9.4-2.3c3.9-1.8,5.8-4.1,5.8-6.9
				c0-0.8-0.4-1.5-1.2-1.9c-0.7-0.3-1.4-0.5-2.3-0.5c-2.5,0-5.2,0.9-8.2,2.7c-2.5,1.5-4.7,3.5-6.7,5.7l-0.2,0.1L56.4,32l0-0.2
				c1.3-2.1,3.6-4.1,6.8-5.9c3.2-1.8,6.1-2.8,8.6-2.8c1,0,1.9,0.2,2.7,0.7c1,0.5,1.4,1.3,1.4,2.2c0,3-2,5.6-6,7.5
				c-3.3,1.6-6.6,2.4-10,2.4c-2.3,0-4.1-0.4-5.6-1.3c-1.8-1.1-2.7-2.6-2.7-4.8c0-3.8,2.2-7,6.5-9.6c3.6-2.2,7.5-3.4,11.7-3.8
				l-0.7-1.4c-1.3,0.3-2.8,0.5-4.4,0.5c-6.4,0-9.5-2-9.5-6.1c0-3.2,1.9-5.6,5.7-7.4c3.1-1.4,6.4-2.1,9.9-2l0.7,0l0.4,0.3l-0.3,0.3
				c-1.9,0.2-3.8,0.5-5.7,0.7c-2.3,0.3-4.2,0.8-5.5,1.5c-1.8,0.9-3.2,2.3-4,4.1C55.9,7.7,55.8,8.5,55.8,9.4z M88.4,4.8
				c0-0.7-0.3-1.3-1-1.6c-0.6-0.3-1.2-0.5-1.9-0.5c-2.7,0-5.7,1.3-9,3.9c-3.1,2.5-5.2,5.1-6.3,7.7c3.2-0.6,6.7-1.7,10.6-3.3
				C85.8,8.9,88.4,6.8,88.4,4.8z M73.8,18.4c0.4,0,0.6-0.1,0.6-0.4c0-0.6-0.9-0.9-2.6-0.9h-0.4C72.3,18,73.1,18.4,73.8,18.4z"/>
		</g>
	</g>
	<g>
		<path d="M1.3,21.7c-0.9-0.8-1.1-1.8-1.1-2.6c0-0.6,0.2-1.6,1-2.4c0.5-0.5,1.3-1,2.7-1c0.4,0,0.9,0,1.3,0.1
			c0.3,0.1,0.6,0.1,0.9,0.1c0.1,0,0.1,0,0.1,0.1c0,0.1,0,0.2,0,0.5c0,0.3,0,0.8,0,0.9c0,0.1,0,0.2-0.1,0.2C6,17.6,6,17.5,6,17.4
			c0-0.3-0.1-0.7-0.4-0.9c-0.3-0.3-1-0.5-1.8-0.5c-1.2,0-1.7,0.3-2.1,0.7C1.1,17.3,1,18.1,1,19c0,1.7,1.3,3.3,3.2,3.3
			c0.7,0,1.2-0.1,1.6-0.4c0.2-0.2,0.3-0.6,0.3-0.8c0-0.1,0-0.1,0.1-0.1c0,0,0.1,0.1,0.1,0.1c0,0.1-0.1,0.8-0.2,1.1
			C6,22.4,6,22.4,5.8,22.4c-0.4,0.1-1,0.2-1.6,0.2C2.9,22.6,2,22.3,1.3,21.7z"/>
		<path d="M13.6,20c0,1.3,0,1.9,0.2,2c0.1,0.1,0.4,0.2,1.1,0.2c0.5,0,0.9,0,1.1-0.3c0.1-0.1,0.2-0.4,0.2-0.5c0-0.1,0-0.1,0.1-0.1
			c0,0,0.1,0,0.1,0.1s-0.1,0.6-0.1,0.9c-0.1,0.2-0.1,0.2-0.6,0.2c-0.6,0-1.1,0-1.5,0c-0.4,0-0.7,0-0.9,0c0,0-0.2,0-0.4,0
			c-0.2,0-0.4,0-0.5,0c-0.1,0-0.1,0-0.1-0.1c0,0,0-0.1,0.1-0.1c0.1,0,0.2,0,0.3,0c0.2,0,0.2-0.2,0.3-0.5c0-0.4,0-1.1,0-1.9v-1.6
			c0-1.4,0-1.6,0-1.9c0-0.3-0.1-0.4-0.4-0.5c-0.1,0-0.2,0-0.3,0c0,0-0.1,0-0.1-0.1c0-0.1,0-0.1,0.1-0.1c0.4,0,1,0,1,0c0,0,0.7,0,1,0
			c0.1,0,0.1,0,0.1,0.1c0,0,0,0.1-0.1,0.1c-0.1,0-0.2,0-0.3,0c-0.3,0-0.3,0.2-0.3,0.5c0,0.3,0,0.5,0,1.9V20z"/>
		<path d="M24,16c0.1-0.3,0.1-0.3,0.2-0.3c0.1,0,0.1,0,0.2,0.3c0.1,0.3,1.5,4,2.1,5.4c0.3,0.8,0.6,0.9,0.8,1c0.1,0,0.3,0.1,0.4,0.1
			c0.1,0,0.1,0,0.1,0.1c0,0.1-0.1,0.1-0.2,0.1c-0.1,0-0.8,0-1.4,0c-0.2,0-0.3,0-0.3-0.1c0,0,0-0.1,0.1-0.1c0.1,0,0.1-0.1,0.1-0.2
			l-0.8-2.2c0,0,0-0.1-0.1-0.1h-1.9c0,0-0.1,0-0.1,0.1l-0.5,1.6c-0.1,0.2-0.1,0.4-0.1,0.6c0,0.2,0.2,0.3,0.3,0.3h0.1
			c0.1,0,0.1,0,0.1,0.1c0,0.1-0.1,0.1-0.1,0.1c-0.2,0-0.6,0-0.7,0c-0.1,0-0.6,0-1,0c-0.1,0-0.2,0-0.2-0.1c0,0,0-0.1,0.1-0.1
			c0.1,0,0.2,0,0.3,0c0.4-0.1,0.6-0.4,0.8-0.8L24,16z M24.9,19.6C24.9,19.6,24.9,19.5,24.9,19.6l-0.8-2.5c0-0.1-0.1-0.1-0.1,0
			l-0.8,2.4c0,0,0,0.1,0,0.1H24.9z"/>
		<path d="M34.1,19.9c0,0.9,0,1.6,0,1.9c0,0.3,0.1,0.5,0.3,0.5c0.1,0,0.3,0,0.4,0c0.1,0,0.1,0,0.1,0.1c0,0,0,0.1-0.1,0.1
			c-0.5,0-1.1,0-1.1,0c0,0-0.6,0-0.9,0c-0.1,0-0.1,0-0.1-0.1c0,0,0-0.1,0.1-0.1c0.1,0,0.2,0,0.3,0c0.2,0,0.2-0.2,0.3-0.5
			c0-0.4,0-1.1,0-1.9v-1.6c0-1.4,0-1.6,0-1.9c0-0.3-0.1-0.5-0.3-0.5c-0.1,0-0.2,0-0.3,0c0,0-0.1,0-0.1-0.1c0-0.1,0-0.1,0.1-0.1
			c0.3,0,0.9,0,0.9,0c0,0,0.6,0,0.9,0c0.1,0,0.1,0,0.1,0.1c0,0,0,0.1-0.1,0.1c-0.1,0-0.1,0-0.2,0c-0.2,0-0.3,0.2-0.3,0.5
			c0,0.3,0,0.5,0,1.9V19.9z"/>
		<path d="M41.8,18.4c0-1.4,0-1.6,0-1.9c0-0.3-0.1-0.4-0.4-0.5c-0.1,0-0.2,0-0.3,0c0,0-0.1,0-0.1-0.1c0-0.1,0-0.1,0.1-0.1
			c0.4,0,1,0,1,0c0.1,0,0.8,0,1.1,0c0.6,0,1.2,0.1,1.6,0.4c0.2,0.2,0.6,0.6,0.6,1.2c0,0.7-0.3,1.3-1.1,2.1c0.7,0.9,1.3,1.7,1.9,2.3
			c0.5,0.5,0.9,0.6,1.1,0.6c0.2,0,0.3,0,0.3,0c0,0,0.1,0,0.1,0.1c0,0.1-0.1,0.1-0.2,0.1h-0.6c-0.5,0-0.7,0-1-0.2
			c-0.4-0.2-0.7-0.6-1.2-1.3c-0.4-0.5-0.8-1.1-1-1.3c0,0-0.1-0.1-0.1-0.1l-1.1,0c0,0-0.1,0-0.1,0.1v0.2c0,0.9,0,1.6,0,1.9
			c0,0.3,0.1,0.5,0.3,0.5c0.1,0,0.3,0,0.4,0c0.1,0,0.1,0,0.1,0.1c0,0,0,0.1-0.1,0.1c-0.5,0-1.1,0-1.1,0c0,0-0.6,0-0.8,0
			c-0.1,0-0.1,0-0.1-0.1c0,0,0-0.1,0.1-0.1c0.1,0,0.2,0,0.3,0c0.2,0,0.2-0.2,0.3-0.5c0-0.4,0-1.1,0-1.9V18.4z M42.5,19.1
			c0,0,0,0.1,0.1,0.1c0.1,0.1,0.5,0.1,0.9,0.1c0.2,0,0.5,0,0.7-0.2c0.3-0.2,0.5-0.7,0.5-1.4c0-1.1-0.6-1.8-1.5-1.8
			c-0.3,0-0.5,0-0.6,0.1c0,0-0.1,0.1-0.1,0.1V19.1z"/>
		<path d="M82.4,18.4c0-1.4,0-1.6,0-1.9c0-0.3-0.1-0.4-0.4-0.5c-0.1,0-0.2,0-0.3,0c0,0-0.1,0-0.1-0.1c0-0.1,0-0.1,0.1-0.1
			c0.4,0,1,0,1,0c0.1,0,0.7,0,1.2,0c0.9,0,2.5-0.1,3.6,1c0.4,0.5,0.9,1.2,0.9,2.3c0,1.1-0.5,2-1,2.5c-0.4,0.4-1.2,1-2.7,1
			c-0.4,0-0.9,0-1.2-0.1c-0.4,0-0.7-0.1-0.7-0.1c0,0-0.2,0-0.4,0c-0.2,0-0.4,0-0.5,0c-0.1,0-0.1,0-0.1-0.1c0,0,0-0.1,0.1-0.1
			c0.1,0,0.2,0,0.3,0c0.2,0,0.2-0.2,0.3-0.5c0-0.4,0-1.1,0-1.9V18.4z M83.2,19.3c0,0.9,0,1.8,0,1.9c0,0.2,0,0.6,0.1,0.7
			c0.1,0.2,0.5,0.4,1.5,0.4c0.8,0,1.6-0.3,2.1-0.8c0.5-0.5,0.7-1.3,0.7-2.1c0-1.1-0.5-1.9-0.9-2.2c-0.8-0.9-1.9-1-2.9-1
			c-0.2,0-0.5,0-0.6,0.1c-0.1,0-0.1,0.1-0.1,0.2c0,0.3,0,1.2,0,1.9V19.3z"/>
		<path d="M96.3,16c0.1-0.3,0.1-0.3,0.2-0.3s0.1,0,0.2,0.3c0.1,0.3,1.5,4,2.1,5.4c0.3,0.8,0.6,0.9,0.8,1c0.1,0,0.3,0.1,0.4,0.1
			c0.1,0,0.1,0,0.1,0.1c0,0.1-0.1,0.1-0.2,0.1c-0.1,0-0.8,0-1.4,0c-0.2,0-0.3,0-0.3-0.1c0,0,0-0.1,0.1-0.1c0.1,0,0.1-0.1,0.1-0.2
			l-0.8-2.2c0,0,0-0.1-0.1-0.1h-1.9c0,0-0.1,0-0.1,0.1l-0.5,1.6c-0.1,0.2-0.1,0.4-0.1,0.6c0,0.2,0.2,0.3,0.3,0.3h0.1
			c0.1,0,0.1,0,0.1,0.1c0,0.1-0.1,0.1-0.1,0.1c-0.2,0-0.6,0-0.7,0c-0.1,0-0.6,0-1,0c-0.1,0-0.2,0-0.2-0.1c0,0,0-0.1,0.1-0.1
			c0.1,0,0.2,0,0.3,0c0.4-0.1,0.6-0.4,0.8-0.8L96.3,16z M97.2,19.6C97.2,19.6,97.2,19.5,97.2,19.6l-0.8-2.5c0-0.1-0.1-0.1-0.1,0
			l-0.8,2.4c0,0,0,0.1,0,0.1H97.2z"/>
		<path d="M105.7,18.4c0-1.4,0-1.6,0-1.9c0-0.3-0.1-0.4-0.4-0.5c-0.1,0-0.2,0-0.3,0c0,0-0.1,0-0.1-0.1c0-0.1,0-0.1,0.1-0.1
			c0.4,0,1,0,1,0c0.1,0,0.8,0,1.1,0c0.6,0,1.2,0.1,1.6,0.4c0.2,0.2,0.6,0.6,0.6,1.2c0,0.7-0.3,1.3-1.1,2.1c0.7,0.9,1.3,1.7,1.9,2.3
			c0.5,0.5,0.9,0.6,1.1,0.6c0.2,0,0.3,0,0.3,0c0,0,0.1,0,0.1,0.1c0,0.1-0.1,0.1-0.2,0.1h-0.6c-0.5,0-0.7,0-1-0.2
			c-0.4-0.2-0.7-0.6-1.2-1.3c-0.4-0.5-0.8-1.1-1-1.3c0,0-0.1-0.1-0.1-0.1l-1.1,0c0,0-0.1,0-0.1,0.1v0.2c0,0.9,0,1.6,0,1.9
			c0,0.3,0.1,0.5,0.3,0.5c0.1,0,0.3,0,0.4,0c0.1,0,0.1,0,0.1,0.1c0,0,0,0.1-0.1,0.1c-0.5,0-1.1,0-1.1,0c0,0-0.6,0-0.8,0
			c-0.1,0-0.1,0-0.1-0.1c0,0,0-0.1,0.1-0.1c0.1,0,0.2,0,0.3,0c0.2,0,0.2-0.2,0.3-0.5c0-0.4,0-1.1,0-1.9V18.4z M106.4,19.1
			c0,0,0,0.1,0.1,0.1c0.1,0.1,0.5,0.1,0.9,0.1c0.2,0,0.5,0,0.7-0.2c0.3-0.2,0.5-0.7,0.5-1.4c0-1.1-0.6-1.8-1.5-1.8
			c-0.3,0-0.5,0-0.6,0.1c0,0-0.1,0.1-0.1,0.1V19.1z"/>
		<path d="M116.9,18.4c0-1.4,0-1.6,0-1.9c0-0.3-0.1-0.4-0.4-0.5c-0.1,0-0.2,0-0.3,0c0,0-0.1,0-0.1-0.1c0-0.1,0-0.1,0.1-0.1
			c0.4,0,1,0,1,0c0.1,0,0.8,0,1.1,0c0.6,0,1.2,0.1,1.6,0.4c0.2,0.2,0.6,0.6,0.6,1.2c0,0.7-0.3,1.3-1.1,2.1c0.7,0.9,1.3,1.7,1.9,2.3
			c0.5,0.5,0.9,0.6,1.1,0.6c0.2,0,0.3,0,0.3,0c0,0,0.1,0,0.1,0.1c0,0.1-0.1,0.1-0.2,0.1H122c-0.5,0-0.7,0-1-0.2
			c-0.4-0.2-0.7-0.6-1.2-1.3c-0.4-0.5-0.8-1.1-1-1.3c0,0-0.1-0.1-0.1-0.1l-1.1,0c0,0-0.1,0-0.1,0.1v0.2c0,0.9,0,1.6,0,1.9
			c0,0.3,0.1,0.5,0.3,0.5c0.1,0,0.3,0,0.4,0c0.1,0,0.1,0,0.1,0.1c0,0,0,0.1-0.1,0.1c-0.5,0-1.1,0-1.1,0c0,0-0.6,0-0.8,0
			c-0.1,0-0.1,0-0.1-0.1c0,0,0-0.1,0.1-0.1c0.1,0,0.2,0,0.3,0c0.2,0,0.2-0.2,0.3-0.5c0-0.4,0-1.1,0-1.9V18.4z M117.6,19.1
			c0,0,0,0.1,0.1,0.1c0.1,0.1,0.5,0.1,0.9,0.1c0.2,0,0.5,0,0.7-0.2c0.3-0.2,0.5-0.7,0.5-1.4c0-1.1-0.6-1.8-1.5-1.8
			c-0.3,0-0.5,0-0.6,0.1c0,0-0.1,0.1-0.1,0.1V19.1z"/>
		<path d="M128.1,18.4c0-1.4,0-1.6,0-1.9c0-0.3-0.1-0.4-0.4-0.5c-0.1,0-0.2,0-0.3,0c0,0-0.1,0-0.1-0.1c0-0.1,0-0.1,0.1-0.1
			c0.2,0,0.4,0,0.6,0l0.4,0c0.1,0,1.8,0,2,0c0.2,0,0.3,0,0.4,0c0,0,0.1,0,0.1,0c0,0,0,0,0,0.1c0,0.1,0,0.2-0.1,0.4
			c0,0.1,0,0.5,0,0.6c0,0,0,0.1-0.1,0.1c-0.1,0-0.1,0-0.1-0.1c0-0.1,0-0.2-0.1-0.3c-0.1-0.1-0.2-0.3-0.6-0.3c-0.2,0-1.1,0-1.2,0
			c0,0-0.1,0-0.1,0.1v2.5c0,0.1,0,0.1,0.1,0.1c0.1,0,1.2,0,1.4,0c0.2,0,0.3,0,0.4-0.1c0.1-0.1,0.1-0.1,0.1-0.1c0,0,0,0,0,0.1
			c0,0.1,0,0.2-0.1,0.5c0,0.2,0,0.5,0,0.6c0,0.1,0,0.2-0.1,0.2c0,0-0.1,0-0.1-0.1c0-0.1,0-0.2,0-0.3c0-0.1-0.1-0.3-0.5-0.3
			c-0.2,0-1.1,0-1.3,0c0,0-0.1,0-0.1,0.1v0.8c0,0.3,0,1.3,0,1.5c0,0.6,0.2,0.7,1,0.7c0.2,0,0.6,0,0.9-0.1c0.2-0.1,0.3-0.3,0.4-0.6
			c0-0.1,0-0.1,0.1-0.1c0.1,0,0.1,0.1,0.1,0.1c0,0.1-0.1,0.7-0.1,0.9c-0.1,0.2-0.1,0.2-0.5,0.2c-0.7,0-1.2,0-1.5,0
			c-0.3,0-0.6,0-0.7,0c0,0-0.2,0-0.4,0c-0.2,0-0.4,0-0.5,0c-0.1,0-0.1,0-0.1-0.1c0,0,0-0.1,0.1-0.1c0.1,0,0.2,0,0.3,0
			c0.2,0,0.2-0.2,0.3-0.5c0-0.4,0-1.1,0-1.9V18.4z"/>
		<path d="M138.2,21.3c0,0.7,0.1,1,0.3,1c0.2,0,0.4,0.1,0.4,0.1c0,0,0.1,0,0.1,0.1c0,0.1-0.1,0.1-0.2,0.1c-0.5,0-0.9,0-0.9,0
			c-0.1,0-0.5,0-0.9,0c-0.1,0-0.1,0-0.1-0.1c0,0,0-0.1,0.1-0.1c0.1,0,0.2,0,0.4-0.1c0.2-0.1,0.3-0.3,0.3-1.1l0-5.1
			c0-0.3,0-0.4,0.1-0.4s0.2,0.2,0.3,0.3c0.1,0.2,1.5,1.6,2.8,3.1c0.9,0.9,1.9,2,2.1,2.3l-0.1-4.5c0-0.6-0.1-0.8-0.3-0.8
			c-0.2,0-0.4,0-0.4,0c-0.1,0-0.1,0-0.1-0.1c0-0.1,0.1-0.1,0.2-0.1c0.4,0,0.8,0,0.9,0s0.4,0,0.8,0c0.1,0,0.2,0,0.2,0.1
			c0,0,0,0.1-0.1,0.1c0,0-0.1,0-0.2,0c-0.3,0.1-0.3,0.3-0.3,0.8l0,5.2c0,0.6,0,0.6-0.1,0.6c-0.1,0-0.2-0.1-0.7-0.6
			c-0.1-0.1-1.4-1.4-2.3-2.4c-1-1.1-2-2.2-2.3-2.6L138.2,21.3z"/>
	</g>
	<g>
		<path d="M36.9,46.1c-0.9,0.2-1.7,0.2-2.3,0.2c-1.2,0-1.7-0.2-1.7-0.6c0-0.3,0.4-0.4,1.3-0.4c0.8,0,1.7,0.2,2.7,0.6
			c0.9-0.3,1.5-0.6,2-1c0.4-0.3,1-0.9,1.6-1.6c0.8-1,1.4-1.7,1.8-2.1c0.7-0.8,1.4-1.4,2.1-1.8c-0.2-0.8-0.8-1.4-1.6-1.8
			c-0.7-0.3-1.5-0.5-2.4-0.5c-1.9,0-3.4,0.7-4.7,2c-1,1.1-1.5,1.9-1.5,2.6c0,0.4,0.3,0.7,0.8,1c0.4,0.2,0.9,0.3,1.3,0.3
			c1,0,2-0.3,3.1-0.8c1.3-0.6,2-1.4,2-2.3c0-0.3-0.2-0.5-0.5-0.7c-0.3-0.1-0.5-0.2-0.9-0.2c-0.8,0-1.7,0.3-2.6,1
			c-0.7,0.5-1.4,1.2-2.1,2.1l-0.1,0L35.3,42l0-0.1c0.4-0.7,1.1-1.4,2.1-2.1c1.1-0.7,2-1,2.7-1c0.4,0,0.7,0.1,1,0.3
			c0.3,0.2,0.5,0.5,0.5,0.8c0,0.9-0.7,1.7-2,2.4c-1.1,0.6-2.2,0.8-3.3,0.8c-0.6,0-1.2-0.2-1.6-0.5c-0.5-0.4-0.7-0.8-0.7-1.5
			c0-1.3,0.8-2.4,2.4-3.2c1.3-0.7,2.7-1.1,4.2-1.1c0.9,0,1.7,0.2,2.4,0.5c0.9,0.4,1.4,1,1.6,1.8c1.1-0.8,1.8-1.2,2-1.2l0.1,0.1
			l0,0.1c-0.5,0.2-1.1,0.6-2,1.2c0,0.2,0,0.5,0,0.7c0,1.7-0.6,3.1-1.8,4.4c-1.2,1.2-2.6,1.9-4.3,1.9C38,46.3,37.4,46.2,36.9,46.1z
			 M36.7,45.9c-0.8-0.3-1.6-0.5-2.4-0.5c-0.8,0-1.1,0.1-1.1,0.3c0,0.3,0.5,0.4,1.6,0.4C35.3,46.1,35.9,46.1,36.7,45.9z M37.1,45.9
			c0.4,0.1,0.9,0.2,1.3,0.2c1.7,0,3.1-0.6,4.3-1.7c1.2-1.2,1.8-2.6,1.8-4.2c0-0.1,0-0.4,0-0.7c-0.6,0.3-1.1,0.8-1.5,1.4
			c-0.4,0.6-0.8,1.2-1.1,1.8c-0.7,1-1.3,1.7-2,2.2C39.3,45.2,38.4,45.5,37.1,45.9z"/>
		<path d="M46.5,44.8l0.1,0.1l0,0.1c-1.2,0.8-2,1.3-2.4,1.3c-0.6,0-0.8-0.2-0.8-0.6c0-0.5,0.3-0.9,0.9-1.4c0.6-0.4,1.1-0.7,1.5-0.7
			c0.3,0,0.4,0.1,0.4,0.3c0,0.3-0.2,0.5-0.6,0.7c-0.4,0.2-0.8,0.3-1.1,0.5c-0.4,0.2-0.6,0.5-0.6,0.8c0,0.2,0.1,0.2,0.3,0.2
			c0.4,0,0.9-0.2,1.5-0.6C46.2,45,46.5,44.8,46.5,44.8z M44.5,44.7c1-0.3,1.4-0.6,1.4-0.9c0-0.1,0-0.1-0.1-0.1
			C45.5,43.7,45,44.1,44.5,44.7z"/>
		<path d="M47,46.1c0.4,0,0.9-0.2,1.5-0.6c0.7-0.4,1-0.6,1-0.6l0.1,0.1c0,0.2-0.4,0.4-1.2,0.8c-0.8,0.3-1.3,0.5-1.5,0.5
			c-0.4,0-0.6-0.2-0.6-0.7c0-0.5,0.3-0.9,0.9-1.4c0.6-0.4,1.1-0.6,1.5-0.6c0.4,0,0.6,0.1,0.6,0.4c0,0.1,0,0.2-0.1,0.3
			c-0.1,0.1-0.2,0.1-0.3,0.1c-0.2,0-0.3-0.1-0.3-0.2c0-0.2,0.1-0.3,0.4-0.3c0.1,0,0.1,0,0.2,0.1c-0.1-0.1-0.2-0.2-0.3-0.2
			c-0.3,0-0.8,0.3-1.3,0.8c-0.5,0.5-0.8,1-0.8,1.3C46.6,46,46.7,46.1,47,46.1z"/>
		<path d="M52.3,44.8l0.1,0.1l0,0.1c-1.2,0.8-2,1.3-2.4,1.3c-0.6,0-0.8-0.2-0.8-0.6c0-0.5,0.3-0.9,0.9-1.4c0.6-0.4,1.1-0.7,1.5-0.7
			c0.3,0,0.4,0.1,0.4,0.3c0,0.3-0.2,0.5-0.6,0.7c-0.4,0.2-0.8,0.3-1.1,0.5c-0.4,0.2-0.6,0.5-0.6,0.8c0,0.2,0.1,0.2,0.3,0.2
			c0.4,0,0.9-0.2,1.5-0.6C52,45,52.3,44.8,52.3,44.8z M50.3,44.7c1-0.3,1.4-0.6,1.4-0.9c0-0.1,0-0.1-0.1-0.1
			C51.3,43.7,50.9,44.1,50.3,44.7z"/>
		<path d="M57.8,45.9l0.1,0.1c0.3,0,0.7-0.2,1.3-0.6c0.6-0.4,0.9-0.6,0.9-0.6l0,0.1c0,0.2-0.3,0.5-1,0.8c-0.7,0.3-1.1,0.5-1.3,0.5
			c-0.3,0-0.4-0.1-0.4-0.4c0-0.3,0.2-0.6,0.6-1.1c0.3-0.3,0.6-0.6,0.9-1l-0.1,0c-0.7,0-1.8,0.8-3.3,2.5h-0.7l2.1-2.5l-0.1,0
			c-0.7,0-1.8,0.8-3.3,2.5h-0.7c0.6-0.8,1.3-1.6,2-2.4l-0.1-0.1c-0.2,0-0.6,0.2-1.1,0.6c-0.6,0.4-0.9,0.6-0.9,0.6l-0.1-0.1
			c0-0.2,0.3-0.4,1-0.8c0.6-0.4,1-0.6,1.2-0.6c0.1,0,0.2,0,0.2,0.1s0.1,0.2,0.1,0.2c0,0.2-0.1,0.4-0.3,0.7c0.9-0.7,1.6-1.1,2-1.1
			c0.2,0,0.3,0.1,0.3,0.4c0,0.2-0.1,0.4-0.2,0.7c0.9-0.7,1.5-1.1,2-1.1c0.2,0,0.4,0.1,0.4,0.4c0,0.3-0.2,0.7-0.6,1.2
			C58,45.6,57.8,45.9,57.8,45.9z"/>
		<path d="M64,43.7c0,0.3-0.3,0.8-0.9,1.3c0.1,0,0.1,0.1,0.2,0.1c0.1,0,0.2,0,0.4-0.1c0.2-0.1,0.3-0.1,0.4-0.1l0.1,0.1l0,0.1
			c-0.3,0.1-0.5,0.2-0.7,0.2c-0.2,0-0.3,0-0.4-0.1c-0.3,0.3-0.7,0.5-1.1,0.8c-0.5,0.3-0.9,0.4-1.3,0.4c-0.3,0-0.5-0.2-0.5-0.5
			c0-0.2,0.1-0.4,0.4-0.7c0.2-0.2,0.4-0.4,0.6-0.6c-0.2,0.2-0.5,0.4-0.9,0.6l0-0.1l0-0.1c0.1-0.2,0.4-0.4,0.8-0.6
			c0.4-0.3,0.7-0.5,0.9-0.6c0.4-0.5,0.8-1,1.3-1.5c0.8-0.9,1.5-1.7,2.1-2.2c0.8-0.8,1.5-1.1,1.9-1.1c0.1,0,0.2,0,0.3,0.1
			c0.1,0.1,0.1,0.2,0.1,0.3c0,0.7-1,1.7-3.1,2.9c-0.3,0.2-0.8,0.4-1.3,0.8c-0.4,0.3-0.8,0.8-1.3,1.4c-0.4,0.5-0.8,1-1.2,1.5
			c-0.1,0.1-0.1,0.1-0.1,0.2c0,0.1,0.1,0.1,0.2,0.1c0.2,0,0.6-0.1,1.1-0.4c0.4-0.2,0.8-0.5,1-0.7l0-0.1c0-0.2,0.1-0.5,0.4-0.8
			c0.3-0.3,0.5-0.5,0.7-0.5C63.9,43.6,64,43.6,64,43.7z M63.2,42.6c1.3-0.8,2.1-1.3,2.4-1.5c1.1-0.8,1.7-1.4,1.7-1.9
			c0-0.2-0.1-0.3-0.3-0.3c-0.5,0-1.2,0.5-2.1,1.5C64.6,40.7,64.1,41.4,63.2,42.6z"/>
		<path d="M66.9,44.8l0.1,0.1l0,0.1c-1.2,0.8-2,1.3-2.4,1.3c-0.6,0-0.8-0.2-0.8-0.6c0-0.5,0.3-0.9,0.9-1.4c0.6-0.4,1.1-0.7,1.5-0.7
			c0.3,0,0.4,0.1,0.4,0.3c0,0.3-0.2,0.5-0.6,0.7c-0.4,0.2-0.8,0.3-1.1,0.5c-0.4,0.2-0.6,0.5-0.6,0.8c0,0.2,0.1,0.2,0.3,0.2
			c0.4,0,0.9-0.2,1.5-0.6C66.5,45,66.9,44.8,66.9,44.8z M64.9,44.7c1-0.3,1.4-0.6,1.4-0.9c0-0.1,0-0.1-0.1-0.1
			C65.8,43.7,65.4,44.1,64.9,44.7z"/>
		<path d="M66.8,44.9c0.5-0.4,0.9-0.8,1.2-1.1c-0.2-0.1-0.2-0.2-0.2-0.3c0-0.3,0.1-0.4,0.4-0.4c0.2,0,0.3,0.1,0.3,0.3
			c0,0.1,0,0.2-0.1,0.2c0.3,0,0.5,0,0.7-0.1l0.2,0.5c-0.3,0.3-0.6,0.6-0.9,1c-0.5,0.5-0.7,0.8-0.7,0.9c0,0.1,0,0.1,0.1,0.1
			c0.5,0,1.2-0.4,2.1-1.2l0.1,0.1c0,0.1-0.4,0.4-1.1,0.8c-0.7,0.4-1.1,0.5-1.3,0.5c-0.3,0-0.4-0.2-0.4-0.5c0-0.3,0.2-0.6,0.6-1.1
			c0.3-0.3,0.6-0.6,0.9-0.9c-0.1,0-0.3,0-0.4,0C67.4,44.6,67,45,66.8,45L66.8,44.9L66.8,44.9z"/>
		<path d="M76.1,44.1c0,0.6-0.4,1.1-1.2,1.5c-0.7,0.4-1.4,0.6-2,0.6c-0.2,0-0.4-0.1-0.6-0.2c-0.2-0.1-0.3-0.3-0.3-0.5
			c0-0.1,0-0.3,0.1-0.4c0.1-0.1,0.2-0.2,0.3-0.2c0.2,0,0.3,0.1,0.3,0.3c0,0.3-0.1,0.4-0.4,0.4c0,0-0.1,0-0.2-0.1
			c0,0.1,0.1,0.2,0.2,0.3c0.1,0.1,0.2,0.1,0.4,0.1c0.4,0,1-0.3,1.8-0.8c0.8-0.5,1.2-1,1.2-1.4c0-0.1-0.1-0.2-0.2-0.2
			c-0.1,0-0.4,0.1-0.6,0.2c-0.3,0.1-0.5,0.2-0.6,0.2l-0.1-0.1l0.1-0.1c0.1-0.1,0.4-0.2,0.7-0.3c0.3-0.1,0.5-0.2,0.7-0.3
			c0.2-0.1,0.4-0.3,0.6-0.6c0.3-0.3,0.5-0.5,0.5-0.7c0-0.1,0-0.1,0-0.1c0-0.1-0.1-0.2-0.2-0.2c-0.2,0-0.5,0.1-1,0.4
			c-0.5,0.3-0.7,0.5-0.7,0.7c0,0.1,0,0.1,0.1,0.1c0.2,0,0.5-0.2,0.9-0.5c0.2-0.2,0.4-0.4,0.6-0.5l0.1,0.1c0,0.1-0.2,0.4-0.7,0.7
			c-0.4,0.3-0.7,0.5-0.9,0.5c-0.1,0-0.2,0-0.3-0.1c-0.1-0.1-0.1-0.2-0.1-0.3c0-0.3,0.2-0.6,0.7-0.9c0.4-0.2,0.8-0.3,1.1-0.3
			c0.2,0,0.4,0.1,0.5,0.2c0.2,0.1,0.3,0.3,0.3,0.5c0,0.3-0.2,0.6-0.6,0.9c-0.1,0.1-0.4,0.2-1,0.5C75.9,43.6,76.1,43.8,76.1,44.1z"/>
		<path d="M76.8,45.2c0.1,0,0.2,0.1,0.2,0.2c0,0.1-0.2,0.3-0.5,0.7c-0.4,0.3-0.6,0.5-0.7,0.5l-0.1-0.1c0-0.1,0.2-0.3,0.5-0.7
			S76.8,45.2,76.8,45.2z"/>
		<path d="M82.5,46c0.2,0,0.6-0.2,1-0.5c0.5-0.3,0.7-0.5,0.8-0.5l0.1,0.1c0,0.1-0.3,0.4-0.9,0.7c-0.5,0.3-0.9,0.5-1.1,0.5
			c-0.1,0-0.2,0-0.3-0.1C82.1,46,82,46,82,45.8c0-0.1,0-0.3,0.1-0.4c-0.3,0-0.6,0.2-1.1,0.4c-0.5,0.2-0.7,0.3-0.8,0.3l-0.1-0.1
			l0.1-0.1c0.2-0.1,0.4-0.2,0.7-0.4c0.9-0.5,1.9-1.2,2.9-2.2c-0.5,0.3-1,0.5-1.3,0.5c-0.1,0-0.2,0-0.3-0.1s-0.1-0.2-0.1-0.3
			c0-0.5,0.3-0.9,1-1.3c0.6-0.4,1.1-0.5,1.7-0.5c0.4,0,0.7,0.2,0.7,0.6c0,0.5-0.5,1.1-1.4,1.8c-0.2,0.1-0.9,0.6-2,1.3
			c0.4,0,0.6,0.1,0.6,0.4C82.7,45.8,82.6,45.9,82.5,46z M84.9,42.2L84.9,42.2c0.2-0.1,0.3-0.2,0.3-0.3c0-0.1-0.1-0.1-0.2-0.1
			c-0.3,0-0.8,0.2-1.5,0.6c-0.7,0.4-1,0.8-1,1.1c0,0.1,0.1,0.2,0.3,0.2c0.3,0,0.6-0.1,0.9-0.4c0.2-0.1,0.4-0.4,0.7-0.7
			C84.6,42.4,84.8,42.2,84.9,42.2z"/>
		<path d="M85.9,46.2c-0.2,0-0.4-0.1-0.5-0.2c-0.1-0.1-0.2-0.3-0.2-0.5c0-0.7,0.5-1.5,1.6-2.5c1-0.9,1.9-1.4,2.6-1.4
			c0.2,0,0.3,0.1,0.4,0.2c0.1,0.1,0.2,0.3,0.2,0.4c0,0.6-0.5,1.5-1.5,2.5C87.3,45.7,86.5,46.2,85.9,46.2z M85.9,46.1
			c0.6,0,1.3-0.5,2.3-1.5c1-1,1.5-1.8,1.5-2.4c0-0.1,0-0.2-0.1-0.3c-0.1-0.1-0.2-0.1-0.3-0.1c-0.4,0-1.2,0.5-2.3,1.6
			s-1.6,1.8-1.6,2.3C85.5,45.9,85.6,46.1,85.9,46.1z"/>
		<path d="M90.1,46.2h-0.7l3.1-3.7c-0.5,0.3-1,0.6-1.5,0.9c-0.8,0.4-1.2,0.7-1.4,0.7L89.6,44l0-0.1c0.5-0.2,1.9-1.1,4.2-2.4
			c0,0,0,0,0.1,0l0.1,0.1c-0.1,0.2-0.7,0.9-1.8,2.2C91.5,44.6,90.8,45.4,90.1,46.2z"/>
		<path d="M95.7,41.8c0.3-0.1,0.6-0.2,0.9-0.2c0.1,0,0.3,0,0.5,0.1c0.2,0,0.4,0.1,0.5,0.1c0.3,0,0.6-0.1,0.7-0.2l0.1,0.1l0,0.1
			c-0.3,0.3-0.7,0.7-1.3,1.3c-1,1-1.9,2.1-2.9,3.2h-0.6c1.6-1.9,2.8-3.2,3.8-3.9c-0.1,0-0.2,0-0.3,0c-0.1,0-0.3,0-0.6-0.1
			c-0.3-0.1-0.5-0.1-0.6-0.1c-0.2,0-0.5,0.1-0.8,0.4c-0.3,0.3-0.4,0.4-0.4,0.4l-0.1-0.1c0-0.1,0.2-0.3,0.6-0.8
			c0.4-0.4,0.6-0.6,0.6-0.7l0.1,0.1L95.7,41.8z"/>
	</g>
</g>
</svg>
