<?xml version="1.0" encoding="utf-8"?>
<!-- Generator: Adobe Illustrator 16.0.0, SVG Export Plug-In . SVG Version: 6.00 Build 0)  -->
<!DOCTYPE svg PUBLIC "-//W3C//DTD SVG 1.1//EN" "http://www.w3.org/Graphics/SVG/1.1/DTD/svg11.dtd">
<svg version="1.1" id="Layer_1" xmlns="http://www.w3.org/2000/svg" xmlns:xlink="http://www.w3.org/1999/xlink" x="0px" y="0px"
	 width="59.9px" height="88.1px" viewBox="0 0 59.9 88.1" enable-background="new 0 0 59.9 88.1" xml:space="preserve">
<g>
	<g>
		<path d="M5.5,65c0-0.7,0-0.8-0.4-0.9c-0.1,0-0.2,0-0.3,0c0,0-0.1,0-0.1-0.1c0-0.1,0-0.1,0.1-0.1c0.4,0,0.9,0,1,0c0,0,0.6,0,0.9,0
			c0.1,0,0.1,0,0.1,0.1c0,0,0,0.1-0.1,0.1c-0.1,0-0.1,0-0.2,0c-0.2,0-0.3,0.2-0.3,0.5c0,0.3,0,0.5,0,0.9v1c0,0.4,0,0.4-0.1,0.5
			c-0.6,0.3-1.3,0.4-1.9,0.4c-0.7,0-1.9-0.1-2.9-0.9c-0.5-0.5-1-1.4-1-2.5c0-1.4,0.7-2.4,1.5-2.9c0.8-0.5,1.7-0.6,2.3-0.6
			c0.6,0,1.2,0.1,1.3,0.1c0.2,0,0.5,0.1,0.7,0.1c0.1,0,0.1,0,0.1,0.1c0,0.1-0.1,0.4-0.1,1.2c0,0.1,0,0.2-0.1,0.2
			c0,0-0.1-0.1-0.1-0.1c0-0.1-0.1-0.4-0.2-0.6c-0.2-0.3-0.9-0.7-2.1-0.7c-0.6,0-1.2,0.1-1.9,0.6c-0.5,0.4-0.9,1.2-0.9,2.2
			c0,1.2,0.6,2.1,0.9,2.4C2.7,66.7,3.5,67,4.3,67c0.3,0,0.8-0.1,1-0.2c0.1-0.1,0.2-0.2,0.2-0.3V65z"/>
		<path d="M10.3,63.8c0-1.2,0-1.4,0-1.6c0-0.3-0.1-0.4-0.3-0.4c-0.1,0-0.2,0-0.3,0c0,0-0.1,0-0.1-0.1c0,0,0-0.1,0.1-0.1
			c0.3,0,0.8,0,0.9,0c0.1,0,1.7,0,1.8,0c0.1,0,0.3,0,0.3,0c0,0,0.1,0,0.1,0c0,0,0,0,0,0.1c0,0.1,0,0.1-0.1,0.3c0,0.1,0,0.4,0,0.5
			c0,0,0,0.1-0.1,0.1c0,0-0.1,0-0.1-0.1c0-0.1,0-0.2,0-0.3c-0.1-0.1-0.1-0.2-0.6-0.2c-0.1,0-1,0-1.1,0c0,0,0,0,0,0.1v2
			c0,0.1,0,0.1,0,0.1c0.1,0,1.1,0,1.3,0c0.2,0,0.3,0,0.4-0.1c0.1-0.1,0.1-0.1,0.1-0.1c0,0,0,0,0,0.1s0,0.2-0.1,0.4
			c0,0.1,0,0.4,0,0.5c0,0.1,0,0.1-0.1,0.1c0,0-0.1,0-0.1-0.1c0-0.1,0-0.1,0-0.2c0-0.1-0.1-0.2-0.4-0.2c-0.2,0-1,0-1.2,0
			c0,0-0.1,0-0.1,0.1v0.6c0,0.3,0,1.1,0,1.3c0,0.5,0.2,0.6,0.9,0.6c0.2,0,0.6,0,0.8-0.1c0.2-0.1,0.3-0.2,0.3-0.5
			c0-0.1,0-0.1,0.1-0.1c0,0,0.1,0.1,0.1,0.1c0,0.1-0.1,0.6-0.1,0.7c-0.1,0.2-0.1,0.2-0.4,0.2c-0.6,0-1,0-1.3,0c-0.3,0-0.5,0-0.6,0
			c0,0-0.2,0-0.3,0c-0.1,0-0.3,0-0.4,0c-0.1,0-0.1,0-0.1-0.1c0,0,0-0.1,0.1-0.1c0.1,0,0.2,0,0.2,0c0.1,0,0.2-0.2,0.2-0.4
			c0-0.3,0-0.9,0-1.6V63.8z"/>
		<path d="M19,61.5c1.7,0,3,1.1,3,2.8c0,1.7-1.2,3-3.1,3c-2.1,0-3-1.6-3-2.9C15.9,63.2,16.9,61.5,19,61.5z M19.2,67
			c0.7,0,2.1-0.4,2.1-2.5c0-1.8-1.1-2.7-2.3-2.7c-1.3,0-2.2,0.8-2.2,2.4C16.7,66,17.8,67,19.2,67z"/>
		<path d="M25.3,63.8c0-1.2,0-1.4,0-1.6c0-0.3-0.1-0.4-0.3-0.4c-0.1,0-0.2,0-0.3,0c0,0-0.1,0-0.1-0.1c0,0,0-0.1,0.1-0.1
			c0.3,0,0.9,0,0.9,0c0.1,0,0.7,0,1,0c0.5,0,1,0,1.4,0.3c0.2,0.1,0.5,0.5,0.5,1c0,0.6-0.2,1.1-0.9,1.7c0.6,0.8,1.2,1.5,1.6,1.9
			c0.4,0.4,0.7,0.5,0.9,0.5c0.1,0,0.2,0,0.3,0c0,0,0.1,0,0.1,0.1c0,0,0,0.1-0.2,0.1h-0.5c-0.4,0-0.6,0-0.8-0.1
			c-0.3-0.2-0.6-0.5-1-1.1c-0.3-0.4-0.7-0.9-0.8-1.1c0,0-0.1,0-0.1,0l-1,0c0,0-0.1,0-0.1,0.1v0.2c0,0.7,0,1.3,0,1.6
			c0,0.2,0.1,0.4,0.3,0.4c0.1,0,0.3,0,0.3,0c0.1,0,0.1,0,0.1,0.1c0,0,0,0.1-0.1,0.1c-0.4,0-0.9,0-0.9,0c0,0-0.5,0-0.8,0
			c-0.1,0-0.1,0-0.1-0.1c0,0,0-0.1,0.1-0.1c0.1,0,0.2,0,0.2,0c0.1,0,0.2-0.2,0.2-0.4c0-0.3,0-0.9,0-1.6V63.8z M26,64.4
			C26,64.5,26,64.5,26,64.4c0.2,0.2,0.6,0.2,0.9,0.2c0.2,0,0.4,0,0.6-0.1c0.3-0.2,0.5-0.6,0.5-1.1c0-0.9-0.5-1.5-1.3-1.5
			c-0.2,0-0.5,0-0.6,0c0,0-0.1,0-0.1,0.1V64.4z"/>
		<path d="M36.6,65.4c0-0.6,0-0.7-0.3-0.8c-0.1,0-0.2,0-0.3,0c0,0-0.1,0-0.1-0.1c0-0.1,0-0.1,0.1-0.1c0.4,0,0.9,0,0.9,0
			c0,0,0.5,0,0.8,0c0.1,0,0.1,0,0.1,0.1c0,0,0,0.1-0.1,0.1c-0.1,0-0.1,0-0.2,0c-0.2,0-0.3,0.1-0.3,0.4c0,0.2,0,0.5,0,0.8v0.8
			c0,0.3,0,0.3-0.1,0.4c-0.5,0.3-1.2,0.3-1.6,0.3c-0.6,0-1.7-0.1-2.5-0.8c-0.5-0.4-0.9-1.2-0.9-2.1c0-1.2,0.6-2,1.3-2.4
			c0.7-0.4,1.5-0.5,2-0.5c0.5,0,1,0.1,1.2,0.1c0.2,0,0.4,0.1,0.6,0.1c0.1,0,0.1,0,0.1,0.1c0,0.1,0,0.3,0,1c0,0.1,0,0.2-0.1,0.2
			c0,0-0.1,0-0.1-0.1c0-0.1-0.1-0.3-0.2-0.5c-0.2-0.3-0.8-0.6-1.8-0.6c-0.5,0-1,0-1.6,0.5c-0.4,0.3-0.8,1-0.8,1.9
			c0,1,0.5,1.8,0.8,2.1c0.6,0.6,1.3,0.8,2,0.8c0.3,0,0.6,0,0.8-0.1c0.1-0.1,0.2-0.1,0.2-0.2V65.4z"/>
		<path d="M42,65.1c0,0.7,0,1.3,0,1.6c0,0.2,0.1,0.4,0.3,0.4c0.1,0,0.3,0,0.3,0c0,0,0.1,0,0.1,0.1c0,0,0,0.1-0.1,0.1
			c-0.4,0-0.9,0-1,0c0,0-0.5,0-0.8,0c-0.1,0-0.1,0-0.1-0.1c0,0,0-0.1,0.1-0.1c0.1,0,0.2,0,0.2,0c0.1,0,0.2-0.2,0.2-0.4
			c0-0.3,0-0.9,0-1.6v-1.3c0-1.2,0-1.4,0-1.6c0-0.3-0.1-0.4-0.2-0.4c-0.1,0-0.2,0-0.2,0c0,0-0.1,0-0.1-0.1c0,0,0-0.1,0.1-0.1
			c0.3,0,0.7,0,0.8,0c0,0,0.5,0,0.8,0c0.1,0,0.1,0,0.1,0.1c0,0,0,0.1-0.1,0.1c-0.1,0-0.1,0-0.2,0c-0.2,0-0.3,0.1-0.3,0.4
			c0,0.2,0,0.4,0,1.6V65.1z"/>
		<path d="M46.5,66.2c0,0.6,0.1,0.8,0.3,0.8c0.1,0,0.3,0,0.4,0c0,0,0.1,0,0.1,0.1c0,0-0.1,0.1-0.1,0.1c-0.4,0-0.7,0-0.8,0
			c-0.1,0-0.4,0-0.7,0c-0.1,0-0.1,0-0.1-0.1c0,0,0-0.1,0.1-0.1c0.1,0,0.2,0,0.3,0C46,67,46,66.8,46,66.2v-4.3c0-0.3,0-0.4,0.1-0.4
			c0.1,0,0.2,0.1,0.3,0.2c0.1,0.1,1.2,1.3,2.4,2.5c0.8,0.8,1.6,1.7,1.8,1.9l-0.1-3.7c0-0.5-0.1-0.6-0.3-0.7c-0.1,0-0.3,0-0.4,0
			c-0.1,0-0.1,0-0.1-0.1c0,0,0.1-0.1,0.1-0.1c0.3,0,0.7,0,0.8,0c0.1,0,0.3,0,0.7,0c0.1,0,0.1,0,0.1,0.1c0,0,0,0.1-0.1,0.1
			c0,0-0.1,0-0.2,0c-0.3,0.1-0.3,0.2-0.3,0.6l0,4.4c0,0.5,0,0.5-0.1,0.5c-0.1,0-0.2-0.1-0.6-0.5c-0.1-0.1-1.2-1.2-2-2
			c-0.9-0.9-1.8-1.8-2-2.1L46.5,66.2z"/>
		<path d="M56.3,61.8c0.1-0.2,0.1-0.3,0.2-0.3c0.1,0,0.1,0.1,0.2,0.3c0.1,0.3,1.4,3.4,1.8,4.5c0.3,0.7,0.5,0.8,0.7,0.8
			c0.1,0,0.2,0,0.3,0c0,0,0.1,0,0.1,0.1c0,0-0.1,0.1-0.2,0.1c-0.1,0-0.7,0-1.2,0c-0.1,0-0.3,0-0.3-0.1c0,0,0,0,0.1-0.1
			c0,0,0.1-0.1,0.1-0.2l-0.7-1.7c0,0,0,0-0.1,0h-1.8c0,0-0.1,0-0.1,0.1L55,66.4c-0.1,0.2-0.1,0.4-0.1,0.5c0,0.1,0.1,0.2,0.3,0.2h0.1
			c0.1,0,0.1,0,0.1,0.1c0,0,0,0.1-0.1,0.1c-0.2,0-0.6,0-0.7,0c-0.1,0-0.5,0-0.8,0c-0.1,0-0.1,0-0.1-0.1c0,0,0-0.1,0.1-0.1
			c0.1,0,0.2,0,0.2,0c0.4,0,0.5-0.3,0.6-0.7L56.3,61.8z M57.1,64.9C57.2,64.9,57.2,64.9,57.1,64.9l-0.7-2.1c0-0.1-0.1-0.1-0.1,0
			l-0.7,2c0,0,0,0.1,0,0.1H57.1z"/>
		<path d="M3.2,75.2c0,0.8,0,1.5,0,1.9c0,0.3,0.1,0.4,0.3,0.5c0.1,0,0.3,0,0.4,0c0.1,0,0.1,0,0.1,0.1c0,0,0,0.1-0.1,0.1
			c-0.5,0-1,0-1.1,0c0,0-0.6,0-0.9,0c-0.1,0-0.1,0-0.1-0.1c0,0,0-0.1,0.1-0.1c0.1,0,0.2,0,0.3,0c0.2,0,0.2-0.2,0.3-0.5
			c0-0.4,0-1.1,0-1.9v-3.7l-1.3,0c-0.5,0-0.8,0.1-0.9,0.3C0.2,72,0.2,72,0.1,72.1c0,0.1-0.1,0.1-0.1,0.1c0,0,0,0,0-0.1
			c0-0.1,0.2-0.8,0.2-0.9c0-0.1,0.1-0.2,0.1-0.2c0.1,0,0.1,0.1,0.4,0.1c0.3,0,0.6,0,0.7,0h3.3c0.3,0,0.5,0,0.6,0c0.1,0,0.2,0,0.2,0
			c0,0,0,0.1,0,0.1c0,0.3,0,0.9,0,1c0,0.1,0,0.1-0.1,0.1c0,0-0.1,0-0.1-0.1l0-0.1c0-0.3-0.2-0.5-1.1-0.5l-1.1,0V75.2z"/>
		<path d="M13.1,72.3c0.1-0.2,0.1-0.3,0.2-0.3c0.1,0,0.1,0.1,0.2,0.3c0.1,0.3,1.4,3.4,1.8,4.5c0.3,0.7,0.5,0.8,0.7,0.8
			c0.1,0,0.2,0,0.3,0c0,0,0.1,0,0.1,0.1c0,0-0.1,0.1-0.2,0.1c-0.1,0-0.7,0-1.2,0c-0.1,0-0.3,0-0.3-0.1c0,0,0,0,0.1-0.1
			c0,0,0.1-0.1,0.1-0.2l-0.7-1.7c0,0,0,0-0.1,0h-1.8c0,0-0.1,0-0.1,0.1l-0.4,1.2c-0.1,0.2-0.1,0.4-0.1,0.5c0,0.1,0.1,0.2,0.3,0.2H12
			c0.1,0,0.1,0,0.1,0.1c0,0,0,0.1-0.1,0.1c-0.2,0-0.6,0-0.7,0c-0.1,0-0.5,0-0.8,0c-0.1,0-0.1,0-0.1-0.1c0,0,0-0.1,0.1-0.1
			c0.1,0,0.2,0,0.2,0c0.3,0,0.5-0.3,0.6-0.7L13.1,72.3z M13.9,75.4C14,75.4,14,75.3,13.9,75.4l-0.7-2.1c0-0.1-0.1-0.1-0.1,0l-0.7,2
			c0,0,0,0.1,0,0.1H13.9z"/>
		<path d="M23.2,75.8c0-0.4-0.1-0.6-0.2-0.8c-0.1-0.1-1.1-1.8-1.4-2.2c-0.2-0.3-0.4-0.4-0.5-0.5c-0.1-0.1-0.3-0.1-0.3-0.1
			c0,0-0.1,0-0.1-0.1s0-0.1,0.1-0.1c0.1,0,0.7,0,0.8,0c0.1,0,0.4,0,0.7,0c0.1,0,0.1,0,0.1,0.1c0,0-0.1,0.1-0.1,0.1
			c-0.1,0-0.1,0.1-0.1,0.1c0,0.1,0.1,0.2,0.1,0.3l1.4,2.3c0.2-0.3,1.1-1.9,1.3-2.2c0.1-0.2,0.1-0.3,0.1-0.4c0-0.1,0-0.2-0.1-0.2
			c-0.1,0-0.1-0.1-0.1-0.1c0,0,0,0,0.1,0c0.2,0,0.5,0,0.5,0c0.1,0,0.6,0,0.8,0c0.1,0,0.1,0,0.1,0c0,0,0,0.1-0.1,0.1
			c-0.1,0-0.2,0-0.4,0.1c-0.1,0.1-0.2,0.2-0.4,0.4c-0.3,0.3-1.3,2-1.5,2.4c-0.1,0.3-0.1,0.5-0.1,0.7v0.6c0,0.1,0,0.4,0,0.7
			c0,0.2,0.1,0.4,0.3,0.4c0.1,0,0.3,0,0.3,0c0,0,0.1,0,0.1,0.1c0,0,0,0.1-0.1,0.1c-0.4,0-0.9,0-1,0c0,0-0.5,0-0.8,0
			c-0.1,0-0.1,0-0.1-0.1c0,0,0-0.1,0.1-0.1c0.1,0,0.2,0,0.2,0c0.2,0,0.2-0.2,0.2-0.4c0-0.3,0-0.6,0-0.7V75.8z"/>
		<path d="M33.4,75.6c0,1.1,0,1.5,0.2,1.7c0.1,0.1,0.4,0.2,1,0.2c0.4,0,0.7,0,0.9-0.2c0.1-0.1,0.2-0.3,0.2-0.4c0-0.1,0-0.1,0.1-0.1
			c0,0,0.1,0,0.1,0.1c0,0.1-0.1,0.5-0.1,0.7c-0.1,0.2-0.1,0.2-0.5,0.2c-0.6,0-1,0-1.3,0c-0.3,0-0.6,0-0.8,0c0,0-0.2,0-0.3,0
			c-0.2,0-0.3,0-0.4,0c-0.1,0-0.1,0-0.1-0.1c0,0,0-0.1,0.1-0.1c0.1,0,0.2,0,0.2,0c0.1,0,0.2-0.2,0.2-0.4c0-0.3,0-0.9,0-1.6v-1.3
			c0-1.2,0-1.4,0-1.6c0-0.3-0.1-0.4-0.3-0.4c-0.1,0-0.2,0-0.3,0c0,0-0.1,0-0.1-0.1c0,0,0-0.1,0.1-0.1c0.3,0,0.8,0,0.9,0
			c0,0,0.6,0,0.8,0c0.1,0,0.1,0,0.1,0.1c0,0,0,0.1-0.1,0.1c-0.1,0-0.2,0-0.3,0c-0.2,0-0.3,0.2-0.3,0.4c0,0.2,0,0.4,0,1.6V75.6z"/>
		<path d="M44.7,72c1.7,0,3,1.1,3,2.8c0,1.7-1.2,3-3.1,3c-2.1,0-3-1.6-3-2.9C41.6,73.7,42.6,72,44.7,72z M44.9,77.5
			c0.7,0,2.1-0.4,2.1-2.5c0-1.8-1.1-2.7-2.3-2.7c-1.3,0-2.2,0.8-2.2,2.4C42.4,76.5,43.5,77.5,44.9,77.5z"/>
		<path d="M54.7,74.3c0-1.2,0-1.4,0-1.6c0-0.3-0.1-0.4-0.3-0.4c-0.1,0-0.2,0-0.3,0c0,0-0.1,0-0.1-0.1c0,0,0-0.1,0.1-0.1
			c0.3,0,0.9,0,0.9,0c0.1,0,0.7,0,1,0c0.5,0,1,0,1.4,0.3c0.2,0.1,0.5,0.5,0.5,1c0,0.6-0.2,1.1-0.9,1.7c0.6,0.8,1.2,1.5,1.6,1.9
			c0.4,0.4,0.7,0.5,0.9,0.5c0.1,0,0.2,0,0.3,0s0.1,0,0.1,0.1c0,0,0,0.1-0.2,0.1h-0.5c-0.4,0-0.6,0-0.8-0.1c-0.3-0.2-0.6-0.5-1-1.1
			c-0.3-0.4-0.7-0.9-0.8-1.1c0,0-0.1,0-0.1,0l-1,0c0,0-0.1,0-0.1,0.1v0.2c0,0.7,0,1.3,0,1.6c0,0.2,0.1,0.4,0.3,0.4
			c0.1,0,0.3,0,0.3,0c0.1,0,0.1,0,0.1,0.1c0,0,0,0.1-0.1,0.1c-0.4,0-0.9,0-0.9,0c0,0-0.5,0-0.8,0c-0.1,0-0.1,0-0.1-0.1
			c0,0,0-0.1,0.1-0.1c0.1,0,0.2,0,0.2,0c0.1,0,0.2-0.2,0.2-0.4c0-0.3,0-0.9,0-1.6V74.3z M55.4,74.9C55.4,74.9,55.4,75,55.4,74.9
			c0.2,0.2,0.6,0.2,0.9,0.2c0.2,0,0.4,0,0.6-0.1c0.3-0.2,0.5-0.6,0.5-1.1c0-0.9-0.5-1.5-1.3-1.5c-0.2,0-0.5,0-0.6,0
			c0,0-0.1,0-0.1,0.1V74.9z"/>
	</g>
	<g>
		<path d="M16,53.5c-2.9-1.8-4.1-3.8-4.1-6.5c0-4.5,4.6-7.9,8.4-9.6v-0.3c-3.4-0.7-5.4-3.2-5.4-5.6c0-3.8,4.4-6.6,7.2-7.6v-0.2
			c-3.1-1.4-7.4-5-7.4-12.2C14.7,6.4,19.3,0,28.4,0c6.1,0,9.3,3.7,10.1,4.6c2.2-1.5,4.9-3.1,7.5-3.1c2.6,0,3.9,1.8,3.8,3.4
			c0,1.5-1.3,3-3.1,3c-1.4,0-2.2-0.6-2.8-1.2c-0.5-0.3-1-0.7-1.7-0.7c-0.6,0-1.5,0-2.6,0.5c0.6,1.6,1.2,3.4,1.2,6.1
			c0,3.1-0.9,6.2-3,8.6c-2.1,2.3-6.6,4-9.3,4c-1.8,0-2.9-0.1-4.1-0.4c-1.6,0.6-4.2,2.2-4.2,4.5c0,3.3,4,3,9.4,2.7
			c6.6-0.3,10.6,0.4,13.8,2.9c3.4,2.6,3.8,5.8,3.9,7.7c0,3.8-1.4,6.9-5.4,9.8c-2.1,1.5-6.9,3.8-13.7,3.8
			C24.4,56.1,19.8,55.7,16,53.5z M42.4,45.3c0-4.7-3.6-8.3-11.6-7.8l-7.7,0.6c-2.5,0.6-6.4,3.4-6.4,7.7c0,2,1.5,4.4,3.1,5.5
			c2.6,1.8,5.5,2.2,11.2,2.2C34,53.5,42.8,51.4,42.4,45.3z M34.9,11.2c0-3.5-0.7-5.6-2.2-7.2c-1-1-2.6-1.8-3.8-1.8
			c-1.8,0-3.8,0.3-5.7,2.2c-2.6,2.7-2.9,6.4-2.9,9.4c0,2.7,0.9,5.2,2.6,7c1.4,1.4,2.9,2,4.8,2C33.2,22.9,34.9,16.2,34.9,11.2z"/>
	</g>
	<g>
		<path d="M3.9,85.9c-1.1,0.8-1.2,1-1.2,1.1c0,0.1,0.1,0.1,0.3,0.1H4c0.8,0,0.9,0,1.3-0.5c0.1,0,0.2,0,0.2,0.1
			C5.4,87,5.1,87.5,5,87.7c-0.4,0-0.7,0-1.3,0H2.4c-0.5,0-0.8,0-0.9,0c0,0-0.1-0.1-0.1-0.1c0,0,0,0,0,0c0.5-0.4,1-0.7,1.8-1.4
			c0.8-0.7,2.2-1.7,2.2-2.8c0-0.7-0.4-1-1-1c-0.6,0-1,0.4-1.4,0.8c-0.1,0-0.2,0-0.2-0.1c0.4-0.7,1.1-1.1,1.8-1.1
			c0.9,0,1.5,0.5,1.5,1.3c0,0.9-0.8,1.6-1.5,2.1L3.9,85.9z"/>
		<path d="M12.2,82.8c0,0.6-0.8,1-1.3,1.2c-0.1,0.1-0.1,0.2,0.1,0.2c0.5,0.1,1,0.5,1,1.2c0,0.8-0.7,1.6-1.3,2
			c-0.8,0.5-1.5,0.6-2.1,0.6c-0.5,0-0.9-0.2-0.9-0.5c0-0.2,0.2-0.4,0.4-0.4c0.2,0,0.3,0.2,0.4,0.3c0.1,0.2,0.3,0.2,0.5,0.2
			c0.3,0,0.8-0.1,1.2-0.4c0.6-0.4,1-1.1,1-1.8c0-0.6-0.4-1-1-1c-0.4,0-0.8,0.2-1.1,0.5C9,85,8.9,84.8,9,84.7
			c0.4-0.2,1.2-0.5,1.6-0.7c0.5-0.3,0.8-0.6,0.8-1c0-0.5-0.3-0.7-0.7-0.7c-0.5,0-0.9,0.3-1.3,0.8c-0.1,0-0.2,0-0.2-0.2
			c0.3-0.5,1-1,1.8-1C11.8,81.9,12.2,82.3,12.2,82.8z"/>
		<path d="M15.8,85.7c0,0.4-0.3,0.6-0.5,0.6c-0.3,0-0.4-0.2-0.4-0.4c0-0.3,0.3-0.6,0.5-0.6C15.7,85.3,15.8,85.5,15.8,85.7z"/>
		<path d="M22.9,83.6c0,1-0.5,2.4-1.2,3.3c-0.4,0.5-1,0.9-1.6,0.9c-1.1,0-1.3-1-1.3-1.7c0-1.1,0.5-2.4,1.2-3.2
			c0.4-0.5,1-0.9,1.7-0.9C22.7,81.9,22.9,82.9,22.9,83.6z M20.4,83.1c-0.5,0.9-1,2.4-1,3.4c0,0.6,0.2,1,0.7,1c0.8,0,1.3-1.2,1.5-1.9
			c0.3-0.7,0.6-1.7,0.6-2.4c0-0.5-0.1-1-0.6-1C21.2,82.1,20.8,82.5,20.4,83.1z"/>
		<path d="M24.9,86.4c0-1,1-1.4,1.7-1.8c-0.4-0.3-0.7-0.7-0.7-1.1c0-0.9,0.8-1.6,1.7-1.6c0.9,0,1.4,0.6,1.4,1.3
			c0,0.7-0.7,1.1-1.4,1.4c0.5,0.3,0.9,0.8,0.9,1.4c0,1.1-1,1.7-2,1.7C25.6,87.8,24.9,87.3,24.9,86.4z M27.8,86.2
			c0-0.7-0.5-1.1-1-1.4c-0.7,0.4-1.3,0.9-1.3,1.6c0,0.8,0.5,1.1,1,1.1C27.2,87.5,27.8,87.1,27.8,86.2z M27.6,82.1
			c-0.5,0-1,0.4-1,1.1c0,0.5,0.4,0.8,0.9,1.2c0.5-0.3,1-0.7,1-1.3C28.4,82.5,28.1,82.1,27.6,82.1z"/>
		<path d="M32.4,85.7c0,0.4-0.3,0.6-0.5,0.6c-0.3,0-0.4-0.2-0.4-0.4c0-0.3,0.3-0.6,0.5-0.6C32.3,85.3,32.4,85.5,32.4,85.7z"/>
		<path d="M37.2,85.9C36.1,86.8,36,87,36,87c0,0.1,0.1,0.1,0.3,0.1h1.1c0.8,0,0.9,0,1.3-0.5c0.1,0,0.2,0,0.2,0.1
			c-0.1,0.4-0.4,0.9-0.5,1.1c-0.4,0-0.7,0-1.3,0h-1.3c-0.5,0-0.8,0-0.9,0c0,0-0.1-0.1-0.1-0.1c0,0,0,0,0,0c0.5-0.4,1-0.7,1.8-1.4
			c0.8-0.7,2.2-1.7,2.2-2.8c0-0.7-0.4-1-1-1c-0.6,0-1,0.4-1.4,0.8c-0.1,0-0.2,0-0.2-0.1c0.4-0.7,1.1-1.1,1.8-1.1
			c0.9,0,1.5,0.5,1.5,1.3c0,0.9-0.8,1.6-1.5,2.1L37.2,85.9z"/>
		<path d="M45.8,83.6c0,1-0.5,2.4-1.2,3.3c-0.4,0.5-1,0.9-1.6,0.9c-1.1,0-1.3-1-1.3-1.7c0-1.1,0.5-2.4,1.2-3.2
			c0.4-0.5,1-0.9,1.7-0.9C45.7,81.9,45.8,82.9,45.8,83.6z M43.4,83.1c-0.5,0.9-1,2.4-1,3.4c0,0.6,0.2,1,0.7,1c0.8,0,1.3-1.2,1.5-1.9
			c0.3-0.7,0.6-1.7,0.6-2.4c0-0.5-0.1-1-0.6-1C44.1,82.1,43.7,82.5,43.4,83.1z"/>
		<path d="M49.9,86.5c-0.2,0.7-0.1,0.8,0.3,0.9l0.2,0c0.1,0,0.1,0.2,0,0.2c-0.5,0-0.8,0-1.2,0c-0.3,0-0.7,0-1.1,0
			c-0.1,0-0.1-0.2,0-0.2l0.2,0c0.6-0.1,0.7-0.2,0.9-0.9l0.9-3c0.2-0.7,0.2-0.8-0.2-0.9l-0.4,0c-0.1,0,0-0.2,0-0.2
			c0.8-0.1,1.3-0.3,1.6-0.5c0.1,0,0.1,0,0.1,0c-0.1,0.3-0.3,0.7-0.4,1.1L49.9,86.5z"/>
		<path d="M54.1,86.4c0-1,1-1.4,1.7-1.8c-0.4-0.3-0.7-0.7-0.7-1.1c0-0.9,0.8-1.6,1.7-1.6c0.9,0,1.4,0.6,1.4,1.3
			c0,0.7-0.7,1.1-1.4,1.4c0.5,0.3,0.9,0.8,0.9,1.4c0,1.1-1,1.7-2,1.7C54.9,87.8,54.1,87.3,54.1,86.4z M57.1,86.2
			c0-0.7-0.5-1.1-1-1.4c-0.7,0.4-1.3,0.9-1.3,1.6c0,0.8,0.5,1.1,1,1.1C56.5,87.5,57.1,87.1,57.1,86.2z M56.8,82.1
			c-0.5,0-1,0.4-1,1.1c0,0.5,0.4,0.8,0.9,1.2c0.5-0.3,1-0.7,1-1.3C57.7,82.5,57.4,82.1,56.8,82.1z"/>
	</g>
</g>
</svg>
