<?xml version="1.0" encoding="utf-8"?>
<!-- Generator: Adobe Illustrator 16.0.0, SVG Export Plug-In . SVG Version: 6.00 Build 0)  -->
<!DOCTYPE svg PUBLIC "-//W3C//DTD SVG 1.1//EN" "http://www.w3.org/Graphics/SVG/1.1/DTD/svg11.dtd">
<svg version="1.1" id="Layer_1" xmlns="http://www.w3.org/2000/svg" xmlns:xlink="http://www.w3.org/1999/xlink" x="0px" y="0px"
	 width="527.1px" height="381.9px" viewBox="0 0 527.1 381.9" enable-background="new 0 0 527.1 381.9" xml:space="preserve">
<g>
	<g>
		<path d="M269.3,125.4l41.2-7c4.6-4.8,11.5-11.9,20.6-21.4c17.8-18.4,37.3-35,58.5-49.6c27.8-19.4,50.4-29.1,67.7-29.1
			c17.2,0,25.8,5.5,25.8,16.5c0,19.7-20.6,38-61.9,55.2c-31.6,12.9-61.1,21-88.6,24.3c-15.7,18.3-30.7,37.1-45.1,56.4
			c-22.4,30.2-33.6,49.2-33.6,57.1c0,4.4,2.8,6.6,8.2,6.6c6.9,0,14.4-2.7,22.4-8.1c4.8-3.2,10.8-8.2,18-15.2
			c5.8-5.6,9.4-8.5,10.7-8.6l1.4,1.2l-0.3,1.8c-10,10.5-17.8,17.9-23.5,22c-10,7.3-19.7,10.9-29.2,10.9c-10.9,0-16.3-5.4-16.3-16.2
			c0-13.4,7.7-31,23.1-52.5c6.7-9.5,19.4-25,38.1-46.4l-40.2,6.5c-3.6,4.6-8.9,11.5-15.9,20.8c-17.8,22.9-37.2,41.9-58.2,56.8
			c-26,18.4-50.8,27.6-74.6,27.6c-19.5,0-29.3-5.8-29.3-17.3c0-22.5,21.2-42.7,63.6-60.5c24.8-10.5,55.9-19.7,93.2-27.5
			c24.2-32.7,48-57.7,71.3-75c-8.1,4.5-15.9,6.8-23.2,6.8c-9.9,0-15.7-3.5-17.4-10.6c-1.5-6.6-3.1-13.1-4.6-19.7
			c-4.3-7.2-14.4-10.8-30.2-10.8c-15.9,0-30.9,3.5-44.9,10.4c-17.3,8.5-26,20-26,34.3c0,6.4,3.2,11.5,9.5,15.2
			c5.4,3.3,11.5,5,18.2,5c9.8,0,21.8-3.3,36-9.9c11.7-5.5,22.7-12,32.8-19.6l1.5,1.4c-2.6,6.4-13.2,13.5-31.8,21.2
			c-17.2,7.2-30.1,10.8-38.5,10.8c-8.1,0-15.1-2-21.2-6c-6.9-4.7-10.4-10.9-10.4-18.6c0-15.3,8.9-27.5,26.7-36.6
			c14.6-7.4,30.1-11.1,46.8-11.1c10.1,0,19.2,1.6,27.2,4.7c10.2,4.1,16.7,10,19.6,17.9c0.7,3.5,1.4,6.8,2.1,10.2
			c1.1,4.1,3.4,6.1,6.9,6.1c9.4,0,20.7-4.9,34.1-14.8c13.3-9.9,20.5-14.9,21.6-15l1.1,1.5c-0.1,0.5-0.3,1.1-0.6,1.8
			c-0.9,1.5-5.9,6-15,13.3c-10.2,8.3-16.2,13.2-17.9,15c-8,8.1-16.6,19.1-26,33C285,102.2,277.1,113.8,269.3,125.4z M241.8,134.4
			c-33.4,6.8-62.8,15.6-88.1,26.4c-40.5,17.1-60.8,35.9-60.8,56.5c0,9,8.4,13.4,25.2,13.4c26,0,50.4-10.4,73.3-31.3
			C207.7,184.6,224.5,162.9,241.8,134.4z M336.6,109.4c25.2-2.9,53.1-10.7,83.9-23.5c39.3-16.4,59-33.5,59-51.4
			c0-8.5-7.4-12.7-22.3-12.7C431.4,21.7,391.2,50.9,336.6,109.4z"/>
	</g>
	<path fill="#FFFFFF" d="M238.1,51.7c0,28.5-10.5,51.7-23.5,51.7c-13,0-23.5-23.1-23.5-51.7c0-28.5,10.5-51.7,23.5-51.7
		C227.6,0,238.1,23.1,238.1,51.7z"/>
	<rect x="195.3" y="4.3" fill="#FFFFFF" width="35.2" height="89.8"/>
	<path d="M218.7,63.8c0,18.7,0,25.9-3.5,34.1c-2.4,5.8-7.5,11.2-16.9,17.7c-1.5,1-3.4,2.3-4.5,2.9c-0.2,0.1-0.5,0.2-0.8,0.2
		c-0.3,0-0.8-0.2-0.8-0.7c0-0.7,0.6-1,1.6-1.7c1.4-0.8,3-2.2,4.1-3.2c7.5-7.6,11.1-13.8,11.1-43.6V36.1c0-18,0-21.3-0.2-25
		c-0.2-3.9-1.1-5.8-5-6.6c-0.9-0.2-2.9-0.4-3.9-0.4c-0.5,0-0.9-0.2-0.9-0.7c0-0.7,0.6-0.9,1.9-0.9c5.2,0,12.5,0.3,13.1,0.3
		c0.6,0,7.9-0.3,11.3-0.3c1.3,0,1.9,0.2,1.9,0.9c0,0.5-0.5,0.7-0.9,0.7c-0.8,0-1.5,0.1-2.9,0.4c-3.1,0.6-4.1,2.5-4.3,6.6
		c-0.2,3.7-0.2,6.9-0.2,25V63.8z"/>
	<path fill="#FFFFFF" d="M407.3,234.9c0,15.6-27.3,28.2-61.1,28.2c-33.7,0-61.1-12.6-61.1-28.2c0-15.6,27.3-28.2,61.1-28.2
		C379.9,206.7,407.3,219.3,407.3,234.9z"/>
	<g>
		<path d="M390.1,243.4c0.4,3.9,1.2,9.9,5.8,11.3c3.1,1,5.9,1,7,1c0.5,0,0.9,0.1,0.9,0.5c0,0.6-1,1-2.2,1c-2.4,0-13.9-0.3-17.9-0.6
			c-2.5-0.2-3-0.5-3-1.1c0-0.4,0.2-0.7,0.7-0.8c0.5-0.1,0.6-1.9,0.4-3.9l-5.1-55.2h-0.3l-26.2,55.6c-2.3,4.7-2.6,5.7-3.5,5.7
			c-0.7,0-1.3-1.1-3.3-4.9c-2.8-5.2-12-23.7-12.5-24.8c-1-1.9-12.9-27.6-14.1-30.5h-0.4l-4.3,49.6c-0.1,1.7-0.1,3.6-0.1,5.4
			c0,1.6,1.2,3,2.8,3.3c1.8,0.4,3.4,0.5,4.1,0.5c0.4,0,0.9,0.2,0.9,0.5c0,0.7-0.6,1-1.9,1c-4,0-9.1-0.3-9.9-0.3c-1,0-6.1,0.3-9,0.3
			c-1.1,0-1.8-0.2-1.8-1c0-0.3,0.5-0.5,1.1-0.5c0.9,0,1.6,0,3.2-0.3c3.5-0.6,3.8-4.8,4.3-8.9l7.7-69.7c0.1-1.2,0.5-1.9,1.2-1.9
			c0.6,0,1.1,0.4,1.6,1.6l32.7,67.3l31.4-67.2c0.4-1,0.9-1.7,1.6-1.7c0.8,0,1.1,0.9,1.3,2.9L390.1,243.4z"/>
	</g>
	<g>
		<path d="M12.3,289.8h2.7v26.6c0,9.8-4.9,12.5-10.4,12.5c-1.8,0-3.7-0.5-4.7-0.9l0.6-2.2c1,0.4,2.3,0.7,4.1,0.7
			c4.9,0,7.7-2.2,7.7-10.8V289.8z"/>
		<path d="M59,314.3c0,10.2-7,14.6-13.1,14.6c-7.1,0-12.6-5.5-12.6-14.1c0-9.4,6.2-14.6,13-14.6C53.9,300.2,59,306,59,314.3z
			 M36.1,314.6c0,6.9,4.4,12,10,12c5.7,0,10.2-5.1,10.2-12.2c0-5-2.8-11.9-10.1-11.9C39.2,302.5,36.1,308.8,36.1,314.6z"/>
		<path d="M94.5,321.8c0,2.2,0.1,4.4,0.4,6.5h-2.5l-0.4-3.9h-0.1c-1.4,2.1-4.4,4.6-8.8,4.6c-5.5,0-8.1-3.9-8.1-7.5
			c0-6.3,5.5-10.2,16.7-10.1v-0.7c0-2.7-0.5-8.1-7-8.1c-2.4,0-4.9,0.6-6.9,2.1l-0.9-2c2.5-1.7,5.6-2.3,8.1-2.3
			c7.9,0,9.5,5.9,9.5,10.8V321.8z M91.8,313.6c-6-0.2-13.9,0.7-13.9,7.3c0,3.9,2.6,5.7,5.5,5.7c4.6,0,7.2-2.8,8.1-5.5
			c0.2-0.6,0.3-1.2,0.3-1.7V313.6z"/>
		<path d="M114.8,307.4c0-2.5-0.1-4.4-0.2-6.6h2.6l0.2,5h0.1c1.5-3.1,5-5.6,9.4-5.6c2.6,0,9.6,1.3,9.6,11.6v16.5h-2.7v-16.2
			c0-5-1.9-9.5-7.6-9.5c-3.8,0-7.1,2.7-8.2,6.3c-0.2,0.7-0.3,1.6-0.3,2.5v17h-2.7V307.4z"/>
		<path d="M156.9,307.4c0-2.5-0.1-4.4-0.2-6.6h2.6l0.2,5h0.1c1.5-3.1,5-5.6,9.4-5.6c2.6,0,9.6,1.3,9.6,11.6v16.5h-2.7v-16.2
			c0-5-1.9-9.5-7.6-9.5c-3.8,0-7.1,2.7-8.2,6.3c-0.2,0.7-0.3,1.6-0.3,2.5v17h-2.7V307.4z"/>
		<path d="M199.4,314.3c0,8.7,4.7,12.2,10.5,12.2c4,0,6.1-0.8,7.6-1.5l0.7,2.1c-1,0.6-3.8,1.8-8.6,1.8c-7.9,0-12.8-5.7-12.8-13.8
			c0-9.1,5.3-14.9,12.3-14.9c9,0,10.7,8.5,10.7,12.4c0,0.7,0,1.1-0.1,1.7H199.4z M216.9,312.1c0.1-3.8-1.5-9.6-8.2-9.6
			c-6.1,0-8.7,5.4-9.2,9.6H216.9z"/>
		<path d="M286,328.3c-1.3-1.3-2.4-2.5-4.2-4.4c-3.9,3.8-7.7,5-11.7,5c-6.3,0-10.9-4.7-10.9-10.7c0-5.4,3.3-8.9,7.6-11.4v-0.2
			c-2.1-2.9-3.3-5.7-3.3-8.5c0-4.6,3.1-9.1,8.7-9.1c4.1,0,7.4,3,7.4,7.7c0,4.1-2.4,7.3-9,10.5v0.2c3.9,4.6,8.3,9.7,11.3,12.9
			c1.9-2.9,3.1-6.7,3.9-12.4h2.6c-1,6.2-2.5,10.9-5,13.9c2,2.1,3.8,4,6.1,6.4H286z M280.3,322.3c-2.2-2.6-7.2-8.1-12.2-13.8
			c-2.4,1.4-6.2,4.3-6.2,9.4c0,5.1,3.7,8.9,8.9,8.9C274.7,326.7,278,324.9,280.3,322.3z M266.1,297.9c0,3.3,1.5,5.7,3.1,7.8
			c4.6-2.5,7.8-4.8,7.8-8.7c0-2.7-1.5-5.7-5.3-5.7C268,291.3,266.1,294.4,266.1,297.9z"/>
		<path d="M362,310c-0.3-5.8-0.8-12.9-0.8-17h-0.1c-1.4,4.2-3,8.6-5.2,14.3l-8.1,21h-1.9l-7.6-20.5c-2.2-6-3.8-10.6-5-14.9h-0.1
			c-0.1,4.5-0.4,11.2-0.9,17.6l-1.2,17.7h-2.7l2.8-38.5h3.1l8.3,22.2c1.8,4.9,3.1,8.8,4.2,12.5h0.2c1-3.5,2.3-7.3,4.3-12.5l8.6-22.2
			h3.3l2.6,38.5h-2.7L362,310z"/>
		<path d="M402.9,321.8c0,2.2,0.1,4.4,0.4,6.5h-2.5l-0.4-3.9h-0.1c-1.4,2.1-4.4,4.6-8.8,4.6c-5.5,0-8.1-3.9-8.1-7.5
			c0-6.3,5.5-10.2,16.7-10.1v-0.7c0-2.7-0.5-8.1-7-8.1c-2.4,0-4.9,0.6-6.9,2.1l-0.9-2c2.5-1.7,5.6-2.3,8.1-2.3
			c7.9,0,9.5,5.9,9.5,10.8V321.8z M400.2,313.6c-6-0.2-13.9,0.7-13.9,7.3c0,3.9,2.6,5.7,5.5,5.7c4.6,0,7.2-2.8,8.1-5.5
			c0.2-0.6,0.3-1.2,0.3-1.7V313.6z"/>
		<path d="M423.2,309.1c0-2.7-0.1-5.5-0.2-8.2h2.5l0.1,5.5h0.2c1.2-3.4,4.1-6.2,7.8-6.2c0.4,0,0.8,0.1,1.1,0.1v2.6
			c-0.4-0.1-0.8-0.1-1.3-0.1c-3.8,0-6.5,3.3-7.2,7.7c-0.2,0.8-0.2,1.7-0.2,2.6v15.1h-2.7V309.1z"/>
		<path d="M456.8,294.8v6.1h7.8v2.2h-7.8v17.8c0,3.5,1.1,5.7,4,5.7c1.4,0,2.5-0.2,3.1-0.4l0.3,2.1c-0.9,0.4-2.2,0.7-3.8,0.7
			c-2,0-3.7-0.6-4.7-1.9c-1.3-1.4-1.7-3.8-1.7-6.6v-17.3h-4.6v-2.2h4.6v-5L456.8,294.8z"/>
		<path d="M485.6,293c0,1.3-0.9,2.3-2.3,2.3c-1.3,0-2.1-1.1-2.1-2.3c0-1.3,1-2.4,2.2-2.4C484.7,290.6,485.6,291.7,485.6,293z
			 M482.1,328.3v-27.4h2.7v27.4H482.1z"/>
		<path d="M505.5,307.4c0-2.5-0.1-4.4-0.2-6.6h2.6l0.2,5h0.1c1.5-3.1,5-5.6,9.4-5.6c2.6,0,9.6,1.3,9.6,11.6v16.5h-2.7v-16.2
			c0-5-1.9-9.5-7.6-9.5c-3.8,0-7.1,2.7-8.2,6.3c-0.2,0.7-0.3,1.6-0.3,2.5v17h-2.7V307.4z"/>
	</g>
	<g>
		<path d="M155.4,376.5c-1.2,0.6-3.5,1.2-6.5,1.2c-5.8,0-11.4-3.7-11.4-12.3c0-7.1,4.6-12.6,12.2-12.6c3.1,0,4.9,0.7,5.6,1.1
			l-0.5,1.4c-1.2-0.6-3-1-5-1c-6.5,0-10.5,4.2-10.5,11.1c0,6.5,3.7,10.8,10.2,10.8c2,0,4-0.4,5.4-1.1L155.4,376.5z"/>
		<path d="M162.3,369l-3,8.4h-1.8l8.7-24.1h1.6l8.6,24.1h-1.8l-3-8.4H162.3z M171.3,367.5l-2.9-8c-0.6-1.7-0.9-2.9-1.3-4.3h-0.1
			c-0.3,1.4-0.7,2.6-1.3,4.2l-2.9,8.1H171.3z"/>
		<path d="M180.4,377.4v-24.1h1.6l9.4,14.2c2,3,3.4,5.3,4.5,7.6l0.1,0c-0.3-3.3-0.3-6-0.3-9.8v-12h1.6v24.1h-1.6l-9.2-14
			c-1.8-2.8-3.4-5.3-4.7-7.8l-0.1,0c0.2,3,0.2,5.6,0.2,9.6v12.2H180.4z"/>
		<path d="M207.7,354.7h-7.9v-1.4h17.4v1.4h-7.9v22.6h-1.7V354.7z"/>
		<path d="M231.1,365.4h-9.6V376h10.8v1.4h-12.5v-24.1h11.9v1.4h-10.2v9.3h9.6V365.4z"/>
		<path d="M236.4,353.7c1.5-0.4,3.5-0.5,5.2-0.5c3.1,0,5.1,0.7,6.5,2c1,1,1.7,2.6,1.7,4.3c0,3.3-1.9,5.3-4.7,6.3v0.1
			c1.9,0.6,3.1,2.4,3.7,5.1c0.8,3.8,1.3,5.5,1.8,6.5h-1.8c-0.4-0.7-0.9-2.8-1.5-5.9c-0.8-3.5-2.3-5-5.4-5.2h-3.8v11h-1.7V353.7z
			 M238.1,365h3.8c3.7,0,6.1-2.1,6.1-5.3c0-3.7-2.7-5.2-6.5-5.2c-1.6,0-2.9,0.2-3.5,0.3V365z"/>
		<path d="M254.4,353.7c1.4-0.3,3.1-0.5,4.9-0.5c3,0,5,0.6,6.3,2c1,1,1.5,2.3,1.5,3.9c0,2.5-1.8,4.5-4.1,5.4v0.1
			c2,0.5,5.1,2.2,5.1,6.1c0,2-0.7,3.5-1.8,4.6c-1.6,1.6-4.2,2.3-7.6,2.3c-1.8,0-3.2-0.1-4.2-0.2V353.7z M256.2,363.9h3.5
			c3.5,0,5.7-2.1,5.7-4.7c0-3.4-2.6-4.6-6.1-4.6c-1.6,0-2.5,0.1-3,0.3V363.9z M256.2,376c0.7,0.1,1.7,0.2,3,0.2
			c3.7,0,7.1-1.3,7.1-5.4c0-3.8-3.3-5.4-7.1-5.4h-3V376z"/>
		<path d="M274.2,353.3v14.5c0,6.1,2.9,8.5,6.4,8.5c4,0,6.8-2.6,6.8-8.5v-14.5h1.7v14.4c0,7.4-4,10.1-8.5,10.1c-4.2,0-8-2.5-8-9.8
			v-14.6H274.2z"/>
		<path d="M294.8,353.7c1.5-0.4,3.5-0.5,5.2-0.5c3.1,0,5.1,0.7,6.5,2c1,1,1.7,2.6,1.7,4.3c0,3.3-1.9,5.3-4.7,6.3v0.1
			c1.9,0.6,3.1,2.4,3.7,5.1c0.8,3.8,1.3,5.5,1.8,6.5h-1.8c-0.4-0.7-0.9-2.8-1.5-5.9c-0.8-3.5-2.3-5-5.4-5.2h-3.8v11h-1.7V353.7z
			 M296.6,365h3.8c3.7,0,6.1-2.1,6.1-5.3c0-3.7-2.7-5.2-6.5-5.2c-1.6,0-2.9,0.2-3.5,0.3V365z"/>
		<path d="M318,377.4V367l-7.6-13.6h1.9l4,7.2c1,1.9,1.9,3.5,2.8,5.2h0.1c0.7-1.6,1.7-3.3,2.8-5.2l4.1-7.1h1.9l-8.1,13.7v10.4H318z"
			/>
		<path d="M325.8,381.9c0.6-1.5,1.5-5.4,1.9-7.6l2.3-0.4c-0.6,2.7-2.2,6.8-2.8,7.8L325.8,381.9z"/>
		<path d="M341.8,353.3h1.7v12.2h0.1c0.7-0.9,1.4-1.8,2.1-2.5l8.5-9.7h2.1l-9.1,10.2l10,13.9h-2l-9.1-12.7l-2.5,2.7v10h-1.7V353.3z"
			/>
		<path d="M370.9,365.4h-9.6V376H372v1.4h-12.5v-24.1h11.9v1.4h-10.2v9.3h9.6V365.4z"/>
		<path d="M376.3,377.4v-24.1h1.6l9.4,14.2c2,3,3.4,5.3,4.5,7.6l0.1,0c-0.3-3.3-0.3-6-0.3-9.8v-12h1.6v24.1h-1.6l-9.2-14
			c-1.8-2.8-3.4-5.3-4.7-7.8l-0.1,0c0.2,3,0.2,5.6,0.2,9.6v12.2H376.3z"/>
		<path d="M403.6,354.7h-7.9v-1.4h17.4v1.4h-7.9v22.6h-1.7V354.7z"/>
	</g>
</g>
</svg>
