<?xml version="1.0" encoding="utf-8"?>
<!-- Generator: Adobe Illustrator 16.0.0, SVG Export Plug-In . SVG Version: 6.00 Build 0)  -->
<!DOCTYPE svg PUBLIC "-//W3C//DTD SVG 1.1//EN" "http://www.w3.org/Graphics/SVG/1.1/DTD/svg11.dtd">
<svg version="1.1" id="Layer_1" xmlns="http://www.w3.org/2000/svg" xmlns:xlink="http://www.w3.org/1999/xlink" x="0px" y="0px"
	 width="31.49px" height="21.89px" viewBox="0 0 31.49 21.89" enable-background="new 0 0 31.49 21.89" xml:space="preserve">
<g>
	<g>
		<g>
			<path d="M16.01,4.27c-4.34,0-8.01,1.71-8.01,3.74c0,2.02,3.67,3.74,8.01,3.74c4.34,0,8.01-1.71,8.01-3.74
				C24.02,5.98,20.35,4.27,16.01,4.27z M16.01,10.68c-2.74,0-4.8-1.15-4.8-2.67c0-1.52,2.07-2.67,4.8-2.67c2.74,0,4.8,1.15,4.8,2.67
				C20.82,9.53,18.75,10.68,16.01,10.68z"/>
			<path d="M16.01,6.41c-2.14,0-3.74,0.85-3.74,1.6c0,0.76,1.6,1.6,3.74,1.6c2.14,0,3.74-0.85,3.74-1.6
				C19.75,7.25,18.15,6.41,16.01,6.41z"/>
			<path d="M16.01,0C7.33,0,0.53,3.52,0.53,8.01v5.87c0,0.55,0.11,1.11,0.33,1.65C0.34,15.98,0,16.63,0,17.37v2.09
				c0,1.34,1.09,2.43,2.43,2.43h3.45h1.07h1.6v-2.14c0-0.29,0.24-0.53,0.53-0.53s0.53,0.24,0.53,0.53v2.14h1.6v-2.14
				c0-0.29,0.24-0.53,0.53-0.53s0.53,0.24,0.53,0.53v2.14h1.6v-2.14c0-0.29,0.24-0.53,0.53-0.53s0.53,0.24,0.53,0.53v2.14h1.07
				c0.18,0,0.36,0,0.53-0.01v-2.13c0-0.29,0.24-0.53,0.53-0.53c0.3,0,0.53,0.24,0.53,0.53v2.1c0.54-0.03,1.08-0.07,1.6-0.13v-1.97
				c0-0.29,0.24-0.53,0.53-0.53c0.3,0,0.54,0.24,0.54,0.53v1.84c0.55-0.08,1.08-0.17,1.6-0.28v-2.09c0-0.29,0.24-0.53,0.53-0.53
				s0.53,0.24,0.53,0.53v1.85c0.55-0.14,1.09-0.3,1.6-0.47v-2.44c0-0.29,0.24-0.53,0.53-0.53c0.3,0,0.53,0.24,0.53,0.53v2.05
				c0.57-0.23,1.1-0.48,1.6-0.75v-2.37c0-0.29,0.24-0.53,0.53-0.53s0.53,0.24,0.53,0.53v1.73c0.39-0.26,0.75-0.54,1.08-0.82
				l-0.01-2.5c0-0.29,0.24-0.53,0.53-0.53h0c0.29,0,0.53,0.24,0.53,0.53l0,1.37c0.69-0.91,1.06-1.91,1.06-2.96V8.01
				C31.5,3.52,24.7,0,16.01,0z M3.47,20.29c-1.03,0-1.87-0.84-1.87-1.87s0.84-1.87,1.87-1.87c1.03,0,1.87,0.84,1.87,1.87
				C5.34,19.45,4.5,20.29,3.47,20.29z M6.94,14.95H5.87H2.43H1.78c-0.12-0.36-0.18-0.71-0.18-1.07v-2.9
				c0.01,0.02,0.03,0.03,0.04,0.05c0.14,0.18,0.29,0.36,0.46,0.54c0.03,0.03,0.06,0.06,0.08,0.09c0.18,0.18,0.36,0.36,0.56,0.53
				c0,0,0,0,0,0c0.2,0.17,0.42,0.34,0.64,0.5c0.04,0.03,0.07,0.05,0.11,0.08c0.22,0.15,0.45,0.3,0.69,0.45
				c0.05,0.03,0.1,0.06,0.14,0.09c0.24,0.14,0.5,0.28,0.76,0.42c0.04,0.02,0.08,0.04,0.11,0.06c0.27,0.13,0.54,0.26,0.83,0.38
				c0.02,0.01,0.04,0.02,0.06,0.03c0.29,0.13,0.6,0.24,0.91,0.36c0.06,0.02,0.11,0.04,0.16,0.06c0.31,0.11,0.62,0.21,0.94,0.31
				c0.03,0.01,0.05,0.02,0.08,0.03H6.94L6.94,14.95z M16.01,12.81c-5.09,0-9.07-2.11-9.07-4.8c0-2.69,3.99-4.8,9.07-4.8
				c5.09,0,9.08,2.11,9.08,4.8C25.09,10.7,21.1,12.81,16.01,12.81z"/>
			<path d="M3.47,17.62c-0.44,0-0.8,0.36-0.8,0.8s0.36,0.8,0.8,0.8c0.44,0,0.8-0.36,0.8-0.8S3.91,17.62,3.47,17.62z"/>
		</g>
	</g>
</g>
</svg>
