<?xml version="1.0" encoding="utf-8"?>
<!-- Generator: Adobe Illustrator 16.0.0, SVG Export Plug-In . SVG Version: 6.00 Build 0)  -->
<!DOCTYPE svg PUBLIC "-//W3C//DTD SVG 1.1//EN" "http://www.w3.org/Graphics/SVG/1.1/DTD/svg11.dtd">
<svg version="1.1" id="Layer_1" xmlns="http://www.w3.org/2000/svg" xmlns:xlink="http://www.w3.org/1999/xlink" x="0px" y="0px"
	 width="42px" height="23.2px" viewBox="0 0 42 23.2" enable-background="new 0 0 42 23.2" xml:space="preserve">
<g>
	<path d="M42,4.9H17.3l-1.9-4.1C15.1,0.3,14.7,0,14.1,0h-0.5c-0.5,0-1,0.3-1.2,0.8l-1.9,4.1H0v0.5h10.3L3.1,21
		C3,21.4,3,21.9,3.2,22.3c0.1,0.2,0.2,0.3,0.4,0.4H0v0.5h42v-0.5h-3.6c0.1-0.1,0.1-0.1,0.2-0.2c0.3-0.3,0.4-0.6,0.4-1l-0.1-10
		c0-3.6-2.2-5.9-5.8-6.2H42V4.9z M13.7,5.4h0.5l3.8,8.3H9.9L13.7,5.4z M6,22.2l2.5-5.4h10.9l2.5,5.5c0.1,0.2,0.3,0.4,0.5,0.6H5.5
		C5.8,22.6,5.9,22.4,6,22.2z M35.9,21.6c0,0.5,0.2,0.9,0.6,1.1h-3.6c1.1-0.2,2.1-0.7,3-1.3L35.9,21.6z M35.9,16.7
		c-1,2.2-2.5,3.2-5.1,3.2c-1.5,0-3.1-0.7-3.1-2.6c0-1.8,2.4-2.1,3.8-2.1h4.4L35.9,16.7z M25.7,9.6l0.2,0.3c0.2,0.3,0.5,0.5,0.9,0.5
		c0.4,0,0.7,0,1-0.3c1.6-1.2,3-1.8,4.5-1.8c3.2,0,3.6,1.8,3.6,3.2v0.6h-4.4c-5.1,0-6.9,2.6-6.9,5.1c0,2.7,1.7,4.7,4.3,5.4h-4.7
		c0.2-0.1,0.3-0.2,0.4-0.4c0.3-0.4,0.3-0.9,0.1-1.3L17.5,5.4h14c-1.9,0.2-3.6,0.9-5.5,2.4C25.4,8.2,25.3,9,25.7,9.6z"/>
</g>
</svg>
