<?xml version="1.0" encoding="iso-8859-1"?>
<!-- Generator: Adobe Illustrator 16.0.0, SVG Export Plug-In . SVG Version: 6.00 Build 0)  -->
<!DOCTYPE svg PUBLIC "-//W3C//DTD SVG 1.1//EN" "http://www.w3.org/Graphics/SVG/1.1/DTD/svg11.dtd">
<svg version="1.1" id="Capa_1" xmlns="http://www.w3.org/2000/svg" xmlns:xlink="http://www.w3.org/1999/xlink" x="0px" y="0px"
	 width="68.694px" height="68.694px" viewBox="0 0 68.694 68.694" style="enable-background:new 0 0 68.694 68.694;"
	 xml:space="preserve">
<g>
	<path d="M54.203,0h-39.71c-1.161,0-2.102,0.942-2.102,2.102v64.492c0,1.156,0.941,2.101,2.102,2.101h39.71
		c1.158,0,2.101-0.944,2.101-2.101V2.104C56.304,0.944,55.361,0,54.203,0z M29.024,3.272H39.67c0.27,0,0.49,0.231,0.49,0.517
		c0,0.283-0.221,0.517-0.49,0.517H29.024c-0.269,0-0.488-0.234-0.488-0.517C28.536,3.501,28.753,3.272,29.024,3.272z M34.737,66.206
		c-1.366,0-2.476-1.108-2.476-2.478c0-1.364,1.11-2.478,2.476-2.478c1.364,0,2.477,1.113,2.477,2.478
		C37.214,65.098,36.102,66.206,34.737,66.206z M52.1,58.359H16.595V7.031h2.151v7.3l2.273-1.906l2.273,1.906v-7.3H52.1V58.359
		L52.1,58.359z M46.803,20.055H34.347v-1.824h12.456V20.055z M46.803,27.024H34.347v-1.825h12.456V27.024z M21.89,32.227h24.913
		v1.832H21.89V32.227z M21.89,39.198h24.913v1.824H21.89V39.198z M21.89,46.232h24.913v1.83H21.89V46.232z M22.96,27.558h1.063
		l0.649-2.008h3.747l0.67,2.008h1.088h1.099l-3.497-9.883h-1.196h-1.198l-3.497,9.883H22.96z M26.555,19.888l1.312,3.961h-2.623
		L26.555,19.888z"/>
</g>
<g>
</g>
<g>
</g>
<g>
</g>
<g>
</g>
<g>
</g>
<g>
</g>
<g>
</g>
<g>
</g>
<g>
</g>
<g>
</g>
<g>
</g>
<g>
</g>
<g>
</g>
<g>
</g>
<g>
</g>
</svg>
