<?xml version="1.0" encoding="iso-8859-1"?>
<!-- Generator: Adobe Illustrator 17.1.0, SVG Export Plug-In . SVG Version: 6.00 Build 0)  -->
<!DOCTYPE svg PUBLIC "-//W3C//DTD SVG 1.1//EN" "http://www.w3.org/Graphics/SVG/1.1/DTD/svg11.dtd">
<svg version="1.1" id="Capa_1" xmlns="http://www.w3.org/2000/svg" xmlns:xlink="http://www.w3.org/1999/xlink" x="0px" y="0px"
	 viewBox="0 0 262.331 262.331" style="enable-background:new 0 0 262.331 262.331;" xml:space="preserve">
<g>
	<path d="M205.385,84.09c0.689,0,1.389-0.154,2.049-0.479l22.545-11.1c2.303-1.134,3.25-3.92,2.117-6.223
		c-1.135-2.302-3.918-3.25-6.223-2.117l-22.545,11.1c-2.303,1.134-3.25,3.92-2.117,6.223
		C202.021,83.137,203.669,84.09,205.385,84.09z"/>
	<path d="M229.356,88.763l-23.801,0.585c-2.565,0.063-4.595,2.194-4.532,4.761c0.063,2.527,2.131,4.533,4.645,4.533
		c0.038,0,0.077-0.001,0.116-0.001l23.801-0.585c2.565-0.063,4.595-2.194,4.532-4.761c-0.063-2.527-2.131-4.533-4.645-4.533
		C229.434,88.762,229.395,88.763,229.356,88.763z"/>
	<path d="M198.6,111.357l19.894,9.586c0.65,0.313,1.338,0.462,2.015,0.462c1.729,0,3.389-0.969,4.189-2.631
		c1.114-2.313,0.144-5.09-2.169-6.204l-19.894-9.586c-2.311-1.114-5.09-0.144-6.204,2.169
		C195.316,107.466,196.287,110.243,198.6,111.357z"/>
	<path d="M123.561,127.065c4.274,3.725,9.782,5.843,15.633,5.843c4.565,0,9.015-1.313,12.867-3.795
		c9.095-5.857,12.856-16.911,9.919-26.796l20.581-13.257c3.944-2.542,5.087-7.819,2.546-11.765l-21.503-33.381
		c-1.579-2.451-4.279-3.915-7.222-3.915c-1.62,0-3.197,0.457-4.561,1.321l-3.091,1.959c-1.479,0.938-3.604,1.477-5.826,1.477
		c-1.824,0-3.53-0.367-4.805-1.035l-31.805-16.638c-1.684-0.882-3.865-1.367-6.144-1.367c-2.793,0-5.516,0.722-7.47,1.981
		L26.923,70.057c-3.69,2.377-6.583,7.678-6.587,12.067l-0.03,38.392c-0.003,3.471-2.048,8.506-4.464,10.994L2.793,144.946
		c-3.151,3.244-3.722,8.978-1.273,12.78l17.22,26.735c1.572,2.439,4.254,3.895,7.174,3.895c1.633,0,3.22-0.467,4.591-1.35
		l11.43-7.363c4.273,3.725,9.781,5.843,15.634,5.843c4.564,0,9.014-1.311,12.866-3.794c5.347-3.442,9.031-8.761,10.376-14.975
		c0.862-3.983,0.691-8.028-0.446-11.828L123.561,127.065z M132.768,99.164c5.491-3.535,12.808-1.952,16.345,3.538
		c3.534,5.488,1.951,12.805-3.537,16.339c-5.49,3.537-12.807,1.954-16.344-3.534C125.695,110.017,127.28,102.7,132.768,99.164z
		 M93.534,40.607c2.615-1.685,6.981-1.833,9.704-0.33l24.27,13.394c2.723,1.503,2.812,4.11,0.196,5.794L91.228,82.961L72.622,54.078
		L93.534,40.607z M63.95,171.623c-5.487,3.535-12.807,1.951-16.342-3.536c-3.535-5.489-1.952-12.807,3.536-16.342
		c5.488-3.537,12.807-1.954,16.343,3.537C71.021,160.77,69.44,168.089,63.95,171.623z M38.155,117.148
		c-2.615,1.684-4.815,0.518-4.89-2.591l-0.696-28.938c-0.074-3.108,2.003-7.03,4.617-8.715l23.999-15.459l18.605,28.883
		L38.155,117.148z"/>
	<path d="M253.152,150.415H116.476c-11.016,0-19.978,8.962-19.978,19.978v57.043c0,5.069,4.109,9.179,9.179,9.179
		s9.179-4.109,9.179-9.179v-57.043c0-0.863,0.757-1.62,1.62-1.62h136.677c5.069,0,9.179-4.109,9.179-9.179
		C262.331,154.524,258.222,150.415,253.152,150.415z"/>
</g>
<g>
</g>
<g>
</g>
<g>
</g>
<g>
</g>
<g>
</g>
<g>
</g>
<g>
</g>
<g>
</g>
<g>
</g>
<g>
</g>
<g>
</g>
<g>
</g>
<g>
</g>
<g>
</g>
<g>
</g>
</svg>
