<?xml version="1.0" encoding="iso-8859-1"?>
<!-- Generator: Adobe Illustrator 16.0.0, SVG Export Plug-In . SVG Version: 6.00 Build 0)  -->
<!DOCTYPE svg PUBLIC "-//W3C//DTD SVG 1.1//EN" "http://www.w3.org/Graphics/SVG/1.1/DTD/svg11.dtd">
<svg version="1.1" id="Capa_1" xmlns="http://www.w3.org/2000/svg" xmlns:xlink="http://www.w3.org/1999/xlink" x="0px" y="0px"
	 width="432.246px" height="432.246px" viewBox="0 0 432.246 432.246" style="enable-background:new 0 0 432.246 432.246;"
	 xml:space="preserve">
<g>
	<g>
		<g>
			<path d="M363.285,130.785H232.232v134.621h148.891V148.625C381.123,138.77,373.138,130.785,363.285,130.785z"/>
			<path d="M51.123,148.625v116.781h148.89V130.785H68.961C59.108,130.785,51.123,138.77,51.123,148.625z"/>
			<path d="M232.232,432.246h131.053c9.853,0,17.838-7.985,17.838-17.84v-116.78H232.232V432.246z"/>
			<path d="M51.123,414.406c0,9.854,7.985,17.84,17.838,17.84h131.052v-134.62H51.123V414.406z"/>
			<path d="M369.59,45.448c0.799-10.808-2.556-36.716-50.891-43.919C311.886,0.513,305.171,0,298.74,0
				c-37.496,0-60.301,16.891-72.831,31.063c-3.646,4.122-6.929,8.641-9.786,13.385c-2.858-4.744-6.141-9.263-9.786-13.385
				C193.806,16.89,171.001,0,133.506,0c-6.431,0-13.145,0.514-19.96,1.529c-48.334,7.203-51.69,33.111-50.89,43.919
				c1.396,18.832,18.056,37.979,45.71,52.526c26.999,14.198,60.459,22.025,94.217,22.025h27.079
				c33.757,0,67.217-7.827,94.217-22.025C351.534,83.429,368.194,64.28,369.59,45.448z M196.841,87.949
				c-26.667-0.809-52.604-7.22-73.596-18.263c-20.274-10.66-28.372-21.971-28.715-26.597c-0.031-0.411-0.087-1.184,1.965-2.772
				c2.348-1.815,8.298-5.167,21.763-7.176c5.259-0.78,10.389-1.177,15.249-1.177c30.483,0,46.511,15.146,54.585,27.848
				C195.355,71.236,197.114,82.241,196.841,87.949z M235.404,87.949c-0.272-5.708,1.485-16.713,8.75-28.137
				c8.074-12.701,24.103-27.848,54.585-27.848c4.858,0,9.99,0.396,15.248,1.177c13.466,2.009,19.416,5.36,21.764,7.176
				c2.053,1.589,1.995,2.361,1.965,2.772c-0.343,4.626-8.44,15.937-28.715,26.597C288.009,80.729,262.072,87.141,235.404,87.949z"/>
		</g>
	</g>
</g>
<g>
</g>
<g>
</g>
<g>
</g>
<g>
</g>
<g>
</g>
<g>
</g>
<g>
</g>
<g>
</g>
<g>
</g>
<g>
</g>
<g>
</g>
<g>
</g>
<g>
</g>
<g>
</g>
<g>
</g>
</svg>
