<?xml version="1.0" encoding="iso-8859-1"?>
<!-- Generator: Adobe Illustrator 16.0.0, SVG Export Plug-In . SVG Version: 6.00 Build 0)  -->
<!DOCTYPE svg PUBLIC "-//W3C//DTD SVG 1.1//EN" "http://www.w3.org/Graphics/SVG/1.1/DTD/svg11.dtd">
<svg version="1.1" id="Capa_1" xmlns="http://www.w3.org/2000/svg" xmlns:xlink="http://www.w3.org/1999/xlink" x="0px" y="0px"
	 width="18.229px" height="18.23px" viewBox="0 0 18.229 18.23" style="enable-background:new 0 0 18.229 18.23;"
	 xml:space="preserve">
<g>
	<g>
		<path d="M5.85,10.28c0.315,0.514-0.488,1.037,0.094,0.987c0.581-0.049,2.3-2.516,2.3-3.159C7.59,9.161,6.937,9.978,5.85,10.28z"/>
		<path d="M12.287,11.267c0.581,0.05-0.222-0.474,0.093-0.987c-1.087-0.302-1.739-1.119-2.394-2.172
			C9.985,8.751,11.705,11.22,12.287,11.267z"/>
		<path d="M7.141,6.273L6.812,6.199c-0.638-0.144-1.16,0.274-1.16,0.927v0.025c0,0.654,0.521,1.071,1.16,0.928l0.329-0.074
			C7.778,7.862,8.3,7.473,8.3,7.14C8.3,6.807,7.778,6.416,7.141,6.273z"/>
		<path d="M14.796,7.378h2.132V0.868L10.417,0v5.417C10.109,5.68,9.829,5.953,9.615,6.21c-0.1-0.037-0.205-0.055-0.312-0.055H8.927
			c-0.107,0-0.212,0.018-0.312,0.055C8.4,5.953,8.12,5.68,7.813,5.417V0L1.302,0.868v6.511h2.137
			c0.058,0.916,0.592,1.65,1.382,1.926C4.569,9.38,4.302,9.457,4.017,9.537L3.35,9.721l0.161,0.263H1.302v6.51l6.511,1.736v-7.639
			c0.355-0.515,0.667-1.06,0.892-1.599c0.072,0.019,0.147,0.028,0.223,0.028h0.375c0.076,0,0.151-0.011,0.223-0.028
			c0.225,0.541,0.536,1.084,0.892,1.599v7.639l6.511-1.737v-6.51h-2.209L14.88,9.72l-0.666-0.185
			c-0.285-0.078-0.552-0.154-0.803-0.231C13.712,9.2,13.983,9.029,14.207,8.8C14.558,8.44,14.757,7.947,14.796,7.378z M12.258,8.854
			l-0.577-0.129c-0.484-0.108-0.925-0.301-1.275-0.53c0.99,1.061,2.128,1.415,3.67,1.843c-0.565,0.923,0.736,2.918-0.306,2.831
			c-0.915-0.075-3.407-2.503-3.995-4.755C9.666,8.342,9.5,8.5,9.303,8.5H8.927c-0.198,0-0.364-0.159-0.472-0.387
			c-0.586,2.252-3.08,4.68-3.996,4.755c-1.042,0.087,0.26-1.908-0.304-2.831c1.542-0.427,2.681-0.782,3.669-1.843
			c-0.351,0.229-0.791,0.42-1.275,0.53L5.971,8.854C4.854,9.104,3.938,8.372,3.938,7.226V7.184c0-1.147-0.126-2.921,0.992-2.669
			l0.579,0.129c0.987,0.223,2.625,1.591,2.995,2.312c0.108-0.17,0.258-0.279,0.425-0.279h0.375c0.167,0,0.317,0.108,0.425,0.279
			c0.368-0.72,2.006-2.089,2.994-2.312l0.578-0.13c1.118-0.251,0.993,1.523,0.993,2.669v0.042
			C14.291,8.372,13.376,9.104,12.258,8.854z"/>
		<path d="M11.418,6.199l-0.329,0.074C10.451,6.416,9.93,6.806,9.93,7.139s0.521,0.723,1.159,0.866l0.329,0.074
			c0.638,0.144,1.159-0.273,1.159-0.928V7.125C12.577,6.473,12.056,6.055,11.418,6.199z"/>
	</g>
</g>
<g>
</g>
<g>
</g>
<g>
</g>
<g>
</g>
<g>
</g>
<g>
</g>
<g>
</g>
<g>
</g>
<g>
</g>
<g>
</g>
<g>
</g>
<g>
</g>
<g>
</g>
<g>
</g>
<g>
</g>
</svg>
