<?xml version="1.0" encoding="iso-8859-1"?>
<!-- Generator: Adobe Illustrator 19.0.0, SVG Export Plug-In . SVG Version: 6.00 Build 0)  -->
<svg version="1.1" id="Capa_1" xmlns="http://www.w3.org/2000/svg" xmlns:xlink="http://www.w3.org/1999/xlink" x="0px" y="0px"
	 viewBox="0 0 489.6 489.6" style="enable-background:new 0 0 489.6 489.6;" xml:space="preserve">
<g>
	<path d="M466.1,115c-9.7,0-17.5,7.8-17.5,17.5v54.8h-27.2V89.8L188.3,103V78.5h12.8V22.1h-12.8V9.7c0-5.4-4.3-9.7-9.7-9.7
		s-9.7,4.3-9.7,9.7v12.4h-12.8v56.3h12.7v24.5c0,0.4,0,0.8,0,1.2L5.6,113.4v85.1l17.1,0.8v82h16.7v35h13.2v39.2
		c0,5.4,4.3,9.7,9.7,9.7s9.7-4.3,9.7-9.7v-39.2h13.2v-35h16.7V204l182.2,10.1v180.7H5.6v94.8h416.2V282.9H449v54.8
		c0,9.7,7.8,17.5,17.5,17.5s17.5-7.8,17.5-17.5V132.5C483.6,122.8,475.8,115,466.1,115z M448.6,263.1h-27.2v-56.3h27.2V263.1z"/>
</g>
<g>
</g>
<g>
</g>
<g>
</g>
<g>
</g>
<g>
</g>
<g>
</g>
<g>
</g>
<g>
</g>
<g>
</g>
<g>
</g>
<g>
</g>
<g>
</g>
<g>
</g>
<g>
</g>
<g>
</g>
</svg>
