<?xml version="1.0" encoding="iso-8859-1"?>
<!-- Generator: Adobe Illustrator 18.1.1, SVG Export Plug-In . SVG Version: 6.00 Build 0)  -->
<svg version="1.1" id="Capa_1" xmlns="http://www.w3.org/2000/svg" xmlns:xlink="http://www.w3.org/1999/xlink" x="0px" y="0px"
	 viewBox="0 0 27.038 27.038" style="enable-background:new 0 0 27.038 27.038;" xml:space="preserve">
<g>
	<g>
		<g id="c39_voice">
			<path style="fill:#090509;" d="M7.489,6.838H3.778c0,0-2.932,0.127-2.932,2.966v3.907c0,0-0.061,3.273,2.813,3.273
				c0,0,1.017,0.633,1.017,1.832v7.061c0,0-0.179,1.133,0.956,1.133c0,0,3.32,0.516,1.675-2.876
				c1.242-1.282,0.142-2.595,0.142-2.595s1.118-1.07,0.041-2.533c0,0,0.957-1.324,0.957-2.082l0.058-9.016
				C8.506,7.908,8.687,6.838,7.489,6.838z M3.17,13.91c0,0.47-0.381,0.852-0.854,0.852c-0.471,0-0.851-0.382-0.851-0.852V9.795
				c0-0.469,0.38-0.851,0.851-0.851c0.473,0,0.854,0.382,0.854,0.851V13.91z"/>
			<path style="fill:#090509;" d="M24.489,8.686V0.45c0-1.077-0.912,0.118-0.912,0.118C19.259,7.272,10.35,6.734,10.35,6.734
				c-1.052,0-0.884,0.898-0.884,0.898v7.779c0,0.898,0.939,0.898,0.939,0.898c9.961,0,13.354,6.294,13.354,6.294
				s0.784,0.978,0.73-0.04v-8.222c1.007-0.544,1.703-1.598,1.703-2.827S25.496,9.23,24.489,8.686z"/>
		</g>
	</g>
</g>
<g>
</g>
<g>
</g>
<g>
</g>
<g>
</g>
<g>
</g>
<g>
</g>
<g>
</g>
<g>
</g>
<g>
</g>
<g>
</g>
<g>
</g>
<g>
</g>
<g>
</g>
<g>
</g>
<g>
</g>
</svg>
