<?xml version="1.0" encoding="utf-8"?>
<!-- Generator: Adobe Illustrator 12.0.0, SVG Export Plug-In  -->
<!DOCTYPE svg PUBLIC "-//W3C//DTD SVG 1.1//EN" "http://www.w3.org/Graphics/SVG/1.1/DTD/svg11.dtd" [
	<!ENTITY ns_flows "http://ns.adobe.com/Flows/1.0/">
	<!ENTITY ns_svg "http://www.w3.org/2000/svg">
	<!ENTITY ns_xlink "http://www.w3.org/1999/xlink">
]>
<svg  version="1.1" xmlns="&ns_svg;" xmlns:xlink="&ns_xlink;" xmlns:a="http://ns.adobe.com/AdobeSVGViewerExtensions/3.0/"
	 width="101" height="101" viewBox="-0.5 -0.95 101 101" enable-background="new -0.5 -0.95 101 101" xml:space="preserve">
<defs>
</defs>
<path fill="#FFFFFF" d="M50,0C22.39,0,0,22.39,0,50c0,27.62,22.39,50,50,50c27.62,0,50-22.38,50-50C100,22.39,77.62,0,50,0z
	 M65.67,52.37L44.05,73.99c-1.3,1.29-3.41,1.29-4.71,0c-1.3-1.3-1.3-3.42,0-4.71L58.61,50L39.33,30.73c-1.3-1.3-1.3-3.41,0-4.71
	s3.41-1.3,4.71,0l21.62,21.62c0.67,0.65,0.98,1.51,0.97,2.37C66.64,50.86,66.32,51.71,65.67,52.37z"/>
</svg>
