<?xml version="1.0" encoding="utf-8"?>
<!-- Generator: Adobe Illustrator 16.0.0, SVG Export Plug-In . SVG Version: 6.00 Build 0)  -->
<!DOCTYPE svg PUBLIC "-//W3C//DTD SVG 1.1//EN" "http://www.w3.org/Graphics/SVG/1.1/DTD/svg11.dtd">
<svg version="1.1" id="Layer_1" xmlns="http://www.w3.org/2000/svg" xmlns:xlink="http://www.w3.org/1999/xlink" x="0px" y="0px"
	 width="6.9px" height="6.9px" viewBox="0 0 6.9 6.9" enable-background="new 0 0 6.9 6.9" xml:space="preserve">
<g>
	<g>
		<path fill="#020203" d="M4.6,1.7h0.5l-0.4,2c0,0.2,0,0.4,0,0.5c0,0.1,0.1,0.2,0.3,0.2s0.3,0,0.4-0.1c0.1-0.1,0.2-0.2,0.3-0.3
			C5.8,3.9,5.9,3.8,6,3.6C6,3.4,6.1,3.2,6.1,2.9c0-0.4-0.1-0.7-0.2-1C5.7,1.7,5.6,1.5,5.4,1.3S4.9,1,4.6,0.9C4.3,0.8,4,0.8,3.6,0.8
			C3.2,0.8,2.9,0.9,2.5,1C2.2,1.1,1.9,1.3,1.6,1.6C1.4,1.8,1.2,2.1,1.1,2.5C0.9,2.8,0.8,3.2,0.8,3.6C0.8,4,0.9,4.3,1,4.6
			c0.1,0.3,0.3,0.6,0.5,0.8C1.8,5.6,2,5.8,2.4,5.9C2.7,6,3.1,6.1,3.5,6.1c0.1,0,0.3,0,0.5-0.1C4.2,6,4.4,6,4.5,5.9l0.2,0.7
			C4.6,6.7,4.4,6.8,4.1,6.8S3.7,6.9,3.4,6.9c-0.5,0-0.9-0.1-1.4-0.2C1.6,6.5,1.3,6.3,1,6.1C0.7,5.8,0.4,5.4,0.3,5
			C0.1,4.6,0,4.1,0,3.6c0-0.5,0.1-1,0.3-1.5C0.5,1.7,0.8,1.3,1.1,1c0.3-0.3,0.7-0.6,1.2-0.7C2.7,0.1,3.1,0,3.6,0
			c0.5,0,0.9,0.1,1.3,0.2c0.4,0.1,0.7,0.3,1,0.6C6.3,1,6.5,1.3,6.7,1.7C6.8,2,6.9,2.5,6.9,2.9c0,0.3-0.1,0.6-0.2,0.9
			C6.6,4.1,6.5,4.3,6.3,4.6C6.1,4.8,5.8,4.9,5.6,5C5.3,5.2,5,5.2,4.7,5.2c-0.1,0-0.2,0-0.4,0C4.3,5.2,4.2,5.1,4.1,5
			C4,5,4,4.9,3.9,4.8c0-0.1,0-0.2,0-0.4h0C3.8,4.5,3.7,4.6,3.6,4.7C3.5,4.8,3.4,4.9,3.3,5C3.2,5.1,3.1,5.1,3,5.2
			c-0.1,0-0.3,0.1-0.4,0.1c-0.1,0-0.2,0-0.3-0.1C2.1,5.1,2,5,1.9,4.9S1.8,4.7,1.7,4.6c0-0.1-0.1-0.3-0.1-0.5c0-0.3,0.1-0.6,0.2-0.9
			c0.1-0.3,0.2-0.6,0.4-0.8C2.4,2.2,2.6,2,2.8,1.9c0.2-0.1,0.5-0.2,0.7-0.2c0.2,0,0.3,0,0.4,0.1C4.1,1.8,4.2,1.9,4.3,2L4.6,1.7z
			 M4.1,2.6C4,2.6,4,2.5,3.9,2.5c-0.1,0-0.2,0-0.3,0c-0.2,0-0.3,0-0.4,0.1S3,2.8,2.9,2.9C2.8,3.1,2.7,3.2,2.7,3.4
			C2.6,3.6,2.6,3.7,2.6,3.9c0,0.2,0,0.3,0.1,0.4C2.8,4.4,2.9,4.4,3,4.4c0.1,0,0.1,0,0.2-0.1c0.1,0,0.2-0.1,0.2-0.2
			C3.6,4.1,3.7,4.1,3.7,4c0.1-0.1,0.1-0.2,0.2-0.3L4.1,2.6z"/>
	</g>
</g>
</svg>
