<?xml version="1.0" encoding="utf-8"?>
<!-- Generator: Adobe Illustrator 12.0.0, SVG Export Plug-In  -->
<!DOCTYPE svg PUBLIC "-//W3C//DTD SVG 1.1//EN" "http://www.w3.org/Graphics/SVG/1.1/DTD/svg11.dtd" [
	<!ENTITY ns_flows "http://ns.adobe.com/Flows/1.0/">
	<!ENTITY ns_svg "http://www.w3.org/2000/svg">
	<!ENTITY ns_xlink "http://www.w3.org/1999/xlink">
]>
<svg  version="1.1" xmlns="&ns_svg;" xmlns:xlink="&ns_xlink;" xmlns:a="http://ns.adobe.com/AdobeSVGViewerExtensions/3.0/"
	 width="98" height="101" viewBox="0.01 -0.09 98 101" enable-background="new 0.01 -0.09 98 101" xml:space="preserve">
<defs>
</defs>
<g>
	<g>
		<path fill="#FFFFFF" d="M89.55,19.17l-20.14,1.65c-2.47-8.4-8.96-14.81-16.88-16.42c-2.97-2.24-6.43-3.73-10.21-4.22V0h-2.59v0.15
			C26.97,1.49,16.94,12.14,16.59,25.16L0.07,26.51l10.22,63.92L69.35,100l14.07-7.01l13.81-64.43L89.55,19.17z M66.57,21.06
			l-4.09,0.34c-0.72-4.6-2.53-8.78-5.12-12.2C61.6,11.67,64.92,15.91,66.57,21.06z M51.42,7.02c4.24,3.4,7.29,8.59,8.27,14.6
			l-29.66,2.43c1.93-9.41,10-16.61,19.82-17.22C50.37,6.87,50.9,6.94,51.42,7.02z M40.97,2.84c2.13,0.15,4.17,0.67,6.08,1.51
			C36.9,6.1,28.88,14.14,27.14,24.29l-7.77,0.64C19.84,13.12,29.23,3.57,40.97,2.84z M70.23,96.31l-1.13-0.29l19.05-74.79l1.13,0.29
			L70.23,96.31z"/>
	</g>
</g>
<g>
	<g>
		<path fill="none" d="M69.28,101c-19.68-3.2-39.37-6.38-59.05-9.57C6.82,70.13,3.41,48.82,0,27.51
			c29.83-2.45,59.66-4.89,89.48-7.34C82.75,47.11,76.01,74.06,69.28,101z"/>
		<g>
			<g>
				<g>
					<path fill="#81BF08" d="M31.13,45.29c0.02,0.45-1.86,1.7-5.42,2c-3.56,0.3-5.59-0.6-5.64-1.03c-0.05-0.43,1.78-1.65,5.4-1.98
						C29.09,43.95,31.11,44.85,31.13,45.29z M25.35,42.85c-3.38,0.32-6.9,1.56-6.66,3.53c0.24,1.97,3.85,2.6,7.12,2.34
						c3.27-0.26,6.78-1.5,6.7-3.55C32.43,43.11,28.73,42.53,25.35,42.85z"/>
				</g>
				<g>
					<path fill="#81BF08" d="M37.46,40.58c-0.07-0.15-0.04-0.3-0.02-0.35c-0.16,0.31-1.57,1.54-4.18,3.07
						c-2.61,1.54-4.24,2.09-4.55,2.06c0.05,0,0.18,0.06,0.25,0.2c0.08,0.16,0.05,0.3,0.03,0.34c0.14-0.3,1.44-1.47,4.06-3.01
						c2.62-1.54,4.33-2.15,4.65-2.12C37.66,40.78,37.54,40.72,37.46,40.58z M32.55,41.87c-5.28,3.1-4.71,3.98-4.55,4.28
						c0.16,0.3,0.56,1.27,5.79-1.81c0.72-0.42,4.36-2.61,4.74-3.78c0.07-0.21,0.06-0.42-0.02-0.6
						C38.36,39.66,37.82,38.76,32.55,41.87z"/>
				</g>
				<g>
					<path fill="#81BF08" d="M47.17,42.25c-0.01,0.04-0.07,0.11-0.2,0.2c-0.79,0.55-2.96,0.81-5.63,0.28
						c-3.52-0.7-5.2-2.15-5.09-2.6c0.11-0.44,2.33-1.19,5.91-0.52c2.72,0.51,4.54,1.59,4.95,2.38
						C47.17,42.12,47.18,42.21,47.17,42.25z M42.55,38.12c-3.34-0.61-7.21-0.3-7.69,1.75c-0.48,2.05,2.86,3.66,6.1,4.33
						c2.79,0.57,5.38,0.39,6.66-0.5c0.57-0.4,0.8-0.86,0.89-1.19c0.09-0.32,0.15-0.83-0.15-1.4C47.71,39.83,45.43,38.65,42.55,38.12
						z"/>
				</g>
				<g>
					<path fill="#81BF08" d="M53.1,45.12c-0.05-0.46,1.78-2.17,5.46-3.3c2.8-0.86,4.98-0.84,5.66-0.35
						c0.11,0.08,0.15,0.15,0.15,0.19c0,0.04-0.03,0.13-0.12,0.27c-0.6,0.89-2.66,2.24-5.43,3.08C55.19,46.12,53.15,45.57,53.1,45.12
						z M58.93,46.53c2.89-0.88,5.4-2.38,6.37-3.82c0.43-0.64,0.5-1.17,0.49-1.5c-0.02-0.33-0.14-0.8-0.63-1.15
						c-1.1-0.79-3.77-0.69-6.74,0.24c-3.44,1.07-6.96,3.13-6.71,5.24S55.59,47.55,58.93,46.53z"/>
				</g>
				<path fill="#81BF08" d="M44.1,45.91c-0.58,0.01-0.87,0.02-1.45,0.03c-0.37,0.53-0.55,0.8-0.91,1.33c-0.14-0.6-0.21-0.9-0.35-1.5
					c-0.55-0.17-0.82-0.25-1.37-0.42c0.49-0.38,0.74-0.58,1.24-0.96c0.03-0.63,0.04-0.95,0.06-1.59c0.45,0.36,0.68,0.54,1.13,0.9
					c0.57-0.23,0.86-0.34,1.43-0.57c-0.23,0.61-0.34,0.92-0.57,1.53C43.63,45.16,43.79,45.41,44.1,45.91z"/>
				<path fill="#81BF08" d="M23.14,43.49c-0.59,0.05-0.89,0.08-1.47,0.13c-0.29,0.52-0.43,0.78-0.71,1.3
					c-0.24-0.55-0.36-0.83-0.6-1.38c-0.58-0.12-0.87-0.18-1.46-0.3c0.44-0.39,0.66-0.59,1.1-0.98c-0.08-0.59-0.12-0.89-0.2-1.48
					c0.52,0.3,0.78,0.46,1.3,0.76c0.54-0.25,0.81-0.38,1.36-0.63c-0.13,0.59-0.2,0.88-0.33,1.47
					C22.54,42.82,22.74,43.04,23.14,43.49z"/>
				<path fill="#81BF08" d="M62.11,39.04c-0.58,0.33-0.87,0.49-1.45,0.82c-0.18,0.67-0.26,1-0.44,1.67
					c-0.35-0.46-0.53-0.68-0.88-1.14c-0.6,0.15-0.91,0.22-1.51,0.37c0.35-0.6,0.53-0.91,0.88-1.51c-0.21-0.57-0.31-0.86-0.52-1.43
					c0.58,0.07,0.87,0.11,1.46,0.18c0.48-0.5,0.73-0.76,1.22-1.26c0,0.66,0,0.98-0.01,1.64C61.36,38.64,61.61,38.77,62.11,39.04z"/>
				<g>
					<path fill="#C6C8CA" d="M19.66,45.1c-0.28,0.11-0.76,0.48-0.56,1.15c0.23,0.75,1.52,2.03,4.9,2.02
						c3.24-0.01,4.94-0.58,5.01-0.6c-0.04-0.13-0.06-0.19-0.09-0.32l0,0c-0.02,0-1.73,0.57-4.92,0.59c-3.2,0.02-4.4-1.16-4.59-1.77
						c-0.16-0.54,0.32-0.74,0.37-0.76C19.73,45.28,19.71,45.22,19.66,45.1z"/>
				</g>
				<g>
					<path fill="#C6C8CA" d="M47.07,43.83c0.31-0.03,0.91-0.29,0.99-1.05c0.09-0.85-0.62-2.54-3.94-3.41
						c-3.19-0.83-5.06-0.68-5.14-0.68c0,0.14,0,0.21-0.01,0.34l0,0c0.02,0,1.91-0.15,5.03,0.67c3.13,0.82,3.8,2.38,3.73,3.07
						c-0.06,0.61-0.6,0.68-0.66,0.69C47.07,43.62,47.07,43.69,47.07,43.83z"/>
				</g>
				<g>
					<path fill="#81BF08" d="M54.52,44.4c0.05-0.18,0.17-0.28,0.22-0.31c-0.3,0.15-2.01,0.18-4.8-0.39
						c-2.79-0.57-4.33-1.25-4.52-1.49c0.03,0.04,0.08,0.17,0.03,0.35c-0.05,0.17-0.16,0.27-0.21,0.3c0.3-0.15,2.04-0.2,4.84,0.37
						c2.79,0.56,4.27,1.28,4.45,1.53C54.52,44.72,54.46,44.59,54.52,44.4z M50.45,41.99c-0.77-0.15-4.72-0.86-5.72-0.16
						c-0.18,0.13-0.31,0.31-0.36,0.51c-0.05,0.2-0.03,0.41,0.07,0.59c0.54,1,4.4,1.84,5.16,2c0.76,0.16,4.59,0.93,5.61,0.22
						c0.18-0.13,0.32-0.32,0.39-0.53C55.71,44.26,56.1,43.1,50.45,41.99z"/>
				</g>
				<g>
					<path fill="#C6C8CA" d="M64.51,40.23C64.51,40.23,64.51,40.23,64.51,40.23c0.02,0.01,0.47,0.32,0.39,1.07
						c-0.14,1.3-3.31,2.89-4.5,3.39c0.02,0.14,0.03,0.21,0.06,0.34c0.46-0.19,4.58-1.96,4.77-3.77c0.1-0.95-0.48-1.34-0.5-1.36
						C64.64,40.03,64.6,40.1,64.51,40.23z"/>
				</g>
				<g>
					<path fill="#81BF08" d="M10.28,58.15C9.19,57.21,8.78,56,8.65,55c-0.09-0.71-0.02-1.95,0.79-2.91
						c0.55-0.65,1.45-1.16,3.07-1.18c0.42-0.01,1.01,0.02,1.54,0.11c0.41,0.07,0.75,0.13,1.09,0.15c0.11,0.01,0.14,0.05,0.15,0.12
						c0.01,0.09-0.01,0.22,0,0.61c0.01,0.36,0.06,0.96,0.07,1.12c0,0.16-0.01,0.23-0.07,0.23c-0.07,0-0.09-0.08-0.1-0.23
						c-0.04-0.42-0.25-0.87-0.54-1.1c-0.4-0.32-1.23-0.6-2.16-0.59c-1.4,0.02-2,0.45-2.32,0.81c-0.67,0.76-0.73,1.7-0.59,2.79
						c0.25,2.03,1.96,3.91,4.11,3.94c0.75,0.01,1.34-0.08,1.69-0.52c0.19-0.23,0.28-0.71,0.29-0.91c0.01-0.12,0.03-0.16,0.09-0.16
						c0.05,0,0.08,0.08,0.08,0.16c0.01,0.08-0.03,1.02-0.1,1.38c-0.04,0.2-0.06,0.24-0.23,0.32c-0.37,0.17-1.14,0.23-1.78,0.22
						C12.22,59.33,11.17,58.91,10.28,58.15z"/>
					<path fill="#81BF08" d="M20.49,54.1c0.07-0.23,0.1-0.27,0.15-0.27c0.07,0,0.1,0.1,0.18,0.26c0.14,0.29,1.37,3.22,1.82,4.29
						c0.27,0.63,0.45,0.73,0.6,0.78c0.1,0.03,0.2,0.04,0.26,0.04c0.04,0,0.08,0.02,0.09,0.06c0,0.04-0.07,0.06-0.15,0.05
						c-0.1,0-0.59,0-1.04-0.03c-0.13-0.01-0.23-0.01-0.24-0.05c0-0.03,0.01-0.04,0.04-0.05c0.03-0.02,0.1-0.07,0.05-0.19
						c-0.27-0.65-0.4-0.98-0.68-1.63c-0.02-0.03-0.02-0.04-0.06-0.04c-0.62,0-0.93-0.01-1.54-0.01c-0.03,0-0.05,0.01-0.06,0.06
						c-0.12,0.45-0.19,0.67-0.31,1.12c-0.05,0.17-0.08,0.34-0.07,0.47c0.01,0.14,0.13,0.19,0.24,0.19c0.02,0,0.04,0,0.06,0
						c0.05,0,0.07,0.03,0.07,0.06c0,0.04-0.03,0.06-0.09,0.06c-0.16,0-0.52-0.03-0.59-0.03c-0.07,0-0.4,0.02-0.67,0.02
						c-0.08,0-0.13-0.02-0.13-0.06c0-0.03,0.03-0.06,0.06-0.06c0.04,0,0.14-0.01,0.19-0.02c0.3-0.04,0.41-0.28,0.51-0.63
						C19.69,56.74,19.95,55.86,20.49,54.1z M21.4,57.04c0.03,0,0.03-0.02,0.02-0.05c-0.3-0.78-0.46-1.16-0.77-1.93
						c-0.04-0.11-0.08-0.11-0.11,0c-0.21,0.77-0.31,1.16-0.52,1.93c0,0.03,0,0.05,0.03,0.05C20.59,57.03,20.86,57.03,21.4,57.04z"/>
					<path fill="#81BF08" d="M25.47,59.25c-0.09-0.05-0.1-0.08-0.1-0.27c-0.01-0.35,0.02-0.64,0.02-0.76c0-0.07,0.01-0.12,0.05-0.12
						s0.06,0.02,0.06,0.08c0,0.06,0.01,0.16,0.03,0.26c0.12,0.52,0.62,0.72,1.06,0.72c0.65,0.01,0.98-0.4,0.98-0.94
						c-0.01-0.52-0.26-0.77-0.86-1.26c-0.12-0.1-0.19-0.15-0.31-0.25c-0.74-0.6-0.99-1.04-1-1.54c-0.02-0.84,0.58-1.35,1.47-1.35
						c0.27,0,0.54,0.04,0.71,0.08c0.13,0.03,0.19,0.03,0.24,0.03c0.05,0,0.07,0.01,0.07,0.05c0,0.03-0.03,0.27-0.02,0.76
						c0,0.11-0.01,0.16-0.05,0.16s-0.06-0.04-0.06-0.09c-0.01-0.08-0.06-0.28-0.1-0.36c-0.05-0.08-0.28-0.36-0.89-0.35
						c-0.5,0-0.9,0.27-0.89,0.78c0.01,0.46,0.23,0.71,0.9,1.21c0.08,0.06,0.12,0.09,0.19,0.14c0.83,0.62,1.11,1.13,1.12,1.75
						c0,0.42-0.13,0.88-0.6,1.22c-0.27,0.2-0.69,0.25-1.05,0.24C26.13,59.45,25.74,59.4,25.47,59.25z"/>
					<path fill="#81BF08" d="M32.55,54.06c0.09-0.24,0.12-0.29,0.17-0.29c0.07,0,0.09,0.1,0.16,0.27c0.12,0.31,1.14,3.34,1.52,4.46
						c0.22,0.66,0.4,0.76,0.54,0.81c0.1,0.04,0.19,0.05,0.26,0.05c0.04,0,0.08,0.02,0.08,0.06c0,0.04-0.08,0.06-0.15,0.06
						c-0.1,0-0.59,0-1.04-0.03c-0.13-0.01-0.23-0.01-0.23-0.05c0-0.04,0.02-0.04,0.05-0.05c0.04-0.02,0.11-0.08,0.06-0.2
						c-0.22-0.68-0.33-1.01-0.56-1.69c-0.01-0.04-0.02-0.04-0.06-0.04c-0.62,0-0.93-0.01-1.54-0.01c-0.03,0-0.05,0.02-0.07,0.06
						c-0.16,0.47-0.23,0.7-0.39,1.16c-0.06,0.18-0.1,0.36-0.1,0.49c0,0.15,0.11,0.2,0.22,0.2c0.02,0,0.04,0,0.06,0
						c0.05,0,0.07,0.03,0.07,0.06c0,0.04-0.04,0.06-0.1,0.06c-0.16,0-0.52-0.03-0.59-0.03c-0.07,0-0.4,0.02-0.67,0.02
						c-0.08,0-0.13-0.02-0.13-0.06c0-0.04,0.03-0.06,0.06-0.06c0.04,0,0.14-0.01,0.19-0.01c0.3-0.04,0.43-0.3,0.56-0.66
						C31.56,56.8,31.88,55.89,32.55,54.06z M33.25,57.11c0.03,0,0.03-0.02,0.02-0.05c-0.25-0.81-0.38-1.21-0.63-2.01
						c-0.04-0.11-0.08-0.11-0.12,0c-0.26,0.8-0.39,1.2-0.65,2c-0.01,0.03,0,0.05,0.02,0.05C32.44,57.1,32.71,57.1,33.25,57.11z"/>
					<path fill="#81BF08" d="M42.84,58.6c0,0.27,0.02,0.68,0.28,0.79c0.18,0.08,0.36,0.08,0.42,0.08c0.03,0,0.05,0.02,0.05,0.05
						c0,0.04-0.07,0.07-0.14,0.07c-0.15,0-0.89-0.03-1.12-0.06c-0.16-0.02-0.18-0.05-0.18-0.08c0-0.03,0.02-0.05,0.05-0.06
						c0.04-0.01,0.05-0.12,0.05-0.27c-0.02-1.53-0.04-2.29-0.06-3.82c-0.01,0-0.01,0-0.02,0c-0.75,1.54-1.12,2.3-1.85,3.83
						c-0.15,0.33-0.2,0.39-0.26,0.39s-0.09-0.07-0.21-0.35c-0.15-0.37-0.54-1.34-0.69-1.74c-0.17-0.48-0.65-1.73-0.76-2.04
						c-0.01,0-0.02,0-0.03,0c-0.17,1.35-0.25,2.02-0.41,3.36c-0.01,0.11-0.02,0.25-0.02,0.38c0,0.11,0.05,0.18,0.15,0.21
						c0.11,0.03,0.21,0.05,0.25,0.05c0.02,0,0.05,0.03,0.05,0.05c0,0.05-0.05,0.07-0.12,0.07c-0.25,0-0.56-0.04-0.61-0.04
						c-0.06,0-0.38,0.02-0.56,0.02c-0.07,0-0.11-0.02-0.11-0.07c0-0.03,0.03-0.05,0.07-0.05c0.05,0,0.1-0.01,0.2-0.02
						c0.22-0.04,0.24-0.31,0.28-0.59c0.28-1.94,0.42-2.91,0.7-4.86c0.01-0.08,0.04-0.13,0.08-0.13c0.05,0,0.1,0.02,0.13,0.11
						c0.74,1.85,1.1,2.78,1.79,4.65c0.88-1.85,1.33-2.78,2.25-4.66c0.04-0.07,0.07-0.12,0.12-0.12c0.05,0,0.08,0.06,0.09,0.2
						C42.77,55.82,42.79,56.75,42.84,58.6z"/>
					<path fill="#81BF08" d="M47.07,57.41c-0.07,0.74-0.13,1.34-0.12,1.66c0,0.23,0.01,0.37,0.2,0.41c0.1,0.02,0.24,0.04,0.3,0.04
						c0.04,0,0.05,0.04,0.05,0.06c0,0.04-0.04,0.06-0.11,0.06c-0.37,0-0.79-0.04-0.82-0.04c-0.04,0-0.45,0.02-0.66,0.02
						c-0.07,0-0.1-0.02-0.1-0.06c0-0.03,0.02-0.06,0.06-0.06c0.06,0,0.15-0.02,0.21-0.03c0.13-0.04,0.17-0.18,0.21-0.4
						c0.06-0.31,0.12-0.92,0.19-1.66c0.05-0.54,0.07-0.81,0.12-1.35c0.11-1.19,0.13-1.41,0.13-1.65c0.01-0.26-0.03-0.38-0.18-0.41
						c-0.08-0.02-0.16-0.03-0.21-0.03c-0.03,0-0.05-0.03-0.05-0.06c0-0.04,0.04-0.06,0.12-0.06c0.22,0,0.65,0.01,0.69,0.01
						c0.03,0,0.47-0.02,0.68-0.02c0.08,0,0.11,0.02,0.1,0.06c0,0.03-0.04,0.06-0.06,0.06c-0.05,0-0.09,0-0.17,0.02
						c-0.19,0.04-0.24,0.16-0.28,0.43c-0.03,0.24-0.05,0.46-0.16,1.65C47.15,56.6,47.12,56.87,47.07,57.41z"/>
					<path fill="#81BF08" d="M50.94,56.07c0.14-1.2,0.16-1.42,0.17-1.67c0.01-0.26-0.01-0.39-0.23-0.43
						c-0.05-0.01-0.17-0.02-0.23-0.02c-0.02,0-0.05-0.04-0.05-0.06c0-0.05,0.04-0.06,0.12-0.06c0.31,0,0.75,0.01,0.79,0.01
						c0.05,0,1.47,0,1.63-0.01c0.13-0.01,0.26-0.04,0.31-0.05c0.03-0.01,0.07-0.04,0.1-0.04c0.02,0,0.03,0.04,0.02,0.07
						c-0.01,0.06-0.05,0.15-0.1,0.37c-0.02,0.07-0.08,0.42-0.1,0.51c-0.01,0.04-0.04,0.08-0.07,0.08c-0.04,0-0.05-0.04-0.04-0.1
						c0.01-0.05,0.02-0.19,0-0.28c-0.03-0.13-0.1-0.18-0.46-0.24c-0.11-0.02-0.9-0.02-0.98-0.02c-0.03,0-0.04,0.03-0.05,0.08
						c-0.1,0.84-0.15,1.26-0.24,2.11c-0.01,0.05-0.01,0.08,0.03,0.08c0.08,0,0.97,0,1.13-0.01c0.16-0.02,0.26-0.03,0.34-0.11
						c0.05-0.05,0.09-0.1,0.11-0.1c0.02,0,0.04,0.02,0.03,0.07s-0.06,0.18-0.11,0.43c-0.03,0.15-0.09,0.45-0.09,0.5
						c-0.01,0.06-0.03,0.15-0.08,0.15c-0.03,0-0.04-0.03-0.04-0.07c0.01-0.07,0.02-0.16,0-0.26c-0.01-0.11-0.06-0.2-0.31-0.24
						c-0.18-0.03-0.9-0.04-1.01-0.04c-0.04,0-0.05,0.03-0.05,0.05c-0.03,0.26-0.04,0.39-0.08,0.65c-0.03,0.26-0.14,1.17-0.15,1.32
						c-0.04,0.52,0.06,0.62,0.72,0.63c0.17,0,0.49,0.01,0.67-0.08c0.18-0.08,0.29-0.24,0.37-0.54c0.02-0.09,0.05-0.12,0.08-0.12
						s0.04,0.06,0.03,0.12s-0.13,0.59-0.18,0.75c-0.07,0.2-0.14,0.2-0.39,0.2c-0.5-0.01-0.88-0.03-1.15-0.04
						c-0.27-0.02-0.45-0.03-0.55-0.03c-0.01,0-0.14,0-0.29,0.01c-0.13,0.01-0.28,0.01-0.39,0.01c-0.07,0-0.1-0.02-0.1-0.06
						c0-0.03,0.02-0.07,0.06-0.06c0.06,0,0.15-0.02,0.21-0.03c0.13-0.02,0.16-0.18,0.22-0.41c0.07-0.32,0.14-0.93,0.23-1.67
						C50.85,56.89,50.88,56.62,50.94,56.07z"/>
					<path fill="#81BF08" d="M56.6,58.69c-0.08,0.65-0.04,0.84,0.13,0.9c0.12,0.04,0.26,0.05,0.32,0.05c0.03,0,0.05,0.03,0.04,0.07
						c-0.01,0.05-0.05,0.06-0.13,0.06c-0.38,0-0.63-0.04-0.69-0.04c-0.06,0-0.34,0.03-0.64,0.02c-0.07,0-0.11-0.01-0.1-0.07
						c0-0.04,0.03-0.06,0.06-0.06c0.05,0,0.18-0.01,0.28-0.04c0.17-0.05,0.22-0.27,0.33-0.98c0.25-1.8,0.38-2.7,0.63-4.51
						c0.04-0.32,0.1-0.4,0.15-0.4c0.08,0,0.17,0.16,0.23,0.24c0.09,0.13,0.91,1.39,1.74,2.7c0.54,0.84,1.1,1.8,1.26,2.06
						c0.23-1.6,0.34-2.4,0.57-3.99c0.07-0.52,0.06-0.69-0.14-0.74c-0.12-0.03-0.27-0.04-0.33-0.04c-0.05,0-0.05-0.05-0.04-0.07
						c0.01-0.05,0.06-0.06,0.14-0.06c0.31,0,0.63,0.02,0.71,0.02c0.08,0,0.31-0.02,0.58-0.02c0.07,0,0.12,0.01,0.11,0.06
						c0,0.03-0.04,0.07-0.09,0.07c-0.03,0-0.09,0-0.17,0.02c-0.23,0.06-0.27,0.22-0.35,0.7c-0.31,1.87-0.46,2.8-0.77,4.67
						c-0.08,0.53-0.1,0.57-0.15,0.57c-0.07,0-0.12-0.07-0.42-0.5c-0.06-0.08-0.83-1.26-1.4-2.16c-0.63-1-1.25-1.97-1.42-2.25
						C56.88,56.46,56.79,57.2,56.6,58.69z"/>
					<path fill="#81BF08" d="M65.81,57.54c-0.15,0.78-0.27,1.42-0.3,1.75c-0.02,0.24-0.02,0.39,0.18,0.43
						c0.08,0.02,0.23,0.04,0.29,0.04c0.04,0,0.04,0.04,0.04,0.07c-0.01,0.04-0.04,0.07-0.12,0.07c-0.36,0-0.77-0.04-0.81-0.04
						c-0.03,0-0.49,0.02-0.69,0.02c-0.08,0-0.1-0.02-0.09-0.07c0-0.03,0.03-0.06,0.06-0.06c0.06,0,0.14-0.02,0.2-0.04
						c0.14-0.04,0.21-0.2,0.27-0.44c0.09-0.33,0.21-0.97,0.35-1.75c0.25-1.36,0.37-2.04,0.62-3.39c-0.39,0.01-0.59,0.01-0.99,0.02
						c-0.43,0.01-0.6,0.07-0.73,0.26c-0.1,0.14-0.13,0.2-0.15,0.26c-0.03,0.06-0.05,0.08-0.08,0.08c-0.01,0-0.04-0.02-0.03-0.07
						c0.01-0.08,0.28-0.81,0.3-0.87c0.02-0.04,0.07-0.15,0.1-0.15c0.05,0,0.11,0.06,0.29,0.09c0.19,0.03,0.45,0.04,0.53,0.04
						c1.03,0,1.54-0.01,2.57-0.01c0.23,0,0.38-0.02,0.49-0.04c0.1-0.02,0.17-0.04,0.2-0.04s0.02,0.05,0.01,0.1
						c-0.05,0.25-0.19,0.83-0.2,0.93c-0.01,0.07-0.05,0.11-0.08,0.11c-0.03,0-0.04-0.03-0.03-0.14c0-0.03,0.01-0.05,0.01-0.09
						c0.03-0.25-0.09-0.43-0.73-0.45c-0.34-0.01-0.51-0.01-0.85-0.02C66.19,55.5,66.06,56.18,65.81,57.54z"/>
					<path fill="#81BF08" d="M73.07,53.62c1.54-0.01,2.43,1.17,1.99,3.1c-0.42,1.85-1.83,3.38-3.42,3.35
						c-1.81-0.03-2.23-1.78-1.93-3.25C69.99,55.51,71.19,53.63,73.07,53.62z M71.91,59.74c0.59,0.01,1.88-0.39,2.42-2.79
						c0.45-1.99-0.28-3.03-1.36-3.03c-1.14,0-2.14,0.89-2.51,2.68C70.06,58.52,70.71,59.73,71.91,59.74z"/>
				</g>
			</g>
			<g>
				<path fill="#81BF08" d="M23.21,66.88c0.01-0.17,0.02-0.34,0.01-0.51c-0.06-1.41-0.9-2.6-2.16-2.63
					c-1.02-0.03-2.44,0.85-2.33,2.46c0.07,1.02,0.82,0.76,0.84,1.08c0.01,0.12-0.13,0.25-0.54,0.23c-0.56-0.02-1.13-0.49-1.2-1.34
					c-0.14-1.76,1.57-2.87,3.32-2.82c1.69,0.05,3.02,1.34,3.09,3.24c0.01,0.19,0.01,0.37-0.01,0.56c-0.23,3-2.22,4.98-4.19,4.86
					c-1.34-0.08-1.99-0.73-2.05-1.4c-0.07-0.85,0.83-1.18,1.53-1.18c0.41-1.76,0.62-2.65,1.06-4.43c0.08-0.36,0.44-0.6,0.69-0.59
					c0.14,0,0.23,0.08,0.24,0.24c0,0.05,0,0.1-0.01,0.16c-0.49,1.93-0.72,2.89-1.17,4.8c0.42,0.2,0.6,0.56,0.62,0.84
					c0.02,0.28-0.13,0.46-0.29,0.45c-0.13-0.01-0.17-0.13-0.18-0.21c-0.01-0.17-0.1-0.3-0.29-0.48c-0.01,0.06-0.02,0.08-0.03,0.14
					c-0.08,0.37-0.44,0.59-0.66,0.57c-0.12-0.01-0.22-0.08-0.23-0.23c0-0.05,0-0.11,0.02-0.17c0.06-0.26,0.09-0.39,0.15-0.65
					c-0.23,0.01-0.65,0.19-0.62,0.67c0.04,0.54,0.5,0.92,1.54,0.99C21.81,71.6,22.98,69.66,23.21,66.88z"/>
				<path fill="#81BF08" d="M24.75,69.11c-0.02-0.12-0.43-0.49-0.44-0.87c-0.03-0.76,0.52-1.26,0.94-1.24
					c0.29,0.01,0.47,0.28,0.48,0.57c0.01,0.35-0.29,0.92-0.26,0.97c0.03,0.07,0.62,0.1,0.84,0.13c0.15,0.02,0.27,0.15,0.28,0.37
					c0,0.09-0.03,0.18-0.09,0.24c-0.14,0.15-0.71,0.8-0.7,1.32c0.01,0.2,0.08,0.29,0.19,0.29c0.25,0.01,0.74-0.36,1.13-0.91
					c0.04-0.06,0.11-0.09,0.17-0.09s0.11,0.04,0.12,0.13s-0.04,0.2-0.14,0.34c-0.61,0.87-1.12,1.15-1.49,1.12
					c-0.43-0.02-0.68-0.46-0.69-0.82c-0.01-0.3,0.55-1.16,0.55-1.16c-0.01-0.02-0.55-0.22-0.6-0.2c-0.12,0.03-0.43,0.68-0.59,0.91
					c-0.05,0.07-0.12,0.09-0.17,0.09c-0.06,0-0.11-0.04-0.12-0.14c0-0.07,0.03-0.19,0.13-0.32C24.41,69.64,24.76,69.19,24.75,69.11z
					 M25.13,68.34c0.03,0,0.12-0.36,0.12-0.57c-0.01-0.23-0.06-0.32-0.14-0.32c-0.11,0-0.2,0.19-0.2,0.37
					C24.93,68.03,25.13,68.34,25.13,68.34z"/>
				<path fill="#81BF08" d="M29.76,70.02c0.06,0,0.11,0.04,0.11,0.13c0,0.09-0.04,0.2-0.14,0.34c-0.5,0.69-1.23,1.15-1.91,1.11
					c-0.66-0.04-1.17-0.6-1.19-1.37c-0.02-1.12,0.73-2.36,1.89-2.31c0.52,0.02,0.77,0.41,0.77,0.79c0,0.67-0.81,1.47-1.48,1.84
					c-0.04,0.02-0.08,0.03-0.11,0.03c-0.08,0-0.14-0.07-0.15-0.16c0-0.07,0.04-0.16,0.14-0.25c0.64-0.58,0.85-1.13,0.85-1.47
					c0-0.24-0.1-0.35-0.24-0.36c-0.45-0.02-0.94,0.91-0.93,1.75c0.01,0.57,0.32,0.89,0.76,0.92c0.43,0.02,0.99-0.25,1.45-0.9
					C29.63,70.05,29.7,70.01,29.76,70.02z"/>
				<path fill="#81BF08" d="M31.26,71.8c-0.31-0.02-0.49-0.53-0.49-0.53c-0.03-0.01-0.52,0.47-0.81,0.46
					c-0.47-0.03-0.87-0.54-0.87-1.18c-0.01-1.13,0.95-2.56,2.18-2.5c0.52,0.02,0.92,0.29,0.92,0.79c-0.01,0.63-0.46,0.73-0.63,0.72
					c-0.14-0.01-0.37-0.07-0.37-0.23c0-0.18,0.32-0.06,0.32-0.46c0-0.25-0.21-0.35-0.41-0.36c-0.75-0.03-1.29,1.19-1.28,1.96
					c0,0.35,0.11,0.71,0.38,0.72c0.22,0.01,0.57-0.35,0.74-0.88c0.12-0.37,0.44-0.61,0.65-0.59c0.11,0.01,0.19,0.07,0.18,0.21
					c0,0.05-0.01,0.11-0.03,0.19c-0.04,0.16-0.27,0.9-0.27,1.02c0,0.06,0.02,0.11,0.08,0.12c0.15,0.01,0.57-0.3,1.06-0.98
					c0.04-0.06,0.11-0.09,0.18-0.09c0.06,0,0.11,0.04,0.11,0.13c0,0.09-0.04,0.2-0.15,0.34C32.18,71.44,31.62,71.82,31.26,71.8z"/>
				<path fill="#81BF08" d="M32.86,71.25c-0.12,0.38-0.45,0.62-0.66,0.61c-0.1-0.01-0.17-0.07-0.17-0.21c0-0.05,0.01-0.11,0.03-0.19
					c0.27-0.93,0.41-1.39,0.69-2.32c0.02-0.08,0.04-0.13,0.04-0.17c0-0.03-0.01-0.05-0.04-0.05c-0.02,0-0.06,0.02-0.1,0.02
					c-0.06,0-0.14-0.04-0.13-0.13c0-0.19,0.48-0.68,1.02-0.66c0.1,0,0.19,0.08,0.18,0.22c0,0.05-0.01,0.11-0.04,0.19
					c-0.09,0.29-0.13,0.43-0.22,0.72c0.47-0.64,1.1-1.09,1.46-1.07c0.18,0.01,0.29,0.14,0.28,0.42c0,0.14-0.03,0.3-0.1,0.52
					c-0.04,0.12-0.05,0.17-0.09,0.29c0.52-0.68,1.24-1.17,1.62-1.15c0.18,0.01,0.28,0.12,0.27,0.34c-0.01,0.14-0.07,0.36-0.17,0.59
					c-0.21,0.49-0.5,1.21-0.68,1.86c-0.02,0.09-0.04,0.18-0.04,0.24c0,0.1,0.01,0.18,0.09,0.18c0.16,0.01,0.56-0.35,1.09-0.99
					c0.05-0.06,0.12-0.1,0.18-0.09c0.07,0,0.12,0.05,0.12,0.15c0,0.08-0.06,0.19-0.17,0.33c-0.6,0.8-1.18,1.19-1.53,1.17
					c-0.37-0.02-0.52-0.33-0.52-0.73c0-0.14,0.03-0.3,0.08-0.48c0.25-0.94,0.61-1.5,0.62-1.69c0-0.04-0.01-0.06-0.04-0.07
					c-0.21-0.01-1.11,1-1.32,1.69c-0.07,0.22-0.1,0.33-0.17,0.55c-0.11,0.39-0.46,0.62-0.67,0.61c-0.1-0.01-0.17-0.07-0.17-0.21
					c0-0.05,0.01-0.11,0.04-0.19c0.29-0.94,0.43-1.41,0.73-2.36c0.01-0.04,0.02-0.08,0.02-0.1c0-0.04-0.02-0.07-0.05-0.07
					c-0.21-0.01-1.09,1-1.29,1.66C32.96,70.91,32.93,71.02,32.86,71.25z"/>
				<path fill="#81BF08" d="M37.69,69.5c0.01-0.12-0.19-0.47-0.17-0.74c0.03-0.75,0.77-1.38,1.22-1.36c0.19,0.01,0.32,0.13,0.3,0.41
					c-0.02,0.4-0.64,1.12-0.65,1.31c-0.01,0.25,0.64,1.04,0.61,1.64c0,0.06-0.05,0.31-0.05,0.32c0.03,0.04,0.45-0.09,0.72-0.45
					c0.04-0.06,0.12-0.1,0.18-0.09s0.11,0.04,0.11,0.13c-0.01,0.09-0.05,0.2-0.17,0.35c-0.41,0.55-0.72,0.67-1,0.66
					c-0.03,0-0.09-0.02-0.09-0.02c-0.3,0.4-0.72,0.53-1.13,0.5c-0.37-0.02-0.69-0.29-0.68-0.62c0.01-0.34,0.41-0.65,1.1-0.61
					c0.11,0.01,0.35,0.06,0.36,0.05c0.07-0.06-0.24-0.76-0.47-1.14c-0.31,0.42-0.46,0.62-0.76,1.04c-0.04,0.06-0.11,0.1-0.17,0.09
					c-0.07,0-0.12-0.04-0.12-0.15c0-0.08,0.05-0.19,0.16-0.34C37.18,70.23,37.67,69.69,37.69,69.5z M38.19,71.48
					c-0.01-0.03-0.31-0.12-0.48-0.13c-0.18-0.01-0.26,0.09-0.27,0.18c-0.01,0.11,0.08,0.24,0.24,0.25
					C37.87,71.78,38.2,71.5,38.19,71.48z M38.18,68.75c0.03,0,0.29-0.51,0.31-0.68c0.01-0.09-0.02-0.14-0.07-0.15
					c-0.1,0-0.3,0.21-0.31,0.44C38.1,68.5,38.18,68.75,38.18,68.75z"/>
				<path fill="#81BF08" d="M43.69,69.93c-0.03,0.43-0.48,1.28-0.46,1.33c0,0.01,0.11,0.02,0.16,0.02c0.26,0.01,0.53-0.1,0.77-0.42
					c0.05-0.06,0.1-0.1,0.18-0.1c0.06,0,0.11,0.05,0.1,0.14s-0.06,0.21-0.17,0.36c-0.34,0.44-0.73,0.62-1.09,0.6
					c-0.11-0.01-0.3-0.09-0.34-0.08c-0.25,0.05-0.89,0.64-1.28,0.62c-0.62-0.04-0.93-0.65-0.88-1.38c0.03-0.53,0.25-1.14,0.62-1.63
					c0.26-0.34,0.53-0.56,0.61-0.56c0.08,0,0.14,0.11,0.13,0.23c0,0.04-0.02,0.09-0.05,0.13c-0.26,0.29-0.52,0.86-0.56,1.47
					c-0.04,0.65,0.17,1.17,0.52,1.19c0.17,0.01,0.56-0.24,0.56-0.3c-0.01-0.15-0.64-0.92-0.6-1.6c0.04-0.61,0.38-1.43,1.01-1.4
					c0.19,0.01,0.38,0.11,0.53,0.32C43.64,69.14,43.72,69.53,43.69,69.93z M42.29,69.77c-0.04,0.48,0.5,1.28,0.54,1.27
					c0.05-0.01,0.17-0.55,0.19-0.83c0.04-0.5-0.05-1.02-0.33-1.04C42.44,69.16,42.31,69.47,42.29,69.77z"/>
				<path fill="#81BF08" d="M46.04,71.86c-0.01,0.11,0,0.19,0.07,0.19c0.17,0.01,0.58-0.36,1.15-1.03c0.05-0.06,0.12-0.1,0.19-0.1
					c0.07,0,0.12,0.05,0.11,0.15c-0.01,0.08-0.07,0.2-0.19,0.35c-0.65,0.83-1.25,1.23-1.61,1.21c-0.37-0.02-0.51-0.32-0.47-0.75
					c0.01-0.15,0.05-0.31,0.11-0.5c0.3-0.96,0.7-1.55,0.72-1.74c0-0.05-0.01-0.08-0.04-0.08c-0.24-0.01-1.28,1.04-1.54,1.75
					c-0.08,0.23-0.12,0.34-0.2,0.57c-0.14,0.4-0.49,0.64-0.71,0.63c-0.1-0.01-0.17-0.07-0.16-0.22c0-0.05,0.02-0.12,0.05-0.19
					c0.34-0.96,0.51-1.44,0.86-2.41c0.03-0.08,0.05-0.14,0.06-0.18c0-0.03,0-0.05-0.04-0.05c-0.02,0-0.06,0.01-0.09,0.01
					c-0.07,0-0.14-0.05-0.13-0.14c0.02-0.21,0.56-0.7,1.07-0.68c0.1,0,0.17,0.07,0.16,0.23c0,0.05-0.02,0.12-0.05,0.2
					c-0.13,0.35-0.19,0.52-0.32,0.87c0.58-0.72,1.39-1.25,1.8-1.23c0.18,0.01,0.29,0.13,0.27,0.37c-0.01,0.13-0.09,0.35-0.21,0.6
					c-0.24,0.5-0.58,1.26-0.8,1.92C46.07,71.7,46.05,71.79,46.04,71.86z"/>
				<path fill="#81BF08" d="M47.25,76.5c-0.15,0.4-0.5,0.65-0.71,0.63c-0.1-0.01-0.16-0.08-0.15-0.22c0.01-0.05,0.02-0.12,0.05-0.2
					c0.99-2.7,1.5-4.06,2.55-6.8c0.03-0.08,0.06-0.14,0.06-0.18c0-0.03,0-0.05-0.04-0.05c-0.02,0-0.06,0.02-0.12,0.02
					c-0.05,0-0.12-0.04-0.11-0.14c0.02-0.23,0.56-0.72,1.09-0.7c0.1,0,0.18,0.09,0.16,0.23c-0.01,0.05-0.03,0.12-0.06,0.2
					c-0.07,0.18-0.11,0.27-0.18,0.45c0.45-0.57,0.9-0.84,1.27-0.83c0.54,0.02,0.72,0.69,0.65,1.24c-0.07,0.54-0.33,1.12-0.59,1.54
					c0,0,0.08,0.02,0.14,0.02c0.36,0.02,0.53-0.16,0.75-0.43c0.05-0.06,0.13-0.1,0.19-0.1c0.06,0,0.11,0.04,0.1,0.14
					c-0.01,0.09-0.07,0.21-0.19,0.37c-0.38,0.47-0.68,0.6-0.96,0.58c-0.13-0.01-0.33-0.13-0.37-0.12c-0.26,0.06-0.98,0.73-1.25,0.71
					c-0.29-0.02-0.49-0.21-0.45-0.56c0.03-0.28,0.25-0.91,1-0.87c0.15,0.01,0.48,0.13,0.54,0.11c0.12-0.05,0.27-0.79,0.31-1.13
					c0.05-0.45-0.02-0.81-0.32-0.82c-0.42-0.02-1.11,0.96-1.45,1.85C48.39,73.47,48,74.48,47.25,76.5z M49.65,72.19
					c-0.02,0.13,0.03,0.24,0.17,0.25c0.16,0.01,0.61-0.42,0.59-0.49c-0.01-0.03-0.25-0.13-0.38-0.14
					C49.81,71.8,49.67,71.99,49.65,72.19z"/>
				<path fill="#81BF08" d="M53.48,73.08c-0.31-0.02-0.42-0.57-0.42-0.57c-0.02-0.01-0.59,0.51-0.88,0.49
					c-0.47-0.03-0.8-0.57-0.71-1.27c0.15-1.22,1.32-2.76,2.55-2.71c0.52,0.02,0.89,0.31,0.81,0.85c-0.1,0.68-0.57,0.79-0.73,0.78
					c-0.14-0.01-0.37-0.07-0.34-0.25c0.03-0.19,0.33-0.06,0.39-0.5c0.04-0.27-0.16-0.38-0.37-0.39c-0.75-0.03-1.46,1.29-1.57,2.12
					c-0.05,0.38,0.01,0.76,0.28,0.78c0.21,0.01,0.62-0.38,0.87-0.96c0.17-0.4,0.53-0.65,0.74-0.64c0.11,0.01,0.17,0.08,0.15,0.23
					c-0.01,0.05-0.03,0.12-0.06,0.2c-0.07,0.17-0.39,0.98-0.41,1.1c-0.01,0.07,0,0.12,0.07,0.13c0.15,0.01,0.62-0.32,1.2-1.06
					c0.05-0.06,0.13-0.1,0.19-0.1s0.11,0.05,0.09,0.14c-0.01,0.09-0.07,0.21-0.2,0.37C54.46,72.69,53.84,73.11,53.48,73.08z"/>
				<path fill="#81BF08" d="M53.36,76.94c-0.17,0.41-0.52,0.66-0.73,0.64c-0.1-0.01-0.16-0.08-0.14-0.23
					c0.01-0.05,0.03-0.12,0.06-0.2c1.09-2.76,1.65-4.15,2.8-6.94c0.03-0.08,0.06-0.15,0.07-0.19c0-0.03,0-0.05-0.03-0.05
					c-0.02,0-0.07,0.02-0.12,0.02c-0.05,0-0.12-0.05-0.11-0.14c0.03-0.23,0.59-0.74,1.12-0.72c0.1,0,0.18,0.09,0.15,0.24
					c-0.01,0.06-0.03,0.12-0.06,0.2c-0.08,0.18-0.12,0.27-0.19,0.46c0.47-0.58,0.94-0.86,1.3-0.85c0.54,0.02,0.7,0.71,0.61,1.27
					C58,71,57.72,71.59,57.43,72.02c0,0,0.08,0.02,0.14,0.02c0.36,0.02,0.54-0.17,0.76-0.44c0.05-0.06,0.13-0.1,0.19-0.1
					c0.06,0,0.11,0.05,0.09,0.14c-0.02,0.09-0.08,0.22-0.21,0.38c-0.39,0.48-0.71,0.61-0.99,0.6c-0.13-0.01-0.32-0.13-0.36-0.12
					c-0.27,0.06-1.01,0.74-1.29,0.72C55.5,73.2,55.3,73,55.35,72.64c0.04-0.28,0.28-0.93,1.03-0.89c0.15,0.01,0.47,0.13,0.53,0.11
					c0.13-0.05,0.3-0.81,0.35-1.15c0.07-0.46,0.01-0.82-0.29-0.84c-0.41-0.02-1.15,0.97-1.52,1.89
					C54.6,73.84,54.18,74.88,53.36,76.94z M55.92,72.54c-0.02,0.14,0.03,0.25,0.16,0.25c0.16,0.01,0.63-0.43,0.61-0.5
					c-0.01-0.03-0.25-0.14-0.37-0.14C56.09,72.14,55.95,72.33,55.92,72.54z"/>
				<path fill="#81BF08" d="M61.01,71.62c0.06,0,0.11,0.05,0.09,0.14s-0.08,0.22-0.21,0.38c-0.64,0.77-1.47,1.28-2.15,1.24
					c-0.66-0.04-1.07-0.65-0.93-1.52c0.2-1.25,1.21-2.62,2.36-2.57c0.52,0.02,0.7,0.45,0.63,0.88c-0.13,0.74-1.1,1.63-1.85,2.04
					c-0.04,0.02-0.09,0.04-0.12,0.03c-0.08,0-0.13-0.08-0.12-0.17c0.01-0.08,0.07-0.18,0.19-0.28c0.76-0.65,1.08-1.26,1.15-1.63
					c0.04-0.26-0.03-0.39-0.17-0.4c-0.45-0.02-1.13,1.01-1.28,1.95c-0.1,0.63,0.15,0.99,0.59,1.01c0.43,0.02,1.04-0.28,1.64-1.01
					C60.87,71.66,60.95,71.62,61.01,71.62z"/>
				<path fill="#81BF08" d="M61.25,70.89c-0.01-0.13-0.32-0.54-0.25-0.97c0.15-0.86,0.82-1.43,1.24-1.41
					c0.29,0.01,0.41,0.31,0.35,0.64c-0.07,0.39-0.51,1.04-0.49,1.1c0.02,0.06,0.6,0.11,0.82,0.14c0.15,0.02,0.24,0.17,0.2,0.42
					c-0.02,0.1-0.08,0.21-0.14,0.27c-0.18,0.17-0.9,0.91-1.01,1.49c-0.04,0.22,0.01,0.32,0.13,0.33c0.26,0.01,0.83-0.4,1.35-1.04
					c0.05-0.07,0.13-0.11,0.19-0.1c0.06,0,0.11,0.05,0.09,0.15s-0.08,0.22-0.22,0.38c-0.83,0.98-1.4,1.3-1.76,1.28
					c-0.43-0.02-0.58-0.51-0.51-0.92c0.06-0.33,0.83-1.32,0.83-1.32c-0.01-0.02-0.51-0.23-0.57-0.22c-0.15,0.03-0.59,0.77-0.81,1.03
					c-0.07,0.08-0.14,0.1-0.19,0.1c-0.06,0-0.11-0.05-0.09-0.16c0.01-0.08,0.08-0.21,0.21-0.37C60.79,71.5,61.26,71,61.25,70.89z
					 M61.82,70.03c0.03,0,0.21-0.41,0.25-0.64c0.05-0.26,0.01-0.36-0.06-0.37c-0.12,0-0.25,0.21-0.29,0.42
					C61.69,69.67,61.82,70.03,61.82,70.03z"/>
				<path fill="#81BF08" d="M64.47,72.76c-0.08,0.42-0.55,0.93-0.97,0.91c-0.21-0.01-0.35-0.19-0.3-0.48
					c0.08-0.45,0.55-0.93,0.97-0.91C64.38,72.29,64.53,72.45,64.47,72.76z"/>
			</g>
		</g>
	</g>
</g>
</svg>
