<?xml version="1.0" encoding="utf-8"?>
<!-- Generator: Adobe Illustrator 16.0.0, SVG Export Plug-In . SVG Version: 6.00 Build 0)  -->
<!DOCTYPE svg PUBLIC "-//W3C//DTD SVG 1.1//EN" "http://www.w3.org/Graphics/SVG/1.1/DTD/svg11.dtd">
<svg version="1.1" id="Layer_1" xmlns="http://www.w3.org/2000/svg" xmlns:xlink="http://www.w3.org/1999/xlink" x="0px" y="0px"
	 width="98px" height="101px" viewBox="0 0 98 101" enable-background="new 0 0 98 101" xml:space="preserve">
<g>
	<g>
		<path fill="#FFFFFF" d="M89.5,19.2l-20.1,1.6c-2.5-8.4-9-14.8-16.9-16.4c-3-2.2-6.4-3.7-10.2-4.2V0h-2.6v0.1
			c-12.8,1.3-22.8,12-23.1,25L0.1,26.5l10.2,63.9l59.1,9.6l14.1-7l13.8-64.4L89.5,19.2z M66.6,21.1l-4.1,0.3
			c-0.7-4.6-2.5-8.8-5.1-12.2C61.6,11.7,64.9,15.9,66.6,21.1z M51.4,7c4.2,3.4,7.3,8.6,8.3,14.6L30,24C32,14.6,40,7.4,49.8,6.8
			C50.4,6.9,50.9,6.9,51.4,7z M41,2.8C43.1,3,45.1,3.5,47,4.4c-10.1,1.8-18.2,9.8-19.9,19.9l-7.8,0.6C19.8,13.1,29.2,3.6,41,2.8z
			 M70.2,96.3L69.1,96l19.1-74.8l1.1,0.3L70.2,96.3z"/>
	</g>
</g>
<g>
	<g>
		<path fill="none" d="M69.3,101c-19.7-3.2-39.4-6.4-59-9.6C6.8,70.1,3.4,48.8,0,27.5c29.8-2.4,59.7-4.9,89.5-7.3
			C82.8,47.1,76,74.1,69.3,101z"/>
		<g>
			<g>
				<g>
					<path fill="#e79299" d="M31.1,45.3c0,0.5-1.9,1.7-5.4,2s-5.6-0.6-5.6-1c0-0.4,1.8-1.6,5.4-2C29.1,44,31.1,44.9,31.1,45.3z
						 M25.4,42.9c-3.4,0.3-6.9,1.6-6.7,3.5c0.2,2,3.9,2.6,7.1,2.3c3.3-0.3,6.8-1.5,6.7-3.5C32.4,43.1,28.7,42.5,25.4,42.9z"/>
				</g>
				<g>
					<path fill="#e79299" d="M37.5,40.6c-0.1-0.1,0-0.3,0-0.4c-0.2,0.3-1.6,1.5-4.2,3.1c-2.6,1.5-4.2,2.1-4.5,2.1
						c0,0,0.2,0.1,0.3,0.2c0.1,0.2,0,0.3,0,0.3c0.1-0.3,1.4-1.5,4.1-3c2.6-1.5,4.3-2.1,4.7-2.1C37.7,40.8,37.5,40.7,37.5,40.6z
						 M32.5,41.9c-5.3,3.1-4.7,4-4.5,4.3c0.2,0.3,0.6,1.3,5.8-1.8c0.7-0.4,4.4-2.6,4.7-3.8c0.1-0.2,0.1-0.4,0-0.6
						C38.4,39.7,37.8,38.8,32.5,41.9z"/>
				</g>
				<g>
					<path fill="#e79299" d="M47.2,42.3c0,0-0.1,0.1-0.2,0.2c-0.8,0.5-3,0.8-5.6,0.3c-3.5-0.7-5.2-2.1-5.1-2.6
						c0.1-0.4,2.3-1.2,5.9-0.5c2.7,0.5,4.5,1.6,4.9,2.4C47.2,42.1,47.2,42.2,47.2,42.3z M42.5,38.1c-3.3-0.6-7.2-0.3-7.7,1.8
						c-0.5,2,2.9,3.7,6.1,4.3c2.8,0.6,5.4,0.4,6.7-0.5c0.6-0.4,0.8-0.9,0.9-1.2c0.1-0.3,0.2-0.8-0.1-1.4
						C47.7,39.8,45.4,38.6,42.5,38.1z"/>
				</g>
				<g>
					<path fill="#e79299" d="M53.1,45.1c0-0.5,1.8-2.2,5.5-3.3c2.8-0.9,5-0.8,5.7-0.4c0.1,0.1,0.1,0.2,0.1,0.2s0,0.1-0.1,0.3
						c-0.6,0.9-2.7,2.2-5.4,3.1C55.2,46.1,53.2,45.6,53.1,45.1z M58.9,46.5c2.9-0.9,5.4-2.4,6.4-3.8c0.4-0.6,0.5-1.2,0.5-1.5
						c0-0.3-0.1-0.8-0.6-1.1c-1.1-0.8-3.8-0.7-6.7,0.2c-3.4,1.1-7,3.1-6.7,5.2S55.6,47.5,58.9,46.5z"/>
				</g>
				<path fill="#e79299" d="M44.1,45.9c-0.6,0-0.9,0-1.5,0c-0.4,0.5-0.5,0.8-0.9,1.3c-0.1-0.6-0.2-0.9-0.4-1.5
					c-0.6-0.2-0.8-0.3-1.4-0.4c0.5-0.4,0.7-0.6,1.2-1c0-0.6,0-1,0.1-1.6c0.5,0.4,0.7,0.5,1.1,0.9c0.6-0.2,0.9-0.3,1.4-0.6
					c-0.2,0.6-0.3,0.9-0.6,1.5C43.6,45.2,43.8,45.4,44.1,45.9z"/>
				<path fill="#e79299" d="M23.1,43.5c-0.6,0-0.9,0.1-1.5,0.1c-0.3,0.5-0.4,0.8-0.7,1.3c-0.2-0.5-0.4-0.8-0.6-1.4
					c-0.6-0.1-0.9-0.2-1.5-0.3c0.4-0.4,0.7-0.6,1.1-1c-0.1-0.6-0.1-0.9-0.2-1.5c0.5,0.3,0.8,0.5,1.3,0.8c0.5-0.3,0.8-0.4,1.4-0.6
					c-0.1,0.6-0.2,0.9-0.3,1.5C22.5,42.8,22.7,43,23.1,43.5z"/>
				<path fill="#e79299" d="M62.1,39c-0.6,0.3-0.9,0.5-1.4,0.8c-0.2,0.7-0.3,1-0.4,1.7c-0.4-0.5-0.5-0.7-0.9-1.1
					c-0.6,0.1-0.9,0.2-1.5,0.4c0.3-0.6,0.5-0.9,0.9-1.5c-0.2-0.6-0.3-0.9-0.5-1.4c0.6,0.1,0.9,0.1,1.5,0.2c0.5-0.5,0.7-0.8,1.2-1.3
					c0,0.7,0,1,0,1.6C61.4,38.6,61.6,38.8,62.1,39z"/>
				<g>
					<path fill="#e79299" d="M54.5,44.4c0.1-0.2,0.2-0.3,0.2-0.3c-0.3,0.2-2,0.2-4.8-0.4c-2.8-0.6-4.3-1.3-4.5-1.5
						c0,0,0.1,0.2,0,0.4c-0.1,0.2-0.2,0.3-0.2,0.3c0.3-0.1,2-0.2,4.8,0.4c2.8,0.6,4.3,1.3,4.4,1.5C54.5,44.7,54.5,44.6,54.5,44.4z
						 M50.5,42c-0.8-0.2-4.7-0.9-5.7-0.2c-0.2,0.1-0.3,0.3-0.4,0.5c-0.1,0.2,0,0.4,0.1,0.6c0.5,1,4.4,1.8,5.2,2
						c0.8,0.2,4.6,0.9,5.6,0.2c0.2-0.1,0.3-0.3,0.4-0.5C55.7,44.3,56.1,43.1,50.5,42z"/>
				</g>
				<g>
					<path fill="#e79299" d="M10.3,58.2C9.2,57.2,8.8,56,8.6,55c-0.1-0.7,0-2,0.8-2.9c0.6-0.7,1.5-1.2,3.1-1.2c0.4,0,1,0,1.5,0.1
						c0.4,0.1,0.8,0.1,1.1,0.2c0.1,0,0.1,0,0.1,0.1c0,0.1,0,0.2,0,0.6c0,0.4,0.1,1,0.1,1.1c0,0.2,0,0.2-0.1,0.2
						c-0.1,0-0.1-0.1-0.1-0.2c0-0.4-0.3-0.9-0.5-1.1c-0.4-0.3-1.2-0.6-2.2-0.6c-1.4,0-2,0.5-2.3,0.8c-0.7,0.8-0.7,1.7-0.6,2.8
						c0.3,2,2,3.9,4.1,3.9c0.8,0,1.3-0.1,1.7-0.5c0.2-0.2,0.3-0.7,0.3-0.9c0-0.1,0-0.2,0.1-0.2c0.1,0,0.1,0.1,0.1,0.2
						c0,0.1,0,1-0.1,1.4c0,0.2-0.1,0.2-0.2,0.3c-0.4,0.2-1.1,0.2-1.8,0.2C12.2,59.3,11.2,58.9,10.3,58.2z"/>
					<path fill="#e79299" d="M20.5,54.1c0.1-0.2,0.1-0.3,0.1-0.3c0.1,0,0.1,0.1,0.2,0.3c0.1,0.3,1.4,3.2,1.8,4.3
						c0.3,0.6,0.4,0.7,0.6,0.8c0.1,0,0.2,0,0.3,0c0,0,0.1,0,0.1,0.1c0,0-0.1,0.1-0.1,0.1c-0.1,0-0.6,0-1,0c-0.1,0-0.2,0-0.2,0
						c0,0,0,0,0-0.1c0,0,0.1-0.1,0-0.2c-0.3-0.7-0.4-1-0.7-1.6c0,0,0,0-0.1,0c-0.6,0-0.9,0-1.5,0c0,0-0.1,0-0.1,0.1
						c-0.1,0.5-0.2,0.7-0.3,1.1c-0.1,0.2-0.1,0.3-0.1,0.5c0,0.1,0.1,0.2,0.2,0.2c0,0,0,0,0.1,0c0,0,0.1,0,0.1,0.1c0,0,0,0.1-0.1,0.1
						c-0.2,0-0.5,0-0.6,0c-0.1,0-0.4,0-0.7,0c-0.1,0-0.1,0-0.1-0.1c0,0,0-0.1,0.1-0.1c0,0,0.1,0,0.2,0c0.3,0,0.4-0.3,0.5-0.6
						C19.7,56.7,20,55.9,20.5,54.1z M21.4,57C21.4,57,21.4,57,21.4,57c-0.3-0.8-0.4-1.2-0.8-2c0-0.1-0.1-0.1-0.1,0
						c-0.2,0.8-0.3,1.2-0.5,1.9c0,0,0,0,0,0C20.6,57,20.9,57,21.4,57z"/>
					<path fill="#e79299" d="M25.5,59.3c-0.1,0-0.1-0.1-0.1-0.3c0-0.4,0-0.6,0-0.8c0-0.1,0-0.1,0-0.1s0.1,0,0.1,0.1
						c0,0.1,0,0.2,0,0.3c0.1,0.5,0.6,0.7,1.1,0.7c0.7,0,1-0.4,1-0.9c0-0.5-0.3-0.8-0.9-1.3c-0.1-0.1-0.2-0.1-0.3-0.3
						c-0.7-0.6-1-1-1-1.5c0-0.8,0.6-1.3,1.5-1.3c0.3,0,0.5,0,0.7,0.1c0.1,0,0.2,0,0.2,0c0.1,0,0.1,0,0.1,0.1c0,0,0,0.3,0,0.8
						c0,0.1,0,0.2-0.1,0.2s-0.1,0-0.1-0.1c0-0.1-0.1-0.3-0.1-0.4c-0.1-0.1-0.3-0.4-0.9-0.4c-0.5,0-0.9,0.3-0.9,0.8
						c0,0.5,0.2,0.7,0.9,1.2c0.1,0.1,0.1,0.1,0.2,0.1c0.8,0.6,1.1,1.1,1.1,1.8c0,0.4-0.1,0.9-0.6,1.2c-0.3,0.2-0.7,0.3-1.1,0.2
						C26.1,59.5,25.7,59.4,25.5,59.3z"/>
					<path fill="#e79299" d="M32.5,54.1c0.1-0.2,0.1-0.3,0.2-0.3c0.1,0,0.1,0.1,0.2,0.3c0.1,0.3,1.1,3.3,1.5,4.5
						c0.2,0.7,0.4,0.8,0.5,0.8c0.1,0,0.2,0,0.3,0c0,0,0.1,0,0.1,0.1s-0.1,0.1-0.1,0.1c-0.1,0-0.6,0-1,0c-0.1,0-0.2,0-0.2,0
						c0,0,0,0,0.1-0.1c0,0,0.1-0.1,0.1-0.2c-0.2-0.7-0.3-1-0.6-1.7c0,0,0,0-0.1,0c-0.6,0-0.9,0-1.5,0c0,0-0.1,0-0.1,0.1
						c-0.2,0.5-0.2,0.7-0.4,1.2c-0.1,0.2-0.1,0.4-0.1,0.5c0,0.1,0.1,0.2,0.2,0.2c0,0,0,0,0.1,0c0.1,0,0.1,0,0.1,0.1
						c0,0,0,0.1-0.1,0.1c-0.2,0-0.5,0-0.6,0c-0.1,0-0.4,0-0.7,0c-0.1,0-0.1,0-0.1-0.1s0-0.1,0.1-0.1c0,0,0.1,0,0.2,0
						c0.3,0,0.4-0.3,0.6-0.7C31.6,56.8,31.9,55.9,32.5,54.1z M33.3,57.1C33.3,57.1,33.3,57.1,33.3,57.1c-0.2-0.9-0.4-1.3-0.6-2.1
						c0-0.1-0.1-0.1-0.1,0c-0.3,0.8-0.4,1.2-0.6,2c0,0,0,0,0,0C32.4,57.1,32.7,57.1,33.3,57.1z"/>
					<path fill="#e79299" d="M42.8,58.6c0,0.3,0,0.7,0.3,0.8c0.2,0.1,0.4,0.1,0.4,0.1c0,0,0,0,0,0c0,0-0.1,0.1-0.1,0.1
						c-0.2,0-0.9,0-1.1-0.1c-0.2,0-0.2,0-0.2-0.1s0,0,0.1-0.1c0,0,0-0.1,0-0.3c0-1.5,0-2.3-0.1-3.8c0,0,0,0,0,0
						c-0.8,1.5-1.1,2.3-1.9,3.8c-0.1,0.3-0.2,0.4-0.3,0.4s-0.1-0.1-0.2-0.3c-0.1-0.4-0.5-1.3-0.7-1.7c-0.2-0.5-0.7-1.7-0.8-2
						c0,0,0,0,0,0c-0.2,1.3-0.3,2-0.4,3.4c0,0.1,0,0.3,0,0.4c0,0.1,0.1,0.2,0.1,0.2c0.1,0,0.2,0.1,0.3,0.1c0,0,0.1,0,0.1,0
						c0,0.1-0.1,0.1-0.1,0.1c-0.3,0-0.6,0-0.6,0c-0.1,0-0.4,0-0.6,0c-0.1,0-0.1,0-0.1-0.1c0,0,0,0,0.1,0c0,0,0.1,0,0.2,0
						c0.2,0,0.2-0.3,0.3-0.6c0.3-1.9,0.4-2.9,0.7-4.9c0-0.1,0-0.1,0.1-0.1c0.1,0,0.1,0,0.1,0.1c0.7,1.9,1.1,2.8,1.8,4.6
						c0.9-1.8,1.3-2.8,2.3-4.7c0-0.1,0.1-0.1,0.1-0.1c0.1,0,0.1,0.1,0.1,0.2C42.8,55.8,42.8,56.8,42.8,58.6z"/>
					<path fill="#e79299" d="M47.1,57.4c-0.1,0.7-0.1,1.3-0.1,1.7c0,0.2,0,0.4,0.2,0.4c0.1,0,0.2,0,0.3,0c0,0,0,0,0,0.1
						c0,0,0,0.1-0.1,0.1c-0.4,0-0.8,0-0.8,0c0,0-0.4,0-0.7,0c-0.1,0-0.1,0-0.1-0.1c0,0,0-0.1,0.1-0.1c0.1,0,0.1,0,0.2,0
						c0.1,0,0.2-0.2,0.2-0.4c0.1-0.3,0.1-0.9,0.2-1.7c0-0.5,0.1-0.8,0.1-1.3c0.1-1.2,0.1-1.4,0.1-1.7c0-0.3,0-0.4-0.2-0.4
						c-0.1,0-0.2,0-0.2,0c0,0,0,0,0-0.1c0,0,0-0.1,0.1-0.1c0.2,0,0.6,0,0.7,0c0,0,0.5,0,0.7,0c0.1,0,0.1,0,0.1,0.1
						c0,0,0,0.1-0.1,0.1c0,0-0.1,0-0.2,0c-0.2,0-0.2,0.2-0.3,0.4c0,0.2-0.1,0.5-0.2,1.7C47.1,56.6,47.1,56.9,47.1,57.4z"/>
					<path fill="#e79299" d="M50.9,56.1c0.1-1.2,0.2-1.4,0.2-1.7c0-0.3,0-0.4-0.2-0.4c0,0-0.2,0-0.2,0c0,0-0.1,0-0.1-0.1
						c0-0.1,0-0.1,0.1-0.1c0.3,0,0.8,0,0.8,0c0.1,0,1.5,0,1.6,0c0.1,0,0.3,0,0.3,0c0,0,0.1,0,0.1,0c0,0,0,0,0,0.1
						c0,0.1-0.1,0.1-0.1,0.4c0,0.1-0.1,0.4-0.1,0.5c0,0,0,0.1-0.1,0.1c0,0,0,0,0-0.1c0,0,0-0.2,0-0.3c0-0.1-0.1-0.2-0.5-0.2
						c-0.1,0-0.9,0-1,0c0,0,0,0-0.1,0.1c-0.1,0.8-0.1,1.3-0.2,2.1c0,0,0,0.1,0,0.1c0.1,0,1,0,1.1,0c0.2,0,0.3,0,0.3-0.1
						c0.1,0,0.1-0.1,0.1-0.1c0,0,0,0,0,0.1s-0.1,0.2-0.1,0.4c0,0.2-0.1,0.5-0.1,0.5c0,0.1,0,0.2-0.1,0.2c0,0,0,0,0-0.1
						c0-0.1,0-0.2,0-0.3c0-0.1-0.1-0.2-0.3-0.2c-0.2,0-0.9,0-1,0c0,0,0,0,0,0c0,0.3,0,0.4-0.1,0.7c0,0.3-0.1,1.2-0.2,1.3
						c0,0.5,0.1,0.6,0.7,0.6c0.2,0,0.5,0,0.7-0.1c0.2-0.1,0.3-0.2,0.4-0.5c0-0.1,0.1-0.1,0.1-0.1c0,0,0,0.1,0,0.1
						c0,0.1-0.1,0.6-0.2,0.8c-0.1,0.2-0.1,0.2-0.4,0.2c-0.5,0-0.9,0-1.1,0c-0.3,0-0.5,0-0.6,0c0,0-0.1,0-0.3,0c-0.1,0-0.3,0-0.4,0
						c-0.1,0-0.1,0-0.1-0.1c0,0,0-0.1,0.1-0.1c0.1,0,0.1,0,0.2,0c0.1,0,0.2-0.2,0.2-0.4c0.1-0.3,0.1-0.9,0.2-1.7
						C50.8,56.9,50.9,56.6,50.9,56.1z"/>
					<path fill="#e79299" d="M56.6,58.7c-0.1,0.7,0,0.8,0.1,0.9c0.1,0,0.3,0.1,0.3,0.1c0,0,0,0,0,0.1c0,0,0,0.1-0.1,0.1
						c-0.4,0-0.6,0-0.7,0c-0.1,0-0.3,0-0.6,0c-0.1,0-0.1,0-0.1-0.1c0,0,0-0.1,0.1-0.1c0.1,0,0.2,0,0.3,0c0.2,0,0.2-0.3,0.3-1
						c0.3-1.8,0.4-2.7,0.6-4.5c0-0.3,0.1-0.4,0.2-0.4c0.1,0,0.2,0.2,0.2,0.2c0.1,0.1,0.9,1.4,1.7,2.7c0.5,0.8,1.1,1.8,1.3,2.1
						c0.2-1.6,0.3-2.4,0.6-4c0.1-0.5,0.1-0.7-0.1-0.7c-0.1,0-0.3,0-0.3,0c-0.1,0-0.1,0,0-0.1c0,0,0.1-0.1,0.1-0.1c0.3,0,0.6,0,0.7,0
						s0.3,0,0.6,0c0.1,0,0.1,0,0.1,0.1c0,0,0,0.1-0.1,0.1c0,0-0.1,0-0.2,0c-0.2,0.1-0.3,0.2-0.3,0.7c-0.3,1.9-0.5,2.8-0.8,4.7
						c-0.1,0.5-0.1,0.6-0.2,0.6c-0.1,0-0.1-0.1-0.4-0.5c-0.1-0.1-0.8-1.3-1.4-2.2c-0.6-1-1.3-2-1.4-2.3
						C56.9,56.5,56.8,57.2,56.6,58.7z"/>
					<path fill="#e79299" d="M65.8,57.5c-0.2,0.8-0.3,1.4-0.3,1.8c0,0.2,0,0.4,0.2,0.4c0.1,0,0.2,0,0.3,0c0,0,0,0,0,0.1
						c0,0,0,0.1-0.1,0.1c-0.4,0-0.8,0-0.8,0c0,0-0.5,0-0.7,0c-0.1,0-0.1,0-0.1-0.1c0,0,0-0.1,0.1-0.1c0.1,0,0.1,0,0.2,0
						c0.1,0,0.2-0.2,0.3-0.4c0.1-0.3,0.2-1,0.3-1.8c0.3-1.4,0.4-2,0.6-3.4c-0.4,0-0.6,0-1,0c-0.4,0-0.6,0.1-0.7,0.3
						c-0.1,0.1-0.1,0.2-0.2,0.3c0,0.1,0,0.1-0.1,0.1c0,0,0,0,0-0.1c0-0.1,0.3-0.8,0.3-0.9c0,0,0.1-0.2,0.1-0.2c0,0,0.1,0.1,0.3,0.1
						c0.2,0,0.5,0,0.5,0c1,0,1.5,0,2.6,0c0.2,0,0.4,0,0.5,0c0.1,0,0.2,0,0.2,0c0,0,0,0,0,0.1c-0.1,0.3-0.2,0.8-0.2,0.9
						c0,0.1,0,0.1-0.1,0.1s0,0,0-0.1c0,0,0,0,0-0.1c0-0.3-0.1-0.4-0.7-0.4c-0.3,0-0.5,0-0.9,0C66.2,55.5,66.1,56.2,65.8,57.5z"/>
					<path fill="#e79299" d="M73.1,53.6c1.5,0,2.4,1.2,2,3.1c-0.4,1.9-1.8,3.4-3.4,3.4c-1.8,0-2.2-1.8-1.9-3.3
						C70,55.5,71.2,53.6,73.1,53.6z M71.9,59.7c0.6,0,1.9-0.4,2.4-2.8c0.4-2-0.3-3-1.4-3c-1.1,0-2.1,0.9-2.5,2.7
						C70.1,58.5,70.7,59.7,71.9,59.7z"/>
				</g>
			</g>
			<g>
				<path fill="#e79299" d="M23.2,66.9c0-0.2,0-0.3,0-0.5c-0.1-1.4-0.9-2.6-2.2-2.6c-1,0-2.4,0.8-2.3,2.5c0.1,1,0.8,0.8,0.8,1.1
					c0,0.1-0.1,0.3-0.5,0.2c-0.6,0-1.1-0.5-1.2-1.3c-0.1-1.8,1.6-2.9,3.3-2.8c1.7,0.1,3,1.3,3.1,3.2c0,0.2,0,0.4,0,0.6
					c-0.2,3-2.2,5-4.2,4.9c-1.3-0.1-2-0.7-2-1.4c-0.1-0.8,0.8-1.2,1.5-1.2c0.4-1.8,0.6-2.6,1.1-4.4c0.1-0.4,0.4-0.6,0.7-0.6
					c0.1,0,0.2,0.1,0.2,0.2c0,0,0,0.1,0,0.2c-0.5,1.9-0.7,2.9-1.2,4.8c0.4,0.2,0.6,0.6,0.6,0.8s-0.1,0.5-0.3,0.5
					c-0.1,0-0.2-0.1-0.2-0.2c0-0.2-0.1-0.3-0.3-0.5c0,0.1,0,0.1,0,0.1c-0.1,0.4-0.4,0.6-0.7,0.6c-0.1,0-0.2-0.1-0.2-0.2
					c0,0,0-0.1,0-0.2c0.1-0.3,0.1-0.4,0.1-0.6c-0.2,0-0.6,0.2-0.6,0.7c0,0.5,0.5,0.9,1.5,1C21.8,71.6,23,69.7,23.2,66.9z"/>
				<path fill="#e79299" d="M24.8,69.1c0-0.1-0.4-0.5-0.4-0.9c0-0.8,0.5-1.3,0.9-1.2c0.3,0,0.5,0.3,0.5,0.6c0,0.3-0.3,0.9-0.3,1
					c0,0.1,0.6,0.1,0.8,0.1c0.1,0,0.3,0.2,0.3,0.4c0,0.1,0,0.2-0.1,0.2c-0.1,0.1-0.7,0.8-0.7,1.3c0,0.2,0.1,0.3,0.2,0.3
					c0.3,0,0.7-0.4,1.1-0.9c0-0.1,0.1-0.1,0.2-0.1s0.1,0,0.1,0.1c0,0.1,0,0.2-0.1,0.3c-0.6,0.9-1.1,1.2-1.5,1.1
					c-0.4,0-0.7-0.5-0.7-0.8c0-0.3,0.6-1.2,0.6-1.2c0,0-0.6-0.2-0.6-0.2c-0.1,0-0.4,0.7-0.6,0.9c-0.1,0.1-0.1,0.1-0.2,0.1
					c-0.1,0-0.1,0-0.1-0.1c0-0.1,0-0.2,0.1-0.3C24.4,69.6,24.8,69.2,24.8,69.1z M25.1,68.3c0,0,0.1-0.4,0.1-0.6
					c0-0.2-0.1-0.3-0.1-0.3c-0.1,0-0.2,0.2-0.2,0.4C24.9,68,25.1,68.3,25.1,68.3z"/>
				<path fill="#e79299" d="M29.8,70c0.1,0,0.1,0,0.1,0.1s0,0.2-0.1,0.3c-0.5,0.7-1.2,1.2-1.9,1.1c-0.7,0-1.2-0.6-1.2-1.4
					c0-1.1,0.7-2.4,1.9-2.3c0.5,0,0.8,0.4,0.8,0.8c0,0.7-0.8,1.5-1.5,1.8c0,0-0.1,0-0.1,0c-0.1,0-0.1-0.1-0.2-0.2
					c0-0.1,0-0.2,0.1-0.3c0.6-0.6,0.9-1.1,0.9-1.5c0-0.2-0.1-0.4-0.2-0.4c-0.4,0-0.9,0.9-0.9,1.8c0,0.6,0.3,0.9,0.8,0.9
					c0.4,0,1-0.3,1.5-0.9C29.6,70,29.7,70,29.8,70z"/>
				<path fill="#e79299" d="M31.3,71.8c-0.3,0-0.5-0.5-0.5-0.5c0,0-0.5,0.5-0.8,0.5c-0.5,0-0.9-0.5-0.9-1.2c0-1.1,1-2.6,2.2-2.5
					c0.5,0,0.9,0.3,0.9,0.8c0,0.6-0.5,0.7-0.6,0.7c-0.1,0-0.4-0.1-0.4-0.2c0-0.2,0.3-0.1,0.3-0.5c0-0.3-0.2-0.4-0.4-0.4
					c-0.8,0-1.3,1.2-1.3,2c0,0.4,0.1,0.7,0.4,0.7c0.2,0,0.6-0.3,0.7-0.9c0.1-0.4,0.4-0.6,0.6-0.6c0.1,0,0.2,0.1,0.2,0.2
					c0,0.1,0,0.1,0,0.2c0,0.2-0.3,0.9-0.3,1c0,0.1,0,0.1,0.1,0.1c0.2,0,0.6-0.3,1.1-1c0-0.1,0.1-0.1,0.2-0.1c0.1,0,0.1,0,0.1,0.1
					s0,0.2-0.1,0.3C32.2,71.4,31.6,71.8,31.3,71.8z"/>
				<path fill="#e79299" d="M32.9,71.3c-0.1,0.4-0.4,0.6-0.7,0.6c-0.1,0-0.2-0.1-0.2-0.2c0-0.1,0-0.1,0-0.2c0.3-0.9,0.4-1.4,0.7-2.3
					c0-0.1,0-0.1,0-0.2c0,0,0,0,0,0c0,0-0.1,0-0.1,0c-0.1,0-0.1,0-0.1-0.1c0-0.2,0.5-0.7,1-0.7c0.1,0,0.2,0.1,0.2,0.2
					c0,0,0,0.1,0,0.2c-0.1,0.3-0.1,0.4-0.2,0.7c0.5-0.6,1.1-1.1,1.5-1.1c0.2,0,0.3,0.1,0.3,0.4c0,0.1,0,0.3-0.1,0.5
					c0,0.1-0.1,0.2-0.1,0.3c0.5-0.7,1.2-1.2,1.6-1.1c0.2,0,0.3,0.1,0.3,0.3c0,0.1-0.1,0.4-0.2,0.6c-0.2,0.5-0.5,1.2-0.7,1.9
					c0,0.1,0,0.2,0,0.2c0,0.1,0,0.2,0.1,0.2c0.2,0,0.6-0.3,1.1-1c0.1-0.1,0.1-0.1,0.2-0.1c0.1,0,0.1,0,0.1,0.2
					c0,0.1-0.1,0.2-0.2,0.3c-0.6,0.8-1.2,1.2-1.5,1.2c-0.4,0-0.5-0.3-0.5-0.7c0-0.1,0-0.3,0.1-0.5c0.3-0.9,0.6-1.5,0.6-1.7
					c0,0,0-0.1,0-0.1c-0.2,0-1.1,1-1.3,1.7c-0.1,0.2-0.1,0.3-0.2,0.5C34.3,71.7,34,72,33.8,72c-0.1,0-0.2-0.1-0.2-0.2
					c0-0.1,0-0.1,0-0.2c0.3-0.9,0.4-1.4,0.7-2.4c0,0,0-0.1,0-0.1c0,0,0-0.1-0.1-0.1c-0.2,0-1.1,1-1.3,1.7C33,70.9,32.9,71,32.9,71.3
					z"/>
				<path fill="#e79299" d="M37.7,69.5c0-0.1-0.2-0.5-0.2-0.7c0-0.8,0.8-1.4,1.2-1.4c0.2,0,0.3,0.1,0.3,0.4c0,0.4-0.6,1.1-0.6,1.3
					c0,0.3,0.6,1,0.6,1.6c0,0.1,0,0.3,0,0.3c0,0,0.4-0.1,0.7-0.5c0-0.1,0.1-0.1,0.2-0.1s0.1,0,0.1,0.1c0,0.1,0,0.2-0.2,0.3
					c-0.4,0.6-0.7,0.7-1,0.7c0,0-0.1,0-0.1,0c-0.3,0.4-0.7,0.5-1.1,0.5c-0.4,0-0.7-0.3-0.7-0.6c0-0.3,0.4-0.6,1.1-0.6
					c0.1,0,0.3,0.1,0.4,0.1c0.1-0.1-0.2-0.8-0.5-1.1c-0.3,0.4-0.5,0.6-0.8,1c0,0.1-0.1,0.1-0.2,0.1c-0.1,0-0.1,0-0.1-0.2
					c0-0.1,0-0.2,0.2-0.3C37.2,70.2,37.7,69.7,37.7,69.5z M38.2,71.5c0,0-0.3-0.1-0.5-0.1c-0.2,0-0.3,0.1-0.3,0.2
					c0,0.1,0.1,0.2,0.2,0.3C37.9,71.8,38.2,71.5,38.2,71.5z M38.2,68.8c0,0,0.3-0.5,0.3-0.7c0-0.1,0-0.1-0.1-0.2
					c-0.1,0-0.3,0.2-0.3,0.4C38.1,68.5,38.2,68.8,38.2,68.8z"/>
				<path fill="#e79299" d="M43.7,69.9c0,0.4-0.5,1.3-0.5,1.3c0,0,0.1,0,0.2,0c0.3,0,0.5-0.1,0.8-0.4c0-0.1,0.1-0.1,0.2-0.1
					c0.1,0,0.1,0.1,0.1,0.1c0,0.1-0.1,0.2-0.2,0.4c-0.3,0.4-0.7,0.6-1.1,0.6c-0.1,0-0.3-0.1-0.3-0.1c-0.3,0-0.9,0.6-1.3,0.6
					c-0.6,0-0.9-0.7-0.9-1.4c0-0.5,0.3-1.1,0.6-1.6c0.3-0.3,0.5-0.6,0.6-0.6s0.1,0.1,0.1,0.2c0,0,0,0.1,0,0.1
					c-0.3,0.3-0.5,0.9-0.6,1.5c0,0.7,0.2,1.2,0.5,1.2c0.2,0,0.6-0.2,0.6-0.3c0-0.1-0.6-0.9-0.6-1.6c0-0.6,0.4-1.4,1-1.4
					c0.2,0,0.4,0.1,0.5,0.3C43.6,69.1,43.7,69.5,43.7,69.9z M42.3,69.8c0,0.5,0.5,1.3,0.5,1.3c0,0,0.2-0.5,0.2-0.8c0-0.5,0-1-0.3-1
					C42.4,69.2,42.3,69.5,42.3,69.8z"/>
				<path fill="#e79299" d="M46,71.9c0,0.1,0,0.2,0.1,0.2c0.2,0,0.6-0.4,1.1-1c0.1-0.1,0.1-0.1,0.2-0.1c0.1,0,0.1,0.1,0.1,0.2
					c0,0.1-0.1,0.2-0.2,0.3c-0.6,0.8-1.3,1.2-1.6,1.2c-0.4,0-0.5-0.3-0.5-0.8c0-0.1,0-0.3,0.1-0.5c0.3-1,0.7-1.5,0.7-1.7
					c0-0.1,0-0.1,0-0.1c-0.2,0-1.3,1-1.5,1.8c-0.1,0.2-0.1,0.3-0.2,0.6c-0.1,0.4-0.5,0.6-0.7,0.6c-0.1,0-0.2-0.1-0.2-0.2
					c0,0,0-0.1,0-0.2c0.3-1,0.5-1.4,0.9-2.4c0-0.1,0.1-0.1,0.1-0.2c0,0,0,0,0,0c0,0-0.1,0-0.1,0c-0.1,0-0.1,0-0.1-0.1
					c0-0.2,0.6-0.7,1.1-0.7c0.1,0,0.2,0.1,0.2,0.2c0,0,0,0.1-0.1,0.2c-0.1,0.3-0.2,0.5-0.3,0.9c0.6-0.7,1.4-1.3,1.8-1.2
					c0.2,0,0.3,0.1,0.3,0.4c0,0.1-0.1,0.3-0.2,0.6c-0.2,0.5-0.6,1.3-0.8,1.9C46.1,71.7,46,71.8,46,71.9z"/>
				<path fill="#e79299" d="M47.3,76.5c-0.1,0.4-0.5,0.7-0.7,0.6c-0.1,0-0.2-0.1-0.1-0.2c0-0.1,0-0.1,0-0.2c1-2.7,1.5-4.1,2.6-6.8
					c0-0.1,0.1-0.1,0.1-0.2c0,0,0-0.1,0-0.1c0,0-0.1,0-0.1,0c-0.1,0-0.1,0-0.1-0.1c0-0.2,0.6-0.7,1.1-0.7c0.1,0,0.2,0.1,0.2,0.2
					c0,0.1,0,0.1-0.1,0.2c-0.1,0.2-0.1,0.3-0.2,0.5c0.5-0.6,0.9-0.8,1.3-0.8c0.5,0,0.7,0.7,0.6,1.2c-0.1,0.5-0.3,1.1-0.6,1.5
					c0,0,0.1,0,0.1,0c0.4,0,0.5-0.2,0.8-0.4c0.1-0.1,0.1-0.1,0.2-0.1s0.1,0,0.1,0.1c0,0.1-0.1,0.2-0.2,0.4c-0.4,0.5-0.7,0.6-1,0.6
					c-0.1,0-0.3-0.1-0.4-0.1c-0.3,0.1-1,0.7-1.3,0.7c-0.3,0-0.5-0.2-0.4-0.6c0-0.3,0.3-0.9,1-0.9c0.2,0,0.5,0.1,0.5,0.1
					c0.1,0,0.3-0.8,0.3-1.1c0.1-0.5,0-0.8-0.3-0.8c-0.4,0-1.1,1-1.4,1.8C48.4,73.5,48,74.5,47.3,76.5z M49.7,72.2
					c0,0.1,0,0.2,0.2,0.3c0.2,0,0.6-0.4,0.6-0.5c0,0-0.3-0.1-0.4-0.1C49.8,71.8,49.7,72,49.7,72.2z"/>
				<path fill="#e79299" d="M53.5,73.1c-0.3,0-0.4-0.6-0.4-0.6c0,0-0.6,0.5-0.9,0.5c-0.5,0-0.8-0.6-0.7-1.3c0.1-1.2,1.3-2.8,2.5-2.7
					c0.5,0,0.9,0.3,0.8,0.9c-0.1,0.7-0.6,0.8-0.7,0.8c-0.1,0-0.4-0.1-0.3-0.3c0-0.2,0.3-0.1,0.4-0.5c0-0.3-0.2-0.4-0.4-0.4
					c-0.8,0-1.5,1.3-1.6,2.1c0,0.4,0,0.8,0.3,0.8c0.2,0,0.6-0.4,0.9-1c0.2-0.4,0.5-0.7,0.7-0.6c0.1,0,0.2,0.1,0.2,0.2
					c0,0,0,0.1-0.1,0.2c-0.1,0.2-0.4,1-0.4,1.1c0,0.1,0,0.1,0.1,0.1c0.2,0,0.6-0.3,1.2-1.1c0-0.1,0.1-0.1,0.2-0.1
					c0.1,0,0.1,0,0.1,0.1c0,0.1-0.1,0.2-0.2,0.4C54.5,72.7,53.8,73.1,53.5,73.1z"/>
				<path fill="#e79299" d="M53.4,76.9c-0.2,0.4-0.5,0.7-0.7,0.6c-0.1,0-0.2-0.1-0.1-0.2c0,0,0-0.1,0.1-0.2c1.1-2.8,1.7-4.2,2.8-6.9
					c0-0.1,0.1-0.1,0.1-0.2c0,0,0,0,0,0c0,0-0.1,0-0.1,0c0,0-0.1-0.1-0.1-0.1c0-0.2,0.6-0.7,1.1-0.7c0.1,0,0.2,0.1,0.2,0.2
					c0,0.1,0,0.1-0.1,0.2c-0.1,0.2-0.1,0.3-0.2,0.5c0.5-0.6,0.9-0.9,1.3-0.8c0.5,0,0.7,0.7,0.6,1.3C58,71,57.7,71.6,57.4,72
					c0,0,0.1,0,0.1,0c0.4,0,0.5-0.2,0.8-0.4c0-0.1,0.1-0.1,0.2-0.1c0.1,0,0.1,0,0.1,0.1c0,0.1-0.1,0.2-0.2,0.4
					c-0.4,0.5-0.7,0.6-1,0.6c-0.1,0-0.3-0.1-0.4-0.1c-0.3,0.1-1,0.7-1.3,0.7c-0.3,0-0.5-0.2-0.4-0.6c0-0.3,0.3-0.9,1-0.9
					c0.1,0,0.5,0.1,0.5,0.1c0.1,0,0.3-0.8,0.3-1.1c0.1-0.5,0-0.8-0.3-0.8c-0.4,0-1.2,1-1.5,1.9C54.6,73.8,54.2,74.9,53.4,76.9z
					 M55.9,72.5c0,0.1,0,0.3,0.2,0.3c0.2,0,0.6-0.4,0.6-0.5c0,0-0.3-0.1-0.4-0.1C56.1,72.1,56,72.3,55.9,72.5z"/>
				<path fill="#e79299" d="M61,71.6c0.1,0,0.1,0,0.1,0.1c0,0.1-0.1,0.2-0.2,0.4c-0.6,0.8-1.5,1.3-2.2,1.2c-0.7,0-1.1-0.6-0.9-1.5
					c0.2-1.3,1.2-2.6,2.4-2.6c0.5,0,0.7,0.5,0.6,0.9c-0.1,0.7-1.1,1.6-1.8,2c0,0-0.1,0-0.1,0c-0.1,0-0.1-0.1-0.1-0.2
					c0-0.1,0.1-0.2,0.2-0.3c0.8-0.6,1.1-1.3,1.1-1.6c0-0.3,0-0.4-0.2-0.4c-0.5,0-1.1,1-1.3,2c-0.1,0.6,0.2,1,0.6,1
					c0.4,0,1-0.3,1.6-1C60.9,71.7,61,71.6,61,71.6z"/>
				<path fill="#e79299" d="M61.3,70.9c0-0.1-0.3-0.5-0.3-1c0.2-0.9,0.8-1.4,1.2-1.4c0.3,0,0.4,0.3,0.3,0.6c-0.1,0.4-0.5,1-0.5,1.1
					c0,0.1,0.6,0.1,0.8,0.1c0.2,0,0.2,0.2,0.2,0.4c0,0.1-0.1,0.2-0.1,0.3c-0.2,0.2-0.9,0.9-1,1.5c0,0.2,0,0.3,0.1,0.3
					c0.3,0,0.8-0.4,1.4-1c0-0.1,0.1-0.1,0.2-0.1c0.1,0,0.1,0.1,0.1,0.2c0,0.1-0.1,0.2-0.2,0.4c-0.8,1-1.4,1.3-1.8,1.3
					c-0.4,0-0.6-0.5-0.5-0.9c0.1-0.3,0.8-1.3,0.8-1.3c0,0-0.5-0.2-0.6-0.2c-0.2,0-0.6,0.8-0.8,1c-0.1,0.1-0.1,0.1-0.2,0.1
					c-0.1,0-0.1-0.1-0.1-0.2c0-0.1,0.1-0.2,0.2-0.4C60.8,71.5,61.3,71,61.3,70.9z M61.8,70c0,0,0.2-0.4,0.3-0.6c0-0.3,0-0.4-0.1-0.4
					c-0.1,0-0.3,0.2-0.3,0.4C61.7,69.7,61.8,70,61.8,70z"/>
				<path fill="#e79299" d="M64.5,72.8c-0.1,0.4-0.6,0.9-1,0.9c-0.2,0-0.3-0.2-0.3-0.5c0.1-0.4,0.5-0.9,1-0.9
					C64.4,72.3,64.5,72.5,64.5,72.8z"/>
			</g>
		</g>
	</g>
</g>
</svg>
