<?xml version="1.0" encoding="utf-8"?>
<!-- Generator: Adobe Illustrator 12.0.0, SVG Export Plug-In . SVG Version: 6.00 Build 51448)  -->
<!DOCTYPE svg PUBLIC "-//W3C//DTD SVG 1.1//EN" "http://www.w3.org/Graphics/SVG/1.1/DTD/svg11.dtd" [
	<!ENTITY ns_svg "http://www.w3.org/2000/svg">
	<!ENTITY ns_xlink "http://www.w3.org/1999/xlink">
]>
<svg  version="1.1" id="Capa_1" xmlns="&ns_svg;" xmlns:xlink="&ns_xlink;" width="490.434" height="490.433"
	 viewBox="0 0 490.434 490.433" overflow="visible" enable-background="new 0 0 490.434 490.433" xml:space="preserve">
<g>
	<path fill="#FFFFFF" d="M472.003,58.36L458.87,47.078c-21.798-18.732-54.554-16.644-73.799,4.697L165.39,295.359l-66.312-57.112
		c-21.775-18.753-54.536-16.707-73.805,4.611l-11.61,12.849c-9.416,10.412-14.306,24.148-13.596,38.18
		c0.718,14.023,6.974,27.188,17.402,36.6l121.553,111.311c10.524,9.883,24.628,15.037,39.044,14.273s27.895-7.387,37.312-18.33
		L477.623,133.03c9.161-10.646,13.717-24.494,12.66-38.496C489.229,80.522,482.655,67.512,472.003,58.36z"/>
</g>
</svg>
