<?xml version="1.0" encoding="utf-8"?>
<!-- Generator: Adobe Illustrator 12.0.0, SVG Export Plug-In  -->
<!DOCTYPE svg PUBLIC "-//W3C//DTD SVG 1.1//EN" "http://www.w3.org/Graphics/SVG/1.1/DTD/svg11.dtd" [
	<!ENTITY ns_flows "http://ns.adobe.com/Flows/1.0/">
	<!ENTITY ns_svg "http://www.w3.org/2000/svg">
	<!ENTITY ns_xlink "http://www.w3.org/1999/xlink">
]>
<svg  version="1.1" xmlns="&ns_svg;" xmlns:xlink="&ns_xlink;" xmlns:a="http://ns.adobe.com/AdobeSVGViewerExtensions/3.0/"
	 width="105" height="105" viewBox="-7.3 0 105 105" enable-background="new -7.3 0 105 105" xml:space="preserve">
<defs>
</defs>
<path fill="#FFFFFF" d="M83.13,20.77c-0.64-5.94-5.62-10.59-11.71-10.59H40.89L17.35,0.7C16.2,0.24,15.06,0,13.97,0
	c-4.1,0-6.86,3.2-6.86,7.99v4.43c-2.68,1.92-4.49,4.92-4.86,8.36C0.84,22.93,0,25.5,0,28.27v58.07C0,93.88,6.12,100,13.66,100h58.07
	c7.55,0,13.66-6.12,13.66-13.66V28.27C85.39,25.5,84.55,22.93,83.13,20.77z M8.82,11.42V7.99c0-3.82,2.02-6.28,5.15-6.28
	c0.87,0,1.79,0.2,2.74,0.57l19.61,7.9l4.24,1.71l1.29,0.52v1.19v1.01v73.3h-0.96l-23.53-9.48c-4.7-1.9-8.53-7.73-8.53-13V15.53
	v-0.12v-2.06L8.82,11.42L8.82,11.42z M49.78,14.61v7.97l3.32-2.79l3.32,2.79v-7.97V13.6h15c2.06,0,3.92,0.78,5.39,2
	c1.85,1.55,3.04,3.84,3.04,6.43v57.44c0,4.65-3.78,8.43-8.43,8.43H43.55v-73.3V13.6h6.23V14.61z M36.82,36.17L26.25,31.9v-1.74
	l10.57,4.26V36.17z M36.82,42.78l-10.57-4.26v-1.74l10.57,4.26V42.78z M36.82,49.46l-21.14-8.52v-1.74l21.14,8.52
	C36.82,47.73,36.82,49.46,36.82,49.46z M36.82,56.08l-21.14-8.52v-1.74l21.14,8.52C36.82,54.34,36.82,56.08,36.82,56.08z
	 M36.82,62.75l-21.14-8.52V52.5l21.14,8.52V62.75z M17.49,35.5l0.55-1.69l3.18,1.28l0.57,2.14l0.93,0.37l0.93,0.37l-2.97-10.59
	l-1.01-0.41l-1.01-0.41l-2.97,8.19l0.91,0.36L17.49,35.5z M19.64,29.07L19.64,29.07L19.64,29.07L19.64,29.07l1.11,4.21l-2.22-0.9
	L19.64,29.07z"/>
<path fill="#FFFFFF" d="M68.58,53.19H52.4V52h16.18V53.19z M68.58,57.76H52.4v-1.19h16.18V57.76z M52.54,41.44h0.63h1.89
	c0.68,0,1.21,0.16,1.56,0.48c0.36,0.32,0.53,0.79,0.53,1.4c0,0.65-0.18,1.14-0.53,1.48c-0.36,0.34-0.88,0.5-1.56,0.5
	c-0.49,0-0.91,0-1.26,0.01v2.14h-0.63h-0.63V41.44z M53.8,44.27h1.04c0.35,0,0.62-0.08,0.79-0.24c0.17-0.15,0.27-0.39,0.27-0.7
	c0-0.29-0.09-0.5-0.27-0.64c-0.18-0.14-0.44-0.22-0.79-0.22H53.8V44.27z M58.13,41.44h0.63h1.95c0.82,0,1.45,0.24,1.88,0.73
	c0.43,0.48,0.65,1.2,0.65,2.13c0,1.03-0.22,1.81-0.67,2.35c-0.44,0.54-1.1,0.8-1.96,0.8h-1.85h-0.63V41.44z M59.38,46.42h1.06
	c0.51,0,0.89-0.17,1.15-0.52c0.25-0.34,0.38-0.86,0.38-1.55c0-0.62-0.12-1.09-0.35-1.4c-0.24-0.31-0.59-0.47-1.07-0.47h-1.16
	L59.38,46.42L59.38,46.42z M64.17,47.45v-6.01h4.28v0.53v0.53h-3.02v1.37h2.63v0.52v0.52h-2.63v2.54H64.8L64.17,47.45L64.17,47.45
	L64.17,47.45z"/>
</svg>
