<?xml version="1.0" encoding="utf-8"?>
<!-- Generator: Adobe Illustrator 16.0.0, SVG Export Plug-In . SVG Version: 6.00 Build 0)  -->
<!DOCTYPE svg PUBLIC "-//W3C//DTD SVG 1.1//EN" "http://www.w3.org/Graphics/SVG/1.1/DTD/svg11.dtd">
<svg version="1.1" id="Layer_1" xmlns="http://www.w3.org/2000/svg" xmlns:xlink="http://www.w3.org/1999/xlink" x="0px" y="0px"
	 width="6.2px" height="6.2px" viewBox="0 0 6.2 6.2" enable-background="new 0 0 6.2 6.2" xml:space="preserve">
<g>
	<path id="Facebook__x28_alt_x29__1_" fill="#010202" d="M6.2,1c0-0.5-0.5-1-1-1H1C0.5,0,0,0.5,0,1v4.1c0,0.5,0.5,1,1,1h2.1V3.9H2.3
		v-1h0.8V2.4c0-0.7,0.5-1.3,1.2-1.3h0.8v1H4.3c-0.1,0-0.2,0.1-0.2,0.3v0.4h1v1h-1v2.3h1.1c0.5,0,1-0.5,1-1V1z"/>
</g>
</svg>
