<?xml version="1.0" encoding="utf-8"?>
<!-- Generator: Adobe Illustrator 12.0.0, SVG Export Plug-In  -->
<!DOCTYPE svg PUBLIC "-//W3C//DTD SVG 1.1//EN" "http://www.w3.org/Graphics/SVG/1.1/DTD/svg11.dtd" [
	<!ENTITY ns_flows "http://ns.adobe.com/Flows/1.0/">
	<!ENTITY ns_svg "http://www.w3.org/2000/svg">
	<!ENTITY ns_xlink "http://www.w3.org/1999/xlink">
]>
<svg  version="1.1" xmlns="&ns_svg;" xmlns:xlink="&ns_xlink;" xmlns:a="http://ns.adobe.com/AdobeSVGViewerExtensions/3.0/"
	 width="297" height="15" viewBox="0 -0.295 297 15" enable-background="new 0 -0.295 297 15" xml:space="preserve">
<defs>
</defs>
<line fill="none" stroke="#707173" stroke-width="0.8173" x1="0" y1="6.449" x2="118.795" y2="6.449"/>
<line fill="none" stroke="#707173" stroke-width="0.8173" x1="174.285" y1="7.904" x2="296.206" y2="7.904"/>
<path fill="#000100" d="M145.368,10.556h0.073c0.697-2.407,3.122-3.188,4.44-3.188c1.396,0,3.525,0.496,4.332,0.78
	c0.734,0.282,1.395,0.425,1.762,0.425c1.029,0,1.909-0.709,1.909-2.055c0-1.275-0.954-1.984-1.981-1.984
	c-0.662,0-0.955,0.426-1.102,0.778c0.735-0.069,0.881,0.426,0.881,0.78c0,0.354-0.222,0.78-0.809,0.78c-0.66,0-1.1-0.426-1.1-1.204
	c0-0.779,0.807-1.843,2.129-1.843c1.321,0,2.643,0.78,2.643,2.693c0,1.983-1.469,2.693-2.643,2.693
	c-0.366,0-1.029-0.214-1.617-0.427l-0.072,0.072c3.524,3.541,4.771,4.816,6.68,4.816c1.175,0,2.13-0.709,2.13-1.983
	c0-1.417-1.028-1.488-1.396-1.488c-0.219,0-0.439,0.142-0.514,0.354c0.074,0.071,0.441,0.142,0.441,0.709
	c0,0.565-0.441,0.779-0.88,0.779c-0.442,0-1.029-0.354-1.029-1.205c0-0.779,0.734-1.488,1.614-1.488
	c2.203,0,2.496,1.631,2.496,2.339c0,0.566-0.367,2.621-2.936,2.621c-2.716,0-4.846-2.976-6.607-4.605l-0.073,0.071
	c0.294,0.566,0.367,1.133,0.367,1.771c0,0.637-0.44,2.692-2.569,2.692c-1.762,0-2.424-1.348-2.424-2.056
	c0-0.92,0.662-1.983,1.763-1.983c0.956,0,1.323,0.638,1.323,1.063c0,0.496-0.221,0.991-0.734,0.991
	c-0.516,0-0.734-0.354-0.734-0.851c-0.076-0.07,0-0.283,0-0.424c-0.294,0-0.955,0.212-0.955,1.203c0,0.852,0.807,1.488,1.689,1.488
	c0.953,0,1.981-0.495,1.981-2.195c0-1.631-0.734-3.4-3.966-3.4c-1.027,0-3.889,0.707-3.889,3.824c0,1.559,0.807,1.913,1.393,1.913
	c0.515,0,0.956-0.282,0.956-0.778c0-0.354-0.221-0.639-0.513-0.709c0,0.285-0.222,0.565-0.443,0.565
	c-0.292,0-0.514-0.353-0.514-0.637c0-0.282,0.222-0.708,0.808-0.708c0.44,0,1.25,0.354,1.25,1.275c0,1.133-0.81,1.487-1.544,1.487
	c-0.881,0-1.688-0.496-1.944-1.629h-0.073c-0.258,1.133-1.065,1.629-2.02,1.629c-0.66,0-1.469-0.354-1.469-1.487
	c0-0.922,0.809-1.346,1.25-1.346c0.585,0,0.807,0.496,0.807,0.778c0,0.284-0.221,0.637-0.513,0.637c-0.294,0-0.442-0.28-0.442-0.565
	c-0.292,0.07-0.513,0.354-0.513,0.637c0,0.568,0.367,0.851,0.88,0.851c0.662,0,1.467-0.354,1.467-1.913
	c0-3.117-2.861-3.824-3.962-3.824c-3.157,0-3.892,1.77-3.892,3.328c0,1.772,1.027,2.268,1.981,2.268c0.882,0,1.69-0.637,1.69-1.488
	c0-0.991-0.735-1.203-1.028-1.203c0.073,0.141,0.073,0.283,0.073,0.424c0,0.496-0.219,0.851-0.734,0.851
	c-0.585,0-0.734-0.495-0.734-0.991c0-0.426,0.367-1.063,1.322-1.063c1.103,0,1.763,1.063,1.763,1.983
	c0,0.639-0.661,2.056-2.423,2.056c-2.13,0-2.569-2.056-2.569-2.692c0-0.639,0.073-1.205,0.294-1.771l-0.074-0.071
	c-1.763,1.63-3.818,4.605-6.606,4.605c-2.569,0-2.864-2.055-2.864-2.621c0-0.708,0.295-2.339,2.423-2.339
	c0.954,0,1.688,0.709,1.688,1.488c0,0.851-0.587,1.205-1.028,1.205c-0.44,0-0.879-0.283-0.879-0.779
	c0-0.567,0.293-0.638,0.439-0.709c-0.073-0.213-0.294-0.354-0.513-0.354c-0.367,0-1.396,0.071-1.396,1.488
	c0,1.274,0.956,1.983,2.13,1.983c1.909,0,3.154-1.275,6.606-4.816l-0.072-0.072c-0.515,0.213-1.175,0.427-1.617,0.427
	c-1.174,0-2.569-0.71-2.569-2.693c0-1.913,1.321-2.693,2.569-2.693c1.395,0,2.202,1.064,2.202,1.843
	c0,0.778-0.439,1.204-1.101,1.204c-0.587,0-0.809-0.426-0.809-0.78c0-0.354,0.148-0.849,0.881-0.78
	c-0.146-0.353-0.439-0.778-1.174-0.778c-0.953,0-1.908,0.709-1.908,1.984c0,1.346,0.881,2.055,1.908,2.055
	c0.367,0,1.027-0.143,1.763-0.425c0.806-0.284,2.935-0.853,4.258-0.853c1.393,0,3.816,0.853,4.55,3.26H145.368z M140.853,3.047
	c1.541,0,3.082,2.975,3.082,4.038c0,0.142,0,0.283-0.072,0.424c-0.294-0.495-0.882-1.203-1.762-1.629
	c-0.955-0.424-2.275-0.708-2.275-1.771C139.825,3.543,140.265,3.047,140.853,3.047z M146.799,2.338c0,0.92-0.807,2.833-0.956,3.613
	c-0.146,0.708-0.44,2.691-0.44,2.691s-0.293-1.982-0.44-2.691c-0.148-0.78-1.028-2.763-1.028-3.613S144.156,0,145.403,0
	C146.651,0,146.799,1.488,146.799,2.338z M148.562,5.952c-0.883,0.354-1.469,1.063-1.763,1.557
	c-0.074-0.141-0.074-0.282-0.074-0.424c0-1.063,1.541-4.038,3.083-4.038c0.588,0,1.028,0.496,1.028,1.063
	C150.837,5.172,149.514,5.456,148.562,5.952z"/>
</svg>
