<?xml version="1.0" encoding="utf-8"?>
<!-- Generator: Adobe Illustrator 12.0.0, SVG Export Plug-In  -->
<!DOCTYPE svg PUBLIC "-//W3C//DTD SVG 1.1//EN" "http://www.w3.org/Graphics/SVG/1.1/DTD/svg11.dtd" [
	<!ENTITY ns_flows "http://ns.adobe.com/Flows/1.0/">
	<!ENTITY ns_svg "http://www.w3.org/2000/svg">
	<!ENTITY ns_xlink "http://www.w3.org/1999/xlink">
]>
<svg  version="1.1" xmlns="&ns_svg;" xmlns:xlink="&ns_xlink;" xmlns:a="http://ns.adobe.com/AdobeSVGViewerExtensions/3.0/"
	 width="37" height="16" viewBox="-0.05 -0.74 37 16" enable-background="new -0.05 -0.74 37 16" xml:space="preserve">
<defs>
</defs>
<path fill="#000100" d="M18.32,10.56h0.07c0.7-2.41,3.12-3.19,4.44-3.19c1.4,0,3.53,0.5,4.33,0.78c0.73,0.28,1.39,0.42,1.76,0.42
	c1.03,0,1.91-0.71,1.91-2.06c0-1.27-0.95-1.98-1.98-1.98c-0.66,0-0.96,0.43-1.1,0.78c0.74-0.07,0.88,0.43,0.88,0.78
	s-0.22,0.78-0.81,0.78c-0.66,0-1.1-0.43-1.1-1.2c0-0.78,0.81-1.84,2.13-1.84c1.32,0,2.64,0.78,2.64,2.69c0,1.98-1.47,2.69-2.64,2.69
	c-0.37,0-1.03-0.21-1.62-0.43l-0.07,0.07c3.52,3.54,4.77,4.82,6.68,4.82c1.18,0,2.13-0.71,2.13-1.98c0-1.42-1.03-1.49-1.4-1.49
	c-0.22,0-0.44,0.14-0.51,0.35c0.07,0.07,0.44,0.14,0.44,0.71c0,0.57-0.44,0.78-0.88,0.78c-0.44,0-1.03-0.35-1.03-1.21
	c0-0.78,0.73-1.49,1.61-1.49c2.2,0,2.5,1.63,2.5,2.34c0,0.57-0.37,2.62-2.94,2.62c-2.71,0-4.85-2.98-6.61-4.61l-0.07,0.07
	c0.29,0.57,0.37,1.13,0.37,1.77c0,0.64-0.44,2.69-2.57,2.69c-1.76,0-2.42-1.35-2.42-2.06c0-0.92,0.66-1.98,1.76-1.98
	c0.96,0,1.32,0.64,1.32,1.06c0,0.5-0.22,0.99-0.73,0.99c-0.52,0-0.73-0.35-0.73-0.85c-0.08-0.07,0-0.28,0-0.42
	c-0.29,0-0.96,0.21-0.96,1.2c0,0.85,0.81,1.49,1.69,1.49c0.95,0,1.98-0.5,1.98-2.2c0-1.63-0.73-3.4-3.97-3.4
	c-1.03,0-3.89,0.71-3.89,3.82c0,1.56,0.81,1.91,1.39,1.91c0.51,0,0.96-0.28,0.96-0.78c0-0.35-0.22-0.64-0.51-0.71
	c0,0.28-0.22,0.57-0.44,0.57c-0.29,0-0.51-0.35-0.51-0.64c0-0.28,0.22-0.71,0.81-0.71c0.44,0,1.25,0.35,1.25,1.28
	c0,1.13-0.81,1.49-1.54,1.49c-0.88,0-1.69-0.5-1.94-1.63h-0.07c-0.26,1.13-1.06,1.63-2.02,1.63c-0.66,0-1.47-0.35-1.47-1.49
	c0-0.92,0.81-1.35,1.25-1.35c0.58,0,0.81,0.5,0.81,0.78c0,0.28-0.22,0.64-0.51,0.64c-0.29,0-0.44-0.28-0.44-0.56
	c-0.29,0.07-0.51,0.35-0.51,0.64c0,0.57,0.37,0.85,0.88,0.85c0.66,0,1.47-0.35,1.47-1.91c0-3.12-2.86-3.82-3.96-3.82
	c-3.16,0-3.89,1.77-3.89,3.33c0,1.77,1.03,2.27,1.98,2.27c0.88,0,1.69-0.64,1.69-1.49c0-0.99-0.73-1.2-1.03-1.2
	c0.07,0.14,0.07,0.28,0.07,0.42c0,0.5-0.22,0.85-0.73,0.85c-0.58,0-0.73-0.5-0.73-0.99c0-0.43,0.37-1.06,1.32-1.06
	c1.1,0,1.76,1.06,1.76,1.98c0,0.64-0.66,2.06-2.42,2.06c-2.13,0-2.57-2.06-2.57-2.69c0-0.64,0.07-1.21,0.29-1.77L9.47,9.71
	c-1.76,1.63-3.82,4.6-6.61,4.6C0.3,14.31,0,12.26,0,11.69c0-0.71,0.3-2.34,2.42-2.34c0.95,0,1.69,0.71,1.69,1.49
	c0,0.85-0.59,1.21-1.03,1.21c-0.44,0-0.88-0.28-0.88-0.78c0-0.57,0.29-0.64,0.44-0.71c-0.07-0.21-0.29-0.35-0.51-0.35
	c-0.37,0-1.4,0.07-1.4,1.49c0,1.27,0.96,1.98,2.13,1.98c1.91,0,3.15-1.27,6.61-4.82L9.4,8.79C8.88,9,8.22,9.21,7.78,9.21
	c-1.17,0-2.57-0.71-2.57-2.69c0-1.91,1.32-2.69,2.57-2.69c1.4,0,2.2,1.06,2.2,1.84c0,0.78-0.44,1.2-1.1,1.2
	c-0.59,0-0.81-0.43-0.81-0.78c0-0.35,0.15-0.85,0.88-0.78C8.81,4.96,8.52,4.54,7.78,4.54c-0.95,0-1.91,0.71-1.91,1.98
	c0,1.35,0.88,2.06,1.91,2.06c0.37,0,1.03-0.14,1.76-0.43c0.81-0.28,2.94-0.85,4.26-0.85c1.39,0,3.82,0.85,4.55,3.26H18.32z
	 M13.8,3.05c1.54,0,3.08,2.98,3.08,4.04c0,0.14,0,0.28-0.07,0.42c-0.29-0.5-0.88-1.2-1.76-1.63c-0.96-0.42-2.27-0.71-2.27-1.77
	C12.77,3.54,13.21,3.05,13.8,3.05z M19.75,2.34c0,0.92-0.81,2.83-0.96,3.61c-0.15,0.71-0.44,2.69-0.44,2.69s-0.29-1.98-0.44-2.69
	c-0.15-0.78-1.03-2.76-1.03-3.61S17.1,0,18.35,0C19.6,0,19.75,1.49,19.75,2.34z M21.51,5.95c-0.88,0.35-1.47,1.06-1.76,1.56
	c-0.07-0.14-0.07-0.28-0.07-0.42c0-1.06,1.54-4.04,3.08-4.04c0.59,0,1.03,0.5,1.03,1.06C23.79,5.17,22.46,5.46,21.51,5.95z"/>
</svg>
