<?xml version="1.0" encoding="utf-8"?>
<!-- Generator: Adobe Illustrator 16.0.0, SVG Export Plug-In . SVG Version: 6.00 Build 0)  -->
<!DOCTYPE svg PUBLIC "-//W3C//DTD SVG 1.1//EN" "http://www.w3.org/Graphics/SVG/1.1/DTD/svg11.dtd">
<svg version="1.1" id="Layer_1" xmlns="http://www.w3.org/2000/svg" xmlns:xlink="http://www.w3.org/1999/xlink" x="0px" y="0px"
	 width="6.3px" height="6.3px" viewBox="0 0 6.3 6.3" enable-background="new 0 0 6.3 6.3" xml:space="preserve">
<g>
	<g>
		<g>
			<path fill="#010202" d="M0.2,5.7L0.4,6l0,0C0.6,6,0.7,6.1,0.8,6.2C1,6.2,1.1,6.3,1.2,6.3c0.1,0,1.5,0.1,3.4-1.7
				c1.3-1.3,1.8-2.3,1.7-3.4c0-0.1,0-0.3-0.1-0.4C6.1,0.7,6,0.6,5.9,0.4l0,0L5.7,0.2C5.5,0,5.2-0.1,5,0.1l-1,1
				C3.8,1.3,3.8,1.6,4,1.8L4.2,2l0.3,0.3c0,0,0,0.1-0.1,0.1C4.3,2.7,4,3.1,3.6,3.6C3.1,4,2.7,4.3,2.4,4.4c0,0-0.1,0-0.1,0.1L1.8,4
				C1.6,3.8,1.3,3.8,1.1,4l-1,1C-0.1,5.2,0,5.5,0.2,5.7z"/>
		</g>
	</g>
</g>
</svg>
