<?xml version="1.0" encoding="utf-8"?>
<!-- Generator: Adobe Illustrator 12.0.0, SVG Export Plug-In . SVG Version: 6.00 Build 51448)  -->
<!DOCTYPE svg PUBLIC "-//W3C//DTD SVG 1.1//EN" "http://www.w3.org/Graphics/SVG/1.1/DTD/svg11.dtd" [
	<!ENTITY ns_svg "http://www.w3.org/2000/svg">
	<!ENTITY ns_xlink "http://www.w3.org/1999/xlink">
]>
<svg  version="1.1" id="Capa_1" xmlns="&ns_svg;" xmlns:xlink="&ns_xlink;" width="100" height="91.415"
	 viewBox="0 4.292 100 91.415" overflow="visible" enable-background="new 0 4.292 100 91.415" xml:space="preserve">
<g>
	<g>
		<path d="M49.998,68.532c-2.795,0-5.139,2.343-5.139,5.139s2.344,5.139,5.139,5.139c2.693,0,5.14-2.343,5.017-5.016
			C55.138,70.854,52.815,68.532,49.998,68.532z"/>
		<path d="M97.567,86.745c3.228-5.571,3.248-12.211,0.041-17.761L65.416,13.235c-3.187-5.612-8.942-8.942-15.397-8.942
			c-6.454,0-12.21,3.351-15.396,8.922L2.39,69.025c-3.207,5.612-3.187,12.292,0.062,17.863c3.207,5.509,8.942,8.819,15.355,8.819
			h64.301C88.542,95.708,94.319,92.357,97.567,86.745z M90.577,82.716c-1.788,3.083-4.954,4.913-8.49,4.913H17.786
			c-3.494,0-6.64-1.789-8.387-4.811c-1.768-3.063-1.789-6.722-0.021-9.805l32.232-55.791c1.747-3.063,4.872-4.872,8.407-4.872
			c3.516,0,6.661,1.83,8.408,4.893l32.212,55.791C92.365,76.035,92.345,79.653,90.577,82.716z"/>
		<path d="M48.724,32.455c-2.446,0.699-3.967,2.919-3.967,5.612c0.123,1.624,0.226,3.269,0.349,4.893
			c0.35,6.188,0.699,12.251,1.049,18.439c0.123,2.097,1.747,3.618,3.844,3.618s3.741-1.624,3.845-3.741c0-1.274,0-2.446,0.123-3.741
			c0.227-3.968,0.473-7.935,0.699-11.902c0.123-2.569,0.35-5.139,0.473-7.708c0-0.925-0.123-1.748-0.473-2.57
			C53.616,33.051,51.17,31.879,48.724,32.455z"/>
	</g>
</g>
</svg>
