<?xml version="1.0" encoding="utf-8"?>
<!-- Generator: Adobe Illustrator 12.0.0, SVG Export Plug-In  -->
<!DOCTYPE svg PUBLIC "-//W3C//DTD SVG 1.1//EN" "http://www.w3.org/Graphics/SVG/1.1/DTD/svg11.dtd" [
	<!ENTITY ns_flows "http://ns.adobe.com/Flows/1.0/">
	<!ENTITY ns_svg "http://www.w3.org/2000/svg">
	<!ENTITY ns_xlink "http://www.w3.org/1999/xlink">
]>
<svg  version="1.1" xmlns="&ns_svg;" xmlns:xlink="&ns_xlink;" xmlns:a="http://ns.adobe.com/AdobeSVGViewerExtensions/3.0/"
	 width="101" height="93" viewBox="-0.57 -0.84 101 93" enable-background="new -0.57 -0.84 101 93" xml:space="preserve">
<defs>
</defs>
<path d="M50,64.24c-2.79,0-5.14,2.34-5.14,5.14s2.34,5.14,5.14,5.14c2.69,0,5.14-2.34,5.02-5.02C55.14,66.56,52.81,64.24,50,64.24z"
	/>
<path d="M97.57,82.45c3.23-5.57,3.25-12.21,0.04-17.76L65.42,8.94C62.23,3.33,56.47,0,50.02,0c-6.45,0-12.21,3.35-15.4,8.92
	L2.39,64.73C-0.82,70.34-0.8,77.03,2.45,82.6c3.21,5.51,8.94,8.82,15.36,8.82h64.3C88.54,91.41,94.32,88.06,97.57,82.45z
	 M90.58,78.42c-1.79,3.08-4.95,4.91-8.49,4.91h-64.3c-3.49,0-6.64-1.79-8.39-4.81c-1.77-3.06-1.79-6.72-0.02-9.8l32.23-55.79
	c1.75-3.06,4.87-4.87,8.41-4.87c3.52,0,6.66,1.83,8.41,4.89l32.21,55.79C92.37,71.74,92.35,75.36,90.58,78.42z"/>
<path d="M48.72,28.16c-2.45,0.7-3.97,2.92-3.97,5.61c0.12,1.62,0.23,3.27,0.35,4.89c0.35,6.19,0.7,12.25,1.05,18.44
	c0.12,2.1,1.75,3.62,3.84,3.62s3.74-1.62,3.84-3.74c0-1.27,0-2.45,0.12-3.74c0.23-3.97,0.47-7.94,0.7-11.9
	c0.12-2.57,0.35-5.14,0.47-7.71c0-0.93-0.12-1.75-0.47-2.57C53.62,28.76,51.17,27.59,48.72,28.16z"/>
<path d="M50,64.24c-2.79,0-5.14,2.34-5.14,5.14s2.34,5.14,5.14,5.14c2.69,0,5.14-2.34,5.02-5.02C55.14,66.56,52.81,64.24,50,64.24z"
	/>
<path d="M97.57,82.45c3.23-5.57,3.25-12.21,0.04-17.76L65.42,8.94C62.23,3.33,56.47,0,50.02,0c-6.45,0-12.21,3.35-15.4,8.92
	L2.39,64.73C-0.82,70.34-0.8,77.03,2.45,82.6c3.21,5.51,8.94,8.82,15.36,8.82h64.3C88.54,91.41,94.32,88.06,97.57,82.45z
	 M90.58,78.42c-1.79,3.08-4.95,4.91-8.49,4.91h-64.3c-3.49,0-6.64-1.79-8.39-4.81c-1.77-3.06-1.79-6.72-0.02-9.8l32.23-55.79
	c1.75-3.06,4.87-4.87,8.41-4.87c3.52,0,6.66,1.83,8.41,4.89l32.21,55.79C92.37,71.74,92.35,75.36,90.58,78.42z"/>
<path d="M48.72,28.16c-2.45,0.7-3.97,2.92-3.97,5.61c0.12,1.62,0.23,3.27,0.35,4.89c0.35,6.19,0.7,12.25,1.05,18.44
	c0.12,2.1,1.75,3.62,3.84,3.62s3.74-1.62,3.84-3.74c0-1.27,0-2.45,0.12-3.74c0.23-3.97,0.47-7.94,0.7-11.9
	c0.12-2.57,0.35-5.14,0.47-7.71c0-0.93-0.12-1.75-0.47-2.57C53.62,28.76,51.17,27.59,48.72,28.16z"/>
</svg>
